<?xml version="1.0" encoding="UTF-8"?><svg id="_2F" xmlns="http://www.w3.org/2000/svg" viewBox="0 0 644.25 1081"><defs><style>.cls-1{fill:#fff1c2;}.cls-2{fill:#f5f5f5;}.cls-3{fill:#e8b931;}.cls-4{fill:none;stroke:#5a5a5a;stroke-linecap:square;stroke-miterlimit:10;stroke-width:2px;}.cls-5{fill:#b3b3b3;}</style></defs><g><rect class="cls-5" x="144.67" y="883.44" width="114.48" height="114.48"/><polygon class="cls-5" points="19.39 287.28 2.11 287.28 2.11 1062.72 1.03 1062.72 1.03 1080 2.11 1080 19.39 1080 144.67 1080 144.67 1062.72 19.39 1062.72 19.39 287.28"/><rect class="cls-5" x="362.83" y="883.44" width="88.56" height="114.48"/><polygon class="cls-5" points="211.63 278.64 155.47 278.64 155.47 287.28 211.63 287.28 211.63 339.12 155.47 339.12 155.47 779.76 451.39 779.76 451.39 339.12 453.55 339.12 453.55 278.64 211.63 278.64"/><rect class="cls-5" x="155.47" y="308.88" width="36.72" height="6.48"/><polygon class="cls-5" points="583.15 0 535.63 0 479.47 0 -.05 0 -.05 21.6 479.47 19.44 479.47 127.44 535.63 127.44 535.63 159.84 583.15 159.84 583.15 213.84 559.39 213.84 559.39 183.6 535.63 183.6 535.63 213.84 535.63 265.68 638.3 265.98 638.3 373 644.3 373 644.3 266 644.3 265 644.3 213.84 644.3 0 583.15 0"/><polygon class="cls-5" points="638.3 468 638.3 482 555.3 482 555.3 1081 644.3 1081 644.3 482 644.3 468 638.3 468"/></g><g><polygon class="cls-3" points="211.63 287.28 211.63 308.88 211.63 315.36 211.63 339.12 155.47 339.12 155.47 315.36 192.19 315.36 192.19 308.88 155.47 308.88 155.47 287.28 211.63 287.28"/><polygon class="cls-3" points="561.55 159.84 535.63 159.84 535.63 183.6 561.55 183.6 561.55 213.84 583.15 213.84 583.15 159.84 561.55 159.84"/><rect class="cls-3" x="477.31" y="403.92" width="58.32" height="32.4"/><rect class="cls-3" x="477.31" y="818.64" width="58.32" height="34.56"/><rect class="cls-3" x="259.15" y="779.76" width="103.68" height="73.44"/><rect class="cls-3" x="62.59" y="747.36" width="58.32" height="32.4"/></g><path class="cls-1" d="M644.29,373.68h-7.14v-108h-101.52V127.44h-56.16V21.6H-.05v21.6H464.35v213.84H155.47v-41.04H-.05v71.28H110.11v105.84h23.76v354.24h-12.96v272.16h54v-21.6h-30.24v-114.48H453.55v196.56h101.52v-25.92h-77.76V481.68h159.84v-15.12h7.14v-92.88Zm-190.74,30.24v449.28H144.67v-73.44h10.8V278.64H453.55v123.12h10.8v-123.12h162v159.84h-149.04v-34.56h-23.76Z"/><g><polygon class="cls-2" points="464.35 43.2 464.35 257.04 157.63 257.04 157.63 216 2.11 216 2.11 43.2 157.63 43.2 464.35 43.2"/><rect class="cls-2" x="535.63" y="818.64" width="19.44" height="34.56"/><rect class="cls-2" x="477.31" y="481.68" width="77.76" height="336.96"/><rect class="cls-2" x="21.55" y="747.36" width="41.04" height="34.56"/><polygon class="cls-2" points="133.87 393.12 107.95 393.12 107.95 287.28 21.55 287.28 21.55 747.36 133.87 747.36 133.87 393.12"/><rect class="cls-2" x="362.83" y="779.76" width="90.72" height="73.44"/><rect class="cls-2" x="144.67" y="779.76" width="114.48" height="73.44"/><rect class="cls-2" x="477.31" y="853.2" width="77.76" height="200.88"/><rect class="cls-2" x="362.83" y="997.92" width="88.56" height="82.08"/><rect class="cls-2" x="19.39" y="779.76" width="101.52" height="282.96"/><polygon class="cls-2" points="174.91 997.92 174.91 1019.52 144.67 1019.52 144.67 1080 259.15 1080 259.15 1019.52 259.15 997.92 174.91 997.92"/><rect class="cls-2" x="259.15" y="883.44" width="103.68" height="196.56"/><rect class="cls-2" x="120.91" y="1019.52" width="23.76" height="43.2"/><polygon class="cls-2" points="464.35 278.64 464.35 341.28 464.35 403.92 484.1 403.92 535.63 403.92 535.63 436.32 626.35 436.32 626.35 403.92 626.35 341.28 626.35 278.64 464.35 278.64"/></g><g><rect class="cls-4" x="144.9" y="780.77" width="113.6" height="72.04"/><rect class="cls-4" x="363.79" y="780.77" width="88.66" height="72.04"/><line class="cls-4" x1="258.5" y1="780.77" x2="363.79" y2="780.77"/><line class="cls-4" x1="338.85" y1="805.7" x2="338.85" y2="852.8"/><line class="cls-4" x1="283.44" y1="852.8" x2="283.44" y2="805.7"/><polygon class="cls-4" points="133.82 747.52 133.82 392.87 108.89 392.87 108.89 287.59 20.22 287.59 20.22 747.52 133.82 747.52"/><polyline class="cls-4" points="478.39 437.4 627 437.4 627 279.27 463.53 279.27 463.53 403.95"/><polygon class="cls-4" points="258.5 996.88 175.38 996.88 175.38 1019.05 144.9 1019.05 144.9 1080 258.5 1080 258.5 996.88"/><polyline class="cls-4" points="554.97 481.53 554.97 819.56 477.39 819.56 477.39 481.53"/><rect class="cls-4" x="477.39" y="852.8" width="77.58" height="58.18"/><rect class="cls-4" x="477.39" y="910.99" width="77.58" height="72.04"/><rect class="cls-4" x="477.39" y="983.03" width="77.58" height="72.04"/><rect class="cls-4" x="20.22" y="780.77" width="99.74" height="66.5"/><rect class="cls-4" x="20.22" y="847.26" width="99.74" height="66.5"/><rect class="cls-4" x="20.22" y="913.76" width="99.74" height="66.5"/><rect class="cls-4" x="20.22" y="980.26" width="99.74" height="83.12"/><polyline class="cls-4" points="535.57 160.13 535.57 126.89 480.16 126.89"/><polyline class="cls-4" points="480.16 126.89 480.16 63.16 480.16 20.52 463.53 20.52 .83 21.6"/><polygon class="cls-4" points="1.03 215.55 156.55 215.55 156.55 257.11 463.53 257.11 463.53 43.77 1.03 43.77 1.03 215.55"/><polyline class="cls-4" points="150.45 1080 .83 1080 .83 287.59"/><line class="cls-4" x1="534.55" y1="403.95" x2="465.43" y2="403.95"/><polyline class="cls-4" points="518.95 420.58 477.39 420.58 477.39 437.2"/><line class="cls-4" x1="535.57" y1="403.95" x2="535.57" y2="437.2"/><line class="cls-4" x1="496.78" y1="424.73" x2="496.78" y2="433.05"/><line class="cls-4" x1="491.24" y1="424.73" x2="491.24" y2="433.05"/><line class="cls-4" x1="485.7" y1="424.73" x2="485.7" y2="433.05"/><line class="cls-4" x1="485.7" y1="408.11" x2="485.7" y2="416.42"/><line class="cls-4" x1="502.32" y1="424.73" x2="502.32" y2="433.05"/><line class="cls-4" x1="507.86" y1="424.73" x2="507.86" y2="433.05"/><line class="cls-4" x1="513.41" y1="424.73" x2="513.41" y2="433.05"/><line class="cls-4" x1="518.95" y1="424.73" x2="518.95" y2="433.05"/><line class="cls-4" x1="518.95" y1="408.11" x2="518.95" y2="416.42"/><line class="cls-4" x1="513.41" y1="408.11" x2="513.41" y2="416.42"/><line class="cls-4" x1="507.86" y1="408.11" x2="507.86" y2="416.42"/><line class="cls-4" x1="502.32" y1="408.11" x2="502.32" y2="416.42"/><line class="cls-4" x1="496.78" y1="408.11" x2="496.78" y2="416.42"/><line class="cls-4" x1="491.24" y1="408.11" x2="491.24" y2="416.42"/><polyline class="cls-4" points="477.39 819.56 554.97 819.56 554.97 852.8 477.39 852.8 477.39 836.18"/><line class="cls-4" x1="518.95" y1="836.18" x2="477.39" y2="836.18"/><line class="cls-4" x1="535.57" y1="819.56" x2="535.57" y2="852.8"/><line class="cls-4" x1="491.24" y1="841.72" x2="491.24" y2="847.26"/><line class="cls-4" x1="485.7" y1="841.72" x2="485.7" y2="847.26"/><line class="cls-4" x1="485.7" y1="825.1" x2="485.7" y2="830.64"/><line class="cls-4" x1="496.78" y1="841.72" x2="496.78" y2="847.26"/><line class="cls-4" x1="502.32" y1="841.72" x2="502.32" y2="847.26"/><line class="cls-4" x1="507.86" y1="841.72" x2="507.86" y2="847.26"/><line class="cls-4" x1="513.41" y1="841.72" x2="513.41" y2="847.26"/><line class="cls-4" x1="518.95" y1="841.72" x2="518.95" y2="847.26"/><line class="cls-4" x1="518.95" y1="825.1" x2="518.95" y2="830.64"/><line class="cls-4" x1="513.41" y1="825.1" x2="513.41" y2="830.64"/><line class="cls-4" x1="507.86" y1="825.1" x2="507.86" y2="830.64"/><line class="cls-4" x1="502.32" y1="825.1" x2="502.32" y2="830.64"/><line class="cls-4" x1="496.78" y1="825.1" x2="496.78" y2="830.64"/><line class="cls-4" x1="491.24" y1="825.1" x2="491.24" y2="830.64"/><polyline class="cls-4" points="119.97 747.52 20.22 747.52 20.22 780.77 119.97 780.77"/><line class="cls-4" x1="78.41" y1="764.14" x2="119.97" y2="764.14"/><line class="cls-4" x1="61.78" y1="747.52" x2="61.78" y2="778.82"/><line class="cls-4" x1="78.41" y1="769.68" x2="78.41" y2="775.23"/><line class="cls-4" x1="83.95" y1="769.68" x2="83.95" y2="775.23"/><line class="cls-4" x1="89.49" y1="769.68" x2="89.49" y2="775.23"/><line class="cls-4" x1="95.03" y1="769.68" x2="95.03" y2="775.23"/><line class="cls-4" x1="100.57" y1="769.68" x2="100.57" y2="775.23"/><line class="cls-4" x1="106.12" y1="769.68" x2="106.12" y2="775.23"/><line class="cls-4" x1="111.66" y1="769.68" x2="111.66" y2="775.23"/><line class="cls-4" x1="111.66" y1="753.06" x2="111.66" y2="758.6"/><line class="cls-4" x1="78.41" y1="753.06" x2="78.41" y2="758.6"/><line class="cls-4" x1="83.95" y1="753.06" x2="83.95" y2="758.6"/><line class="cls-4" x1="89.49" y1="753.06" x2="89.49" y2="758.6"/><line class="cls-4" x1="95.03" y1="753.06" x2="95.03" y2="758.6"/><line class="cls-4" x1="100.57" y1="753.06" x2="100.57" y2="758.6"/><line class="cls-4" x1="106.12" y1="753.06" x2="106.12" y2="758.6"/><line class="cls-4" x1="20.22" y1="392.87" x2="108.89" y2="392.87"/><line class="cls-4" x1="477.39" y1="614.53" x2="554.97" y2="614.53"/><line class="cls-4" x1="477.39" y1="525.86" x2="554.97" y2="525.86"/><line class="cls-4" x1="477.39" y1="481.53" x2="554.97" y2="481.53"/><line class="cls-4" x1="477.39" y1="570.19" x2="554.97" y2="570.19"/><line class="cls-4" x1="477.39" y1="658.86" x2="554.97" y2="658.86"/><line class="cls-4" x1="477.39" y1="703.19" x2="554.97" y2="703.19"/><line class="cls-4" x1="288.98" y1="844.49" x2="333.31" y2="844.49"/><line class="cls-4" x1="288.98" y1="838.95" x2="333.31" y2="838.95"/><line class="cls-4" x1="288.98" y1="833.41" x2="333.31" y2="833.41"/><line class="cls-4" x1="288.98" y1="827.87" x2="333.31" y2="827.87"/><line class="cls-4" x1="288.98" y1="822.33" x2="333.31" y2="822.33"/><line class="cls-4" x1="288.98" y1="816.79" x2="333.31" y2="816.79"/><line class="cls-4" x1="288.98" y1="811.24" x2="333.31" y2="811.24"/><line class="cls-4" x1="288.98" y1="805.7" x2="333.31" y2="805.7"/><line class="cls-4" x1="344.39" y1="805.7" x2="358.25" y2="805.7"/><line class="cls-4" x1="344.39" y1="811.24" x2="358.25" y2="811.24"/><line class="cls-4" x1="344.39" y1="816.79" x2="358.25" y2="816.79"/><line class="cls-4" x1="344.39" y1="822.33" x2="358.25" y2="822.33"/><line class="cls-4" x1="344.39" y1="827.87" x2="358.25" y2="827.87"/><line class="cls-4" x1="344.39" y1="833.41" x2="358.25" y2="833.41"/><line class="cls-4" x1="344.39" y1="838.95" x2="358.25" y2="838.95"/><line class="cls-4" x1="344.39" y1="844.49" x2="358.25" y2="844.49"/><line class="cls-4" x1="344.39" y1="850.03" x2="358.25" y2="850.03"/><line class="cls-4" x1="264.04" y1="805.7" x2="277.9" y2="805.7"/><line class="cls-4" x1="264.04" y1="811.24" x2="277.9" y2="811.24"/><line class="cls-4" x1="264.04" y1="816.79" x2="277.9" y2="816.79"/><line class="cls-4" x1="264.04" y1="822.33" x2="277.9" y2="822.33"/><line class="cls-4" x1="264.04" y1="827.87" x2="277.9" y2="827.87"/><line class="cls-4" x1="264.04" y1="833.41" x2="277.9" y2="833.41"/><line class="cls-4" x1="264.04" y1="838.95" x2="277.9" y2="838.95"/><line class="cls-4" x1="264.04" y1="844.49" x2="277.9" y2="844.49"/><line class="cls-4" x1="264.04" y1="850.03" x2="277.9" y2="850.03"/><line class="cls-4" x1="283.44" y1="852.8" x2="338.85" y2="852.8"/><rect class="cls-4" x="258.5" y="883.28" width="105.29" height="196.72"/><rect class="cls-4" x="363.79" y="996.88" width="88.66" height="83.12"/><polyline class="cls-4" points="554.97 1080 452.45 1080 452.45 883.28 144.9 883.28 144.9 996.88 244.65 996.88"/><line class="cls-4" x1="119.97" y1="765.53" x2="119.97" y2="1020.43"/><polyline class="cls-4" points="169.84 852.8 144.9 852.8 144.9 798.78"/><rect class="cls-4" x="119.97" y="1019.05" width="24.94" height="44.33"/><polyline class="cls-4" points="155.99 309.96 155.99 780.77 452.45 780.77 452.45 279.27 155.99 279.27 155.99 286.2"/><line class="cls-4" x1="566.05" y1="204.46" x2="577.13" y2="204.46"/><polyline class="cls-4" points="535.57 160.13 582.67 160.13 582.67 212.78 560.51 212.78 560.51 182.3 535.57 182.3 535.57 265.42 638.09 265.42 638.09 373.48 643.29 373.48"/><line class="cls-4" x1="566.05" y1="198.92" x2="577.13" y2="198.92"/><line class="cls-4" x1="566.05" y1="193.38" x2="577.13" y2="193.38"/><line class="cls-4" x1="566.05" y1="187.84" x2="577.13" y2="187.84"/><line class="cls-4" x1="566.05" y1="182.3" x2="577.13" y2="182.3"/><line class="cls-4" x1="560.51" y1="176.76" x2="560.51" y2="165.68"/><line class="cls-4" x1="554.97" y1="176.76" x2="554.97" y2="165.68"/><line class="cls-4" x1="549.42" y1="176.76" x2="549.42" y2="165.68"/><line class="cls-4" x1="543.88" y1="176.76" x2="543.88" y2="165.68"/><polyline class="cls-4" points="155.99 309.26 192.01 309.26 192.01 315.29 155.99 315.29"/><polyline class="cls-4" points="155.99 287.59 211.4 287.59 211.4 337.46 155.99 337.46"/><line class="cls-4" x1="169.84" y1="320.83" x2="169.84" y2="331.92"/><line class="cls-4" x1="164.3" y1="320.83" x2="164.3" y2="331.92"/><line class="cls-4" x1="175.38" y1="320.83" x2="175.38" y2="331.92"/><line class="cls-4" x1="180.92" y1="320.83" x2="180.92" y2="331.92"/><line class="cls-4" x1="186.47" y1="320.83" x2="186.47" y2="331.92"/><line class="cls-4" x1="192.01" y1="320.83" x2="192.01" y2="331.92"/><line class="cls-4" x1="164.3" y1="293.13" x2="164.3" y2="304.21"/><line class="cls-4" x1="169.84" y1="293.13" x2="169.84" y2="304.21"/><line class="cls-4" x1="175.38" y1="293.13" x2="175.38" y2="304.21"/><line class="cls-4" x1="180.92" y1="293.13" x2="180.92" y2="304.21"/><line class="cls-4" x1="186.47" y1="293.13" x2="186.47" y2="304.21"/><line class="cls-4" x1="192.01" y1="293.13" x2="192.01" y2="304.21"/><line class="cls-4" x1="408.12" y1="780.77" x2="408.12" y2="852.8"/><line class="cls-4" x1="219.71" y1="780.77" x2="219.71" y2="852.8"/><line class="cls-4" x1="183.69" y1="780.77" x2="183.69" y2="852.8"/><polyline class="cls-4" points="477.39 481.53 638.09 481.53 638.09 467.64 643.29 467.64"/></g></svg>