<?xml version="1.0" encoding="UTF-8"?><svg id="_2F" xmlns="http://www.w3.org/2000/svg" viewBox="0 0 703.25 1180"><defs><style>.cls-1{fill:none;stroke:#5a5a5a;stroke-linecap:square;stroke-miterlimit:10;stroke-width:2px;}.cls-2{fill:#fff1c2;}.cls-3{fill:#f5f5f5;}.cls-4{fill:#e8b931;}.cls-5{fill:#b3b3b3;}</style></defs><g><rect class="cls-5" x="174.33" y="932.62" width="114.37" height="114.37"/><polygon class="cls-5" points="49.17 337.01 31.9 337.01 31.9 1111.74 30.83 1111.74 30.83 1129 31.9 1129 49.17 1129 174.33 1129 174.33 1111.74 49.17 1111.74 49.17 337.01"/><rect class="cls-5" x="392.29" y="932.62" width="88.48" height="114.37"/><polygon class="cls-5" points="241.23 328.38 185.12 328.38 185.12 337.01 241.23 337.01 241.23 388.81 185.12 388.81 185.12 829.04 480.77 829.04 480.77 388.81 482.93 388.81 482.93 328.38 241.23 328.38"/><rect class="cls-5" x="185.12" y="358.59" width="36.69" height="6.47"/><polygon class="cls-5" points="612.41 50 564.93 50 508.82 50 29.75 50 29.75 71.58 508.82 69.42 508.82 177.32 564.93 177.32 564.93 209.69 612.41 209.69 612.41 263.64 588.67 263.64 588.67 233.43 564.93 233.43 564.93 263.64 564.93 315.43 667.51 315.74 667.51 422.65 673.51 422.65 673.51 315.75 673.51 314.75 673.51 263.64 673.51 50 612.41 50"/><polygon class="cls-5" points="667.51 517.57 667.51 531.55 584.59 531.55 584.59 1130 673.51 1130 673.51 531.55 673.51 517.57 667.51 517.57"/></g><g><polygon class="cls-4" points="241.23 337.01 241.23 358.59 241.23 365.07 241.23 388.81 185.12 388.81 185.12 365.07 221.81 365.07 221.81 358.59 185.12 358.59 185.12 337.01 241.23 337.01"/><polygon class="cls-4" points="590.83 209.69 564.93 209.69 564.93 233.43 590.83 233.43 590.83 263.64 612.41 263.64 612.41 209.69 590.83 209.69"/><rect class="cls-4" x="506.66" y="453.55" width="58.27" height="32.37"/><rect class="cls-4" x="506.66" y="867.88" width="58.27" height="34.53"/><rect class="cls-4" x="288.71" y="829.04" width="103.58" height="73.37"/><rect class="cls-4" x="92.33" y="796.67" width="58.27" height="32.37"/></g><path class="cls-2" d="M673.49,423.33h-7.13v-107.9h-101.43V177.32h-56.11V71.58H29.75v21.58H493.72v213.64H185.12v-41H29.75v71.21h110.06v105.74h23.74v353.91h-12.95v271.91h53.95v-21.58h-30.21v-114.37H482.93v196.38h101.43v-25.9h-77.69V531.23h159.69v-15.11h7.13v-92.79Zm-190.56,30.21v448.86H174.33v-73.37h10.79V328.38H482.93v123.01h10.79v-123.01h161.85v159.69h-148.9v-34.53h-23.74Z"/><g><polygon class="cls-3" points="493.72 93.16 493.72 306.8 187.28 306.8 187.28 265.8 31.9 265.8 31.9 93.16 187.28 93.16 493.72 93.16"/><rect class="cls-3" x="564.93" y="867.88" width="19.42" height="34.53"/><rect class="cls-3" x="506.66" y="531.23" width="77.69" height="336.65"/><rect class="cls-3" x="51.33" y="796.67" width="41" height="34.53"/><polygon class="cls-3" points="163.54 442.76 137.65 442.76 137.65 337.01 51.33 337.01 51.33 796.67 163.54 796.67 163.54 442.76"/><rect class="cls-3" x="392.29" y="829.04" width="90.64" height="73.37"/><rect class="cls-3" x="174.33" y="829.04" width="114.37" height="73.37"/><rect class="cls-3" x="506.66" y="902.41" width="77.69" height="200.69"/><rect class="cls-3" x="392.29" y="1047" width="88.48" height="82"/><rect class="cls-3" x="49.17" y="829.04" width="101.43" height="282.7"/><polygon class="cls-3" points="204.54 1047 204.54 1068.58 174.33 1068.58 174.33 1129 288.71 1129 288.71 1068.58 288.71 1047 204.54 1047"/><rect class="cls-3" x="288.71" y="932.62" width="103.58" height="196.38"/><rect class="cls-3" x="150.59" y="1068.58" width="23.74" height="43.16"/><polygon class="cls-3" points="493.72 328.38 493.72 390.96 493.72 453.55 513.45 453.55 564.93 453.55 564.93 485.92 655.57 485.92 655.57 453.55 655.57 390.96 655.57 328.38 493.72 328.38"/></g><g><rect class="cls-1" x="174.57" y="830.04" width="113.49" height="71.97"/><rect class="cls-1" x="393.25" y="830.04" width="88.58" height="71.97"/><line class="cls-1" x1="288.06" y1="830.04" x2="393.25" y2="830.04"/><line class="cls-1" x1="368.34" y1="854.96" x2="368.34" y2="902.02"/><line class="cls-1" x1="312.98" y1="902.02" x2="312.98" y2="854.96"/><polygon class="cls-1" points="163.5 796.83 163.5 442.51 138.58 442.51 138.58 337.32 50 337.32 50 796.83 163.5 796.83"/><polyline class="cls-1" points="507.74 487 656.22 487 656.22 329.01 492.9 329.01 492.9 453.58"/><polygon class="cls-1" points="288.06 1045.96 205.02 1045.96 205.02 1068.1 174.57 1068.1 174.57 1129 288.06 1129 288.06 1045.96"/><polyline class="cls-1" points="584.25 531.09 584.25 868.8 506.74 868.8 506.74 531.09"/><rect class="cls-1" x="506.74" y="902.02" width="77.51" height="58.13"/><rect class="cls-1" x="506.74" y="960.15" width="77.51" height="71.97"/><rect class="cls-1" x="506.74" y="1032.12" width="77.51" height="71.97"/><rect class="cls-1" x="50" y="830.04" width="99.65" height="66.43"/><rect class="cls-1" x="50" y="896.48" width="99.65" height="66.43"/><rect class="cls-1" x="50" y="962.91" width="99.65" height="66.43"/><rect class="cls-1" x="50" y="1029.35" width="99.65" height="83.04"/><polyline class="cls-1" points="564.87 209.99 564.87 176.77 509.51 176.77"/><polyline class="cls-1" points="509.51 176.77 509.51 113.1 509.51 70.5 492.9 70.5 30.63 71.58"/><polygon class="cls-1" points="30.83 265.35 186.2 265.35 186.2 306.87 492.9 306.87 492.9 93.72 30.83 93.72 30.83 265.35"/><polyline class="cls-1" points="180.11 1129 30.63 1129 30.63 337.32"/><line class="cls-1" x1="563.85" y1="453.58" x2="494.8" y2="453.58"/><polyline class="cls-1" points="548.27 470.19 506.74 470.19 506.74 486.8"/><line class="cls-1" x1="564.87" y1="453.58" x2="564.87" y2="486.8"/><line class="cls-1" x1="526.12" y1="474.34" x2="526.12" y2="482.65"/><line class="cls-1" x1="520.58" y1="474.34" x2="520.58" y2="482.65"/><line class="cls-1" x1="515.05" y1="474.34" x2="515.05" y2="482.65"/><line class="cls-1" x1="515.05" y1="457.73" x2="515.05" y2="466.04"/><line class="cls-1" x1="531.66" y1="474.34" x2="531.66" y2="482.65"/><line class="cls-1" x1="537.19" y1="474.34" x2="537.19" y2="482.65"/><line class="cls-1" x1="542.73" y1="474.34" x2="542.73" y2="482.65"/><line class="cls-1" x1="548.27" y1="474.34" x2="548.27" y2="482.65"/><line class="cls-1" x1="548.27" y1="457.73" x2="548.27" y2="466.04"/><line class="cls-1" x1="542.73" y1="457.73" x2="542.73" y2="466.04"/><line class="cls-1" x1="537.19" y1="457.73" x2="537.19" y2="466.04"/><line class="cls-1" x1="531.66" y1="457.73" x2="531.66" y2="466.04"/><line class="cls-1" x1="526.12" y1="457.73" x2="526.12" y2="466.04"/><line class="cls-1" x1="520.58" y1="457.73" x2="520.58" y2="466.04"/><polyline class="cls-1" points="506.74 868.8 584.25 868.8 584.25 902.02 506.74 902.02 506.74 885.41"/><line class="cls-1" x1="548.27" y1="885.41" x2="506.74" y2="885.41"/><line class="cls-1" x1="564.87" y1="868.8" x2="564.87" y2="902.02"/><line class="cls-1" x1="520.58" y1="890.94" x2="520.58" y2="896.48"/><line class="cls-1" x1="515.05" y1="890.94" x2="515.05" y2="896.48"/><line class="cls-1" x1="515.05" y1="874.33" x2="515.05" y2="879.87"/><line class="cls-1" x1="526.12" y1="890.94" x2="526.12" y2="896.48"/><line class="cls-1" x1="531.66" y1="890.94" x2="531.66" y2="896.48"/><line class="cls-1" x1="537.19" y1="890.94" x2="537.19" y2="896.48"/><line class="cls-1" x1="542.73" y1="890.94" x2="542.73" y2="896.48"/><line class="cls-1" x1="548.27" y1="890.94" x2="548.27" y2="896.48"/><line class="cls-1" x1="548.27" y1="874.33" x2="548.27" y2="879.87"/><line class="cls-1" x1="542.73" y1="874.33" x2="542.73" y2="879.87"/><line class="cls-1" x1="537.19" y1="874.33" x2="537.19" y2="879.87"/><line class="cls-1" x1="531.66" y1="874.33" x2="531.66" y2="879.87"/><line class="cls-1" x1="526.12" y1="874.33" x2="526.12" y2="879.87"/><line class="cls-1" x1="520.58" y1="874.33" x2="520.58" y2="879.87"/><polyline class="cls-1" points="149.66 796.83 50 796.83 50 830.04 149.66 830.04"/><line class="cls-1" x1="108.13" y1="813.44" x2="149.66" y2="813.44"/><line class="cls-1" x1="91.53" y1="796.83" x2="91.53" y2="828.1"/><line class="cls-1" x1="108.13" y1="818.97" x2="108.13" y2="824.51"/><line class="cls-1" x1="113.67" y1="818.97" x2="113.67" y2="824.51"/><line class="cls-1" x1="119.21" y1="818.97" x2="119.21" y2="824.51"/><line class="cls-1" x1="124.74" y1="818.97" x2="124.74" y2="824.51"/><line class="cls-1" x1="130.28" y1="818.97" x2="130.28" y2="824.51"/><line class="cls-1" x1="135.82" y1="818.97" x2="135.82" y2="824.51"/><line class="cls-1" x1="141.35" y1="818.97" x2="141.35" y2="824.51"/><line class="cls-1" x1="141.35" y1="802.36" x2="141.35" y2="807.9"/><line class="cls-1" x1="108.13" y1="802.36" x2="108.13" y2="807.9"/><line class="cls-1" x1="113.67" y1="802.36" x2="113.67" y2="807.9"/><line class="cls-1" x1="119.21" y1="802.36" x2="119.21" y2="807.9"/><line class="cls-1" x1="124.74" y1="802.36" x2="124.74" y2="807.9"/><line class="cls-1" x1="130.28" y1="802.36" x2="130.28" y2="807.9"/><line class="cls-1" x1="135.82" y1="802.36" x2="135.82" y2="807.9"/><line class="cls-1" x1="50" y1="442.51" x2="138.58" y2="442.51"/><line class="cls-1" x1="506.74" y1="663.96" x2="584.25" y2="663.96"/><line class="cls-1" x1="506.74" y1="575.38" x2="584.25" y2="575.38"/><line class="cls-1" x1="506.74" y1="531.09" x2="584.25" y2="531.09"/><line class="cls-1" x1="506.74" y1="619.67" x2="584.25" y2="619.67"/><line class="cls-1" x1="506.74" y1="708.25" x2="584.25" y2="708.25"/><line class="cls-1" x1="506.74" y1="752.54" x2="584.25" y2="752.54"/><line class="cls-1" x1="318.51" y1="893.71" x2="362.8" y2="893.71"/><line class="cls-1" x1="318.51" y1="888.17" x2="362.8" y2="888.17"/><line class="cls-1" x1="318.51" y1="882.64" x2="362.8" y2="882.64"/><line class="cls-1" x1="318.51" y1="877.1" x2="362.8" y2="877.1"/><line class="cls-1" x1="318.51" y1="871.57" x2="362.8" y2="871.57"/><line class="cls-1" x1="318.51" y1="866.03" x2="362.8" y2="866.03"/><line class="cls-1" x1="318.51" y1="860.49" x2="362.8" y2="860.49"/><line class="cls-1" x1="318.51" y1="854.96" x2="362.8" y2="854.96"/><line class="cls-1" x1="373.87" y1="854.96" x2="387.71" y2="854.96"/><line class="cls-1" x1="373.87" y1="860.49" x2="387.71" y2="860.49"/><line class="cls-1" x1="373.87" y1="866.03" x2="387.71" y2="866.03"/><line class="cls-1" x1="373.87" y1="871.57" x2="387.71" y2="871.57"/><line class="cls-1" x1="373.87" y1="877.1" x2="387.71" y2="877.1"/><line class="cls-1" x1="373.87" y1="882.64" x2="387.71" y2="882.64"/><line class="cls-1" x1="373.87" y1="888.17" x2="387.71" y2="888.17"/><line class="cls-1" x1="373.87" y1="893.71" x2="387.71" y2="893.71"/><line class="cls-1" x1="373.87" y1="899.25" x2="387.71" y2="899.25"/><line class="cls-1" x1="293.6" y1="854.96" x2="307.44" y2="854.96"/><line class="cls-1" x1="293.6" y1="860.49" x2="307.44" y2="860.49"/><line class="cls-1" x1="293.6" y1="866.03" x2="307.44" y2="866.03"/><line class="cls-1" x1="293.6" y1="871.57" x2="307.44" y2="871.57"/><line class="cls-1" x1="293.6" y1="877.1" x2="307.44" y2="877.1"/><line class="cls-1" x1="293.6" y1="882.64" x2="307.44" y2="882.64"/><line class="cls-1" x1="293.6" y1="888.17" x2="307.44" y2="888.17"/><line class="cls-1" x1="293.6" y1="893.71" x2="307.44" y2="893.71"/><line class="cls-1" x1="293.6" y1="899.25" x2="307.44" y2="899.25"/><line class="cls-1" x1="312.98" y1="902.02" x2="368.34" y2="902.02"/><rect class="cls-1" x="288.06" y="932.46" width="105.19" height="196.54"/><rect class="cls-1" x="393.25" y="1045.96" width="88.58" height="83.04"/><polyline class="cls-1" points="584.25 1129 481.83 1129 481.83 932.46 174.57 932.46 174.57 1045.96 274.22 1045.96"/><line class="cls-1" x1="149.66" y1="814.82" x2="149.66" y2="1069.49"/><polyline class="cls-1" points="199.48 902.02 174.57 902.02 174.57 848.04"/><rect class="cls-1" x="149.66" y="1068.1" width="24.91" height="44.29"/><polyline class="cls-1" points="185.64 359.67 185.64 830.04 481.83 830.04 481.83 329.01 185.64 329.01 185.64 335.94"/><line class="cls-1" x1="595.32" y1="254.28" x2="606.4" y2="254.28"/><polyline class="cls-1" points="564.87 209.99 611.93 209.99 611.93 262.58 589.79 262.58 589.79 232.13 564.87 232.13 564.87 315.17 667.29 315.17 667.29 423.13 672.49 423.13"/><line class="cls-1" x1="595.32" y1="248.74" x2="606.4" y2="248.74"/><line class="cls-1" x1="595.32" y1="243.2" x2="606.4" y2="243.2"/><line class="cls-1" x1="595.32" y1="237.67" x2="606.4" y2="237.67"/><line class="cls-1" x1="595.32" y1="232.13" x2="606.4" y2="232.13"/><line class="cls-1" x1="589.79" y1="226.59" x2="589.79" y2="215.52"/><line class="cls-1" x1="584.25" y1="226.59" x2="584.25" y2="215.52"/><line class="cls-1" x1="578.71" y1="226.59" x2="578.71" y2="215.52"/><line class="cls-1" x1="573.18" y1="226.59" x2="573.18" y2="215.52"/><polyline class="cls-1" points="185.64 358.97 221.63 358.97 221.63 365 185.64 365"/><polyline class="cls-1" points="185.64 337.32 241 337.32 241 387.15 185.64 387.15"/><line class="cls-1" x1="199.48" y1="370.54" x2="199.48" y2="381.61"/><line class="cls-1" x1="193.95" y1="370.54" x2="193.95" y2="381.61"/><line class="cls-1" x1="205.02" y1="370.54" x2="205.02" y2="381.61"/><line class="cls-1" x1="210.56" y1="370.54" x2="210.56" y2="381.61"/><line class="cls-1" x1="216.09" y1="370.54" x2="216.09" y2="381.61"/><line class="cls-1" x1="221.63" y1="370.54" x2="221.63" y2="381.61"/><line class="cls-1" x1="193.95" y1="342.86" x2="193.95" y2="353.93"/><line class="cls-1" x1="199.48" y1="342.86" x2="199.48" y2="353.93"/><line class="cls-1" x1="205.02" y1="342.86" x2="205.02" y2="353.93"/><line class="cls-1" x1="210.56" y1="342.86" x2="210.56" y2="353.93"/><line class="cls-1" x1="216.09" y1="342.86" x2="216.09" y2="353.93"/><line class="cls-1" x1="221.63" y1="342.86" x2="221.63" y2="353.93"/><line class="cls-1" x1="437.54" y1="830.04" x2="437.54" y2="902.02"/><line class="cls-1" x1="249.31" y1="830.04" x2="249.31" y2="902.02"/><line class="cls-1" x1="213.32" y1="830.04" x2="213.32" y2="902.02"/><polyline class="cls-1" points="506.74 531.09 667.29 531.09 667.29 517.21 672.49 517.21"/></g></svg>