<?xml version="1.0" encoding="UTF-8"?><svg id="GF" xmlns="http://www.w3.org/2000/svg" viewBox="0 0 1200 788.09"><defs><style>.cls-1{fill:#fff;}.cls-2{fill:#e8e9ed;}.cls-3{stroke:#fff;}.cls-3,.cls-4{fill:none;stroke-miterlimit:10;}.cls-4{stroke:#d6d9e6;}.cls-5{fill:#e8b931;}.cls-6{fill:#f8f7f7;}.cls-7{fill:#aab9c9;}</style></defs><rect class="cls-6" x="258.12" y="-129.88" width="683.5" height="1048.25" transform="translate(994.12 -205.63) rotate(90)"/><rect class="cls-7" x="315.87" y="-105.83" width="617" height="1000.75" transform="translate(1018.92 -229.83) rotate(90)"/><rect class="cls-7" x="48.75" y="388.04" width="102" height="49" transform="translate(512.29 312.79) rotate(90)"/><g id="GF-2"><g><rect class="cls-2" x="903.31" y="702.85" width="35.44" height="32.74"/><polygon class="cls-2" points="1124.76 735.59 938.74 735.59 938.74 702.85 938.74 681.95 938.74 667.19 1015.72 667.19 1055.64 667.19 1094.16 667.19 1094.16 702.31 1124.76 702.31 1124.76 735.59"/><polygon class="cls-2" points="149.11 702.85 124.41 702.85 124.41 599.16 187.11 599.16 187.11 632.07 149.11 632.07 149.11 702.85"/><polygon class="cls-2" points="224.91 702.85 149.11 702.85 149.11 632.07 187.11 632.07 224.91 632.07 224.91 702.85"/><rect class="cls-2" x="224.91" y="632.07" width="152.16" height="70.78"/><polygon class="cls-2" points="454.49 702.85 416.16 702.85 416.16 660.13 437.97 660.13 437.97 631.96 454.49 631.96 454.49 702.85"/><rect class="cls-2" x="454.49" y="631.96" width="34.75" height="70.89"/><rect class="cls-2" x="489.24" y="631.96" width="40.11" height="70.89"/><rect class="cls-2" x="529.35" y="631.96" width="38.45" height="70.89"/><rect class="cls-2" x="567.81" y="631.96" width="166.19" height="70.89"/><rect class="cls-2" x="733.99" y="631.96" width="90.76" height="70.89"/><polygon class="cls-2" points="903.31 702.85 824.76 702.85 824.76 631.96 903.31 631.96 903.31 681.95 903.31 702.85"/><rect class="cls-2" x="903.31" y="681.95" width="35.44" height="20.9"/><polygon class="cls-2" points="1015.72 667.19 938.74 667.19 938.74 656.84 938.74 618.33 1015.72 618.33 1015.72 667.19"/><rect class="cls-2" x="1015.72" y="618.33" width="39.92" height="48.86"/><rect class="cls-2" x="1055.64" y="618.33" width="38.53" height="48.86"/><rect class="cls-2" x="124.41" y="508.21" width="62.71" height="90.95"/><rect class="cls-2" x="416.16" y="523" width="74.57" height="76.16"/><polygon class="cls-7" points="1124.4 596.3 517.03 596.3 517.03 254.78 939.65 254.78 953.3 281.14 1065.9 281.14 1065.9 322.04 1124.4 321.93 1124.4 596.3"/><polygon class="cls-2" points="490.73 523 416.16 523 416.16 463.11 455.05 463.11 490.73 463.11 490.73 523"/><rect class="cls-2" x="124.41" y="463.11" width="62.71" height="45.1"/><rect class="cls-2" x="187.11" y="436.49" width="41.49" height="26.62"/><rect class="cls-2" x="455.05" y="441.3" width="35.68" height="21.81"/><rect class="cls-2" x="455.05" y="362.03" width="35.68" height="25.44"/><rect class="cls-2" x="124.41" y="318.46" width="65.84" height="43.57"/><polygon class="cls-2" points="455.05 362.03 416.16 362.03 416.16 296.13 490.73 296.13 490.73 362.03 455.05 362.03"/><rect class="cls-2" x="124.41" y="274.37" width="65.84" height="44.09"/><rect class="cls-2" x="416.16" y="230.24" width="74.57" height="65.89"/><polygon class="cls-2" points="190.24 274.37 124.41 274.37 124.41 231.86 190.24 231.91 190.24 274.37"/><polygon class="cls-2" points="379.8 232.06 227.1 231.94 190.24 231.91 124.41 231.86 124.41 86.38 148.94 86.38 148.94 128.25 188.02 128.25 227.1 128.25 265.27 128.25 303.45 128.25 341.62 128.25 380.7 128.25 417.97 128.25 455.24 128.25 490.67 128.25 490.67 86.38 553.39 86.38 553.39 143.9 490.67 143.9 490.67 192.07 379.8 192.07 379.8 232.06"/><polygon class="cls-2" points="643.05 214.79 553.39 214.79 553.39 192.07 553.39 143.9 553.39 86.38 643.05 86.38 643.05 214.79"/><polygon class="cls-2" points="724.56 214.79 643.05 214.79 643.05 86.38 716.07 86.38 716.07 147.93 724.56 147.93 724.56 214.79"/><polygon class="cls-2" points="753.95 214.79 724.56 214.79 724.56 147.93 716.07 147.93 716.07 86.38 753.95 86.38 753.95 214.79"/><polygon class="cls-2" points="866.53 214.79 753.95 214.79 753.95 86.38 877.62 86.38 877.62 114.1 877.62 127.97 866.53 127.97 866.53 214.79"/><polygon class="cls-2" points="904.73 214.79 866.53 214.79 866.53 127.97 877.62 127.97 904.73 127.97 904.73 214.79"/><polygon class="cls-2" points="943.3 214.79 904.73 214.79 904.73 127.97 943.34 127.97 943.34 148.44 943.3 148.44 943.3 174.8 943.3 214.79"/><polygon class="cls-2" points="1101.44 214.79 979.65 214.79 979.65 174.8 979.65 148.44 979.65 131.85 1101.44 131.85 1101.44 214.79"/><polygon class="cls-2" points="979.65 174.8 943.3 174.8 943.3 148.44 943.34 148.44 979.65 148.44 979.65 174.8"/><polygon class="cls-2" points="979.65 148.44 943.34 148.44 943.34 127.97 943.34 114.1 907.88 114.1 907.88 98.38 936.2 98.38 964.52 98.38 964.52 74.82 979.65 74.82 979.65 131.85 979.65 148.44"/><polygon class="cls-2" points="1101.44 131.85 979.65 131.85 979.65 74.82 985.1 74.82 1038.72 52.1 1101.44 91.18 1101.44 131.85"/><rect class="cls-2" x="148.94" y="86.38" width="39.08" height="41.87"/><rect class="cls-2" x="188.02" y="86.38" width="39.08" height="41.87"/><rect class="cls-2" x="227.1" y="86.38" width="38.17" height="41.87"/><rect class="cls-2" x="265.27" y="86.38" width="38.18" height="41.87"/><rect class="cls-2" x="303.45" y="86.38" width="38.17" height="41.87"/><rect class="cls-2" x="341.62" y="86.38" width="39.08" height="41.87"/><rect class="cls-2" x="380.7" y="86.38" width="37.26" height="41.87"/><rect class="cls-2" x="417.97" y="86.38" width="37.27" height="41.87"/><rect class="cls-2" x="455.24" y="86.38" width="35.44" height="41.87"/><polygon class="cls-2" points="904.73 127.97 877.62 127.97 877.62 114.1 907.88 114.1 943.34 114.1 943.34 127.97 904.73 127.97"/><polygon class="cls-2" points="907.88 114.1 877.62 114.1 877.62 86.38 879.68 86.38 905.12 74.82 907.88 74.82 907.88 98.38 907.88 114.1"/><rect class="cls-2" x="907.88" y="74.82" width="28.33" height="23.56"/><rect class="cls-2" x="936.2" y="74.82" width="28.32" height="23.56"/></g><g><polyline class="cls-4" points="124.41 231.86 190.24 231.91 227.1 231.94 379.8 232.06 379.8 192.07 490.67 192.07 490.67 143.9 553.39 143.9 553.39 192.07 553.39 214.79 643.05 214.79 724.56 214.79 753.95 214.79 866.53 214.79 904.73 214.79 943.3 214.79 943.3 174.8 979.65 174.8 979.65 214.79 1101.44 214.79 1101.44 131.85 1101.44 91.18 1038.72 52.1 985.1 74.82 979.65 74.82 964.52 74.82 936.2 74.82 907.88 74.82 905.12 74.82 879.68 86.38 877.62 86.38 753.95 86.38 716.07 86.38 643.05 86.38 553.39 86.38 490.67 86.38 455.24 86.38 417.97 86.38 380.7 86.38 341.62 86.38 303.45 86.38 265.27 86.38 227.1 86.38 188.02 86.38 148.94 86.38 124.41 86.38 124.41 231.86"/><line class="cls-4" x1="124.41" y1="231.86" x2="124.41" y2="274.37"/><line class="cls-4" x1="124.41" y1="274.37" x2="124.41" y2="318.46"/><line class="cls-4" x1="124.41" y1="318.46" x2="124.41" y2="362.03"/><polyline class="cls-4" points="190.24 231.91 190.24 274.37 190.24 318.46 190.24 362.03 124.41 362.03"/><line class="cls-4" x1="227.1" y1="336.58" x2="227.1" y2="231.94"/><line class="cls-4" x1="379.8" y1="232.06" x2="379.8" y2="336.58"/><polyline class="cls-4" points="416.16 702.85 454.49 702.85 489.24 702.85 529.35 702.85 567.81 702.85 733.99 702.85 824.76 702.85 903.31 702.85 903.31 735.59 938.74 735.59 1124.76 735.59 1124.76 702.31 1094.16 702.31 1094.16 667.19 1094.16 618.33 1055.64 618.33 1015.72 618.33 938.74 618.33 938.74 656.84 938.74 667.19 938.74 681.95 903.31 681.95 903.31 631.96 824.76 631.96 733.99 631.96 567.81 631.96 529.35 631.96 489.24 631.96 454.49 631.96 437.97 631.96 437.97 660.13 416.16 660.13 416.16 631.96"/><polygon class="cls-4" points="187.11 463.11 124.41 463.11 124.41 508.21 124.41 599.16 124.41 702.85 149.11 702.85 224.91 702.85 377.07 702.85 377.07 632.07 224.91 632.07 187.11 632.07 187.11 599.16 187.11 508.21 187.11 463.11"/><line class="cls-4" x1="416.16" y1="660.13" x2="416.16" y2="702.85"/><rect class="cls-4" x="187.11" y="436.49" width="41.49" height="26.62"/><polyline class="cls-4" points="227.1 491.08 227.1 599.16 377.07 599.16 377.07 491.08"/><polygon class="cls-4" points="416.16 523 416.16 599.16 490.73 599.16 490.73 523 490.73 463.11 455.05 463.11 416.16 463.11 416.16 523"/><polygon class="cls-4" points="455.05 362.03 416.16 362.03 416.16 296.13 416.16 230.24 490.73 230.24 490.73 296.13 490.73 362.03 455.05 362.03"/><polyline class="cls-4" points="490.73 362.03 490.73 387.47 490.73 402.02"/><polyline class="cls-4" points="490.73 463.11 490.73 441.3 490.73 427.46"/><polyline class="cls-4" points="455.05 362.03 455.05 387.47 490.73 387.47"/><polyline class="cls-4" points="455.05 463.11 455.05 441.3 490.73 441.3"/><polygon class="cls-4" points="1124.4 321.93 1124.4 596.3 517.03 596.3 517.03 254.78 939.65 254.78 953.3 281.14 1065.9 281.14 1065.9 322.04 1124.4 321.93"/><line class="cls-4" x1="1124.4" y1="281.14" x2="1124.4" y2="321.93"/><line class="cls-4" x1="190.24" y1="318.46" x2="124.41" y2="318.46"/><line class="cls-4" x1="190.24" y1="274.37" x2="124.41" y2="274.37"/><line class="cls-4" x1="187.11" y1="508.21" x2="124.41" y2="508.21"/><line class="cls-4" x1="187.11" y1="599.16" x2="124.41" y2="599.16"/><polyline class="cls-4" points="187.11 632.07 149.11 632.07 149.11 702.85"/><line class="cls-4" x1="224.91" y1="632.07" x2="224.91" y2="702.85"/><line class="cls-4" x1="490.73" y1="523" x2="416.16" y2="523"/><line class="cls-4" x1="490.73" y1="296.13" x2="416.16" y2="296.13"/><polyline class="cls-4" points="490.67 86.38 490.67 128.25 455.24 128.25 417.97 128.25 380.7 128.25 341.62 128.25 303.45 128.25 265.27 128.25 227.1 128.25 188.02 128.25 148.94 128.25 148.94 86.38"/><line class="cls-4" x1="455.24" y1="128.25" x2="455.24" y2="86.38"/><line class="cls-4" x1="417.97" y1="128.25" x2="417.97" y2="86.38"/><line class="cls-4" x1="380.7" y1="128.25" x2="380.7" y2="86.38"/><line class="cls-4" x1="341.62" y1="128.25" x2="341.62" y2="86.38"/><line class="cls-4" x1="303.45" y1="128.25" x2="303.45" y2="86.38"/><line class="cls-4" x1="265.27" y1="128.25" x2="265.27" y2="86.38"/><line class="cls-4" x1="227.1" y1="128.25" x2="227.1" y2="86.38"/><line class="cls-4" x1="188.02" y1="128.25" x2="188.02" y2="86.38"/><line class="cls-4" x1="517.03" y1="192.07" x2="553.39" y2="192.07"/><line class="cls-4" x1="643.05" y1="214.79" x2="643.05" y2="86.38"/><polyline class="cls-4" points="724.56 214.79 724.56 147.93 716.07 147.93 716.07 86.38"/><line class="cls-4" x1="753.95" y1="214.79" x2="753.95" y2="86.38"/><polyline class="cls-4" points="866.53 214.79 866.53 127.97 877.62 127.97 877.62 114.1 877.62 86.38"/><polyline class="cls-4" points="877.62 127.97 904.73 127.97 943.34 127.97 943.34 148.44 979.65 148.44 979.65 131.85 1101.44 131.85"/><polyline class="cls-4" points="938.74 667.19 1015.72 667.19 1015.72 618.33"/><polyline class="cls-4" points="1015.72 667.19 1055.64 667.19 1055.64 618.33"/><line class="cls-4" x1="1094.16" y1="667.19" x2="1055.64" y2="667.19"/><polyline class="cls-4" points="938.74 735.59 938.74 702.85 903.31 702.85 903.31 681.95"/><line class="cls-4" x1="938.74" y1="681.95" x2="938.74" y2="702.85"/><polyline class="cls-4" points="938.74 656.84 919.66 656.84 919.66 631.96"/><polyline class="cls-4" points="534.31 215.7 490.67 215.7 490.67 192.07"/><line class="cls-4" x1="824.76" y1="631.96" x2="824.76" y2="702.85"/><line class="cls-4" x1="733.99" y1="702.85" x2="733.99" y2="631.96"/><line class="cls-4" x1="567.81" y1="631.96" x2="567.81" y2="702.85"/><line class="cls-4" x1="529.35" y1="702.85" x2="529.35" y2="631.96"/><line class="cls-4" x1="489.24" y1="702.85" x2="489.24" y2="631.96"/><line class="cls-4" x1="454.49" y1="631.96" x2="454.49" y2="702.85"/><line class="cls-4" x1="517.03" y1="192.07" x2="517.03" y2="164.02"/><polyline class="cls-4" points="416.16 398.38 464.3 398.38 464.3 430.19 416.16 430.19"/><line class="cls-4" x1="904.73" y1="214.79" x2="904.73" y2="127.97"/><line class="cls-4" x1="979.65" y1="131.85" x2="979.65" y2="74.82"/><polyline class="cls-4" points="943.34 127.97 943.34 114.1 907.88 114.1 877.62 114.1"/><polyline class="cls-4" points="964.52 74.82 964.52 98.38 936.2 98.38 907.88 98.38 907.88 74.82"/><line class="cls-4" x1="907.88" y1="98.38" x2="907.88" y2="114.1"/><line class="cls-4" x1="936.2" y1="98.38" x2="936.2" y2="74.82"/><line class="cls-4" x1="943.3" y1="174.8" x2="943.3" y2="148.44"/><line class="cls-4" x1="979.65" y1="174.8" x2="979.65" y2="148.44"/><line class="cls-4" x1="553.39" y1="143.9" x2="553.39" y2="86.38"/></g></g><g id="Labels"><g><path d="M240.83,176.14c-.96-.28-1.67-.62-2.11-1.02s-.66-.9-.66-1.5c0-.67,.27-1.23,.81-1.67s1.24-.66,2.09-.66c.59,0,1.11,.11,1.57,.34s.81,.54,1.07,.94,.38,.83,.38,1.31h-1.13c0-.52-.16-.92-.49-1.22s-.79-.44-1.39-.44c-.55,0-.99,.12-1.3,.37-.31,.24-.47,.58-.47,1.02,0,.35,.15,.64,.44,.88,.29,.24,.8,.46,1.51,.66,.71,.2,1.26,.42,1.66,.66s.7,.52,.89,.84,.29,.7,.29,1.13c0,.69-.27,1.25-.81,1.66s-1.26,.62-2.16,.62c-.59,0-1.13-.11-1.64-.34s-.9-.53-1.17-.92-.41-.83-.41-1.33h1.13c0,.52,.19,.92,.57,1.22s.89,.45,1.53,.45c.59,0,1.05-.12,1.37-.36s.47-.57,.47-.99-.15-.74-.44-.97-.82-.45-1.59-.68Z"/><path d="M251.43,172.33h-2.74v7.61h-1.12v-7.61h-2.74v-.92h6.6v.92Z"/><path d="M261.94,177.23c-.11,.9-.44,1.6-1,2.09s-1.31,.74-2.24,.74c-1.01,0-1.82-.36-2.42-1.08s-.91-1.69-.91-2.9v-.82c0-.79,.14-1.49,.42-2.09s.68-1.06,1.2-1.39,1.12-.48,1.8-.48c.91,0,1.63,.25,2.18,.76s.87,1.21,.96,2.1h-1.13c-.1-.68-.31-1.18-.64-1.48s-.78-.46-1.37-.46c-.72,0-1.28,.27-1.69,.8-.41,.53-.61,1.29-.61,2.27v.83c0,.93,.19,1.66,.58,2.21,.39,.55,.93,.82,1.62,.82,.62,0,1.1-.14,1.44-.42s.56-.78,.67-1.48h1.13Z"/><path d="M268.13,177.71h-3.57l-.8,2.23h-1.16l3.26-8.53h.98l3.26,8.53h-1.15l-.81-2.23Zm-3.23-.92h2.9l-1.45-3.99-1.45,3.99Z"/><path d="M277.92,179.94h-1.13l-4.29-6.57v6.57h-1.13v-8.53h1.13l4.31,6.6v-6.6h1.12v8.53Z"/><path d="M285.86,172.33h-2.74v7.61h-1.12v-7.61h-2.74v-.92h6.6v.92Z"/><path d="M292.01,176h-3.7v3.02h4.29v.92h-5.42v-8.53h5.36v.92h-4.24v2.75h3.7v.92Z"/><path d="M298.83,176h-3.7v3.02h4.29v.92h-5.42v-8.53h5.36v.92h-4.24v2.75h3.7v.92Z"/><path d="M307.39,179.94h-1.13l-4.29-6.57v6.57h-1.13v-8.53h1.13l4.31,6.6v-6.6h1.12v8.53Z"/></g><g><path class="cls-1" d="M155.45,410.13c-.96-.28-1.67-.62-2.11-1.02s-.66-.9-.66-1.5c0-.67,.27-1.23,.81-1.67s1.24-.66,2.09-.66c.59,0,1.11,.11,1.57,.34s.81,.54,1.07,.94,.38,.83,.38,1.31h-1.13c0-.52-.16-.92-.49-1.22s-.79-.44-1.39-.44c-.55,0-.99,.12-1.3,.37-.31,.24-.47,.58-.47,1.02,0,.35,.15,.64,.44,.88,.29,.24,.8,.46,1.51,.66,.71,.2,1.26,.42,1.66,.66s.7,.52,.89,.84,.29,.7,.29,1.13c0,.69-.27,1.25-.81,1.66s-1.26,.62-2.16,.62c-.59,0-1.13-.11-1.64-.34s-.9-.53-1.17-.92-.41-.83-.41-1.33h1.13c0,.52,.19,.92,.57,1.22s.89,.45,1.53,.45c.59,0,1.05-.12,1.37-.36s.47-.57,.47-.99-.15-.74-.44-.97-.82-.45-1.59-.68Z"/><path class="cls-1" d="M166.05,406.33h-2.74v7.61h-1.12v-7.61h-2.74v-.92h6.6v.92Z"/><path class="cls-1" d="M171.42,413.02h4.04v.92h-5.17v-8.53h1.13v7.61Z"/><path class="cls-1" d="M183.07,409.95c0,.84-.14,1.57-.42,2.19s-.68,1.1-1.2,1.43-1.12,.49-1.8,.49-1.27-.17-1.79-.5-.92-.8-1.21-1.41-.43-1.32-.44-2.12v-.62c0-.82,.14-1.54,.43-2.17s.69-1.11,1.21-1.44,1.12-.5,1.79-.5,1.29,.17,1.81,.5,.92,.81,1.2,1.44,.42,1.36,.42,2.19v.54Zm-1.12-.55c0-1.01-.2-1.79-.61-2.33s-.97-.81-1.71-.81-1.27,.27-1.68,.81-.62,1.29-.63,2.25v.63c0,.98,.21,1.75,.62,2.31s.98,.84,1.7,.84,1.29-.26,1.69-.79,.6-1.29,.62-2.28v-.63Z"/><path class="cls-1" d="M184.78,413.94v-8.53h2.79c.93,0,1.62,.19,2.09,.57s.7,.95,.7,1.7c0,.4-.11,.75-.34,1.06s-.54,.54-.93,.71c.46,.13,.83,.37,1.09,.74s.4,.79,.4,1.29c0,.77-.25,1.37-.74,1.8s-1.2,.66-2.1,.66h-2.96Zm1.12-4.89h1.7c.49,0,.89-.12,1.18-.37,.29-.25,.44-.58,.44-1,0-.47-.14-.81-.41-1.02-.27-.21-.69-.32-1.25-.32h-1.66v2.72Zm0,.9v3.07h1.86c.52,0,.94-.14,1.24-.41s.45-.65,.45-1.12c0-1.03-.56-1.54-1.68-1.54h-1.88Z"/><path class="cls-1" d="M192.25,413.94v-8.53h2.79c.93,0,1.62,.19,2.09,.57s.7,.95,.7,1.7c0,.4-.11,.75-.34,1.06s-.54,.54-.93,.71c.46,.13,.83,.37,1.09,.74s.4,.79,.4,1.29c0,.77-.25,1.37-.74,1.8s-1.2,.66-2.1,.66h-2.96Zm1.12-4.89h1.7c.49,0,.89-.12,1.18-.37,.29-.25,.44-.58,.44-1,0-.47-.14-.81-.41-1.02-.27-.21-.69-.32-1.25-.32h-1.66v2.72Zm0,.9v3.07h1.86c.52,0,.94-.14,1.24-.41s.45-.65,.45-1.12c0-1.03-.56-1.54-1.68-1.54h-1.88Z"/><path class="cls-1" d="M202.16,409.69l2.23-4.28h1.28l-2.94,5.35v3.18h-1.12v-3.18l-2.94-5.35h1.29l2.21,4.28Z"/></g><g><path d="M577.91,149.29c-.05,.45-.22,.8-.5,1.04s-.65,.37-1.12,.37c-.5,0-.91-.18-1.21-.54s-.46-.84-.46-1.45v-.41c0-.4,.07-.75,.21-1.05s.34-.53,.6-.69c.26-.16,.56-.24,.9-.24,.45,0,.82,.13,1.09,.38,.27,.25,.43,.6,.48,1.05h-.57c-.05-.34-.15-.59-.32-.74-.16-.15-.39-.23-.68-.23-.36,0-.64,.13-.85,.4-.2,.27-.31,.64-.31,1.13v.41c0,.46,.1,.83,.29,1.11,.19,.27,.46,.41,.81,.41,.31,0,.55-.07,.72-.21s.28-.39,.33-.74h.57Z"/><path d="M582.15,148.64c0,.42-.07,.78-.21,1.09s-.34,.55-.6,.71-.56,.25-.9,.25-.63-.08-.89-.25c-.26-.16-.46-.4-.6-.71s-.22-.66-.22-1.06v-.31c0-.41,.07-.77,.21-1.09s.34-.55,.6-.72c.26-.17,.56-.25,.9-.25s.64,.08,.9,.25,.46,.4,.6,.72c.14,.31,.21,.68,.21,1.09v.27Zm-.56-.28c0-.51-.1-.89-.3-1.17-.2-.27-.49-.41-.85-.41s-.64,.14-.84,.41c-.2,.27-.31,.65-.31,1.13v.31c0,.49,.1,.88,.31,1.16,.21,.28,.49,.42,.85,.42s.64-.13,.84-.4c.2-.26,.3-.64,.31-1.14v-.32Z"/><path d="M583.91,146.37l1.39,3.48,1.39-3.48h.73v4.27h-.56v-1.66l.05-1.79-1.4,3.45h-.43l-1.4-3.45,.06,1.78v1.66h-.56v-4.27h.73Z"/><path d="M589.17,148.97v1.67h-.56v-4.27h1.57c.47,0,.83,.12,1.1,.36s.4,.55,.4,.95c0,.41-.13,.73-.39,.96-.26,.22-.63,.34-1.11,.34h-1Zm0-.46h1.01c.3,0,.53-.07,.69-.21s.24-.35,.24-.61-.08-.46-.24-.61c-.16-.15-.38-.23-.66-.24h-1.04v1.68Z"/><path d="M595.6,146.37v2.9c0,.4-.13,.73-.38,.99s-.59,.4-1.02,.43h-.15c-.47,0-.84-.12-1.12-.37s-.42-.6-.42-1.04v-2.91h.56v2.89c0,.31,.08,.55,.25,.72,.17,.17,.41,.26,.73,.26s.56-.08,.73-.25,.25-.41,.25-.72v-2.89h.57Z"/><path d="M599.69,146.83h-1.37v3.81h-.56v-3.81h-1.37v-.46h3.3v.46Z"/><path d="M602.94,148.67h-1.85v1.51h2.15v.46h-2.71v-4.27h2.68v.46h-2.12v1.37h1.85v.46Z"/><path d="M605.68,148.91h-1v1.73h-.57v-4.27h1.41c.48,0,.85,.11,1.11,.33s.39,.54,.39,.96c0,.27-.07,.5-.22,.69s-.34,.34-.6,.44l1,1.81v.04h-.6l-.93-1.73Zm-1-.46h.86c.28,0,.5-.07,.67-.22,.17-.15,.25-.34,.25-.58,0-.26-.08-.47-.24-.61-.16-.14-.38-.21-.68-.21h-.86v1.62Z"/><path d="M609.86,150.18h2.02v.46h-2.59v-4.27h.57v3.81Z"/><path d="M615.27,149.52h-1.79l-.4,1.12h-.58l1.63-4.27h.49l1.63,4.27h-.58l-.41-1.12Zm-1.62-.46h1.45l-.73-2-.72,2Z"/><path d="M617.06,150.64v-4.27h1.39c.46,0,.81,.1,1.04,.29s.35,.47,.35,.85c0,.2-.06,.38-.17,.53s-.27,.27-.46,.36c.23,.06,.41,.19,.55,.37,.13,.18,.2,.4,.2,.65,0,.38-.12,.68-.37,.9s-.6,.33-1.05,.33h-1.48Zm.56-2.45h.85c.25,0,.44-.06,.59-.18,.15-.12,.22-.29,.22-.5,0-.24-.07-.41-.21-.51s-.34-.16-.62-.16h-.83v1.36Zm0,.45v1.54h.93c.26,0,.47-.07,.62-.2,.15-.13,.23-.32,.23-.56,0-.51-.28-.77-.84-.77h-.94Z"/><path d="M597.74,157.84h-.54v-3.61l-1.09,.4v-.49l1.55-.58h.08v4.29Z"/></g><g><path d="M662.91,149.29c-.05,.45-.22,.8-.5,1.04s-.65,.37-1.12,.37c-.5,0-.91-.18-1.21-.54s-.46-.84-.46-1.45v-.41c0-.4,.07-.75,.21-1.05s.34-.53,.6-.69c.26-.16,.56-.24,.9-.24,.45,0,.82,.13,1.09,.38,.27,.25,.43,.6,.48,1.05h-.57c-.05-.34-.15-.59-.32-.74-.16-.15-.39-.23-.68-.23-.36,0-.64,.13-.85,.4-.2,.27-.31,.64-.31,1.13v.41c0,.46,.1,.83,.29,1.11,.19,.27,.46,.41,.81,.41,.31,0,.55-.07,.72-.21s.28-.39,.33-.74h.57Z"/><path d="M667.15,148.64c0,.42-.07,.78-.21,1.09s-.34,.55-.6,.71-.56,.25-.9,.25-.63-.08-.89-.25c-.26-.16-.46-.4-.6-.71s-.22-.66-.22-1.06v-.31c0-.41,.07-.77,.21-1.09s.34-.55,.6-.72c.26-.17,.56-.25,.9-.25s.64,.08,.9,.25,.46,.4,.6,.72c.14,.31,.21,.68,.21,1.09v.27Zm-.56-.28c0-.51-.1-.89-.3-1.17-.2-.27-.49-.41-.85-.41s-.64,.14-.84,.41c-.2,.27-.31,.65-.31,1.13v.31c0,.49,.1,.88,.31,1.16,.21,.28,.49,.42,.85,.42s.64-.13,.84-.4c.2-.26,.3-.64,.31-1.14v-.32Z"/><path d="M668.91,146.37l1.39,3.48,1.39-3.48h.73v4.27h-.56v-1.66l.05-1.79-1.4,3.45h-.43l-1.4-3.45,.06,1.78v1.66h-.56v-4.27h.73Z"/><path d="M674.17,148.97v1.67h-.56v-4.27h1.57c.47,0,.83,.12,1.1,.36s.4,.55,.4,.95c0,.41-.13,.73-.39,.96-.26,.22-.63,.34-1.11,.34h-1Zm0-.46h1.01c.3,0,.53-.07,.69-.21s.24-.35,.24-.61-.08-.46-.24-.61c-.16-.15-.38-.23-.66-.24h-1.04v1.68Z"/><path d="M680.6,146.37v2.9c0,.4-.13,.73-.38,.99s-.59,.4-1.02,.43h-.15c-.47,0-.84-.12-1.12-.37s-.42-.6-.42-1.04v-2.91h.56v2.89c0,.31,.08,.55,.25,.72,.17,.17,.41,.26,.73,.26s.56-.08,.73-.25,.25-.41,.25-.72v-2.89h.57Z"/><path d="M684.69,146.83h-1.37v3.81h-.56v-3.81h-1.37v-.46h3.3v.46Z"/><path d="M687.94,148.67h-1.85v1.51h2.15v.46h-2.71v-4.27h2.68v.46h-2.12v1.37h1.85v.46Z"/><path d="M690.68,148.91h-1v1.73h-.57v-4.27h1.41c.48,0,.85,.11,1.11,.33s.39,.54,.39,.96c0,.27-.07,.5-.22,.69s-.34,.34-.6,.44l1,1.81v.04h-.6l-.93-1.73Zm-1-.46h.86c.28,0,.5-.07,.67-.22,.17-.15,.25-.34,.25-.58,0-.26-.08-.47-.24-.61-.16-.14-.38-.21-.68-.21h-.86v1.62Z"/><path d="M694.86,150.18h2.02v.46h-2.59v-4.27h.57v3.81Z"/><path d="M700.27,149.52h-1.79l-.4,1.12h-.58l1.63-4.27h.49l1.63,4.27h-.58l-.41-1.12Zm-1.62-.46h1.45l-.73-2-.72,2Z"/><path d="M702.06,150.64v-4.27h1.39c.46,0,.81,.1,1.04,.29s.35,.47,.35,.85c0,.2-.06,.38-.17,.53s-.27,.27-.46,.36c.23,.06,.41,.19,.55,.37,.13,.18,.2,.4,.2,.65,0,.38-.12,.68-.37,.9s-.6,.33-1.05,.33h-1.48Zm.56-2.45h.85c.25,0,.44-.06,.59-.18,.15-.12,.22-.29,.22-.5,0-.24-.07-.41-.21-.51s-.34-.16-.62-.16h-.83v1.36Zm0,.45v1.54h.93c.26,0,.47-.07,.62-.2,.15-.13,.23-.32,.23-.56,0-.51-.28-.77-.84-.77h-.94Z"/><path d="M683.75,157.84h-2.79v-.39l1.48-1.64c.22-.25,.37-.45,.45-.6,.08-.16,.12-.32,.12-.48,0-.22-.07-.41-.2-.55s-.31-.21-.54-.21c-.27,0-.48,.08-.63,.23s-.22,.37-.22,.64h-.54c0-.39,.13-.71,.38-.95s.59-.36,1.02-.36c.4,0,.71,.1,.94,.31,.23,.21,.35,.48,.35,.83,0,.42-.27,.92-.8,1.5l-1.14,1.24h2.14v.44Z"/></g><g><path d="M795.91,149.29c-.05,.45-.22,.8-.5,1.04s-.65,.37-1.12,.37c-.5,0-.91-.18-1.21-.54s-.46-.84-.46-1.45v-.41c0-.4,.07-.75,.21-1.05s.34-.53,.6-.69c.26-.16,.56-.24,.9-.24,.45,0,.82,.13,1.09,.38,.27,.25,.43,.6,.48,1.05h-.57c-.05-.34-.15-.59-.32-.74-.16-.15-.39-.23-.68-.23-.36,0-.64,.13-.85,.4-.2,.27-.31,.64-.31,1.13v.41c0,.46,.1,.83,.29,1.11,.19,.27,.46,.41,.81,.41,.31,0,.55-.07,.72-.21s.28-.39,.33-.74h.57Z"/><path d="M800.15,148.64c0,.42-.07,.78-.21,1.09s-.34,.55-.6,.71-.56,.25-.9,.25-.63-.08-.89-.25c-.26-.16-.46-.4-.6-.71s-.22-.66-.22-1.06v-.31c0-.41,.07-.77,.21-1.09s.34-.55,.6-.72c.26-.17,.56-.25,.9-.25s.64,.08,.9,.25,.46,.4,.6,.72c.14,.31,.21,.68,.21,1.09v.27Zm-.56-.28c0-.51-.1-.89-.3-1.17-.2-.27-.49-.41-.85-.41s-.64,.14-.84,.41c-.2,.27-.31,.65-.31,1.13v.31c0,.49,.1,.88,.31,1.16,.21,.28,.49,.42,.85,.42s.64-.13,.84-.4c.2-.26,.3-.64,.31-1.14v-.32Z"/><path d="M801.91,146.37l1.39,3.48,1.39-3.48h.73v4.27h-.56v-1.66l.05-1.79-1.4,3.45h-.43l-1.4-3.45,.06,1.78v1.66h-.56v-4.27h.73Z"/><path d="M807.17,148.97v1.67h-.56v-4.27h1.57c.47,0,.83,.12,1.1,.36s.4,.55,.4,.95c0,.41-.13,.73-.39,.96-.26,.22-.63,.34-1.11,.34h-1Zm0-.46h1.01c.3,0,.53-.07,.69-.21s.24-.35,.24-.61-.08-.46-.24-.61c-.16-.15-.38-.23-.66-.24h-1.04v1.68Z"/><path d="M813.6,146.37v2.9c0,.4-.13,.73-.38,.99s-.59,.4-1.02,.43h-.15c-.47,0-.84-.12-1.12-.37s-.42-.6-.42-1.04v-2.91h.56v2.89c0,.31,.08,.55,.25,.72,.17,.17,.41,.26,.73,.26s.56-.08,.73-.25,.25-.41,.25-.72v-2.89h.57Z"/><path d="M817.69,146.83h-1.37v3.81h-.56v-3.81h-1.37v-.46h3.3v.46Z"/><path d="M820.94,148.67h-1.85v1.51h2.15v.46h-2.71v-4.27h2.68v.46h-2.12v1.37h1.85v.46Z"/><path d="M823.68,148.91h-1v1.73h-.57v-4.27h1.41c.48,0,.85,.11,1.11,.33s.39,.54,.39,.96c0,.27-.07,.5-.22,.69s-.34,.34-.6,.44l1,1.81v.04h-.6l-.93-1.73Zm-1-.46h.86c.28,0,.5-.07,.67-.22,.17-.15,.25-.34,.25-.58,0-.26-.08-.47-.24-.61-.16-.14-.38-.21-.68-.21h-.86v1.62Z"/><path d="M827.86,150.18h2.02v.46h-2.59v-4.27h.57v3.81Z"/><path d="M833.27,149.52h-1.79l-.4,1.12h-.58l1.63-4.27h.49l1.63,4.27h-.58l-.41-1.12Zm-1.62-.46h1.45l-.73-2-.72,2Z"/><path d="M835.06,150.64v-4.27h1.39c.46,0,.81,.1,1.04,.29s.35,.47,.35,.85c0,.2-.06,.38-.17,.53s-.27,.27-.46,.36c.23,.06,.41,.19,.55,.37,.13,.18,.2,.4,.2,.65,0,.38-.12,.68-.37,.9s-.6,.33-1.05,.33h-1.48Zm.56-2.45h.85c.25,0,.44-.06,.59-.18,.15-.12,.22-.29,.22-.5,0-.24-.07-.41-.21-.51s-.34-.16-.62-.16h-.83v1.36Zm0,.45v1.54h.93c.26,0,.47-.07,.62-.2,.15-.13,.23-.32,.23-.56,0-.51-.28-.77-.84-.77h-.94Z"/><path d="M814.75,155.44h.41c.26,0,.46-.07,.6-.2s.22-.31,.22-.53c0-.5-.25-.75-.75-.75-.23,0-.42,.07-.56,.2s-.21,.31-.21,.53h-.54c0-.34,.12-.62,.37-.84s.56-.34,.94-.34c.4,0,.72,.11,.95,.32s.34,.51,.34,.89c0,.19-.06,.37-.18,.54s-.28,.3-.49,.39c.23,.07,.42,.2,.54,.37s.19,.38,.19,.63c0,.38-.12,.69-.38,.91s-.58,.34-.98,.34-.73-.11-.98-.33-.38-.5-.38-.86h.54c0,.22,.07,.4,.22,.54s.34,.2,.59,.2c.26,0,.46-.07,.6-.21s.21-.33,.21-.59-.08-.44-.23-.57-.37-.2-.66-.21h-.41v-.44Z"/></g><g><path d="M1022.91,171.29c-.05,.45-.22,.8-.5,1.04s-.65,.37-1.12,.37c-.5,0-.91-.18-1.21-.54s-.46-.84-.46-1.45v-.41c0-.4,.07-.75,.21-1.05s.34-.53,.6-.69c.26-.16,.56-.24,.9-.24,.45,0,.82,.13,1.09,.38,.27,.25,.43,.6,.48,1.05h-.57c-.05-.34-.15-.59-.32-.74-.16-.15-.39-.23-.68-.23-.36,0-.64,.13-.85,.4-.2,.27-.31,.64-.31,1.13v.41c0,.46,.1,.83,.29,1.11,.19,.27,.46,.41,.81,.41,.31,0,.55-.07,.72-.21s.28-.39,.33-.74h.57Z"/><path d="M1027.15,170.64c0,.42-.07,.78-.21,1.09s-.34,.55-.6,.71-.56,.25-.9,.25-.63-.08-.89-.25c-.26-.16-.46-.4-.6-.71s-.22-.66-.22-1.06v-.31c0-.41,.07-.77,.21-1.09s.34-.55,.6-.72c.26-.17,.56-.25,.9-.25s.64,.08,.9,.25,.46,.4,.6,.72c.14,.31,.21,.68,.21,1.09v.27Zm-.56-.28c0-.51-.1-.89-.3-1.17-.2-.27-.49-.41-.85-.41s-.64,.14-.84,.41c-.2,.27-.31,.65-.31,1.13v.31c0,.49,.1,.88,.31,1.16,.21,.28,.49,.42,.85,.42s.64-.13,.84-.4c.2-.26,.3-.64,.31-1.14v-.32Z"/><path d="M1028.91,168.37l1.39,3.48,1.39-3.48h.73v4.27h-.56v-1.66l.05-1.79-1.4,3.45h-.43l-1.4-3.45,.06,1.78v1.66h-.56v-4.27h.73Z"/><path d="M1034.17,170.97v1.67h-.56v-4.27h1.57c.47,0,.83,.12,1.1,.36s.4,.55,.4,.95c0,.41-.13,.73-.39,.96-.26,.22-.63,.34-1.11,.34h-1Zm0-.46h1.01c.3,0,.53-.07,.69-.21s.24-.35,.24-.61-.08-.46-.24-.61c-.16-.15-.38-.23-.66-.24h-1.04v1.68Z"/><path d="M1040.6,168.37v2.9c0,.4-.13,.73-.38,.99s-.59,.4-1.02,.43h-.15c-.47,0-.84-.12-1.12-.37s-.42-.6-.42-1.04v-2.91h.56v2.89c0,.31,.08,.55,.25,.72,.17,.17,.41,.26,.73,.26s.56-.08,.73-.25,.25-.41,.25-.72v-2.89h.57Z"/><path d="M1044.69,168.83h-1.37v3.81h-.56v-3.81h-1.37v-.46h3.3v.46Z"/><path d="M1047.94,170.67h-1.85v1.51h2.15v.46h-2.71v-4.27h2.68v.46h-2.12v1.37h1.85v.46Z"/><path d="M1050.68,170.91h-1v1.73h-.57v-4.27h1.41c.48,0,.85,.11,1.11,.33s.39,.54,.39,.96c0,.27-.07,.5-.22,.69s-.34,.34-.6,.44l1,1.81v.04h-.6l-.93-1.73Zm-1-.46h.86c.28,0,.5-.07,.67-.22,.17-.15,.25-.34,.25-.58,0-.26-.08-.47-.24-.61-.16-.14-.38-.21-.68-.21h-.86v1.62Z"/><path d="M1054.86,172.18h2.02v.46h-2.59v-4.27h.57v3.81Z"/><path d="M1060.27,171.52h-1.79l-.4,1.12h-.58l1.63-4.27h.49l1.63,4.27h-.58l-.41-1.12Zm-1.62-.46h1.45l-.73-2-.72,2Z"/><path d="M1062.06,172.64v-4.27h1.39c.46,0,.81,.1,1.04,.29s.35,.47,.35,.85c0,.2-.06,.38-.17,.53s-.27,.27-.46,.36c.23,.06,.41,.19,.55,.37,.13,.18,.2,.4,.2,.65,0,.38-.12,.68-.37,.9s-.6,.33-1.05,.33h-1.48Zm.56-2.45h.85c.25,0,.44-.06,.59-.18,.15-.12,.22-.29,.22-.5,0-.24-.07-.41-.21-.51s-.34-.16-.62-.16h-.83v1.36Zm0,.45v1.54h.93c.26,0,.47-.07,.62-.2,.15-.13,.23-.32,.23-.56,0-.51-.28-.77-.84-.77h-.94Z"/><path d="M1043.25,178.41h.59v.44h-.59v.99h-.54v-.99h-1.94v-.32l1.91-2.96h.58v2.83Zm-1.87,0h1.33v-2.09l-.06,.12-1.26,1.97Z"/></g><g><path d="M908.89,171.39h-.56v-4.27h.56v4.27Z"/><path d="M913.05,167.58h-1.37v3.81h-.56v-3.81h-1.37v-.46h3.3v.46Z"/><path d="M916.91,170.04c-.05,.45-.22,.8-.5,1.04s-.65,.37-1.12,.37c-.5,0-.91-.18-1.21-.54s-.46-.84-.46-1.45v-.41c0-.4,.07-.75,.21-1.05s.34-.53,.6-.69c.26-.16,.56-.24,.9-.24,.45,0,.82,.13,1.09,.38,.27,.25,.43,.6,.48,1.05h-.57c-.05-.34-.15-.59-.32-.74-.16-.15-.39-.23-.68-.23-.36,0-.64,.13-.85,.4-.2,.27-.31,.64-.31,1.13v.41c0,.46,.1,.83,.29,1.11,.19,.27,.46,.41,.81,.41,.31,0,.55-.07,.72-.21s.28-.39,.33-.74h.57Z"/><path d="M922.45,169.4c0,.42-.07,.78-.21,1.09s-.34,.55-.6,.71-.56,.25-.9,.25-.63-.08-.89-.25c-.26-.16-.46-.4-.6-.71s-.22-.66-.22-1.06v-.31c0-.41,.07-.77,.21-1.09s.34-.55,.6-.72c.26-.17,.56-.25,.9-.25s.64,.08,.9,.25,.46,.4,.6,.72c.14,.31,.21,.68,.21,1.09v.27Zm-.56-.28c0-.51-.1-.89-.3-1.17-.2-.27-.49-.41-.85-.41s-.64,.14-.84,.41c-.2,.27-.31,.65-.31,1.13v.31c0,.49,.1,.88,.31,1.16,.21,.28,.49,.42,.85,.42s.64-.13,.84-.4c.2-.26,.3-.64,.31-1.14v-.32Z"/><path d="M925.83,169.51h-1.79v1.88h-.56v-4.27h2.64v.46h-2.08v1.46h1.79v.46Z"/><path d="M929.33,169.51h-1.79v1.88h-.56v-4.27h2.64v.46h-2.08v1.46h1.79v.46Z"/><path d="M931.07,171.39h-.56v-4.27h.56v4.27Z"/><path d="M935.41,170.04c-.05,.45-.22,.8-.5,1.04s-.65,.37-1.12,.37c-.5,0-.91-.18-1.21-.54s-.46-.84-.46-1.45v-.41c0-.4,.07-.75,.21-1.05s.34-.53,.6-.69c.26-.16,.56-.24,.9-.24,.45,0,.82,.13,1.09,.38,.27,.25,.43,.6,.48,1.05h-.57c-.05-.34-.15-.59-.32-.74-.16-.15-.39-.23-.68-.23-.36,0-.64,.13-.85,.4-.2,.27-.31,.64-.31,1.13v.41c0,.46,.1,.83,.29,1.11,.19,.27,.46,.41,.81,.41,.31,0,.55-.07,.72-.21s.28-.39,.33-.74h.57Z"/><path d="M938.79,169.42h-1.85v1.51h2.15v.46h-2.71v-4.27h2.68v.46h-2.12v1.37h1.85v.46Z"/></g><g><path d="M1014.63,96.39h-.56v-4.27h.56v4.27Z"/><path d="M1018.8,92.58h-1.37v3.81h-.56v-3.81h-1.37v-.46h3.3v.46Z"/><path d="M1022.66,95.04c-.05,.45-.22,.8-.5,1.04s-.65,.37-1.12,.37c-.5,0-.91-.18-1.21-.54s-.46-.84-.46-1.45v-.41c0-.4,.07-.75,.21-1.05s.34-.53,.6-.69c.26-.16,.56-.24,.9-.24,.45,0,.82,.13,1.09,.38,.27,.25,.43,.6,.48,1.05h-.57c-.05-.34-.15-.59-.32-.74-.16-.15-.39-.23-.68-.23-.36,0-.64,.13-.85,.4-.2,.27-.31,.64-.31,1.13v.41c0,.46,.1,.83,.29,1.11,.19,.27,.46,.41,.81,.41,.31,0,.55-.07,.72-.21s.28-.39,.33-.74h.57Z"/><path d="M1028.19,96.39h-.57v-1.97h-2.15v1.97h-.56v-4.27h.56v1.83h2.15v-1.83h.57v4.27Z"/><path d="M1031.78,94.42h-1.85v1.51h2.15v.46h-2.71v-4.27h2.68v.46h-2.12v1.37h1.85v.46Z"/><path d="M1035.5,95.27h-1.79l-.4,1.12h-.58l1.63-4.27h.49l1.63,4.27h-.58l-.41-1.12Zm-1.62-.46h1.45l-.73-2-.72,2Z"/><path d="M1037.29,96.39v-4.27h1.2c.37,0,.7,.08,.98,.25s.51,.4,.66,.7,.23,.65,.24,1.04v.27c0,.4-.08,.75-.23,1.06s-.38,.54-.67,.7-.62,.25-1.01,.25h-1.18Zm.56-3.81v3.35h.59c.43,0,.77-.13,1.01-.4,.24-.27,.36-.65,.36-1.15v-.25c0-.48-.11-.86-.34-1.13s-.55-.41-.97-.41h-.66Z"/><path d="M1042.51,95.25c0-.21,.06-.39,.17-.57s.33-.37,.65-.6c-.19-.23-.32-.42-.38-.56s-.1-.28-.1-.42c0-.32,.1-.58,.29-.76s.45-.28,.78-.28c.29,0,.54,.09,.73,.26,.19,.17,.29,.39,.29,.65,0,.17-.04,.33-.13,.48s-.24,.3-.46,.46l-.31,.23,.95,1.13c.13-.25,.2-.54,.2-.85h.49c0,.5-.12,.91-.36,1.24l.61,.73h-.65l-.28-.34c-.14,.13-.31,.23-.51,.29-.19,.07-.39,.1-.59,.1-.42,0-.75-.11-1-.33s-.38-.51-.38-.87Zm1.38,.76c.29,0,.55-.11,.79-.33l-1.04-1.25-.1,.07c-.33,.24-.49,.49-.49,.74,0,.23,.07,.42,.22,.55s.35,.21,.61,.21Zm-.49-2.92c0,.19,.12,.42,.35,.7l.35-.24c.13-.09,.22-.18,.27-.27,.05-.08,.07-.19,.07-.31,0-.13-.05-.24-.15-.33s-.22-.13-.37-.13c-.16,0-.29,.05-.38,.16-.09,.11-.14,.25-.14,.41Z"/><path d="M1049.18,94.49c-.48-.14-.83-.31-1.05-.51-.22-.2-.33-.45-.33-.75,0-.34,.13-.61,.4-.83,.27-.22,.62-.33,1.05-.33,.29,0,.55,.06,.78,.17s.41,.27,.53,.47,.19,.42,.19,.65h-.57c0-.26-.08-.46-.25-.61-.16-.15-.4-.22-.69-.22-.28,0-.49,.06-.65,.18s-.23,.29-.23,.51c0,.17,.07,.32,.22,.44,.15,.12,.4,.23,.75,.33s.63,.21,.83,.33c.2,.12,.35,.26,.45,.42s.15,.35,.15,.57c0,.35-.13,.62-.4,.83-.27,.21-.63,.31-1.08,.31-.29,0-.57-.06-.82-.17-.25-.11-.45-.27-.59-.46s-.21-.42-.21-.67h.57c0,.26,.1,.46,.29,.61,.19,.15,.44,.22,.76,.22,.3,0,.52-.06,.68-.18s.24-.29,.24-.5-.07-.37-.22-.48c-.15-.12-.41-.23-.8-.34Z"/><path d="M1054.66,92.58h-1.37v3.81h-.56v-3.81h-1.37v-.46h3.3v.46Z"/><path d="M1057.43,95.27h-1.79l-.4,1.12h-.58l1.63-4.27h.49l1.63,4.27h-.58l-.41-1.12Zm-1.62-.46h1.45l-.73-2-.72,2Z"/><path d="M1061.57,94.51h-1.79v1.88h-.56v-4.27h2.64v.46h-2.08v1.46h1.79v.46Z"/><path d="M1065.08,94.51h-1.79v1.88h-.56v-4.27h2.64v.46h-2.08v1.46h1.79v.46Z"/><path d="M1033.01,101.6c0,.42-.07,.78-.21,1.09s-.34,.55-.6,.71-.56,.25-.9,.25-.63-.08-.89-.25c-.26-.16-.46-.4-.6-.71s-.22-.66-.22-1.06v-.31c0-.41,.07-.77,.21-1.09s.34-.55,.6-.72c.26-.17,.56-.25,.9-.25s.64,.08,.9,.25,.46,.4,.6,.72c.14,.31,.21,.68,.21,1.09v.27Zm-.56-.28c0-.51-.1-.89-.3-1.17-.2-.27-.49-.41-.85-.41s-.64,.14-.84,.41c-.2,.27-.31,.65-.31,1.13v.31c0,.49,.1,.88,.31,1.16,.21,.28,.49,.42,.85,.42s.64-.13,.84-.4c.2-.26,.3-.64,.31-1.14v-.32Z"/><path d="M1036.39,101.71h-1.79v1.88h-.56v-4.27h2.64v.46h-2.08v1.46h1.79v.46Z"/><path d="M1039.89,101.71h-1.79v1.88h-.56v-4.27h2.64v.46h-2.08v1.46h1.79v.46Z"/><path d="M1041.63,103.59h-.56v-4.27h.56v4.27Z"/><path d="M1045.97,102.24c-.05,.45-.22,.8-.5,1.04s-.65,.37-1.12,.37c-.5,0-.91-.18-1.21-.54s-.46-.84-.46-1.45v-.41c0-.4,.07-.75,.21-1.05s.34-.53,.6-.69c.26-.16,.56-.24,.9-.24,.45,0,.82,.13,1.09,.38,.27,.25,.43,.6,.48,1.05h-.57c-.05-.34-.15-.59-.32-.74-.16-.15-.39-.23-.68-.23-.36,0-.64,.13-.85,.4-.2,.27-.31,.64-.31,1.13v.41c0,.46,.1,.83,.29,1.11,.19,.27,.46,.41,.81,.41,.31,0,.55-.07,.72-.21s.28-.39,.33-.74h.57Z"/><path d="M1049.35,101.62h-1.85v1.51h2.15v.46h-2.71v-4.27h2.68v.46h-2.12v1.37h1.85v.46Z"/></g><g><path d="M881.48,167.51h-.56v-4.27h.56v4.27Z"/><path d="M885.64,163.71h-1.37v3.81h-.56v-3.81h-1.37v-.46h3.3v.46Z"/><path d="M889.5,166.16c-.05,.45-.22,.8-.5,1.04s-.65,.37-1.12,.37c-.5,0-.91-.18-1.21-.54s-.46-.84-.46-1.45v-.41c0-.4,.07-.75,.21-1.05s.34-.53,.6-.69c.26-.16,.56-.24,.9-.24,.45,0,.82,.13,1.09,.38,.27,.25,.43,.6,.48,1.05h-.57c-.05-.34-.15-.59-.32-.74-.16-.15-.39-.23-.68-.23-.36,0-.64,.13-.85,.4-.2,.27-.31,.64-.31,1.13v.41c0,.46,.1,.83,.29,1.11,.19,.27,.46,.41,.81,.41,.31,0,.55-.07,.72-.21s.28-.39,.33-.74h.57Z"/><path d="M871.04,174.71v-4.27h1.2c.37,0,.7,.08,.98,.25s.51,.4,.66,.7,.23,.65,.24,1.04v.27c0,.4-.08,.75-.23,1.06s-.38,.54-.67,.7-.62,.25-1.01,.25h-1.18Zm.56-3.81v3.35h.59c.43,0,.77-.13,1.01-.4,.24-.27,.36-.65,.36-1.15v-.25c0-.48-.11-.86-.34-1.13s-.55-.41-.97-.41h-.66Z"/><path d="M875.73,174.71h-.56v-4.27h.56v4.27Z"/><path d="M878.49,172.99h-1v1.73h-.57v-4.27h1.41c.48,0,.85,.11,1.11,.33s.39,.54,.39,.96c0,.27-.07,.5-.22,.69s-.34,.34-.6,.44l1,1.81v.04h-.6l-.93-1.73Zm-1-.46h.86c.28,0,.5-.07,.67-.22,.17-.15,.25-.34,.25-.58,0-.26-.08-.47-.24-.61-.16-.14-.38-.21-.68-.21h-.86v1.62Z"/><path d="M883.25,172.74h-1.85v1.51h2.15v.46h-2.71v-4.27h2.68v.46h-2.12v1.37h1.85v.46Z"/><path d="M887.5,173.36c-.05,.45-.22,.8-.5,1.04s-.65,.37-1.12,.37c-.5,0-.91-.18-1.21-.54s-.46-.84-.46-1.45v-.41c0-.4,.07-.75,.21-1.05s.34-.53,.6-.69c.26-.16,.56-.24,.9-.24,.45,0,.82,.13,1.09,.38,.27,.25,.43,.6,.48,1.05h-.57c-.05-.34-.15-.59-.32-.74-.16-.15-.39-.23-.68-.23-.36,0-.64,.13-.85,.4-.2,.27-.31,.64-.31,1.13v.41c0,.46,.1,.83,.29,1.11,.19,.27,.46,.41,.81,.41,.31,0,.55-.07,.72-.21s.28-.39,.33-.74h.57Z"/><path d="M891.39,170.91h-1.37v3.81h-.56v-3.81h-1.37v-.46h3.3v.46Z"/><path d="M895.38,172.72c0,.42-.07,.78-.21,1.09s-.34,.55-.6,.71-.56,.25-.9,.25-.63-.08-.89-.25c-.26-.16-.46-.4-.6-.71s-.22-.66-.22-1.06v-.31c0-.41,.07-.77,.21-1.09s.34-.55,.6-.72c.26-.17,.56-.25,.9-.25s.64,.08,.9,.25,.46,.4,.6,.72c.14,.31,.21,.68,.21,1.09v.27Zm-.56-.28c0-.51-.1-.89-.3-1.17-.2-.27-.49-.41-.85-.41s-.64,.14-.84,.41c-.2,.27-.31,.65-.31,1.13v.31c0,.49,.1,.88,.31,1.16,.21,.28,.49,.42,.85,.42s.64-.13,.84-.4c.2-.26,.3-.64,.31-1.14v-.32Z"/><path d="M897.98,172.99h-1v1.73h-.57v-4.27h1.41c.48,0,.85,.11,1.11,.33s.39,.54,.39,.96c0,.27-.07,.5-.22,.69s-.34,.34-.6,.44l1,1.81v.04h-.6l-.93-1.73Zm-1-.46h.86c.28,0,.5-.07,.67-.22,.17-.15,.25-.34,.25-.58,0-.26-.08-.47-.24-.61-.16-.14-.38-.21-.68-.21h-.86v1.62Z"/></g><g><path d="M732.88,132.7h-.38v-2.84h.38v2.84Z"/><path d="M735.65,130.16h-.91v2.54h-.37v-2.54h-.91v-.31h2.2v.31Z"/><path d="M738.22,131.8c-.04,.3-.15,.53-.33,.7-.19,.16-.43,.25-.75,.25-.34,0-.6-.12-.81-.36-.2-.24-.3-.56-.3-.97v-.27c0-.26,.05-.5,.14-.7,.09-.2,.23-.35,.4-.46,.17-.11,.37-.16,.6-.16,.3,0,.54,.08,.73,.25,.18,.17,.29,.4,.32,.7h-.38c-.03-.23-.1-.39-.21-.49-.11-.1-.26-.15-.46-.15-.24,0-.43,.09-.56,.27-.14,.18-.2,.43-.2,.76v.28c0,.31,.06,.55,.19,.74s.31,.27,.54,.27c.21,0,.37-.05,.48-.14s.19-.26,.22-.49h.38Z"/><path d="M728.49,136.23c-.32-.09-.56-.21-.7-.34s-.22-.3-.22-.5c0-.22,.09-.41,.27-.56,.18-.15,.41-.22,.7-.22,.2,0,.37,.04,.52,.11,.15,.08,.27,.18,.36,.31s.13,.28,.13,.44h-.38c0-.17-.05-.31-.16-.41s-.26-.15-.46-.15c-.18,0-.33,.04-.43,.12-.1,.08-.16,.2-.16,.34,0,.12,.05,.21,.15,.29,.1,.08,.27,.15,.5,.22s.42,.14,.55,.22c.13,.08,.23,.17,.3,.28s.1,.23,.1,.38c0,.23-.09,.42-.27,.55s-.42,.21-.72,.21c-.2,0-.38-.04-.55-.11-.17-.08-.3-.18-.39-.31s-.14-.28-.14-.44h.38c0,.17,.06,.31,.19,.41s.3,.15,.51,.15c.2,0,.35-.04,.46-.12s.16-.19,.16-.33-.05-.25-.15-.32-.27-.15-.53-.23Z"/><path d="M731,136.09l.74-1.43h.43l-.98,1.78v1.06h-.38v-1.06l-.98-1.78h.43l.74,1.43Z"/><path d="M733.46,136.23c-.32-.09-.56-.21-.7-.34s-.22-.3-.22-.5c0-.22,.09-.41,.27-.56,.18-.15,.41-.22,.7-.22,.2,0,.37,.04,.52,.11,.15,.08,.27,.18,.36,.31s.13,.28,.13,.44h-.38c0-.17-.05-.31-.16-.41s-.26-.15-.46-.15c-.18,0-.33,.04-.43,.12-.1,.08-.16,.2-.16,.34,0,.12,.05,.21,.15,.29,.1,.08,.27,.15,.5,.22s.42,.14,.55,.22c.13,.08,.23,.17,.3,.28s.1,.23,.1,.38c0,.23-.09,.42-.27,.55s-.42,.21-.72,.21c-.2,0-.38-.04-.55-.11-.17-.08-.3-.18-.39-.31s-.14-.28-.14-.44h.38c0,.17,.06,.31,.19,.41s.3,.15,.51,.15c.2,0,.35-.04,.46-.12s.16-.19,.16-.33-.05-.25-.15-.32-.27-.15-.53-.23Z"/><path d="M737.11,134.96h-.91v2.54h-.37v-2.54h-.91v-.31h2.2v.31Z"/><path d="M739.28,136.19h-1.23v1.01h1.43v.31h-1.81v-2.84h1.79v.31h-1.41v.92h1.23v.31Z"/><path d="M740.55,134.66l.93,2.32,.93-2.32h.49v2.84h-.38v-1.11l.04-1.2-.93,2.3h-.29l-.93-2.3,.04,1.19v1.11h-.38v-2.84h.48Z"/><path d="M720.83,139.46l.93,2.32,.93-2.32h.49v2.84h-.38v-1.11l.04-1.2-.93,2.3h-.29l-.93-2.3,.04,1.19v1.11h-.38v-2.84h.48Z"/><path d="M725.56,141.56h-1.19l-.27,.74h-.39l1.09-2.84h.33l1.09,2.84h-.38l-.27-.74Zm-1.08-.31h.97l-.48-1.33-.48,1.33Z"/><path d="M727.14,142.3h-.38v-2.84h.38v2.84Z"/><path d="M730.13,142.3h-.38l-1.43-2.19v2.19h-.38v-2.84h.38l1.44,2.2v-2.2h.37v2.84Z"/><path d="M732.89,139.76h-.91v2.54h-.37v-2.54h-.91v-.31h2.2v.31Z"/><path d="M734.74,141.56h-1.19l-.27,.74h-.39l1.09-2.84h.33l1.09,2.84h-.38l-.27-.74Zm-1.08-.31h.97l-.48-1.33-.48,1.33Z"/><path d="M736.32,142.3h-.38v-2.84h.38v2.84Z"/><path d="M739.31,142.3h-.38l-1.43-2.19v2.19h-.38v-2.84h.38l1.44,2.2v-2.2h.37v2.84Z"/><path d="M741.7,141.56h-1.19l-.27,.74h-.39l1.09-2.84h.33l1.09,2.84h-.38l-.27-.74Zm-1.08-.31h.97l-.48-1.33-.48,1.33Z"/><path d="M745.07,142.3h-.38l-1.43-2.19v2.19h-.38v-2.84h.38l1.44,2.2v-2.2h.37v2.84Z"/><path d="M747.96,141.4c-.04,.3-.15,.53-.33,.7-.19,.16-.44,.25-.75,.25-.34,0-.61-.12-.81-.36-.2-.24-.3-.56-.3-.97v-.27c0-.26,.05-.5,.14-.7,.09-.2,.23-.35,.4-.46,.17-.11,.37-.16,.6-.16,.3,0,.54,.08,.73,.25,.18,.17,.29,.4,.32,.7h-.38c-.03-.23-.1-.39-.21-.49-.11-.1-.26-.15-.46-.15-.24,0-.43,.09-.56,.27-.14,.18-.2,.43-.2,.76v.28c0,.31,.06,.55,.19,.74s.31,.27,.54,.27c.21,0,.37-.05,.48-.14s.18-.26,.22-.49h.38Z"/><path d="M750.2,140.99h-1.23v1.01h1.43v.31h-1.81v-2.84h1.79v.31h-1.41v.92h1.23v.31Z"/></g><g><path d="M140.19,294.97v1.67h-.56v-4.27h1.57c.47,0,.83,.12,1.1,.36s.4,.55,.4,.95c0,.41-.13,.73-.39,.96-.26,.22-.63,.34-1.11,.34h-1Zm0-.46h1.01c.3,0,.53-.07,.69-.21s.24-.35,.24-.61-.08-.46-.24-.61c-.16-.15-.38-.23-.66-.24h-1.04v1.68Z"/><path d="M144.14,296.18h2.02v.46h-2.59v-4.27h.57v3.81Z"/><path d="M149.55,295.52h-1.79l-.4,1.12h-.58l1.63-4.27h.49l1.63,4.27h-.58l-.41-1.12Zm-1.62-.46h1.45l-.73-2-.72,2Z"/><path d="M154.33,295.29c-.05,.45-.22,.8-.5,1.04s-.65,.37-1.12,.37c-.5,0-.91-.18-1.21-.54s-.46-.84-.46-1.45v-.41c0-.4,.07-.75,.21-1.05s.34-.53,.6-.69c.26-.16,.56-.24,.9-.24,.45,0,.82,.13,1.09,.38,.27,.25,.43,.6,.48,1.05h-.57c-.05-.34-.16-.59-.32-.74-.16-.15-.39-.23-.68-.23-.36,0-.64,.13-.85,.4-.2,.27-.31,.64-.31,1.13v.41c0,.46,.1,.83,.29,1.11,.19,.27,.46,.41,.81,.41,.31,0,.55-.07,.72-.21s.28-.39,.33-.74h.57Z"/><path d="M157.7,294.67h-1.85v1.51h2.15v.46h-2.71v-4.27h2.68v.46h-2.12v1.37h1.85v.46Z"/><path d="M159.6,292.37l1.39,3.48,1.39-3.48h.73v4.27h-.56v-1.66l.05-1.79-1.4,3.45h-.43l-1.4-3.45,.06,1.78v1.66h-.56v-4.27h.73Z"/><path d="M166.71,294.67h-1.85v1.51h2.15v.46h-2.71v-4.27h2.68v.46h-2.12v1.37h1.85v.46Z"/><path d="M171.17,296.64h-.57l-2.15-3.29v3.29h-.57v-4.27h.57l2.15,3.3v-3.3h.56v4.27Z"/><path d="M175.31,292.83h-1.37v3.81h-.56v-3.81h-1.37v-.46h3.3v.46Z"/><path d="M150.76,301.84c0,.42-.07,.78-.21,1.09s-.34,.55-.6,.71-.56,.25-.9,.25-.63-.08-.89-.25c-.26-.16-.46-.4-.6-.71s-.22-.66-.22-1.06v-.31c0-.41,.07-.77,.21-1.09s.34-.55,.61-.72c.26-.17,.56-.25,.89-.25s.64,.08,.9,.25,.46,.4,.6,.72c.14,.31,.21,.68,.21,1.09v.27Zm-.56-.28c0-.51-.1-.89-.3-1.17-.2-.27-.49-.41-.85-.41s-.63,.14-.84,.41c-.2,.27-.31,.65-.32,1.13v.31c0,.49,.1,.88,.31,1.16,.21,.28,.49,.42,.85,.42s.64-.13,.84-.4c.2-.26,.3-.64,.31-1.14v-.32Z"/><path d="M154.14,301.96h-1.79v1.88h-.56v-4.27h2.64v.46h-2.08v1.46h1.79v.46Z"/><path d="M157.64,301.96h-1.79v1.88h-.56v-4.27h2.64v.46h-2.08v1.46h1.79v.46Z"/><path d="M159.38,303.84h-.56v-4.27h.56v4.27Z"/><path d="M163.72,302.49c-.05,.45-.22,.8-.5,1.04s-.65,.37-1.12,.37c-.5,0-.91-.18-1.21-.54s-.46-.84-.46-1.45v-.41c0-.4,.07-.75,.21-1.05s.34-.53,.6-.69c.26-.16,.56-.24,.9-.24,.45,0,.82,.13,1.09,.38,.27,.25,.43,.6,.48,1.05h-.57c-.05-.34-.15-.59-.32-.74-.16-.15-.39-.23-.68-.23-.36,0-.64,.13-.84,.4-.2,.27-.31,.64-.31,1.13v.41c0,.46,.1,.83,.29,1.11,.19,.27,.46,.41,.81,.41,.31,0,.55-.07,.72-.21s.28-.39,.33-.74h.57Z"/><path d="M167.1,301.87h-1.85v1.51h2.15v.46h-2.71v-4.27h2.68v.46h-2.12v1.37h1.85v.46Z"/></g><g><path d="M150.03,250.76h-1.79v1.88h-.56v-4.27h2.64v.46h-2.08v1.46h1.79v.46Z"/><path d="M153.59,250.67h-1.85v1.51h2.15v.46h-2.71v-4.27h2.68v.46h-2.12v1.37h1.85v.46Z"/><path d="M156.04,250.74c-.48-.14-.83-.31-1.05-.51-.22-.2-.33-.45-.33-.75,0-.34,.13-.61,.4-.83,.27-.22,.62-.33,1.05-.33,.29,0,.55,.06,.78,.17s.41,.27,.53,.47,.19,.42,.19,.65h-.57c0-.26-.08-.46-.25-.61-.16-.15-.4-.22-.69-.22-.28,0-.49,.06-.65,.18s-.23,.29-.23,.51c0,.17,.07,.32,.22,.44,.15,.12,.4,.23,.75,.33s.63,.21,.83,.33c.2,.12,.35,.26,.45,.42s.14,.35,.14,.57c0,.35-.13,.62-.4,.83-.27,.21-.63,.31-1.08,.31-.29,0-.57-.06-.82-.17-.25-.11-.45-.27-.59-.46s-.21-.42-.21-.67h.57c0,.26,.1,.46,.29,.61,.19,.15,.44,.22,.76,.22,.3,0,.52-.06,.68-.18s.24-.29,.24-.5-.07-.37-.22-.48c-.15-.12-.41-.23-.8-.34Z"/><path d="M159.16,252.64h-.56v-4.27h.56v4.27Z"/><path d="M160.93,252.18h2.02v.46h-2.59v-4.27h.57v3.81Z"/><path d="M166.33,251.52h-1.79l-.4,1.12h-.58l1.63-4.27h.49l1.63,4.27h-.58l-.41-1.12Zm-1.62-.46h1.45l-.73-2-.72,2Z"/><path d="M150.76,257.84c0,.42-.07,.78-.21,1.09s-.34,.55-.6,.71-.56,.25-.9,.25-.63-.08-.89-.25c-.26-.16-.46-.4-.6-.71s-.22-.66-.22-1.06v-.31c0-.41,.07-.77,.21-1.09s.34-.55,.61-.72c.26-.17,.56-.25,.89-.25s.64,.08,.9,.25,.46,.4,.6,.72c.14,.31,.21,.68,.21,1.09v.27Zm-.56-.28c0-.51-.1-.89-.3-1.17-.2-.27-.49-.41-.85-.41s-.63,.14-.84,.41c-.2,.27-.31,.65-.32,1.13v.31c0,.49,.1,.88,.31,1.16,.21,.28,.49,.42,.85,.42s.64-.13,.84-.4c.2-.26,.3-.64,.31-1.14v-.32Z"/><path d="M154.14,257.96h-1.79v1.88h-.56v-4.27h2.64v.46h-2.08v1.46h1.79v.46Z"/><path d="M157.64,257.96h-1.79v1.88h-.56v-4.27h2.64v.46h-2.08v1.46h1.79v.46Z"/><path d="M159.38,259.84h-.56v-4.27h.56v4.27Z"/><path d="M163.72,258.49c-.05,.45-.22,.8-.5,1.04s-.65,.37-1.12,.37c-.5,0-.91-.18-1.21-.54s-.46-.84-.46-1.45v-.41c0-.4,.07-.75,.21-1.05s.34-.53,.6-.69c.26-.16,.56-.24,.9-.24,.45,0,.82,.13,1.09,.38,.27,.25,.43,.6,.48,1.05h-.57c-.05-.34-.15-.59-.32-.74-.16-.15-.39-.23-.68-.23-.36,0-.64,.13-.84,.4-.2,.27-.31,.64-.31,1.13v.41c0,.46,.1,.83,.29,1.11,.19,.27,.46,.41,.81,.41,.31,0,.55-.07,.72-.21s.28-.39,.33-.74h.57Z"/><path d="M167.1,257.87h-1.85v1.51h2.15v.46h-2.71v-4.27h2.68v.46h-2.12v1.37h1.85v.46Z"/></g><g><path d="M150.5,337.97v1.67h-.56v-4.27h1.57c.47,0,.83,.12,1.1,.36s.4,.55,.4,.95c0,.41-.13,.73-.39,.96-.26,.22-.63,.34-1.11,.34h-1Zm0-.46h1.01c.3,0,.53-.07,.69-.21s.24-.35,.24-.61-.08-.46-.24-.61c-.16-.15-.38-.23-.66-.24h-1.04v1.68Z"/><path d="M157.23,337.64c0,.42-.07,.78-.21,1.09s-.34,.55-.6,.71-.56,.25-.9,.25-.63-.08-.89-.25c-.26-.16-.46-.4-.61-.71s-.22-.66-.22-1.06v-.31c0-.41,.07-.77,.21-1.09s.34-.55,.6-.72c.26-.17,.56-.25,.9-.25s.64,.08,.9,.25,.46,.4,.6,.72c.14,.31,.21,.68,.21,1.09v.27Zm-.56-.28c0-.51-.1-.89-.3-1.17-.2-.27-.49-.41-.85-.41s-.64,.14-.84,.41c-.2,.27-.31,.65-.31,1.13v.31c0,.49,.1,.88,.31,1.16,.21,.28,.49,.42,.85,.42s.64-.13,.84-.4c.2-.26,.3-.64,.31-1.14v-.32Z"/><path d="M159.52,337.74c-.48-.14-.83-.31-1.05-.51-.22-.2-.33-.45-.33-.75,0-.34,.13-.61,.4-.83,.27-.22,.62-.33,1.05-.33,.29,0,.55,.06,.78,.17s.41,.27,.53,.47,.19,.42,.19,.65h-.57c0-.26-.08-.46-.25-.61-.16-.15-.4-.22-.69-.22-.28,0-.49,.06-.65,.18s-.23,.29-.23,.51c0,.17,.07,.32,.22,.44,.15,.12,.4,.23,.75,.33s.63,.21,.83,.33c.2,.12,.35,.26,.45,.42s.15,.35,.15,.57c0,.35-.13,.62-.4,.83-.27,.21-.63,.31-1.08,.31-.29,0-.57-.06-.82-.17-.25-.11-.45-.27-.59-.46s-.21-.42-.21-.67h.57c0,.26,.09,.46,.29,.61,.19,.15,.45,.22,.76,.22,.3,0,.52-.06,.68-.18s.24-.29,.24-.5-.07-.37-.22-.48c-.15-.12-.41-.23-.8-.34Z"/><path d="M165,335.83h-1.37v3.81h-.56v-3.81h-1.37v-.46h3.3v.46Z"/><path d="M150.76,344.84c0,.42-.07,.78-.21,1.09s-.34,.55-.6,.71-.56,.25-.9,.25-.63-.08-.89-.25c-.26-.16-.46-.4-.6-.71s-.22-.66-.22-1.06v-.31c0-.41,.07-.77,.21-1.09s.34-.55,.61-.72c.26-.17,.56-.25,.89-.25s.64,.08,.9,.25,.46,.4,.6,.72c.14,.31,.21,.68,.21,1.09v.27Zm-.56-.28c0-.51-.1-.89-.3-1.17-.2-.27-.49-.41-.85-.41s-.63,.14-.84,.41c-.2,.27-.31,.65-.32,1.13v.31c0,.49,.1,.88,.31,1.16,.21,.28,.49,.42,.85,.42s.64-.13,.84-.4c.2-.26,.3-.64,.31-1.14v-.32Z"/><path d="M154.14,344.96h-1.79v1.88h-.56v-4.27h2.64v.46h-2.08v1.46h1.79v.46Z"/><path d="M157.64,344.96h-1.79v1.88h-.56v-4.27h2.64v.46h-2.08v1.46h1.79v.46Z"/><path d="M159.38,346.84h-.56v-4.27h.56v4.27Z"/><path d="M163.72,345.49c-.05,.45-.22,.8-.5,1.04s-.65,.37-1.12,.37c-.5,0-.91-.18-1.21-.54s-.46-.84-.46-1.45v-.41c0-.4,.07-.75,.21-1.05s.34-.53,.6-.69c.26-.16,.56-.24,.9-.24,.45,0,.82,.13,1.09,.38,.27,.25,.43,.6,.48,1.05h-.57c-.05-.34-.15-.59-.32-.74-.16-.15-.39-.23-.68-.23-.36,0-.64,.13-.84,.4-.2,.27-.31,.64-.31,1.13v.41c0,.46,.1,.83,.29,1.11,.19,.27,.46,.41,.81,.41,.31,0,.55-.07,.72-.21s.28-.39,.33-.74h.57Z"/><path d="M167.1,344.87h-1.85v1.51h2.15v.46h-2.71v-4.27h2.68v.46h-2.12v1.37h1.85v.46Z"/></g><g><path d="M141.62,483.74c-.48-.14-.83-.31-1.05-.51-.22-.2-.33-.45-.33-.75,0-.34,.13-.61,.4-.83,.27-.22,.62-.33,1.05-.33,.29,0,.55,.06,.78,.17s.41,.27,.53,.47,.19,.42,.19,.65h-.57c0-.26-.08-.46-.25-.61-.16-.15-.4-.22-.69-.22-.28,0-.49,.06-.65,.18s-.23,.29-.23,.51c0,.17,.07,.32,.22,.44,.15,.12,.4,.23,.75,.33s.63,.21,.83,.33c.2,.12,.35,.26,.45,.42s.15,.35,.15,.57c0,.35-.13,.62-.4,.83-.27,.21-.63,.31-1.08,.31-.29,0-.57-.06-.82-.17-.25-.11-.45-.27-.59-.46s-.21-.42-.21-.67h.57c0,.26,.09,.46,.29,.61,.19,.15,.45,.22,.76,.22,.3,0,.52-.06,.68-.18s.24-.29,.24-.5-.07-.37-.22-.48c-.15-.12-.41-.23-.8-.34Z"/><path d="M146.57,483.67h-1.85v1.51h2.15v.46h-2.71v-4.27h2.68v.46h-2.12v1.37h1.85v.46Z"/><path d="M150.81,484.29c-.05,.45-.22,.8-.5,1.04s-.65,.37-1.12,.37c-.5,0-.91-.18-1.21-.54s-.46-.84-.46-1.45v-.41c0-.4,.07-.75,.21-1.05s.34-.53,.6-.69c.26-.16,.56-.24,.9-.24,.45,0,.82,.13,1.09,.38,.27,.25,.43,.6,.48,1.05h-.57c-.05-.34-.16-.59-.32-.74-.16-.15-.39-.23-.68-.23-.36,0-.64,.13-.85,.4-.2,.27-.31,.64-.31,1.13v.41c0,.46,.1,.83,.29,1.11,.19,.27,.46,.41,.81,.41,.31,0,.55-.07,.72-.21s.28-.39,.33-.74h.57Z"/><path d="M154.78,481.37v2.9c0,.4-.13,.73-.38,.99s-.59,.4-1.02,.43h-.15c-.47,0-.84-.12-1.12-.37s-.42-.6-.42-1.04v-2.91h.56v2.89c0,.31,.08,.55,.25,.72,.17,.17,.41,.26,.73,.26s.56-.08,.73-.25,.25-.41,.25-.72v-2.89h.57Z"/><path d="M157.46,483.91h-1v1.73h-.57v-4.27h1.41c.48,0,.85,.11,1.11,.33s.39,.54,.39,.96c0,.27-.07,.5-.21,.69s-.34,.34-.6,.44l1,1.81v.04h-.6l-.93-1.73Zm-1-.46h.86c.28,0,.5-.07,.67-.22,.17-.15,.25-.34,.25-.58,0-.26-.08-.47-.24-.61-.16-.14-.38-.21-.68-.21h-.86v1.62Z"/><path d="M160.4,485.64h-.56v-4.27h.56v4.27Z"/><path d="M164.56,481.83h-1.37v3.81h-.56v-3.81h-1.37v-.46h3.3v.46Z"/><path d="M166.9,483.51l1.11-2.14h.64l-1.47,2.67v1.59h-.56v-1.59l-1.47-2.67h.64l1.11,2.14Z"/><path d="M147.76,490.84c0,.42-.07,.78-.21,1.09s-.34,.55-.6,.71-.56,.25-.9,.25-.63-.08-.89-.25c-.26-.16-.46-.4-.6-.71s-.22-.66-.22-1.06v-.31c0-.41,.07-.77,.21-1.09s.34-.55,.61-.72c.26-.17,.56-.25,.89-.25s.64,.08,.9,.25,.46,.4,.6,.72c.14,.31,.21,.68,.21,1.09v.27Zm-.56-.28c0-.51-.1-.89-.3-1.17-.2-.27-.49-.41-.85-.41s-.63,.14-.84,.41c-.2,.27-.31,.65-.32,1.13v.31c0,.49,.1,.88,.31,1.16,.21,.28,.49,.42,.85,.42s.64-.13,.84-.4c.2-.26,.3-.64,.31-1.14v-.32Z"/><path d="M151.14,490.96h-1.79v1.88h-.56v-4.27h2.64v.46h-2.08v1.46h1.79v.46Z"/><path d="M154.64,490.96h-1.79v1.88h-.56v-4.27h2.64v.46h-2.08v1.46h1.79v.46Z"/><path d="M156.38,492.84h-.56v-4.27h.56v4.27Z"/><path d="M160.72,491.49c-.05,.45-.22,.8-.5,1.04s-.65,.37-1.12,.37c-.5,0-.91-.18-1.21-.54s-.46-.84-.46-1.45v-.41c0-.4,.07-.75,.21-1.05s.34-.53,.6-.69c.26-.16,.56-.24,.9-.24,.45,0,.82,.13,1.09,.38,.27,.25,.43,.6,.48,1.05h-.57c-.05-.34-.15-.59-.32-.74-.16-.15-.39-.23-.68-.23-.36,0-.64,.13-.84,.4-.2,.27-.31,.64-.31,1.13v.41c0,.46,.1,.83,.29,1.11,.19,.27,.46,.41,.81,.41,.31,0,.55-.07,.72-.21s.28-.39,.33-.74h.57Z"/><path d="M164.1,490.87h-1.85v1.51h2.15v.46h-2.71v-4.27h2.68v.46h-2.12v1.37h1.85v.46Z"/></g><g><path d="M133.99,549.08c-.14,.21-.35,.36-.6,.46-.26,.1-.56,.15-.9,.15s-.66-.08-.93-.24-.48-.4-.62-.7-.22-.65-.23-1.05v-.37c0-.64,.15-1.14,.45-1.49s.72-.53,1.26-.53c.45,0,.8,.11,1.08,.34s.44,.55,.5,.97h-.56c-.11-.57-.44-.85-1.01-.85-.38,0-.66,.13-.86,.4s-.29,.65-.29,1.15v.35c0,.48,.11,.86,.33,1.14s.51,.42,.89,.42c.21,0,.4-.02,.55-.07s.29-.13,.39-.24v-.96h-.99v-.46h1.55v1.56Z"/><path d="M138.13,545.37v2.9c0,.4-.13,.73-.38,.99s-.59,.4-1.02,.43h-.15c-.47,0-.84-.12-1.12-.37s-.42-.6-.42-1.04v-2.91h.56v2.89c0,.31,.08,.55,.25,.72,.17,.17,.41,.26,.73,.26s.56-.08,.73-.25,.25-.41,.25-.72v-2.89h.57Z"/><path d="M139.83,549.64h-.56v-4.27h.56v4.27Z"/><path d="M141.03,549.64v-4.27h1.2c.37,0,.7,.08,.98,.25s.5,.4,.66,.7,.23,.65,.24,1.04v.27c0,.4-.08,.75-.23,1.06s-.38,.54-.67,.7-.62,.25-1.01,.25h-1.18Zm.56-3.81v3.35h.59c.43,0,.77-.13,1.01-.4,.24-.27,.36-.65,.36-1.15v-.25c0-.48-.11-.86-.34-1.13s-.55-.41-.97-.41h-.66Z"/><path d="M147.38,548.52h-1.79l-.4,1.12h-.58l1.63-4.27h.49l1.63,4.27h-.58l-.41-1.12Zm-1.62-.46h1.45l-.73-2-.72,2Z"/><path d="M152.45,549.64h-.57l-2.15-3.29v3.29h-.57v-4.27h.57l2.15,3.3v-3.3h.56v4.27Z"/><path d="M156.77,548.29c-.05,.45-.22,.8-.5,1.04s-.65,.37-1.12,.37c-.5,0-.91-.18-1.21-.54s-.46-.84-.46-1.45v-.41c0-.4,.07-.75,.21-1.05s.34-.53,.6-.69c.26-.16,.56-.24,.9-.24,.45,0,.82,.13,1.09,.38,.27,.25,.43,.6,.48,1.05h-.57c-.05-.34-.15-.59-.32-.74-.16-.15-.39-.23-.68-.23-.36,0-.64,.13-.84,.4-.2,.27-.31,.64-.31,1.13v.41c0,.46,.1,.83,.29,1.11,.19,.27,.46,.41,.81,.41,.31,0,.55-.07,.72-.21s.28-.39,.33-.74h.57Z"/><path d="M160.14,547.67h-1.85v1.51h2.15v.46h-2.71v-4.27h2.68v.46h-2.12v1.37h1.85v.46Z"/><path d="M165.91,547.64c0,.42-.07,.78-.21,1.09s-.34,.55-.6,.71-.56,.25-.9,.25-.63-.08-.89-.25c-.26-.16-.46-.4-.6-.71s-.22-.66-.22-1.06v-.31c0-.41,.07-.77,.21-1.09s.34-.55,.61-.72c.26-.17,.56-.25,.89-.25s.64,.08,.9,.25,.46,.4,.6,.72c.14,.31,.21,.68,.21,1.09v.27Zm-.56-.28c0-.51-.1-.89-.3-1.17-.2-.27-.49-.41-.85-.41s-.63,.14-.84,.41c-.2,.27-.31,.65-.32,1.13v.31c0,.49,.1,.88,.31,1.16,.21,.28,.49,.42,.85,.42s.64-.13,.84-.4c.2-.26,.3-.64,.31-1.14v-.32Z"/><path d="M169.29,547.75h-1.79v1.88h-.56v-4.27h2.64v.46h-2.08v1.46h1.79v.46Z"/><path d="M172.79,547.75h-1.79v1.88h-.56v-4.27h2.64v.46h-2.08v1.46h1.79v.46Z"/><path d="M174.53,549.64h-.56v-4.27h.56v4.27Z"/><path d="M178.87,548.29c-.05,.45-.22,.8-.5,1.04s-.65,.37-1.12,.37c-.5,0-.91-.18-1.21-.54s-.46-.84-.46-1.45v-.41c0-.4,.07-.75,.21-1.05s.34-.53,.6-.69c.26-.16,.56-.24,.9-.24,.45,0,.82,.13,1.09,.38,.27,.25,.43,.6,.48,1.05h-.57c-.05-.34-.15-.59-.32-.74-.16-.15-.39-.23-.68-.23-.36,0-.64,.13-.84,.4-.2,.27-.31,.64-.31,1.13v.41c0,.46,.1,.83,.29,1.11,.19,.27,.46,.41,.81,.41,.31,0,.55-.07,.72-.21s.28-.39,.33-.74h.57Z"/><path d="M182.24,547.67h-1.85v1.51h2.15v.46h-2.71v-4.27h2.68v.46h-2.12v1.37h1.85v.46Z"/><path d="M141.59,555.69c0-.21,.06-.39,.17-.57s.33-.37,.66-.6c-.19-.23-.32-.42-.38-.56s-.1-.28-.1-.42c0-.32,.1-.58,.29-.76s.45-.28,.78-.28c.29,0,.54,.09,.73,.26,.19,.17,.29,.39,.29,.65,0,.17-.04,.33-.13,.48s-.24,.3-.46,.46l-.31,.23,.95,1.13c.13-.25,.2-.54,.2-.85h.49c0,.5-.12,.91-.36,1.24l.61,.73h-.65l-.28-.34c-.14,.13-.31,.23-.51,.29-.19,.07-.39,.1-.59,.1-.42,0-.75-.11-1-.33s-.38-.51-.38-.87Zm1.38,.76c.29,0,.55-.11,.79-.33l-1.04-1.25-.1,.07c-.33,.24-.49,.49-.49,.74,0,.23,.07,.42,.22,.55s.35,.21,.61,.21Zm-.49-2.92c0,.19,.12,.42,.35,.7l.35-.24c.13-.09,.22-.18,.27-.27,.05-.08,.07-.19,.07-.31,0-.13-.05-.24-.15-.33s-.22-.13-.37-.13c-.16,0-.29,.05-.38,.16-.09,.11-.14,.25-.14,.41Z"/><path d="M149.96,553.03h-1.37v3.81h-.56v-3.81h-1.37v-.46h3.3v.46Z"/><path d="M153.21,554.87h-1.85v1.51h2.15v.46h-2.71v-4.27h2.68v.46h-2.12v1.37h1.85v.46Z"/><path d="M155.65,554.94c-.48-.14-.83-.31-1.05-.51-.22-.2-.33-.45-.33-.75,0-.34,.13-.61,.4-.83,.27-.22,.62-.33,1.05-.33,.29,0,.55,.06,.78,.17s.41,.27,.53,.47,.19,.42,.19,.65h-.57c0-.26-.08-.46-.25-.61-.16-.15-.4-.22-.69-.22-.28,0-.49,.06-.65,.18s-.23,.29-.23,.51c0,.17,.07,.32,.22,.44,.15,.12,.4,.23,.75,.33s.63,.21,.83,.33c.2,.12,.35,.26,.45,.42s.14,.35,.14,.57c0,.35-.13,.62-.4,.83-.27,.21-.63,.31-1.08,.31-.29,0-.57-.06-.82-.17-.25-.11-.45-.27-.59-.46s-.21-.42-.21-.67h.57c0,.26,.1,.46,.29,.61,.19,.15,.44,.22,.76,.22,.3,0,.52-.06,.68-.18s.24-.29,.24-.5-.07-.37-.22-.48c-.15-.12-.41-.23-.8-.34Z"/><path d="M161.13,553.03h-1.37v3.81h-.56v-3.81h-1.37v-.46h3.3v.46Z"/><path d="M162.55,556.84h-.56v-4.27h.56v4.27Z"/><path d="M167.03,556.84h-.57l-2.15-3.29v3.29h-.57v-4.27h.57l2.15,3.3v-3.3h.56v4.27Z"/><path d="M171.36,556.28c-.14,.21-.35,.36-.61,.46-.26,.1-.56,.15-.9,.15s-.66-.08-.93-.24-.48-.4-.63-.7-.22-.65-.23-1.05v-.37c0-.64,.15-1.14,.45-1.49s.72-.53,1.26-.53c.45,0,.8,.11,1.08,.34s.44,.55,.5,.97h-.56c-.11-.57-.44-.85-1.01-.85-.38,0-.66,.13-.86,.4s-.29,.65-.29,1.15v.35c0,.48,.11,.86,.33,1.14s.51,.42,.89,.42c.21,0,.4-.02,.55-.07s.29-.13,.39-.24v-.96h-.99v-.46h1.55v1.56Z"/><path d="M141.47,564.04h-.56v-4.27h.56v4.27Z"/><path d="M145.95,564.04h-.57l-2.15-3.29v3.29h-.57v-4.27h.57l2.15,3.3v-3.3h.56v4.27Z"/><path d="M148.58,563.29l1.22-3.52h.62l-1.58,4.27h-.5l-1.58-4.27h.61l1.21,3.52Z"/><path d="M153.63,562.07h-1.85v1.51h2.15v.46h-2.71v-4.27h2.68v.46h-2.12v1.37h1.85v.46Z"/><path d="M158.09,564.04h-.57l-2.15-3.29v3.29h-.57v-4.27h.57l2.15,3.3v-3.3h.56v4.27Z"/><path d="M162.24,560.23h-1.37v3.81h-.56v-3.81h-1.37v-.46h3.3v.46Z"/><path d="M166.23,562.04c0,.42-.07,.78-.21,1.09s-.34,.55-.6,.71-.56,.25-.9,.25-.63-.08-.89-.25c-.26-.16-.46-.4-.6-.71s-.22-.66-.22-1.06v-.31c0-.41,.07-.77,.21-1.09s.34-.55,.61-.72c.26-.17,.56-.25,.89-.25s.64,.08,.9,.25,.46,.4,.6,.72c.14,.31,.21,.68,.21,1.09v.27Zm-.56-.28c0-.51-.1-.89-.3-1.17-.2-.27-.49-.41-.85-.41s-.63,.14-.84,.41c-.2,.27-.31,.65-.32,1.13v.31c0,.49,.1,.88,.31,1.16,.21,.28,.49,.42,.85,.42s.64-.13,.84-.4c.2-.26,.3-.64,.31-1.14v-.32Z"/><path d="M168.82,562.31h-1v1.73h-.57v-4.27h1.41c.48,0,.85,.11,1.11,.33s.39,.54,.39,.96c0,.27-.07,.5-.22,.69s-.34,.34-.6,.44l1,1.81v.04h-.6l-.93-1.73Zm-1-.46h.86c.28,0,.5-.07,.67-.22,.17-.15,.25-.34,.25-.58,0-.26-.08-.47-.24-.61-.16-.14-.38-.21-.68-.21h-.86v1.62Z"/><path d="M172.4,561.92l1.11-2.14h.64l-1.47,2.67v1.59h-.56v-1.59l-1.47-2.67h.64l1.11,2.14Z"/></g><g><path d="M139.42,614.67h-1.85v1.51h2.15v.46h-2.71v-4.27h2.68v.46h-2.12v1.37h1.85v.46Z"/><path d="M141.16,616.18h2.02v.46h-2.59v-4.27h.57v3.81Z"/><path d="M146.44,614.67h-1.85v1.51h2.15v.46h-2.71v-4.27h2.68v.46h-2.12v1.37h1.85v.46Z"/><path d="M150.68,615.29c-.05,.45-.22,.8-.5,1.04s-.65,.37-1.12,.37c-.5,0-.91-.18-1.21-.54s-.46-.84-.46-1.45v-.41c0-.4,.07-.75,.21-1.05s.34-.53,.6-.69c.26-.16,.56-.24,.9-.24,.45,0,.82,.13,1.09,.38,.27,.25,.43,.6,.48,1.05h-.57c-.05-.34-.15-.59-.32-.74-.16-.15-.39-.23-.68-.23-.36,0-.64,.13-.84,.4-.2,.27-.31,.64-.31,1.13v.41c0,.46,.1,.83,.29,1.11,.19,.27,.46,.41,.81,.41,.31,0,.55-.07,.72-.21s.28-.39,.33-.74h.57Z"/><path d="M154.58,612.83h-1.37v3.81h-.56v-3.81h-1.37v-.46h3.3v.46Z"/><path d="M156.98,614.91h-1v1.73h-.57v-4.27h1.41c.48,0,.85,.11,1.11,.33s.39,.54,.39,.96c0,.27-.07,.5-.22,.69s-.34,.34-.6,.44l1,1.81v.04h-.6l-.93-1.73Zm-1-.46h.86c.28,0,.5-.07,.67-.22,.17-.15,.25-.34,.25-.58,0-.26-.08-.47-.24-.61-.16-.14-.38-.21-.68-.21h-.86v1.62Z"/><path d="M159.92,616.64h-.56v-4.27h.56v4.27Z"/><path d="M164.27,615.29c-.05,.45-.22,.8-.5,1.04s-.65,.37-1.12,.37c-.5,0-.91-.18-1.21-.54s-.46-.84-.46-1.45v-.41c0-.4,.07-.75,.21-1.05s.34-.53,.6-.69c.26-.16,.56-.24,.9-.24,.45,0,.82,.13,1.09,.38,.27,.25,.43,.6,.48,1.05h-.57c-.05-.34-.15-.59-.32-.74-.16-.15-.39-.23-.68-.23-.36,0-.64,.13-.84,.4-.2,.27-.31,.64-.31,1.13v.41c0,.46,.1,.83,.29,1.11,.19,.27,.46,.41,.81,.41,.31,0,.55-.07,.72-.21s.28-.39,.33-.74h.57Z"/><path d="M167.54,615.52h-1.79l-.4,1.12h-.58l1.63-4.27h.49l1.63,4.27h-.58l-.41-1.12Zm-1.62-.46h1.45l-.73-2-.72,2Z"/><path d="M169.9,616.18h2.02v.46h-2.59v-4.27h.57v3.81Z"/><path d="M147.76,621.84c0,.42-.07,.78-.21,1.09s-.34,.55-.6,.71-.56,.25-.9,.25-.63-.08-.89-.25c-.26-.16-.46-.4-.6-.71s-.22-.66-.22-1.06v-.31c0-.41,.07-.77,.21-1.09s.34-.55,.61-.72c.26-.17,.56-.25,.89-.25s.64,.08,.9,.25,.46,.4,.6,.72c.14,.31,.21,.68,.21,1.09v.27Zm-.56-.28c0-.51-.1-.89-.3-1.17-.2-.27-.49-.41-.85-.41s-.63,.14-.84,.41c-.2,.27-.31,.65-.32,1.13v.31c0,.49,.1,.88,.31,1.16,.21,.28,.49,.42,.85,.42s.64-.13,.84-.4c.2-.26,.3-.64,.31-1.14v-.32Z"/><path d="M151.14,621.96h-1.79v1.88h-.56v-4.27h2.64v.46h-2.08v1.46h1.79v.46Z"/><path d="M154.64,621.96h-1.79v1.88h-.56v-4.27h2.64v.46h-2.08v1.46h1.79v.46Z"/><path d="M156.38,623.84h-.56v-4.27h.56v4.27Z"/><path d="M160.72,622.49c-.05,.45-.22,.8-.5,1.04s-.65,.37-1.12,.37c-.5,0-.91-.18-1.21-.54s-.46-.84-.46-1.45v-.41c0-.4,.07-.75,.21-1.05s.34-.53,.6-.69c.26-.16,.56-.24,.9-.24,.45,0,.82,.13,1.09,.38,.27,.25,.43,.6,.48,1.05h-.57c-.05-.34-.15-.59-.32-.74-.16-.15-.39-.23-.68-.23-.36,0-.64,.13-.84,.4-.2,.27-.31,.64-.31,1.13v.41c0,.46,.1,.83,.29,1.11,.19,.27,.46,.41,.81,.41,.31,0,.55-.07,.72-.21s.28-.39,.33-.74h.57Z"/><path d="M164.1,621.87h-1.85v1.51h2.15v.46h-2.71v-4.27h2.68v.46h-2.12v1.37h1.85v.46Z"/></g><g><path d="M176.09,662.83h-1.37v3.81h-.56v-3.81h-1.37v-.46h3.3v.46Z"/><path d="M179.34,664.67h-1.85v1.51h2.15v.46h-2.71v-4.27h2.68v.46h-2.12v1.37h1.85v.46Z"/><path d="M181.79,664.74c-.48-.14-.83-.31-1.05-.51-.22-.2-.33-.45-.33-.75,0-.34,.13-.61,.4-.83,.27-.22,.62-.33,1.05-.33,.29,0,.55,.06,.78,.17s.41,.27,.53,.47,.19,.42,.19,.65h-.57c0-.26-.08-.46-.25-.61-.16-.15-.4-.22-.69-.22-.28,0-.49,.06-.65,.18s-.23,.29-.23,.51c0,.17,.07,.32,.22,.44,.15,.12,.4,.23,.75,.33s.63,.21,.83,.33c.2,.12,.35,.26,.45,.42s.15,.35,.15,.57c0,.35-.13,.62-.4,.83-.27,.21-.63,.31-1.08,.31-.29,0-.57-.06-.82-.17-.25-.11-.45-.27-.59-.46s-.21-.42-.21-.67h.57c0,.26,.09,.46,.29,.61,.19,.15,.45,.22,.76,.22,.3,0,.52-.06,.68-.18s.24-.29,.24-.5-.07-.37-.22-.48c-.15-.12-.41-.23-.8-.34Z"/><path d="M187.26,662.83h-1.37v3.81h-.56v-3.81h-1.37v-.46h3.3v.46Z"/><path d="M188.69,666.64h-.56v-4.27h.56v4.27Z"/><path d="M193.17,666.64h-.57l-2.15-3.29v3.29h-.57v-4.27h.57l2.15,3.3v-3.3h.56v4.27Z"/><path d="M197.49,666.08c-.14,.21-.35,.36-.6,.46-.26,.1-.56,.15-.9,.15s-.66-.08-.93-.24-.48-.4-.62-.7-.22-.65-.23-1.05v-.37c0-.64,.15-1.14,.45-1.49s.72-.53,1.26-.53c.45,0,.8,.11,1.08,.34s.44,.55,.5,.97h-.56c-.11-.57-.44-.85-1.01-.85-.38,0-.66,.13-.86,.4s-.29,.65-.29,1.15v.35c0,.48,.11,.86,.33,1.14s.51,.42,.89,.42c.21,0,.4-.02,.55-.07s.29-.13,.39-.24v-.96h-.99v-.46h1.55v1.56Z"/><path d="M177.31,672.49c-.05,.45-.22,.8-.5,1.04s-.65,.37-1.12,.37c-.5,0-.91-.18-1.21-.54s-.46-.84-.46-1.45v-.41c0-.4,.07-.75,.21-1.05s.34-.53,.6-.69c.26-.16,.56-.24,.9-.24,.45,0,.82,.13,1.09,.38,.27,.25,.43,.6,.48,1.05h-.57c-.05-.34-.16-.59-.32-.74-.16-.15-.39-.23-.68-.23-.36,0-.64,.13-.85,.4-.2,.27-.31,.64-.31,1.13v.41c0,.46,.1,.83,.29,1.11,.19,.27,.46,.41,.81,.41,.31,0,.55-.07,.72-.21s.28-.39,.33-.74h.57Z"/><path d="M180.68,671.87h-1.85v1.51h2.15v.46h-2.71v-4.27h2.68v.46h-2.12v1.37h1.85v.46Z"/><path d="M185.13,673.84h-.57l-2.15-3.29v3.29h-.57v-4.27h.57l2.15,3.3v-3.3h.56v4.27Z"/><path d="M189.28,670.03h-1.37v3.81h-.56v-3.81h-1.37v-.46h3.3v.46Z"/><path d="M192.53,671.87h-1.85v1.51h2.15v.46h-2.71v-4.27h2.68v.46h-2.12v1.37h1.85v.46Z"/><path d="M195.27,672.11h-1v1.73h-.57v-4.27h1.41c.48,0,.85,.11,1.11,.33s.39,.54,.39,.96c0,.27-.07,.5-.22,.69s-.34,.34-.6,.44l1,1.81v.04h-.6l-.93-1.73Zm-1-.46h.86c.28,0,.5-.07,.67-.22,.17-.15,.25-.34,.25-.58,0-.26-.08-.47-.24-.61-.16-.14-.38-.21-.68-.21h-.86v1.62Z"/></g><g><path d="M280.91,665.29c-.05,.45-.22,.8-.5,1.04s-.65,.37-1.12,.37c-.5,0-.91-.18-1.21-.54s-.46-.84-.46-1.45v-.41c0-.4,.07-.75,.21-1.05s.34-.53,.6-.69c.26-.16,.56-.24,.9-.24,.45,0,.82,.13,1.09,.38,.27,.25,.43,.6,.48,1.05h-.57c-.05-.34-.15-.59-.32-.74-.16-.15-.39-.23-.68-.23-.36,0-.64,.13-.84,.4-.2,.27-.31,.64-.31,1.13v.41c0,.46,.1,.83,.29,1.11,.19,.27,.46,.41,.81,.41,.31,0,.55-.07,.72-.21s.28-.39,.33-.74h.57Z"/><path d="M285.15,664.64c0,.42-.07,.78-.21,1.09s-.34,.55-.6,.71-.56,.25-.9,.25-.63-.08-.89-.25c-.26-.16-.46-.4-.61-.71s-.22-.66-.22-1.06v-.31c0-.41,.07-.77,.21-1.09s.34-.55,.6-.72c.26-.17,.56-.25,.9-.25s.64,.08,.9,.25,.46,.4,.6,.72c.14,.31,.21,.68,.21,1.09v.27Zm-.56-.28c0-.51-.1-.89-.3-1.17-.2-.27-.49-.41-.85-.41s-.64,.14-.84,.41c-.2,.27-.31,.65-.31,1.13v.31c0,.49,.1,.88,.31,1.16,.21,.28,.49,.42,.85,.42s.64-.13,.84-.4c.2-.26,.3-.64,.31-1.14v-.32Z"/><path d="M286.91,662.37l1.39,3.48,1.39-3.48h.73v4.27h-.56v-1.66l.05-1.79-1.4,3.45h-.43l-1.4-3.45,.06,1.78v1.66h-.56v-4.27h.73Z"/><path d="M292.17,664.97v1.67h-.56v-4.27h1.57c.47,0,.83,.12,1.1,.36s.4,.55,.4,.95c0,.41-.13,.73-.39,.96-.26,.22-.63,.34-1.11,.34h-1Zm0-.46h1.01c.3,0,.53-.07,.69-.21s.24-.35,.24-.61-.08-.46-.24-.61c-.16-.15-.38-.23-.66-.24h-1.04v1.68Z"/><path d="M298.6,662.37v2.9c0,.4-.13,.73-.38,.99s-.59,.4-1.02,.43h-.15c-.47,0-.84-.12-1.12-.37s-.42-.6-.42-1.04v-2.91h.56v2.89c0,.31,.08,.55,.25,.72,.17,.17,.41,.26,.73,.26s.56-.08,.73-.25,.25-.41,.25-.72v-2.89h.57Z"/><path d="M302.69,662.83h-1.37v3.81h-.56v-3.81h-1.37v-.46h3.3v.46Z"/><path d="M305.94,664.67h-1.85v1.51h2.15v.46h-2.71v-4.27h2.68v.46h-2.12v1.37h1.85v.46Z"/><path d="M308.68,664.91h-1v1.73h-.57v-4.27h1.41c.48,0,.85,.11,1.11,.33s.39,.54,.39,.96c0,.27-.07,.5-.21,.69s-.34,.34-.6,.44l1,1.81v.04h-.6l-.93-1.73Zm-1-.46h.86c.28,0,.5-.07,.67-.22,.17-.15,.25-.34,.25-.58,0-.26-.08-.47-.24-.61-.16-.14-.38-.21-.68-.21h-.86v1.62Z"/><path d="M312.86,666.18h2.02v.46h-2.59v-4.27h.57v3.81Z"/><path d="M318.27,665.52h-1.79l-.4,1.12h-.58l1.63-4.27h.49l1.63,4.27h-.58l-.41-1.12Zm-1.62-.46h1.45l-.73-2-.72,2Z"/><path d="M320.06,666.64v-4.27h1.39c.46,0,.81,.1,1.04,.29s.35,.47,.35,.85c0,.2-.06,.38-.17,.53s-.27,.27-.46,.36c.23,.06,.41,.19,.55,.37,.13,.18,.2,.4,.2,.65,0,.38-.12,.68-.37,.9s-.6,.33-1.05,.33h-1.48Zm.56-2.45h.85c.25,0,.44-.06,.59-.18,.15-.12,.22-.29,.22-.5,0-.24-.07-.41-.21-.51s-.34-.16-.62-.16h-.83v1.36Zm0,.45v1.54h.93c.26,0,.47-.07,.62-.2,.15-.13,.23-.32,.23-.56,0-.51-.28-.77-.84-.77h-.94Z"/><path d="M301.09,669.57v.46h-.1c-.42,0-.76,.13-1.01,.38s-.39,.58-.43,1.02c.22-.26,.53-.39,.92-.39s.67,.13,.89,.39,.33,.6,.33,1.01c0,.44-.12,.79-.36,1.05s-.56,.4-.96,.4-.74-.16-.99-.47c-.25-.31-.38-.72-.38-1.21v-.21c0-.79,.17-1.38,.5-1.8s.83-.63,1.5-.64h.1Zm-.71,1.92c-.19,0-.36,.06-.51,.17s-.26,.25-.33,.42v.2c0,.35,.08,.63,.24,.85s.36,.32,.59,.32,.44-.09,.58-.27,.21-.42,.21-.71-.07-.53-.21-.71c-.14-.18-.33-.27-.56-.27Z"/></g><g><path d="M631.91,666.29c-.05,.45-.22,.8-.5,1.04s-.65,.37-1.12,.37c-.5,0-.91-.18-1.21-.54s-.46-.84-.46-1.45v-.41c0-.4,.07-.75,.21-1.05s.34-.53,.6-.69c.26-.16,.56-.24,.9-.24,.45,0,.82,.13,1.09,.38,.27,.25,.43,.6,.48,1.05h-.57c-.05-.34-.15-.59-.32-.74-.16-.15-.39-.23-.68-.23-.36,0-.64,.13-.84,.4-.2,.27-.31,.64-.31,1.13v.41c0,.46,.1,.83,.29,1.11,.19,.27,.46,.41,.81,.41,.31,0,.55-.07,.72-.21s.28-.39,.33-.74h.57Z"/><path d="M636.15,665.64c0,.42-.07,.78-.21,1.09s-.34,.55-.6,.71-.56,.25-.9,.25-.63-.08-.89-.25c-.26-.16-.46-.4-.61-.71s-.22-.66-.22-1.06v-.31c0-.41,.07-.77,.21-1.09s.34-.55,.6-.72c.26-.17,.56-.25,.9-.25s.64,.08,.9,.25,.46,.4,.6,.72c.14,.31,.21,.68,.21,1.09v.27Zm-.56-.28c0-.51-.1-.89-.3-1.17-.2-.27-.49-.41-.85-.41s-.64,.14-.84,.41c-.2,.27-.31,.65-.31,1.13v.31c0,.49,.1,.88,.31,1.16,.21,.28,.49,.42,.85,.42s.64-.13,.84-.4c.2-.26,.3-.64,.31-1.14v-.32Z"/><path d="M637.91,663.37l1.39,3.48,1.39-3.48h.73v4.27h-.56v-1.66l.05-1.79-1.4,3.45h-.43l-1.4-3.45,.06,1.78v1.66h-.56v-4.27h.73Z"/><path d="M643.17,665.97v1.67h-.56v-4.27h1.57c.47,0,.83,.12,1.1,.36s.4,.55,.4,.95c0,.41-.13,.73-.39,.96-.26,.22-.63,.34-1.11,.34h-1Zm0-.46h1.01c.3,0,.53-.07,.69-.21s.24-.35,.24-.61-.08-.46-.24-.61c-.16-.15-.38-.23-.66-.24h-1.04v1.68Z"/><path d="M649.6,663.37v2.9c0,.4-.13,.73-.38,.99s-.59,.4-1.02,.43h-.15c-.47,0-.84-.12-1.12-.37s-.42-.6-.42-1.04v-2.91h.56v2.89c0,.31,.08,.55,.25,.72,.17,.17,.41,.26,.73,.26s.56-.08,.73-.25,.25-.41,.25-.72v-2.89h.57Z"/><path d="M653.69,663.83h-1.37v3.81h-.56v-3.81h-1.37v-.46h3.3v.46Z"/><path d="M656.94,665.67h-1.85v1.51h2.15v.46h-2.71v-4.27h2.68v.46h-2.12v1.37h1.85v.46Z"/><path d="M659.68,665.91h-1v1.73h-.57v-4.27h1.41c.48,0,.85,.11,1.11,.33s.39,.54,.39,.96c0,.27-.07,.5-.21,.69s-.34,.34-.6,.44l1,1.81v.04h-.6l-.93-1.73Zm-1-.46h.86c.28,0,.5-.07,.67-.22,.17-.15,.25-.34,.25-.58,0-.26-.08-.47-.24-.61-.16-.14-.38-.21-.68-.21h-.86v1.62Z"/><path d="M663.86,667.18h2.02v.46h-2.59v-4.27h.57v3.81Z"/><path d="M669.27,666.52h-1.79l-.4,1.12h-.58l1.63-4.27h.49l1.63,4.27h-.58l-.41-1.12Zm-1.62-.46h1.45l-.73-2-.72,2Z"/><path d="M671.06,667.64v-4.27h1.39c.46,0,.81,.1,1.04,.29s.35,.47,.35,.85c0,.2-.06,.38-.17,.53s-.27,.27-.46,.36c.23,.06,.41,.19,.55,.37,.13,.18,.2,.4,.2,.65,0,.38-.12,.68-.37,.9s-.6,.33-1.05,.33h-1.48Zm.56-2.45h.85c.25,0,.44-.06,.59-.18,.15-.12,.22-.29,.22-.5,0-.24-.07-.41-.21-.51s-.34-.16-.62-.16h-.83v1.36Zm0,.45v1.54h.93c.26,0,.47-.07,.62-.2,.15-.13,.23-.32,.23-.56,0-.51-.28-.77-.84-.77h-.94Z"/><path d="M650.21,672.7l.22-2.13h2.19v.5h-1.73l-.13,1.16c.21-.12,.45-.18,.71-.18,.39,0,.7,.13,.93,.39s.34,.6,.34,1.04-.12,.79-.36,1.04-.57,.38-1,.38c-.38,0-.68-.1-.92-.31s-.37-.5-.41-.87h.51c.03,.24,.12,.43,.26,.55,.14,.12,.33,.19,.56,.19,.25,0,.45-.09,.59-.26s.21-.41,.21-.71c0-.29-.08-.51-.23-.69-.16-.17-.36-.26-.62-.26-.24,0-.42,.05-.56,.16l-.14,.12-.43-.11Z"/></g><g><path d="M771.56,667.74c-.48-.14-.83-.31-1.05-.51-.22-.2-.33-.45-.33-.75,0-.34,.13-.61,.4-.83,.27-.22,.62-.33,1.05-.33,.29,0,.55,.06,.78,.17s.41,.27,.53,.47,.19,.42,.19,.65h-.57c0-.26-.08-.46-.25-.61-.16-.15-.4-.22-.69-.22-.28,0-.49,.06-.65,.18s-.23,.29-.23,.51c0,.17,.07,.32,.22,.44,.15,.12,.4,.23,.75,.33s.63,.21,.83,.33c.2,.12,.35,.26,.45,.42s.14,.35,.14,.57c0,.35-.13,.62-.4,.83-.27,.21-.63,.31-1.08,.31-.29,0-.57-.06-.82-.17-.25-.11-.45-.27-.59-.46s-.21-.42-.21-.67h.57c0,.26,.1,.46,.29,.61,.19,.15,.44,.22,.76,.22,.3,0,.52-.06,.68-.18s.24-.29,.24-.5-.07-.37-.22-.48c-.15-.12-.41-.23-.8-.34Z"/><path d="M777.03,665.83h-1.37v3.81h-.56v-3.81h-1.37v-.46h3.3v.46Z"/><path d="M780.79,669.64h-.54v-3.61l-1.09,.4v-.49l1.55-.58h.08v4.29Z"/><path d="M784.95,667.82c0,.63-.11,1.11-.33,1.42s-.56,.46-1.02,.46-.79-.15-1.01-.45c-.22-.3-.33-.75-.34-1.35v-.72c0-.63,.11-1.09,.33-1.4s.56-.46,1.02-.46,.8,.15,1.01,.44,.33,.75,.33,1.36v.7Zm-.54-.74c0-.46-.06-.79-.19-1-.13-.21-.33-.31-.61-.31s-.48,.1-.61,.31-.19,.53-.2,.96v.87c0,.46,.07,.8,.2,1.02,.13,.22,.34,.33,.61,.33s.47-.1,.6-.31,.2-.53,.2-.98v-.89Z"/><path d="M786.01,667.5l.22-2.13h2.19v.5h-1.73l-.13,1.16c.21-.12,.45-.18,.71-.18,.39,0,.7,.13,.93,.39s.34,.6,.34,1.04-.12,.79-.36,1.04-.57,.38-.99,.38c-.38,0-.68-.1-.92-.31s-.37-.5-.41-.87h.51c.03,.24,.12,.43,.26,.55,.14,.12,.33,.19,.56,.19,.25,0,.45-.09,.59-.26s.22-.41,.22-.71c0-.29-.08-.51-.23-.69-.16-.17-.36-.26-.62-.26-.24,0-.42,.05-.56,.16l-.14,.12-.43-.11Z"/></g><g><path class="cls-1" d="M748.3,425.84c-.96-.28-1.67-.62-2.11-1.02s-.66-.9-.66-1.5c0-.67,.27-1.23,.81-1.67s1.24-.66,2.09-.66c.59,0,1.11,.11,1.57,.34s.81,.54,1.07,.94,.38,.83,.38,1.31h-1.13c0-.52-.16-.92-.49-1.22s-.79-.44-1.39-.44c-.55,0-.99,.12-1.3,.37-.31,.24-.47,.58-.47,1.02,0,.35,.15,.64,.44,.88,.29,.24,.8,.46,1.51,.66,.71,.2,1.26,.42,1.66,.66s.7,.52,.89,.84,.29,.7,.29,1.13c0,.69-.27,1.25-.81,1.66s-1.26,.62-2.16,.62c-.59,0-1.13-.11-1.64-.34s-.9-.53-1.17-.92-.41-.83-.41-1.33h1.13c0,.52,.19,.92,.57,1.22s.89,.45,1.53,.45c.59,0,1.05-.12,1.37-.36s.47-.57,.47-.99-.15-.74-.44-.97-.82-.45-1.59-.68Z"/><path class="cls-1" d="M758.91,422.03h-2.74v7.61h-1.12v-7.61h-2.74v-.92h6.6v.92Z"/><path class="cls-1" d="M769.66,425.65c0,.82-.13,1.53-.39,2.13s-.63,1.06-1.1,1.4l1.52,1.2-.77,.71-1.8-1.43c-.28,.07-.58,.11-.89,.11-.67,0-1.27-.17-1.79-.5s-.92-.8-1.21-1.41-.43-1.32-.44-2.12v-.62c0-.82,.14-1.54,.43-2.17s.69-1.11,1.21-1.44,1.12-.5,1.79-.5,1.29,.17,1.81,.5,.92,.81,1.2,1.43,.42,1.35,.42,2.18v.54Zm-1.12-.55c0-1-.2-1.78-.6-2.32s-.97-.82-1.71-.82-1.26,.27-1.67,.81-.62,1.29-.63,2.25v.63c0,.98,.2,1.75,.61,2.31s.98,.84,1.7,.84,1.29-.26,1.69-.79,.6-1.29,.62-2.28v-.63Z"/><path class="cls-1" d="M777.42,421.11v5.8c0,.8-.26,1.46-.76,1.97s-1.18,.8-2.04,.86h-.3c-.93,.01-1.68-.24-2.23-.74s-.84-1.2-.84-2.08v-5.81h1.11v5.78c0,.62,.17,1.1,.51,1.44s.82,.51,1.45,.51,1.12-.17,1.46-.51,.51-.82,.51-1.44v-5.78h1.13Z"/><path class="cls-1" d="M783.77,427.41h-3.57l-.8,2.23h-1.16l3.26-8.53h.98l3.26,8.53h-1.15l-.81-2.23Zm-3.23-.92h2.9l-1.45-3.99-1.45,3.99Z"/><path class="cls-1" d="M787.01,429.64v-8.53h2.41c.74,0,1.4,.16,1.97,.49s1.01,.79,1.32,1.4,.47,1.3,.47,2.09v.54c0,.8-.16,1.51-.47,2.12s-.75,1.07-1.33,1.39-1.25,.49-2.01,.5h-2.36Zm1.12-7.61v6.69h1.18c.87,0,1.54-.27,2.02-.81,.48-.54,.72-1.31,.72-2.3v-.5c0-.97-.23-1.72-.68-2.26-.46-.54-1.1-.81-1.94-.82h-1.31Z"/><path class="cls-1" d="M797.99,426.19h-2v3.45h-1.13v-8.53h2.82c.96,0,1.7,.22,2.22,.66s.78,1.07,.78,1.91c0,.53-.14,.99-.43,1.39s-.69,.69-1.2,.88l2,3.62v.07h-1.21l-1.85-3.45Zm-2-.92h1.73c.56,0,1-.14,1.33-.43,.33-.29,.5-.68,.5-1.16,0-.53-.16-.93-.47-1.21-.31-.28-.77-.42-1.36-.43h-1.72v3.24Z"/><path class="cls-1" d="M807.47,427.41h-3.57l-.8,2.23h-1.16l3.26-8.53h.98l3.26,8.53h-1.15l-.81-2.23Zm-3.23-.92h2.9l-1.45-3.99-1.45,3.99Z"/><path class="cls-1" d="M817.27,429.64h-1.13l-4.29-6.57v6.57h-1.13v-8.53h1.13l4.31,6.6v-6.6h1.12v8.53Z"/><path class="cls-1" d="M825.57,428.52c-.29,.41-.69,.72-1.21,.93s-1.12,.31-1.81,.31-1.31-.16-1.85-.49-.96-.79-1.25-1.39-.45-1.3-.45-2.09v-.74c0-1.29,.3-2.28,.9-2.99s1.44-1.06,2.53-1.06c.89,0,1.61,.23,2.15,.68s.88,1.1,1,1.94h-1.12c-.21-1.13-.88-1.7-2.02-1.7-.75,0-1.33,.26-1.71,.79-.39,.53-.58,1.3-.59,2.3v.7c0,.96,.22,1.72,.66,2.28,.44,.57,1.03,.85,1.78,.85,.42,0,.79-.05,1.11-.14,.32-.09,.58-.25,.79-.47v-1.91h-1.97v-.92h3.09v3.13Z"/><path class="cls-1" d="M828.57,428.72h4.04v.92h-5.17v-8.53h1.13v7.61Z"/><path class="cls-1" d="M838.77,425.7h-3.7v3.02h4.29v.92h-5.42v-8.53h5.36v.92h-4.24v2.75h3.7v.92Z"/></g><g><path d="M856.52,667.74c-.48-.14-.83-.31-1.05-.51-.22-.2-.33-.45-.33-.75,0-.34,.13-.61,.4-.83,.27-.22,.62-.33,1.05-.33,.29,0,.55,.06,.78,.17s.41,.27,.53,.47,.19,.42,.19,.65h-.57c0-.26-.08-.46-.25-.61-.16-.15-.4-.22-.69-.22-.28,0-.49,.06-.65,.18s-.23,.29-.23,.51c0,.17,.07,.32,.22,.44,.15,.12,.4,.23,.75,.33s.63,.21,.83,.33c.2,.12,.35,.26,.45,.42s.14,.35,.14,.57c0,.35-.13,.62-.4,.83-.27,.21-.63,.31-1.08,.31-.29,0-.57-.06-.82-.17-.25-.11-.45-.27-.59-.46s-.21-.42-.21-.67h.57c0,.26,.1,.46,.29,.61,.19,.15,.44,.22,.76,.22,.3,0,.52-.06,.68-.18s.24-.29,.24-.5-.07-.37-.22-.48c-.15-.12-.41-.23-.8-.34Z"/><path d="M861.99,665.83h-1.37v3.81h-.56v-3.81h-1.37v-.46h3.3v.46Z"/><path d="M865.75,669.64h-.54v-3.61l-1.09,.4v-.49l1.55-.58h.08v4.29Z"/><path d="M869.91,667.82c0,.63-.11,1.11-.33,1.42s-.56,.46-1.02,.46-.79-.15-1.01-.45c-.22-.3-.33-.75-.34-1.35v-.72c0-.63,.11-1.09,.33-1.4s.56-.46,1.02-.46,.8,.15,1.01,.44,.33,.75,.33,1.36v.7Zm-.54-.74c0-.46-.06-.79-.19-1-.13-.21-.33-.31-.61-.31s-.48,.1-.61,.31-.19,.53-.2,.96v.87c0,.46,.07,.8,.2,1.02,.13,.22,.34,.33,.61,.33s.47-.1,.6-.31,.2-.53,.2-.98v-.89Z"/><path d="M872.93,665.37v.46h-.1c-.42,0-.76,.13-1.01,.38s-.39,.58-.43,1.02c.22-.26,.53-.39,.92-.39s.67,.13,.89,.39,.33,.6,.33,1.01c0,.44-.12,.79-.36,1.05s-.56,.4-.96,.4-.74-.16-.99-.47c-.25-.31-.38-.72-.38-1.21v-.21c0-.79,.17-1.38,.5-1.8s.83-.63,1.5-.64h.1Zm-.71,1.92c-.19,0-.36,.06-.51,.17s-.26,.25-.33,.42v.2c0,.35,.08,.63,.24,.85s.36,.32,.59,.32,.44-.09,.58-.27,.21-.42,.21-.71-.07-.53-.21-.71c-.14-.18-.33-.27-.56-.27Z"/></g><g><path d="M969.55,642.74c-.48-.14-.83-.31-1.05-.51-.22-.2-.33-.45-.33-.75,0-.34,.13-.61,.4-.83,.27-.22,.62-.33,1.05-.33,.29,0,.55,.06,.78,.17s.41,.27,.53,.47,.19,.42,.19,.65h-.57c0-.26-.08-.46-.25-.61-.16-.15-.4-.22-.69-.22-.28,0-.49,.06-.65,.18s-.23,.29-.23,.51c0,.17,.07,.32,.22,.44,.15,.12,.4,.23,.75,.33s.63,.21,.83,.33c.2,.12,.35,.26,.45,.42s.14,.35,.14,.57c0,.35-.13,.62-.4,.83-.27,.21-.63,.31-1.08,.31-.29,0-.57-.06-.82-.17-.25-.11-.45-.27-.59-.46s-.21-.42-.21-.67h.57c0,.26,.1,.46,.29,.61,.19,.15,.44,.22,.76,.22,.3,0,.52-.06,.68-.18s.24-.29,.24-.5-.07-.37-.22-.48c-.15-.12-.41-.23-.8-.34Z"/><path d="M975.03,640.83h-1.37v3.81h-.56v-3.81h-1.37v-.46h3.3v.46Z"/><path d="M978.78,644.64h-.54v-3.61l-1.09,.4v-.49l1.55-.58h.08v4.29Z"/><path d="M982.94,642.82c0,.63-.11,1.11-.33,1.42s-.56,.46-1.02,.46-.79-.15-1.01-.45c-.22-.3-.33-.75-.34-1.35v-.72c0-.63,.11-1.09,.33-1.4s.56-.46,1.02-.46,.8,.15,1.01,.44,.33,.75,.33,1.36v.7Zm-.54-.74c0-.46-.06-.79-.19-1-.13-.21-.33-.31-.61-.31s-.48,.1-.61,.31-.19,.53-.2,.96v.87c0,.46,.07,.8,.2,1.02,.13,.22,.34,.33,.61,.33s.47-.1,.6-.31,.2-.53,.2-.98v-.89Z"/><path d="M986.52,640.68l-1.77,3.96h-.57l1.76-3.82h-2.31v-.45h2.88v.3Z"/></g><g><path d="M1058.61,643.64v-4.27h1.2c.37,0,.7,.08,.98,.25s.5,.4,.66,.7,.23,.65,.24,1.04v.27c0,.4-.08,.75-.23,1.06s-.38,.54-.67,.7-.62,.25-1.01,.25h-1.18Zm.56-3.81v3.35h.59c.43,0,.77-.13,1.01-.4,.24-.27,.36-.65,.36-1.15v-.25c0-.48-.11-.86-.34-1.13s-.55-.41-.97-.41h-.66Z"/><path d="M1063.3,643.64h-.56v-4.27h.56v4.27Z"/><path d="M1066.07,641.91h-1v1.73h-.57v-4.27h1.41c.48,0,.85,.11,1.11,.33s.39,.54,.39,.96c0,.27-.07,.5-.21,.69s-.34,.34-.6,.44l1,1.81v.04h-.6l-.93-1.73Zm-1-.46h.86c.28,0,.5-.07,.67-.22,.17-.15,.25-.34,.25-.58,0-.26-.08-.47-.24-.61-.16-.14-.38-.21-.68-.21h-.86v1.62Z"/><path d="M1070.83,641.67h-1.85v1.51h2.15v.46h-2.71v-4.27h2.68v.46h-2.12v1.37h1.85v.46Z"/><path d="M1075.07,642.29c-.05,.45-.22,.8-.5,1.04s-.65,.37-1.12,.37c-.5,0-.91-.18-1.21-.54s-.46-.84-.46-1.45v-.41c0-.4,.07-.75,.21-1.05s.34-.53,.6-.69c.26-.16,.56-.24,.9-.24,.45,0,.82,.13,1.09,.38,.27,.25,.43,.6,.48,1.05h-.57c-.05-.34-.16-.59-.32-.74-.16-.15-.39-.23-.68-.23-.36,0-.64,.13-.85,.4-.2,.27-.31,.64-.31,1.13v.41c0,.46,.1,.83,.29,1.11,.19,.27,.46,.41,.81,.41,.31,0,.55-.07,.72-.21s.28-.39,.33-.74h.57Z"/><path d="M1078.97,639.83h-1.37v3.81h-.56v-3.81h-1.37v-.46h3.3v.46Z"/><path d="M1082.96,641.64c0,.42-.07,.78-.21,1.09s-.34,.55-.6,.71-.56,.25-.9,.25-.63-.08-.89-.25c-.26-.16-.46-.4-.61-.71s-.22-.66-.22-1.06v-.31c0-.41,.07-.77,.21-1.09s.34-.55,.6-.72c.26-.17,.56-.25,.9-.25s.64,.08,.9,.25,.46,.4,.6,.72c.14,.31,.21,.68,.21,1.09v.27Zm-.56-.28c0-.51-.1-.89-.3-1.17-.2-.27-.49-.41-.85-.41s-.64,.14-.84,.41c-.2,.27-.31,.65-.31,1.13v.31c0,.49,.1,.88,.31,1.16,.21,.28,.49,.42,.85,.42s.64-.13,.84-.4c.2-.26,.3-.64,.31-1.14v-.32Z"/><path d="M1085.55,641.91h-1v1.73h-.57v-4.27h1.41c.48,0,.85,.11,1.11,.33s.39,.54,.39,.96c0,.27-.07,.5-.21,.69s-.34,.34-.6,.44l1,1.81v.04h-.6l-.93-1.73Zm-1-.46h.86c.28,0,.5-.07,.67-.22,.17-.15,.25-.34,.25-.58,0-.26-.08-.47-.24-.61-.16-.14-.38-.21-.68-.21h-.86v1.62Z"/><path d="M1087.93,640.57l-.31-.21c.18-.25,.28-.52,.28-.8v-.42h.54v.38c0,.2-.05,.39-.14,.58-.09,.2-.22,.35-.37,.47Z"/><path d="M1090.65,641.74c-.48-.14-.83-.31-1.05-.51-.22-.2-.33-.45-.33-.75,0-.34,.13-.61,.4-.83,.27-.22,.62-.33,1.05-.33,.29,0,.55,.06,.78,.17s.41,.27,.53,.47,.19,.42,.19,.65h-.57c0-.26-.08-.46-.25-.61-.16-.15-.4-.22-.69-.22-.28,0-.49,.06-.65,.18s-.23,.29-.23,.51c0,.17,.07,.32,.22,.44,.15,.12,.4,.23,.75,.33s.63,.21,.83,.33c.2,.12,.35,.26,.45,.42s.14,.35,.14,.57c0,.35-.13,.62-.4,.83-.27,.21-.63,.31-1.08,.31-.29,0-.57-.06-.82-.17-.25-.11-.45-.27-.59-.46s-.21-.42-.21-.67h.57c0,.26,.1,.46,.29,.61,.19,.15,.44,.22,.76,.22,.3,0,.52-.06,.68-.18s.24-.29,.24-.5-.07-.37-.22-.48c-.15-.12-.41-.23-.8-.34Z"/><path d="M1069.19,649.49c-.05,.45-.22,.8-.5,1.04s-.65,.37-1.12,.37c-.5,0-.91-.18-1.21-.54s-.46-.84-.46-1.45v-.41c0-.4,.07-.75,.21-1.05s.34-.53,.6-.69c.26-.16,.56-.24,.9-.24,.45,0,.82,.13,1.09,.38,.27,.25,.43,.6,.48,1.05h-.57c-.05-.34-.16-.59-.32-.74-.16-.15-.39-.23-.68-.23-.36,0-.64,.13-.85,.4-.2,.27-.31,.64-.31,1.13v.41c0,.46,.1,.83,.29,1.11,.19,.27,.46,.41,.81,.41,.31,0,.55-.07,.72-.21s.28-.39,.33-.74h.57Z"/><path d="M1070.71,650.38h2.02v.46h-2.59v-4.27h.57v3.81Z"/><path d="M1074.16,650.84h-.56v-4.27h.56v4.27Z"/><path d="M1078.64,650.84h-.57l-2.15-3.29v3.29h-.57v-4.27h.57l2.15,3.3v-3.3h.56v4.27Z"/><path d="M1080.41,650.84h-.56v-4.27h.56v4.27Z"/><path d="M1084.75,649.49c-.05,.45-.22,.8-.5,1.04s-.65,.37-1.12,.37c-.5,0-.91-.18-1.21-.54s-.46-.84-.46-1.45v-.41c0-.4,.07-.75,.21-1.05s.34-.53,.6-.69c.26-.16,.56-.24,.9-.24,.45,0,.82,.13,1.09,.38,.27,.25,.43,.6,.48,1.05h-.57c-.05-.34-.16-.59-.32-.74-.16-.15-.39-.23-.68-.23-.36,0-.64,.13-.85,.4-.2,.27-.31,.64-.31,1.13v.41c0,.46,.1,.83,.29,1.11,.19,.27,.46,.41,.81,.41,.31,0,.55-.07,.72-.21s.28-.39,.33-.74h.57Z"/></g><g><path d="M1009.88,700.74c-.48-.14-.83-.31-1.05-.51-.22-.2-.33-.45-.33-.75,0-.34,.13-.61,.4-.83,.27-.22,.62-.33,1.05-.33,.29,0,.55,.06,.78,.17s.41,.27,.53,.47,.19,.42,.19,.65h-.57c0-.26-.08-.46-.25-.61-.16-.15-.4-.22-.69-.22-.28,0-.49,.06-.65,.18s-.23,.29-.23,.51c0,.17,.07,.32,.22,.44,.15,.12,.4,.23,.75,.33s.63,.21,.83,.33c.2,.12,.35,.26,.45,.42s.15,.35,.15,.57c0,.35-.13,.62-.4,.83-.27,.21-.63,.31-1.08,.31-.29,0-.57-.06-.82-.17-.25-.11-.45-.27-.59-.46s-.21-.42-.21-.67h.57c0,.26,.09,.46,.29,.61,.19,.15,.45,.22,.76,.22,.3,0,.52-.06,.68-.18s.24-.29,.24-.5-.07-.37-.22-.48c-.15-.12-.41-.23-.8-.34Z"/><path d="M1015.36,698.83h-1.37v3.81h-.56v-3.81h-1.37v-.46h3.3v.46Z"/><path d="M1020.61,701.29c-.05,.45-.22,.8-.5,1.04s-.65,.37-1.12,.37c-.5,0-.91-.18-1.21-.54s-.46-.84-.46-1.45v-.41c0-.4,.07-.75,.21-1.05s.34-.53,.6-.69c.26-.16,.56-.24,.9-.24,.45,0,.82,.13,1.09,.38,.27,.25,.43,.6,.48,1.05h-.57c-.05-.34-.16-.59-.32-.74-.16-.15-.39-.23-.68-.23-.36,0-.64,.13-.85,.4-.2,.27-.31,.64-.31,1.13v.41c0,.46,.1,.83,.29,1.11,.19,.27,.46,.41,.81,.41,.31,0,.55-.07,.72-.21s.28-.39,.33-.74h.57Z"/><path d="M1022.14,702.18h2.02v.46h-2.59v-4.27h.57v3.81Z"/><path d="M1025.59,702.64h-.56v-4.27h.56v4.27Z"/><path d="M1030.07,702.64h-.57l-2.15-3.29v3.29h-.57v-4.27h.57l2.15,3.3v-3.3h.56v4.27Z"/><path d="M1031.83,702.64h-.56v-4.27h.56v4.27Z"/><path d="M1036.18,701.29c-.05,.45-.22,.8-.5,1.04s-.65,.37-1.12,.37c-.5,0-.91-.18-1.21-.54s-.46-.84-.46-1.45v-.41c0-.4,.07-.75,.21-1.05s.34-.53,.6-.69c.26-.16,.56-.24,.9-.24,.45,0,.82,.13,1.09,.38,.27,.25,.43,.6,.48,1.05h-.57c-.05-.34-.16-.59-.32-.74-.16-.15-.39-.23-.68-.23-.36,0-.64,.13-.85,.4-.2,.27-.31,.64-.31,1.13v.41c0,.46,.1,.83,.29,1.11,.19,.27,.46,.41,.81,.41,.31,0,.55-.07,.72-.21s.28-.39,.33-.74h.57Z"/></g><g><path d="M426.36,675.75h-1.79v1.88h-.56v-4.27h2.64v.46h-2.08v1.46h1.79v.46Z"/><path d="M429.92,675.67h-1.85v1.51h2.15v.46h-2.71v-4.27h2.68v.46h-2.12v1.37h1.85v.46Z"/><path d="M431.83,673.37l1.39,3.48,1.39-3.48h.73v4.27h-.56v-1.66l.05-1.79-1.4,3.45h-.43l-1.4-3.45,.06,1.78v1.66h-.56v-4.27h.73Z"/><path d="M438.93,676.52h-1.79l-.4,1.12h-.58l1.63-4.27h.49l1.63,4.27h-.58l-.41-1.12Zm-1.62-.46h1.45l-.73-2-.72,2Z"/><path d="M441.28,677.18h2.02v.46h-2.59v-4.27h.57v3.81Z"/><path d="M446.56,675.67h-1.85v1.51h2.15v.46h-2.71v-4.27h2.68v.46h-2.12v1.37h1.85v.46Z"/><path d="M420.48,682.96h-1.79v1.88h-.56v-4.27h2.64v.46h-2.08v1.46h1.79v.46Z"/><path d="M423.74,683.72h-1.79l-.4,1.12h-.58l1.63-4.27h.49l1.63,4.27h-.58l-.41-1.12Zm-1.62-.46h1.45l-.73-2-.72,2Z"/><path d="M428.51,683.49c-.05,.45-.22,.8-.5,1.04s-.65,.37-1.12,.37c-.5,0-.91-.18-1.21-.54s-.46-.84-.46-1.45v-.41c0-.4,.07-.75,.21-1.05s.34-.53,.6-.69c.26-.16,.56-.24,.9-.24,.45,0,.82,.13,1.09,.38,.27,.25,.43,.6,.48,1.05h-.57c-.05-.34-.15-.59-.32-.74-.16-.15-.39-.23-.68-.23-.36,0-.64,.13-.84,.4-.2,.27-.31,.64-.31,1.13v.41c0,.46,.1,.83,.29,1.11,.19,.27,.46,.41,.81,.41,.31,0,.55-.07,.72-.21s.28-.39,.33-.74h.57Z"/><path d="M432.48,680.57v2.9c0,.4-.13,.73-.38,.99s-.59,.4-1.02,.43h-.15c-.47,0-.84-.12-1.12-.37s-.42-.6-.42-1.04v-2.91h.56v2.89c0,.31,.08,.55,.25,.72,.17,.17,.41,.26,.73,.26s.56-.08,.73-.25,.25-.41,.25-.72v-2.89h.57Z"/><path d="M434.16,684.38h2.02v.46h-2.59v-4.27h.57v3.81Z"/><path d="M439.52,681.03h-1.37v3.81h-.56v-3.81h-1.37v-.46h3.3v.46Z"/><path d="M441.86,682.71l1.11-2.14h.64l-1.47,2.67v1.59h-.56v-1.59l-1.47-2.67h.64l1.11,2.14Z"/><path d="M448.79,683.49c-.05,.45-.22,.8-.5,1.04s-.65,.37-1.12,.37c-.5,0-.91-.18-1.21-.54s-.46-.84-.46-1.45v-.41c0-.4,.07-.75,.21-1.05s.34-.53,.6-.69c.26-.16,.56-.24,.9-.24,.45,0,.82,.13,1.09,.38,.27,.25,.43,.6,.48,1.05h-.57c-.05-.34-.15-.59-.32-.74-.16-.15-.39-.23-.68-.23-.36,0-.64,.13-.84,.4-.2,.27-.31,.64-.31,1.13v.41c0,.46,.1,.83,.29,1.11,.19,.27,.46,.41,.81,.41,.31,0,.55-.07,.72-.21s.28-.39,.33-.74h.57Z"/><path d="M451.31,683.11h-1v1.73h-.57v-4.27h1.41c.48,0,.85,.11,1.11,.33s.39,.54,.39,.96c0,.27-.07,.5-.22,.69s-.34,.34-.6,.44l1,1.81v.04h-.6l-.93-1.73Zm-1-.46h.86c.28,0,.5-.07,.67-.22,.17-.15,.25-.34,.25-.58,0-.26-.08-.47-.24-.61-.16-.14-.38-.21-.68-.21h-.86v1.62Z"/></g><g><path d="M502.28,663.37l1.39,3.48,1.39-3.48h.73v4.27h-.56v-1.66l.05-1.79-1.4,3.45h-.43l-1.4-3.45,.06,1.78v1.66h-.56v-4.27h.73Z"/><path d="M509.38,666.52h-1.79l-.4,1.12h-.58l1.63-4.27h.49l1.63,4.27h-.58l-.41-1.12Zm-1.62-.46h1.45l-.73-2-.72,2Z"/><path d="M511.74,667.18h2.02v.46h-2.59v-4.27h.57v3.81Z"/><path d="M517.02,665.67h-1.85v1.51h2.15v.46h-2.71v-4.27h2.68v.46h-2.12v1.37h1.85v.46Z"/><path d="M494.48,672.96h-1.79v1.88h-.56v-4.27h2.64v.46h-2.08v1.46h1.79v.46Z"/><path d="M497.74,673.72h-1.79l-.4,1.12h-.58l1.63-4.27h.49l1.63,4.27h-.58l-.41-1.12Zm-1.62-.46h1.45l-.73-2-.72,2Z"/><path d="M502.51,673.49c-.05,.45-.22,.8-.5,1.04s-.65,.37-1.12,.37c-.5,0-.91-.18-1.21-.54s-.46-.84-.46-1.45v-.41c0-.4,.07-.75,.21-1.05s.34-.53,.6-.69c.26-.16,.56-.24,.9-.24,.45,0,.82,.13,1.09,.38,.27,.25,.43,.6,.48,1.05h-.57c-.05-.34-.15-.59-.32-.74-.16-.15-.39-.23-.68-.23-.36,0-.64,.13-.84,.4-.2,.27-.31,.64-.31,1.13v.41c0,.46,.1,.83,.29,1.11,.19,.27,.46,.41,.81,.41,.31,0,.55-.07,.72-.21s.28-.39,.33-.74h.57Z"/><path d="M506.48,670.57v2.9c0,.4-.13,.73-.38,.99s-.59,.4-1.02,.43h-.15c-.47,0-.84-.12-1.12-.37s-.42-.6-.42-1.04v-2.91h.56v2.89c0,.31,.08,.55,.25,.72,.17,.17,.41,.26,.73,.26s.56-.08,.73-.25,.25-.41,.25-.72v-2.89h.57Z"/><path d="M508.16,674.38h2.02v.46h-2.59v-4.27h.57v3.81Z"/><path d="M513.52,671.03h-1.37v3.81h-.56v-3.81h-1.37v-.46h3.3v.46Z"/><path d="M515.86,672.71l1.11-2.14h.64l-1.47,2.67v1.59h-.56v-1.59l-1.47-2.67h.64l1.11,2.14Z"/><path d="M522.79,673.49c-.05,.45-.22,.8-.5,1.04s-.65,.37-1.12,.37c-.5,0-.91-.18-1.21-.54s-.46-.84-.46-1.45v-.41c0-.4,.07-.75,.21-1.05s.34-.53,.6-.69c.26-.16,.56-.24,.9-.24,.45,0,.82,.13,1.09,.38,.27,.25,.43,.6,.48,1.05h-.57c-.05-.34-.15-.59-.32-.74-.16-.15-.39-.23-.68-.23-.36,0-.64,.13-.84,.4-.2,.27-.31,.64-.31,1.13v.41c0,.46,.1,.83,.29,1.11,.19,.27,.46,.41,.81,.41,.31,0,.55-.07,.72-.21s.28-.39,.33-.74h.57Z"/><path d="M525.31,673.11h-1v1.73h-.57v-4.27h1.41c.48,0,.85,.11,1.11,.33s.39,.54,.39,.96c0,.27-.07,.5-.22,.69s-.34,.34-.6,.44l1,1.81v.04h-.6l-.93-1.73Zm-1-.46h.86c.28,0,.5-.07,.67-.22,.17-.15,.25-.34,.25-.58,0-.26-.08-.47-.24-.61-.16-.14-.38-.21-.68-.21h-.86v1.62Z"/></g><g><path d="M462.36,665.75h-1.79v1.88h-.56v-4.27h2.64v.46h-2.08v1.46h1.79v.46Z"/><path d="M465.92,665.67h-1.85v1.51h2.15v.46h-2.71v-4.27h2.68v.46h-2.12v1.37h1.85v.46Z"/><path d="M467.83,663.37l1.39,3.48,1.39-3.48h.73v4.27h-.56v-1.66l.05-1.79-1.4,3.45h-.43l-1.4-3.45,.06,1.78v1.66h-.56v-4.27h.73Z"/><path d="M474.93,666.52h-1.79l-.4,1.12h-.58l1.63-4.27h.49l1.63,4.27h-.58l-.41-1.12Zm-1.62-.46h1.45l-.73-2-.72,2Z"/><path d="M477.28,667.18h2.02v.46h-2.59v-4.27h.57v3.81Z"/><path d="M482.56,665.67h-1.85v1.51h2.15v.46h-2.71v-4.27h2.68v.46h-2.12v1.37h1.85v.46Z"/><path d="M471.03,673.49c-.05,.45-.22,.8-.5,1.04s-.65,.37-1.12,.37c-.5,0-.91-.18-1.21-.54s-.46-.84-.46-1.45v-.41c0-.4,.07-.75,.21-1.05s.34-.53,.6-.69c.26-.16,.56-.24,.9-.24,.45,0,.82,.13,1.09,.38,.27,.25,.43,.6,.48,1.05h-.57c-.05-.34-.16-.59-.32-.74-.16-.15-.39-.23-.68-.23-.36,0-.64,.13-.85,.4-.2,.27-.31,.64-.31,1.13v.41c0,.46,.1,.83,.29,1.11,.19,.27,.46,.41,.81,.41,.31,0,.55-.07,.72-.21s.28-.39,.33-.74h.57Z"/><path d="M473.55,673.11h-1v1.73h-.57v-4.27h1.41c.48,0,.85,.11,1.11,.33s.39,.54,.39,.96c0,.27-.07,.5-.21,.69s-.34,.34-.6,.44l1,1.81v.04h-.6l-.93-1.73Zm-1-.46h.86c.28,0,.5-.07,.67-.22,.17-.15,.25-.34,.25-.58,0-.26-.08-.47-.24-.61-.16-.14-.38-.21-.68-.21h-.86v1.62Z"/></g><g><path d="M445.49,559.74c-.48-.14-.83-.31-1.05-.51-.22-.2-.33-.45-.33-.75,0-.34,.13-.61,.4-.83,.27-.22,.62-.33,1.05-.33,.29,0,.55,.06,.78,.17s.41,.27,.53,.47,.19,.42,.19,.65h-.57c0-.26-.08-.46-.25-.61-.16-.15-.4-.22-.69-.22-.28,0-.49,.06-.65,.18s-.23,.29-.23,.51c0,.17,.07,.32,.22,.44,.15,.12,.4,.23,.75,.33s.63,.21,.83,.33c.2,.12,.35,.26,.45,.42s.14,.35,.14,.57c0,.35-.13,.62-.4,.83-.27,.21-.63,.31-1.08,.31-.29,0-.57-.06-.82-.17-.25-.11-.45-.27-.59-.46s-.21-.42-.21-.67h.57c0,.26,.1,.46,.29,.61,.19,.15,.44,.22,.76,.22,.3,0,.52-.06,.68-.18s.24-.29,.24-.5-.07-.37-.22-.48c-.15-.12-.41-.23-.8-.34Z"/><path d="M450.96,557.83h-1.37v3.81h-.56v-3.81h-1.37v-.46h3.3v.46Z"/><path d="M454.72,561.64h-.54v-3.61l-1.09,.4v-.49l1.55-.58h.08v4.29Z"/><path d="M458.88,559.82c0,.63-.11,1.11-.33,1.42s-.56,.46-1.02,.46-.79-.15-1.01-.45c-.22-.3-.33-.75-.34-1.35v-.72c0-.63,.11-1.09,.33-1.4s.56-.46,1.02-.46,.8,.15,1.01,.44,.33,.75,.33,1.36v.7Zm-.54-.74c0-.46-.06-.79-.19-1-.13-.21-.33-.31-.61-.31s-.48,.1-.61,.31-.19,.53-.2,.96v.87c0,.46,.07,.8,.2,1.02,.13,.22,.34,.33,.61,.33s.47-.1,.6-.31,.2-.53,.2-.98v-.89Z"/><path d="M462.12,560.21h.59v.44h-.59v.99h-.54v-.99h-1.94v-.32l1.91-2.96h.58v2.83Zm-1.87,0h1.33v-2.09l-.06,.12-1.26,1.97Z"/></g><g><path d="M445.52,492.74c-.48-.14-.83-.31-1.05-.51-.22-.2-.33-.45-.33-.75,0-.34,.13-.61,.4-.83,.27-.22,.62-.33,1.05-.33,.29,0,.55,.06,.78,.17s.41,.27,.53,.47,.19,.42,.19,.65h-.57c0-.26-.08-.46-.25-.61-.16-.15-.4-.22-.69-.22-.28,0-.49,.06-.65,.18s-.23,.29-.23,.51c0,.17,.07,.32,.22,.44,.15,.12,.4,.23,.75,.33s.63,.21,.83,.33c.2,.12,.35,.26,.45,.42s.14,.35,.14,.57c0,.35-.13,.62-.4,.83-.27,.21-.63,.31-1.08,.31-.29,0-.57-.06-.82-.17-.25-.11-.45-.27-.59-.46s-.21-.42-.21-.67h.57c0,.26,.1,.46,.29,.61,.19,.15,.44,.22,.76,.22,.3,0,.52-.06,.68-.18s.24-.29,.24-.5-.07-.37-.22-.48c-.15-.12-.41-.23-.8-.34Z"/><path d="M450.99,490.83h-1.37v3.81h-.56v-3.81h-1.37v-.46h3.3v.46Z"/><path d="M454.75,494.64h-.54v-3.61l-1.09,.4v-.49l1.55-.58h.08v4.29Z"/><path d="M458.91,492.82c0,.63-.11,1.11-.33,1.42s-.56,.46-1.02,.46-.79-.15-1.01-.45c-.22-.3-.33-.75-.34-1.35v-.72c0-.63,.11-1.09,.33-1.4s.56-.46,1.02-.46,.8,.15,1.01,.44,.33,.75,.33,1.36v.7Zm-.54-.74c0-.46-.06-.79-.19-1-.13-.21-.33-.31-.61-.31s-.48,.1-.61,.31-.19,.53-.2,.96v.87c0,.46,.07,.8,.2,1.02,.13,.22,.34,.33,.61,.33s.47-.1,.6-.31,.2-.53,.2-.98v-.89Z"/><path d="M460.59,492.24h.41c.26,0,.46-.07,.6-.2s.22-.31,.22-.53c0-.5-.25-.75-.75-.75-.23,0-.42,.07-.56,.2s-.21,.31-.21,.53h-.54c0-.34,.12-.62,.37-.84s.56-.34,.94-.34c.4,0,.72,.11,.95,.32s.34,.51,.34,.89c0,.19-.06,.37-.18,.54s-.28,.3-.49,.39c.23,.07,.42,.2,.54,.37s.19,.38,.19,.63c0,.38-.12,.69-.38,.91s-.58,.34-.98,.34-.73-.11-.98-.33-.38-.5-.38-.86h.54c0,.22,.07,.4,.22,.54s.34,.2,.59,.2c.26,0,.46-.07,.6-.21s.21-.33,.21-.59-.08-.44-.23-.57-.37-.2-.66-.21h-.41v-.44Z"/></g><g><path d="M445.51,327.74c-.48-.14-.83-.31-1.05-.51-.22-.2-.33-.45-.33-.75,0-.34,.13-.61,.4-.83,.27-.22,.62-.33,1.05-.33,.29,0,.55,.06,.78,.17s.41,.27,.53,.47,.19,.42,.19,.65h-.57c0-.26-.08-.46-.25-.61-.16-.15-.4-.22-.69-.22-.28,0-.49,.06-.65,.18s-.23,.29-.23,.51c0,.17,.07,.32,.22,.44,.15,.12,.4,.23,.75,.33s.63,.21,.83,.33c.2,.12,.35,.26,.45,.42s.15,.35,.15,.57c0,.35-.13,.62-.4,.83-.27,.21-.63,.31-1.08,.31-.29,0-.57-.06-.82-.17-.25-.11-.45-.27-.59-.46s-.21-.42-.21-.67h.57c0,.26,.09,.46,.29,.61,.19,.15,.45,.22,.76,.22,.3,0,.52-.06,.68-.18s.24-.29,.24-.5-.07-.37-.22-.48c-.15-.12-.41-.23-.8-.34Z"/><path d="M450.99,325.83h-1.37v3.81h-.56v-3.81h-1.37v-.46h3.3v.46Z"/><path d="M454.75,329.64h-.54v-3.61l-1.09,.4v-.49l1.55-.58h.08v4.29Z"/><path d="M458.9,327.82c0,.63-.11,1.11-.33,1.42s-.56,.46-1.02,.46-.79-.15-1.01-.45c-.22-.3-.33-.75-.34-1.35v-.72c0-.63,.11-1.09,.33-1.4s.56-.46,1.02-.46,.8,.15,1.01,.44,.33,.75,.33,1.36v.7Zm-.54-.74c0-.46-.06-.79-.19-1-.13-.21-.33-.31-.61-.31s-.48,.1-.61,.31-.19,.53-.2,.96v.87c0,.46,.07,.8,.2,1.02,.13,.22,.34,.33,.61,.33s.47-.1,.6-.31,.2-.53,.2-.98v-.89Z"/><path d="M462.6,329.64h-2.79v-.39l1.48-1.64c.22-.25,.37-.45,.45-.6,.08-.16,.12-.32,.12-.48,0-.22-.07-.41-.2-.55s-.31-.21-.54-.21c-.27,0-.48,.08-.63,.23s-.22,.37-.22,.64h-.54c0-.39,.13-.71,.38-.95s.59-.36,1.02-.36c.4,0,.71,.1,.94,.31,.23,.21,.35,.48,.35,.83,0,.42-.27,.92-.8,1.5l-1.14,1.24h2.14v.44Z"/></g><g><path d="M445.57,259.74c-.48-.14-.83-.31-1.05-.51-.22-.2-.33-.45-.33-.75,0-.34,.13-.61,.4-.83,.27-.22,.62-.33,1.05-.33,.29,0,.55,.06,.78,.17s.41,.27,.53,.47,.19,.42,.19,.65h-.57c0-.26-.08-.46-.25-.61-.16-.15-.4-.22-.69-.22-.28,0-.49,.06-.65,.18s-.23,.29-.23,.51c0,.17,.07,.32,.22,.44,.15,.12,.4,.23,.75,.33s.63,.21,.83,.33c.2,.12,.35,.26,.45,.42s.15,.35,.15,.57c0,.35-.13,.62-.4,.83-.27,.21-.63,.31-1.08,.31-.29,0-.57-.06-.82-.17-.25-.11-.45-.27-.59-.46s-.21-.42-.21-.67h.57c0,.26,.09,.46,.29,.61,.19,.15,.45,.22,.76,.22,.3,0,.52-.06,.68-.18s.24-.29,.24-.5-.07-.37-.22-.48c-.15-.12-.41-.23-.8-.34Z"/><path d="M451.05,257.83h-1.37v3.81h-.56v-3.81h-1.37v-.46h3.3v.46Z"/><path d="M454.8,261.64h-.54v-3.61l-1.09,.4v-.49l1.55-.58h.08v4.29Z"/><path d="M458.96,259.82c0,.63-.11,1.11-.33,1.42s-.56,.46-1.02,.46-.79-.15-1.01-.45c-.22-.3-.33-.75-.34-1.35v-.72c0-.63,.11-1.09,.33-1.4s.56-.46,1.02-.46,.8,.15,1.01,.44,.33,.75,.33,1.36v.7Zm-.54-.74c0-.46-.06-.79-.19-1-.13-.21-.33-.31-.61-.31s-.48,.1-.61,.31-.19,.53-.2,.96v.87c0,.46,.07,.8,.2,1.02,.13,.22,.34,.33,.61,.33s.47-.1,.6-.31,.2-.53,.2-.98v-.89Z"/><path d="M461.53,261.64h-.54v-3.61l-1.09,.4v-.49l1.55-.58h.08v4.29Z"/></g><g><path d="M541.28,663.37l1.39,3.48,1.39-3.48h.73v4.27h-.56v-1.66l.05-1.79-1.4,3.45h-.43l-1.4-3.45,.06,1.78v1.66h-.56v-4.27h.73Z"/><path d="M548.38,666.52h-1.79l-.4,1.12h-.58l1.63-4.27h.49l1.63,4.27h-.58l-.41-1.12Zm-1.62-.46h1.45l-.73-2-.72,2Z"/><path d="M550.74,667.18h2.02v.46h-2.59v-4.27h.57v3.81Z"/><path d="M556.02,665.67h-1.85v1.51h2.15v.46h-2.71v-4.27h2.68v.46h-2.12v1.37h1.85v.46Z"/><path d="M548.03,673.49c-.05,.45-.22,.8-.5,1.04s-.65,.37-1.12,.37c-.5,0-.91-.18-1.21-.54s-.46-.84-.46-1.45v-.41c0-.4,.07-.75,.21-1.05s.34-.53,.6-.69c.26-.16,.56-.24,.9-.24,.45,0,.82,.13,1.09,.38,.27,.25,.43,.6,.48,1.05h-.57c-.05-.34-.16-.59-.32-.74-.16-.15-.39-.23-.68-.23-.36,0-.64,.13-.85,.4-.2,.27-.31,.64-.31,1.13v.41c0,.46,.1,.83,.29,1.11,.19,.27,.46,.41,.81,.41,.31,0,.55-.07,.72-.21s.28-.39,.33-.74h.57Z"/><path d="M550.55,673.11h-1v1.73h-.57v-4.27h1.41c.48,0,.85,.11,1.11,.33s.39,.54,.39,.96c0,.27-.07,.5-.21,.69s-.34,.34-.6,.44l1,1.81v.04h-.6l-.93-1.73Zm-1-.46h.86c.28,0,.5-.07,.67-.22,.17-.15,.25-.34,.25-.58,0-.26-.08-.47-.24-.61-.16-.14-.38-.21-.68-.21h-.86v1.62Z"/></g></g><g><rect class="cls-5" x="411.87" y="632.28" width="24" height="19.2" transform="translate(847.75 1283.75) rotate(180)"/><g><line class="cls-3" x1="419.08" y1="648.12" x2="419.08" y2="643.32"/><line class="cls-3" x1="419.08" y1="643.8" x2="423.88" y2="643.8"/><line class="cls-3" x1="428.67" y1="640.44" x2="428.67" y2="635.64"/><line class="cls-3" x1="428.67" y1="636.12" x2="433.47" y2="636.12"/><line class="cls-3" x1="423.88" y1="644.28" x2="423.88" y2="639.48"/><line class="cls-3" x1="423.88" y1="639.96" x2="428.68" y2="639.96"/><line class="cls-3" x1="414.28" y1="647.64" x2="419.08" y2="647.64"/></g></g><g><rect class="cls-5" x="415.88" y="404.28" width="24" height="19.2" transform="translate(855.75 827.75) rotate(180)"/><g><line class="cls-3" x1="423.08" y1="420.12" x2="423.08" y2="415.32"/><line class="cls-3" x1="423.08" y1="415.8" x2="427.88" y2="415.8"/><line class="cls-3" x1="432.67" y1="412.44" x2="432.67" y2="407.64"/><line class="cls-3" x1="432.67" y1="408.12" x2="437.48" y2="408.12"/><line class="cls-3" x1="427.88" y1="416.28" x2="427.88" y2="411.48"/><line class="cls-3" x1="427.88" y1="411.96" x2="432.67" y2="411.96"/><line class="cls-3" x1="418.27" y1="419.64" x2="423.08" y2="419.64"/></g></g><g><rect class="cls-5" x="949.88" y="195.28" width="24" height="19.2"/><g><line class="cls-3" x1="966.68" y1="198.64" x2="966.67" y2="203.44"/><line class="cls-3" x1="966.67" y1="202.96" x2="961.88" y2="202.96"/><line class="cls-3" x1="957.08" y1="206.32" x2="957.07" y2="211.12"/><line class="cls-3" x1="957.07" y1="210.64" x2="952.28" y2="210.64"/><line class="cls-3" x1="961.88" y1="202.48" x2="961.87" y2="207.28"/><line class="cls-3" x1="961.87" y1="206.8" x2="957.08" y2="206.8"/><line class="cls-3" x1="971.47" y1="199.12" x2="966.68" y2="199.12"/></g></g><g><rect class="cls-5" x="1083.88" y="280.28" width="24" height="19.2"/><g><line class="cls-3" x1="1100.68" y1="283.64" x2="1100.67" y2="288.44"/><line class="cls-3" x1="1100.67" y1="287.96" x2="1095.88" y2="287.96"/><line class="cls-3" x1="1091.08" y1="291.32" x2="1091.07" y2="296.12"/><line class="cls-3" x1="1091.07" y1="295.64" x2="1086.28" y2="295.64"/><line class="cls-3" x1="1095.88" y1="287.48" x2="1095.87" y2="292.28"/><line class="cls-3" x1="1095.87" y1="291.8" x2="1091.08" y2="291.8"/><line class="cls-3" x1="1105.47" y1="284.12" x2="1100.68" y2="284.12"/></g></g><g><rect class="cls-5" x="905.88" y="631.28" width="24" height="19.2" transform="translate(1835.75 1281.75) rotate(180)"/><g><line class="cls-3" x1="913.08" y1="647.12" x2="913.08" y2="642.32"/><line class="cls-3" x1="913.08" y1="642.8" x2="917.88" y2="642.8"/><line class="cls-3" x1="922.67" y1="639.44" x2="922.67" y2="634.64"/><line class="cls-3" x1="922.67" y1="635.12" x2="927.48" y2="635.12"/><line class="cls-3" x1="917.88" y1="643.28" x2="917.88" y2="638.48"/><line class="cls-3" x1="917.88" y1="638.96" x2="922.67" y2="638.96"/><line class="cls-3" x1="908.28" y1="646.64" x2="913.08" y2="646.64"/></g></g><g><rect class="cls-5" x="527.87" y="194.28" width="24" height="19.2" transform="translate(1079.75 407.75) rotate(180)"/><g><line class="cls-3" x1="535.08" y1="210.12" x2="535.08" y2="205.32"/><line class="cls-3" x1="535.08" y1="205.8" x2="539.87" y2="205.8"/><line class="cls-3" x1="544.68" y1="202.44" x2="544.68" y2="197.64"/><line class="cls-3" x1="544.68" y1="198.12" x2="549.48" y2="198.12"/><line class="cls-3" x1="539.87" y1="206.28" x2="539.87" y2="201.48"/><line class="cls-3" x1="539.87" y1="201.96" x2="544.68" y2="201.96"/><line class="cls-3" x1="530.28" y1="209.64" x2="535.08" y2="209.64"/></g></g></svg>