<?xml version="1.0" encoding="UTF-8"?><svg id="GF" xmlns="http://www.w3.org/2000/svg" viewBox="0 0 1200 788.09"><defs><style>.cls-1{fill:#fff;}.cls-2{stroke:#000;}.cls-2,.cls-3{fill:none;stroke-miterlimit:10;}.cls-3{stroke:#fff;stroke-width:.64px;}.cls-4{fill:#f5f5f5;}.cls-5{fill:#e8b931;}</style></defs><rect class="cls-1" x="290.75" y="-107.95" width="617" height="1000" transform="translate(991.3 -207.2) rotate(90)"/><rect class="cls-1" x="23.25" y="385.55" width="102" height="49" transform="translate(484.3 335.8) rotate(90)"/><g id="GF-2"><g><rect class="cls-4" x="877.81" y="700.35" width="35.44" height="32.74"/><polygon class="cls-4" points="1099.26 733.09 913.24 733.09 913.24 700.35 913.24 679.45 913.24 664.69 990.22 664.69 1030.14 664.69 1068.66 664.69 1068.66 699.81 1099.26 699.81 1099.26 733.09"/><polygon class="cls-4" points="123.61 700.35 98.91 700.35 98.91 596.66 161.61 596.66 161.61 629.57 123.61 629.57 123.61 700.35"/><polygon class="cls-4" points="199.41 700.35 123.61 700.35 123.61 629.57 161.61 629.57 199.41 629.57 199.41 700.35"/><rect class="cls-4" x="199.41" y="629.57" width="152.16" height="70.78"/><polygon class="cls-4" points="428.99 700.35 390.66 700.35 390.66 657.63 412.47 657.63 412.47 629.46 428.99 629.46 428.99 700.35"/><rect class="cls-4" x="428.99" y="629.46" width="34.75" height="70.89"/><rect class="cls-4" x="463.74" y="629.46" width="40.11" height="70.89"/><rect class="cls-4" x="503.85" y="629.46" width="38.45" height="70.89"/><rect class="cls-4" x="542.31" y="629.46" width="166.19" height="70.89"/><rect class="cls-4" x="708.49" y="629.46" width="90.76" height="70.89"/><polygon class="cls-4" points="877.81 700.35 799.26 700.35 799.26 629.46 877.81 629.46 877.81 679.45 877.81 700.35"/><rect class="cls-4" x="877.81" y="679.45" width="35.44" height="20.9"/><polygon class="cls-4" points="990.22 664.69 913.24 664.69 913.24 654.34 913.24 615.83 990.22 615.83 990.22 664.69"/><rect class="cls-4" x="990.22" y="615.83" width="39.92" height="48.86"/><rect class="cls-4" x="1030.14" y="615.83" width="38.53" height="48.86"/><rect class="cls-4" x="98.91" y="505.71" width="62.71" height="90.95"/><rect class="cls-4" x="390.66" y="520.5" width="74.57" height="76.16"/><polygon class="cls-1" points="1098.9 593.8 491.53 593.8 491.53 252.28 914.15 252.28 927.8 278.64 1040.39 278.64 1040.39 319.54 1098.9 319.43 1098.9 593.8"/><polygon class="cls-4" points="465.23 520.5 390.66 520.5 390.66 460.61 429.55 460.61 465.23 460.61 465.23 520.5"/><rect class="cls-4" x="98.91" y="460.61" width="62.71" height="45.1"/><rect class="cls-4" x="161.61" y="433.99" width="41.49" height="26.62"/><rect class="cls-4" x="429.55" y="438.8" width="35.68" height="21.81"/><rect class="cls-4" x="429.55" y="359.53" width="35.68" height="25.44"/><rect class="cls-4" x="98.91" y="315.96" width="65.84" height="43.57"/><polygon class="cls-4" points="429.55 359.53 390.66 359.53 390.66 293.63 465.23 293.63 465.23 359.53 429.55 359.53"/><rect class="cls-4" x="98.91" y="271.87" width="65.84" height="44.09"/><rect class="cls-4" x="390.66" y="227.74" width="74.57" height="65.89"/><polygon class="cls-4" points="164.74 271.87 98.91 271.87 98.91 229.36 164.74 229.41 164.74 271.87"/><polygon class="cls-4" points="354.3 229.56 201.6 229.44 164.74 229.41 98.91 229.36 98.91 83.88 123.44 83.88 123.44 125.75 162.52 125.75 201.6 125.75 239.77 125.75 277.95 125.75 316.12 125.75 355.2 125.75 392.47 125.75 429.74 125.75 465.17 125.75 465.17 83.88 527.89 83.88 527.89 141.4 465.17 141.4 465.17 189.57 354.3 189.57 354.3 229.56"/><polygon class="cls-4" points="617.55 212.29 527.89 212.29 527.89 189.57 527.89 141.4 527.89 83.88 617.55 83.88 617.55 212.29"/><polygon class="cls-4" points="699.06 212.29 617.55 212.29 617.55 83.88 690.57 83.88 690.57 145.43 699.06 145.43 699.06 212.29"/><polygon class="cls-4" points="728.45 212.29 699.06 212.29 699.06 145.43 690.57 145.43 690.57 83.88 728.45 83.88 728.45 212.29"/><polygon class="cls-4" points="841.03 212.29 728.45 212.29 728.45 83.88 852.12 83.88 852.12 111.6 852.12 125.47 841.03 125.47 841.03 212.29"/><polygon class="cls-4" points="879.23 212.29 841.03 212.29 841.03 125.47 852.12 125.47 879.23 125.47 879.23 212.29"/><polygon class="cls-4" points="917.8 212.29 879.23 212.29 879.23 125.47 917.84 125.47 917.84 145.94 917.8 145.94 917.8 172.3 917.8 212.29"/><polygon class="cls-4" points="1075.93 212.29 954.14 212.29 954.14 172.3 954.14 145.94 954.14 129.35 1075.93 129.35 1075.93 212.29"/><polygon class="cls-4" points="954.14 172.3 917.8 172.3 917.8 145.94 917.84 145.94 954.14 145.94 954.14 172.3"/><polygon class="cls-4" points="954.14 145.94 917.84 145.94 917.84 125.47 917.84 111.6 882.38 111.6 882.38 95.88 910.7 95.88 939.02 95.88 939.02 72.32 954.14 72.32 954.14 129.35 954.14 145.94"/><polygon class="cls-4" points="1075.93 129.35 954.14 129.35 954.14 72.32 959.6 72.32 1013.22 49.6 1075.93 88.68 1075.93 129.35"/><rect class="cls-4" x="123.44" y="83.88" width="39.08" height="41.87"/><rect class="cls-4" x="162.52" y="83.88" width="39.08" height="41.87"/><rect class="cls-4" x="201.6" y="83.88" width="38.17" height="41.87"/><rect class="cls-4" x="239.77" y="83.88" width="38.18" height="41.87"/><rect class="cls-4" x="277.95" y="83.88" width="38.17" height="41.87"/><rect class="cls-4" x="316.12" y="83.88" width="39.08" height="41.87"/><rect class="cls-4" x="355.2" y="83.88" width="37.26" height="41.87"/><rect class="cls-4" x="392.47" y="83.88" width="37.27" height="41.87"/><rect class="cls-4" x="429.74" y="83.88" width="35.44" height="41.87"/><polygon class="cls-4" points="879.23 125.47 852.12 125.47 852.12 111.6 882.38 111.6 917.84 111.6 917.84 125.47 879.23 125.47"/><polygon class="cls-4" points="882.38 111.6 852.12 111.6 852.12 83.88 854.18 83.88 879.62 72.32 882.38 72.32 882.38 95.88 882.38 111.6"/><rect class="cls-4" x="882.38" y="72.32" width="28.33" height="23.56"/><rect class="cls-4" x="910.7" y="72.32" width="28.32" height="23.56"/></g><g><polyline class="cls-2" points="98.91 229.36 164.74 229.41 201.6 229.44 354.3 229.56 354.3 189.57 465.17 189.57 465.17 141.4 527.89 141.4 527.89 189.57 527.89 212.29 617.55 212.29 699.06 212.29 728.45 212.29 841.03 212.29 879.23 212.29 917.8 212.29 917.8 172.3 954.14 172.3 954.14 212.29 1075.93 212.29 1075.93 129.35 1075.93 88.68 1013.22 49.6 959.6 72.32 954.14 72.32 939.02 72.32 910.7 72.32 882.38 72.32 879.62 72.32 854.18 83.88 852.12 83.88 728.45 83.88 690.57 83.88 617.55 83.88 527.89 83.88 465.17 83.88 429.74 83.88 392.47 83.88 355.2 83.88 316.12 83.88 277.95 83.88 239.77 83.88 201.6 83.88 162.52 83.88 123.44 83.88 98.91 83.88 98.91 229.36"/><line class="cls-2" x1="98.91" y1="229.36" x2="98.91" y2="271.87"/><line class="cls-2" x1="98.91" y1="271.87" x2="98.91" y2="315.96"/><line class="cls-2" x1="98.91" y1="315.96" x2="98.91" y2="359.53"/><polyline class="cls-2" points="164.74 229.41 164.74 271.87 164.74 315.96 164.74 359.53 98.91 359.53"/><line class="cls-2" x1="201.6" y1="334.08" x2="201.6" y2="229.44"/><line class="cls-2" x1="354.3" y1="229.56" x2="354.3" y2="334.08"/><polyline class="cls-2" points="390.66 700.35 428.99 700.35 463.74 700.35 503.85 700.35 542.31 700.35 708.49 700.35 799.26 700.35 877.81 700.35 877.81 733.09 913.24 733.09 1099.26 733.09 1099.26 699.81 1068.66 699.81 1068.66 664.69 1068.66 615.83 1030.14 615.83 990.22 615.83 913.24 615.83 913.24 654.34 913.24 664.69 913.24 679.45 877.81 679.45 877.81 629.46 799.26 629.46 708.49 629.46 542.31 629.46 503.85 629.46 463.74 629.46 428.99 629.46 412.47 629.46 412.47 657.63 390.66 657.63 390.66 629.46"/><polygon class="cls-2" points="161.61 460.61 98.91 460.61 98.91 505.71 98.91 596.66 98.91 700.35 123.61 700.35 199.41 700.35 351.57 700.35 351.57 629.57 199.41 629.57 161.61 629.57 161.61 596.66 161.61 505.71 161.61 460.61"/><line class="cls-2" x1="390.66" y1="657.63" x2="390.66" y2="700.35"/><rect class="cls-2" x="161.61" y="433.99" width="41.49" height="26.62"/><polyline class="cls-2" points="201.6 488.58 201.6 596.66 351.57 596.66 351.57 488.58"/><polygon class="cls-2" points="390.66 520.5 390.66 596.66 465.23 596.66 465.23 520.5 465.23 460.61 429.55 460.61 390.66 460.61 390.66 520.5"/><polygon class="cls-2" points="429.55 359.53 390.66 359.53 390.66 293.63 390.66 227.74 465.23 227.74 465.23 293.63 465.23 359.53 429.55 359.53"/><polyline class="cls-2" points="465.23 359.53 465.23 384.97 465.23 399.52"/><polyline class="cls-2" points="465.23 460.61 465.23 438.8 465.23 424.96"/><polyline class="cls-2" points="429.55 359.53 429.55 384.97 465.23 384.97"/><polyline class="cls-2" points="429.55 460.61 429.55 438.8 465.23 438.8"/><polygon class="cls-2" points="1098.9 319.43 1098.9 593.8 491.53 593.8 491.53 252.28 914.15 252.28 927.8 278.64 1040.39 278.64 1040.39 319.54 1098.9 319.43"/><line class="cls-2" x1="1098.9" y1="278.64" x2="1098.9" y2="319.43"/><line class="cls-2" x1="164.74" y1="315.96" x2="98.91" y2="315.96"/><line class="cls-2" x1="164.74" y1="271.87" x2="98.91" y2="271.87"/><line class="cls-2" x1="161.61" y1="505.71" x2="98.91" y2="505.71"/><line class="cls-2" x1="161.61" y1="596.66" x2="98.91" y2="596.66"/><polyline class="cls-2" points="161.61 629.57 123.61 629.57 123.61 700.35"/><line class="cls-2" x1="199.41" y1="629.57" x2="199.41" y2="700.35"/><line class="cls-2" x1="465.23" y1="520.5" x2="390.66" y2="520.5"/><line class="cls-2" x1="465.23" y1="293.63" x2="390.66" y2="293.63"/><polyline class="cls-2" points="465.17 83.88 465.17 125.75 429.74 125.75 392.47 125.75 355.2 125.75 316.12 125.75 277.95 125.75 239.77 125.75 201.6 125.75 162.52 125.75 123.44 125.75 123.44 83.88"/><line class="cls-2" x1="429.74" y1="125.75" x2="429.74" y2="83.88"/><line class="cls-2" x1="392.47" y1="125.75" x2="392.47" y2="83.88"/><line class="cls-2" x1="355.2" y1="125.75" x2="355.2" y2="83.88"/><line class="cls-2" x1="316.12" y1="125.75" x2="316.12" y2="83.88"/><line class="cls-2" x1="277.95" y1="125.75" x2="277.95" y2="83.88"/><line class="cls-2" x1="239.77" y1="125.75" x2="239.77" y2="83.88"/><line class="cls-2" x1="201.6" y1="125.75" x2="201.6" y2="83.88"/><line class="cls-2" x1="162.52" y1="125.75" x2="162.52" y2="83.88"/><line class="cls-2" x1="491.53" y1="189.57" x2="527.89" y2="189.57"/><line class="cls-2" x1="617.55" y1="212.29" x2="617.55" y2="83.88"/><polyline class="cls-2" points="699.06 212.29 699.06 145.43 690.57 145.43 690.57 83.88"/><line class="cls-2" x1="728.45" y1="212.29" x2="728.45" y2="83.88"/><polyline class="cls-2" points="841.03 212.29 841.03 125.47 852.12 125.47 852.12 111.6 852.12 83.88"/><polyline class="cls-2" points="852.12 125.47 879.23 125.47 917.84 125.47 917.84 145.94 954.14 145.94 954.14 129.35 1075.93 129.35"/><polyline class="cls-2" points="913.24 664.69 990.22 664.69 990.22 615.83"/><polyline class="cls-2" points="990.22 664.69 1030.14 664.69 1030.14 615.83"/><line class="cls-2" x1="1068.66" y1="664.69" x2="1030.14" y2="664.69"/><polyline class="cls-2" points="913.24 733.09 913.24 700.35 877.81 700.35 877.81 679.45"/><line class="cls-2" x1="913.24" y1="679.45" x2="913.24" y2="700.35"/><polyline class="cls-2" points="913.24 654.34 894.16 654.34 894.16 629.46"/><polyline class="cls-2" points="508.81 213.2 465.17 213.2 465.17 189.57"/><line class="cls-2" x1="799.26" y1="629.46" x2="799.26" y2="700.35"/><line class="cls-2" x1="708.49" y1="700.35" x2="708.49" y2="629.46"/><line class="cls-2" x1="542.31" y1="629.46" x2="542.31" y2="700.35"/><line class="cls-2" x1="503.85" y1="700.35" x2="503.85" y2="629.46"/><line class="cls-2" x1="463.74" y1="700.35" x2="463.74" y2="629.46"/><line class="cls-2" x1="428.99" y1="629.46" x2="428.99" y2="700.35"/><line class="cls-2" x1="491.53" y1="189.57" x2="491.53" y2="161.52"/><polyline class="cls-2" points="390.66 395.88 438.8 395.88 438.8 427.69 390.66 427.69"/><line class="cls-2" x1="879.23" y1="212.29" x2="879.23" y2="125.47"/><line class="cls-2" x1="954.14" y1="129.35" x2="954.14" y2="72.32"/><polyline class="cls-2" points="917.84 125.47 917.84 111.6 882.38 111.6 852.12 111.6"/><polyline class="cls-2" points="939.02 72.32 939.02 95.88 910.7 95.88 882.38 95.88 882.38 72.32"/><line class="cls-2" x1="882.38" y1="95.88" x2="882.38" y2="111.6"/><line class="cls-2" x1="910.7" y1="95.88" x2="910.7" y2="72.32"/><line class="cls-2" x1="917.8" y1="172.3" x2="917.8" y2="145.94"/><line class="cls-2" x1="954.14" y1="172.3" x2="954.14" y2="145.94"/><line class="cls-2" x1="527.89" y1="141.4" x2="527.89" y2="83.88"/></g></g><g id="Labels"><g><path d="M215.33,173.64c-.96-.28-1.67-.62-2.11-1.02s-.66-.9-.66-1.5c0-.67,.27-1.23,.81-1.67s1.24-.66,2.09-.66c.59,0,1.11,.11,1.57,.34s.81,.54,1.07,.94,.38,.83,.38,1.31h-1.13c0-.52-.16-.92-.49-1.22s-.79-.44-1.39-.44c-.55,0-.99,.12-1.3,.37-.31,.24-.47,.58-.47,1.02,0,.35,.15,.64,.44,.88,.29,.24,.8,.46,1.51,.66,.71,.2,1.26,.42,1.66,.66s.7,.52,.89,.84,.29,.7,.29,1.13c0,.69-.27,1.25-.81,1.66s-1.26,.62-2.16,.62c-.59,0-1.13-.11-1.64-.34s-.9-.53-1.17-.92-.41-.83-.41-1.33h1.13c0,.52,.19,.92,.57,1.22s.89,.45,1.53,.45c.59,0,1.05-.12,1.37-.36s.47-.57,.47-.99-.15-.74-.44-.97-.82-.45-1.59-.68Z"/><path d="M225.93,169.83h-2.74v7.61h-1.12v-7.61h-2.74v-.92h6.6v.92Z"/><path d="M236.44,174.74c-.11,.9-.44,1.6-1,2.09s-1.31,.74-2.24,.74c-1.01,0-1.82-.36-2.42-1.08s-.91-1.69-.91-2.9v-.82c0-.79,.14-1.49,.42-2.09s.68-1.06,1.2-1.39,1.12-.48,1.8-.48c.91,0,1.63,.25,2.18,.76s.87,1.21,.96,2.1h-1.13c-.1-.68-.31-1.18-.64-1.48s-.78-.46-1.37-.46c-.72,0-1.28,.27-1.69,.8-.41,.53-.61,1.29-.61,2.27v.83c0,.93,.19,1.66,.58,2.21,.39,.55,.93,.82,1.62,.82,.62,0,1.1-.14,1.44-.42s.56-.78,.67-1.48h1.13Z"/><path d="M242.63,175.21h-3.57l-.8,2.23h-1.16l3.26-8.53h.98l3.26,8.53h-1.15l-.81-2.23Zm-3.23-.92h2.9l-1.45-3.99-1.45,3.99Z"/><path d="M252.42,177.44h-1.13l-4.29-6.57v6.57h-1.13v-8.53h1.13l4.31,6.6v-6.6h1.12v8.53Z"/><path d="M260.36,169.83h-2.74v7.61h-1.12v-7.61h-2.74v-.92h6.6v.92Z"/><path d="M266.51,173.5h-3.7v3.02h4.29v.92h-5.42v-8.53h5.36v.92h-4.24v2.75h3.7v.92Z"/><path d="M273.33,173.5h-3.7v3.02h4.29v.92h-5.42v-8.53h5.36v.92h-4.24v2.75h3.7v.92Z"/><path d="M281.89,177.44h-1.13l-4.29-6.57v6.57h-1.13v-8.53h1.13l4.31,6.6v-6.6h1.12v8.53Z"/></g><g><path d="M129.95,407.64c-.96-.28-1.67-.62-2.11-1.02s-.66-.9-.66-1.5c0-.67,.27-1.23,.81-1.67s1.24-.66,2.09-.66c.59,0,1.11,.11,1.57,.34s.81,.54,1.07,.94,.38,.83,.38,1.31h-1.13c0-.52-.16-.92-.49-1.22s-.79-.44-1.39-.44c-.55,0-.99,.12-1.3,.37-.31,.24-.47,.58-.47,1.02,0,.35,.15,.64,.44,.88,.29,.24,.8,.46,1.51,.66,.71,.2,1.26,.42,1.66,.66s.7,.52,.89,.84,.29,.7,.29,1.13c0,.69-.27,1.25-.81,1.66s-1.26,.62-2.16,.62c-.59,0-1.13-.11-1.64-.34s-.9-.53-1.17-.92-.41-.83-.41-1.33h1.13c0,.52,.19,.92,.57,1.22s.89,.45,1.53,.45c.59,0,1.05-.12,1.37-.36s.47-.57,.47-.99-.15-.74-.44-.97-.82-.45-1.59-.68Z"/><path d="M140.55,403.83h-2.74v7.61h-1.12v-7.61h-2.74v-.92h6.6v.92Z"/><path d="M145.92,410.52h4.04v.92h-5.17v-8.53h1.13v7.61Z"/><path d="M157.57,407.45c0,.84-.14,1.57-.42,2.19s-.68,1.1-1.2,1.43-1.12,.49-1.8,.49-1.27-.17-1.79-.5-.92-.8-1.21-1.41-.43-1.32-.44-2.12v-.62c0-.82,.14-1.54,.43-2.17s.69-1.11,1.21-1.44,1.12-.5,1.79-.5,1.29,.17,1.81,.5,.92,.81,1.2,1.44,.42,1.36,.42,2.19v.54Zm-1.12-.55c0-1.01-.2-1.79-.61-2.33s-.97-.81-1.71-.81-1.27,.27-1.68,.81-.62,1.29-.63,2.25v.63c0,.98,.21,1.75,.62,2.31s.98,.84,1.7,.84,1.29-.26,1.69-.79,.6-1.29,.62-2.28v-.63Z"/><path d="M159.28,411.44v-8.53h2.79c.93,0,1.62,.19,2.09,.57s.7,.95,.7,1.7c0,.4-.11,.75-.34,1.06s-.54,.54-.93,.71c.46,.13,.83,.37,1.09,.74s.4,.79,.4,1.29c0,.77-.25,1.37-.74,1.8s-1.2,.66-2.1,.66h-2.96Zm1.12-4.89h1.7c.49,0,.89-.12,1.18-.37,.29-.25,.44-.58,.44-1,0-.47-.14-.81-.41-1.02-.27-.21-.69-.32-1.25-.32h-1.66v2.72Zm0,.9v3.07h1.86c.52,0,.94-.14,1.24-.41s.45-.65,.45-1.12c0-1.03-.56-1.54-1.68-1.54h-1.88Z"/><path d="M166.75,411.44v-8.53h2.79c.93,0,1.62,.19,2.09,.57s.7,.95,.7,1.7c0,.4-.11,.75-.34,1.06s-.54,.54-.93,.71c.46,.13,.83,.37,1.09,.74s.4,.79,.4,1.29c0,.77-.25,1.37-.74,1.8s-1.2,.66-2.1,.66h-2.96Zm1.12-4.89h1.7c.49,0,.89-.12,1.18-.37,.29-.25,.44-.58,.44-1,0-.47-.14-.81-.41-1.02-.27-.21-.69-.32-1.25-.32h-1.66v2.72Zm0,.9v3.07h1.86c.52,0,.94-.14,1.24-.41s.45-.65,.45-1.12c0-1.03-.56-1.54-1.68-1.54h-1.88Z"/><path d="M176.66,407.19l2.23-4.28h1.28l-2.94,5.35v3.18h-1.12v-3.18l-2.94-5.35h1.29l2.21,4.28Z"/></g><g><path d="M552.41,146.79c-.05,.45-.22,.8-.5,1.04s-.65,.37-1.12,.37c-.5,0-.91-.18-1.21-.54s-.46-.84-.46-1.45v-.41c0-.4,.07-.75,.21-1.05s.34-.53,.6-.69c.26-.16,.56-.24,.9-.24,.45,0,.82,.13,1.09,.38,.27,.25,.43,.6,.48,1.05h-.57c-.05-.34-.15-.59-.32-.74-.16-.15-.39-.23-.68-.23-.36,0-.64,.13-.85,.4-.2,.27-.31,.64-.31,1.13v.41c0,.46,.1,.83,.29,1.11,.19,.27,.46,.41,.81,.41,.31,0,.55-.07,.72-.21s.28-.39,.33-.74h.57Z"/><path d="M556.65,146.15c0,.42-.07,.78-.21,1.09s-.34,.55-.6,.71-.56,.25-.9,.25-.63-.08-.89-.25c-.26-.16-.46-.4-.6-.71s-.22-.66-.22-1.06v-.31c0-.41,.07-.77,.21-1.09s.34-.55,.6-.72c.26-.17,.56-.25,.9-.25s.64,.08,.9,.25,.46,.4,.6,.72c.14,.31,.21,.68,.21,1.09v.27Zm-.56-.28c0-.51-.1-.89-.3-1.17-.2-.27-.49-.41-.85-.41s-.64,.14-.84,.41c-.2,.27-.31,.65-.31,1.13v.31c0,.49,.1,.88,.31,1.16,.21,.28,.49,.42,.85,.42s.64-.13,.84-.4c.2-.26,.3-.64,.31-1.14v-.32Z"/><path d="M558.41,143.88l1.39,3.48,1.39-3.48h.73v4.27h-.56v-1.66l.05-1.79-1.4,3.45h-.43l-1.4-3.45,.06,1.78v1.66h-.56v-4.27h.73Z"/><path d="M563.67,146.47v1.67h-.56v-4.27h1.57c.47,0,.83,.12,1.1,.36s.4,.55,.4,.95c0,.41-.13,.73-.39,.96-.26,.22-.63,.34-1.11,.34h-1Zm0-.46h1.01c.3,0,.53-.07,.69-.21s.24-.35,.24-.61-.08-.46-.24-.61c-.16-.15-.38-.23-.66-.24h-1.04v1.68Z"/><path d="M570.1,143.88v2.9c0,.4-.13,.73-.38,.99s-.59,.4-1.02,.43h-.15c-.47,0-.84-.12-1.12-.37s-.42-.6-.42-1.04v-2.91h.56v2.89c0,.31,.08,.55,.25,.72,.17,.17,.41,.26,.73,.26s.56-.08,.73-.25,.25-.41,.25-.72v-2.89h.57Z"/><path d="M574.19,144.34h-1.37v3.81h-.56v-3.81h-1.37v-.46h3.3v.46Z"/><path d="M577.44,146.17h-1.85v1.51h2.15v.46h-2.71v-4.27h2.68v.46h-2.12v1.37h1.85v.46Z"/><path d="M580.18,146.42h-1v1.73h-.57v-4.27h1.41c.48,0,.85,.11,1.11,.33s.39,.54,.39,.96c0,.27-.07,.5-.22,.69s-.34,.34-.6,.44l1,1.81v.04h-.6l-.93-1.73Zm-1-.46h.86c.28,0,.5-.07,.67-.22,.17-.15,.25-.34,.25-.58,0-.26-.08-.47-.24-.61-.16-.14-.38-.21-.68-.21h-.86v1.62Z"/><path d="M584.36,147.68h2.02v.46h-2.59v-4.27h.57v3.81Z"/><path d="M589.77,147.03h-1.79l-.4,1.12h-.58l1.63-4.27h.49l1.63,4.27h-.58l-.41-1.12Zm-1.62-.46h1.45l-.73-2-.72,2Z"/><path d="M591.56,148.14v-4.27h1.39c.46,0,.81,.1,1.04,.29s.35,.47,.35,.85c0,.2-.06,.38-.17,.53s-.27,.27-.46,.36c.23,.06,.41,.19,.55,.37,.13,.18,.2,.4,.2,.65,0,.38-.12,.68-.37,.9s-.6,.33-1.05,.33h-1.48Zm.56-2.45h.85c.25,0,.44-.06,.59-.18,.15-.12,.22-.29,.22-.5,0-.24-.07-.41-.21-.51s-.34-.16-.62-.16h-.83v1.36Zm0,.45v1.54h.93c.26,0,.47-.07,.62-.2,.15-.13,.23-.32,.23-.56,0-.51-.28-.77-.84-.77h-.94Z"/><path d="M572.24,155.34h-.54v-3.61l-1.09,.4v-.49l1.55-.58h.08v4.29Z"/></g><g><path d="M637.41,146.79c-.05,.45-.22,.8-.5,1.04s-.65,.37-1.12,.37c-.5,0-.91-.18-1.21-.54s-.46-.84-.46-1.45v-.41c0-.4,.07-.75,.21-1.05s.34-.53,.6-.69c.26-.16,.56-.24,.9-.24,.45,0,.82,.13,1.09,.38,.27,.25,.43,.6,.48,1.05h-.57c-.05-.34-.15-.59-.32-.74-.16-.15-.39-.23-.68-.23-.36,0-.64,.13-.85,.4-.2,.27-.31,.64-.31,1.13v.41c0,.46,.1,.83,.29,1.11,.19,.27,.46,.41,.81,.41,.31,0,.55-.07,.72-.21s.28-.39,.33-.74h.57Z"/><path d="M641.65,146.15c0,.42-.07,.78-.21,1.09s-.34,.55-.6,.71-.56,.25-.9,.25-.63-.08-.89-.25c-.26-.16-.46-.4-.6-.71s-.22-.66-.22-1.06v-.31c0-.41,.07-.77,.21-1.09s.34-.55,.6-.72c.26-.17,.56-.25,.9-.25s.64,.08,.9,.25,.46,.4,.6,.72c.14,.31,.21,.68,.21,1.09v.27Zm-.56-.28c0-.51-.1-.89-.3-1.17-.2-.27-.49-.41-.85-.41s-.64,.14-.84,.41c-.2,.27-.31,.65-.31,1.13v.31c0,.49,.1,.88,.31,1.16,.21,.28,.49,.42,.85,.42s.64-.13,.84-.4c.2-.26,.3-.64,.31-1.14v-.32Z"/><path d="M643.41,143.88l1.39,3.48,1.39-3.48h.73v4.27h-.56v-1.66l.05-1.79-1.4,3.45h-.43l-1.4-3.45,.06,1.78v1.66h-.56v-4.27h.73Z"/><path d="M648.67,146.47v1.67h-.56v-4.27h1.57c.47,0,.83,.12,1.1,.36s.4,.55,.4,.95c0,.41-.13,.73-.39,.96-.26,.22-.63,.34-1.11,.34h-1Zm0-.46h1.01c.3,0,.53-.07,.69-.21s.24-.35,.24-.61-.08-.46-.24-.61c-.16-.15-.38-.23-.66-.24h-1.04v1.68Z"/><path d="M655.1,143.88v2.9c0,.4-.13,.73-.38,.99s-.59,.4-1.02,.43h-.15c-.47,0-.84-.12-1.12-.37s-.42-.6-.42-1.04v-2.91h.56v2.89c0,.31,.08,.55,.25,.72,.17,.17,.41,.26,.73,.26s.56-.08,.73-.25,.25-.41,.25-.72v-2.89h.57Z"/><path d="M659.19,144.34h-1.37v3.81h-.56v-3.81h-1.37v-.46h3.3v.46Z"/><path d="M662.44,146.17h-1.85v1.51h2.15v.46h-2.71v-4.27h2.68v.46h-2.12v1.37h1.85v.46Z"/><path d="M665.18,146.42h-1v1.73h-.57v-4.27h1.41c.48,0,.85,.11,1.11,.33s.39,.54,.39,.96c0,.27-.07,.5-.22,.69s-.34,.34-.6,.44l1,1.81v.04h-.6l-.93-1.73Zm-1-.46h.86c.28,0,.5-.07,.67-.22,.17-.15,.25-.34,.25-.58,0-.26-.08-.47-.24-.61-.16-.14-.38-.21-.68-.21h-.86v1.62Z"/><path d="M669.36,147.68h2.02v.46h-2.59v-4.27h.57v3.81Z"/><path d="M674.77,147.03h-1.79l-.4,1.12h-.58l1.63-4.27h.49l1.63,4.27h-.58l-.41-1.12Zm-1.62-.46h1.45l-.73-2-.72,2Z"/><path d="M676.56,148.14v-4.27h1.39c.46,0,.81,.1,1.04,.29s.35,.47,.35,.85c0,.2-.06,.38-.17,.53s-.27,.27-.46,.36c.23,.06,.41,.19,.55,.37,.13,.18,.2,.4,.2,.65,0,.38-.12,.68-.37,.9s-.6,.33-1.05,.33h-1.48Zm.56-2.45h.85c.25,0,.44-.06,.59-.18,.15-.12,.22-.29,.22-.5,0-.24-.07-.41-.21-.51s-.34-.16-.62-.16h-.83v1.36Zm0,.45v1.54h.93c.26,0,.47-.07,.62-.2,.15-.13,.23-.32,.23-.56,0-.51-.28-.77-.84-.77h-.94Z"/><path d="M658.25,155.34h-2.79v-.39l1.48-1.64c.22-.25,.37-.45,.45-.6,.08-.16,.12-.32,.12-.48,0-.22-.07-.41-.2-.55s-.31-.21-.54-.21c-.27,0-.48,.08-.63,.23s-.22,.37-.22,.64h-.54c0-.39,.13-.71,.38-.95s.59-.36,1.02-.36c.4,0,.71,.1,.94,.31,.23,.21,.35,.48,.35,.83,0,.42-.27,.92-.8,1.5l-1.14,1.24h2.14v.44Z"/></g><g><path d="M770.41,146.79c-.05,.45-.22,.8-.5,1.04s-.65,.37-1.12,.37c-.5,0-.91-.18-1.21-.54s-.46-.84-.46-1.45v-.41c0-.4,.07-.75,.21-1.05s.34-.53,.6-.69c.26-.16,.56-.24,.9-.24,.45,0,.82,.13,1.09,.38,.27,.25,.43,.6,.48,1.05h-.57c-.05-.34-.15-.59-.32-.74-.16-.15-.39-.23-.68-.23-.36,0-.64,.13-.85,.4-.2,.27-.31,.64-.31,1.13v.41c0,.46,.1,.83,.29,1.11,.19,.27,.46,.41,.81,.41,.31,0,.55-.07,.72-.21s.28-.39,.33-.74h.57Z"/><path d="M774.65,146.15c0,.42-.07,.78-.21,1.09s-.34,.55-.6,.71-.56,.25-.9,.25-.63-.08-.89-.25c-.26-.16-.46-.4-.6-.71s-.22-.66-.22-1.06v-.31c0-.41,.07-.77,.21-1.09s.34-.55,.6-.72c.26-.17,.56-.25,.9-.25s.64,.08,.9,.25,.46,.4,.6,.72c.14,.31,.21,.68,.21,1.09v.27Zm-.56-.28c0-.51-.1-.89-.3-1.17-.2-.27-.49-.41-.85-.41s-.64,.14-.84,.41c-.2,.27-.31,.65-.31,1.13v.31c0,.49,.1,.88,.31,1.16,.21,.28,.49,.42,.85,.42s.64-.13,.84-.4c.2-.26,.3-.64,.31-1.14v-.32Z"/><path d="M776.41,143.88l1.39,3.48,1.39-3.48h.73v4.27h-.56v-1.66l.05-1.79-1.4,3.45h-.43l-1.4-3.45,.06,1.78v1.66h-.56v-4.27h.73Z"/><path d="M781.67,146.47v1.67h-.56v-4.27h1.57c.47,0,.83,.12,1.1,.36s.4,.55,.4,.95c0,.41-.13,.73-.39,.96-.26,.22-.63,.34-1.11,.34h-1Zm0-.46h1.01c.3,0,.53-.07,.69-.21s.24-.35,.24-.61-.08-.46-.24-.61c-.16-.15-.38-.23-.66-.24h-1.04v1.68Z"/><path d="M788.1,143.88v2.9c0,.4-.13,.73-.38,.99s-.59,.4-1.02,.43h-.15c-.47,0-.84-.12-1.12-.37s-.42-.6-.42-1.04v-2.91h.56v2.89c0,.31,.08,.55,.25,.72,.17,.17,.41,.26,.73,.26s.56-.08,.73-.25,.25-.41,.25-.72v-2.89h.57Z"/><path d="M792.19,144.34h-1.37v3.81h-.56v-3.81h-1.37v-.46h3.3v.46Z"/><path d="M795.44,146.17h-1.85v1.51h2.15v.46h-2.71v-4.27h2.68v.46h-2.12v1.37h1.85v.46Z"/><path d="M798.18,146.42h-1v1.73h-.57v-4.27h1.41c.48,0,.85,.11,1.11,.33s.39,.54,.39,.96c0,.27-.07,.5-.22,.69s-.34,.34-.6,.44l1,1.81v.04h-.6l-.93-1.73Zm-1-.46h.86c.28,0,.5-.07,.67-.22,.17-.15,.25-.34,.25-.58,0-.26-.08-.47-.24-.61-.16-.14-.38-.21-.68-.21h-.86v1.62Z"/><path d="M802.36,147.68h2.02v.46h-2.59v-4.27h.57v3.81Z"/><path d="M807.77,147.03h-1.79l-.4,1.12h-.58l1.63-4.27h.49l1.63,4.27h-.58l-.41-1.12Zm-1.62-.46h1.45l-.73-2-.72,2Z"/><path d="M809.56,148.14v-4.27h1.39c.46,0,.81,.1,1.04,.29s.35,.47,.35,.85c0,.2-.06,.38-.17,.53s-.27,.27-.46,.36c.23,.06,.41,.19,.55,.37,.13,.18,.2,.4,.2,.65,0,.38-.12,.68-.37,.9s-.6,.33-1.05,.33h-1.48Zm.56-2.45h.85c.25,0,.44-.06,.59-.18,.15-.12,.22-.29,.22-.5,0-.24-.07-.41-.21-.51s-.34-.16-.62-.16h-.83v1.36Zm0,.45v1.54h.93c.26,0,.47-.07,.62-.2,.15-.13,.23-.32,.23-.56,0-.51-.28-.77-.84-.77h-.94Z"/><path d="M789.25,152.95h.41c.26,0,.46-.07,.6-.2s.22-.31,.22-.53c0-.5-.25-.75-.75-.75-.23,0-.42,.07-.56,.2s-.21,.31-.21,.53h-.54c0-.34,.12-.62,.37-.84s.56-.34,.94-.34c.4,0,.72,.11,.95,.32s.34,.51,.34,.89c0,.19-.06,.37-.18,.54s-.28,.3-.49,.39c.23,.07,.42,.2,.54,.37s.19,.38,.19,.63c0,.38-.12,.69-.38,.91s-.58,.34-.98,.34-.73-.11-.98-.33-.38-.5-.38-.86h.54c0,.22,.07,.4,.22,.54s.34,.2,.59,.2c.26,0,.46-.07,.6-.21s.21-.33,.21-.59-.08-.44-.23-.57-.37-.2-.66-.21h-.41v-.44Z"/></g><g><path d="M997.41,168.79c-.05,.45-.22,.8-.5,1.04s-.65,.37-1.12,.37c-.5,0-.91-.18-1.21-.54s-.46-.84-.46-1.45v-.41c0-.4,.07-.75,.21-1.05s.34-.53,.6-.69c.26-.16,.56-.24,.9-.24,.45,0,.82,.13,1.09,.38,.27,.25,.43,.6,.48,1.05h-.57c-.05-.34-.15-.59-.32-.74-.16-.15-.39-.23-.68-.23-.36,0-.64,.13-.85,.4-.2,.27-.31,.64-.31,1.13v.41c0,.46,.1,.83,.29,1.11,.19,.27,.46,.41,.81,.41,.31,0,.55-.07,.72-.21s.28-.39,.33-.74h.57Z"/><path d="M1001.65,168.15c0,.42-.07,.78-.21,1.09s-.34,.55-.6,.71-.56,.25-.9,.25-.63-.08-.89-.25c-.26-.16-.46-.4-.6-.71s-.22-.66-.22-1.06v-.31c0-.41,.07-.77,.21-1.09s.34-.55,.6-.72c.26-.17,.56-.25,.9-.25s.64,.08,.9,.25,.46,.4,.6,.72c.14,.31,.21,.68,.21,1.09v.27Zm-.56-.28c0-.51-.1-.89-.3-1.17-.2-.27-.49-.41-.85-.41s-.64,.14-.84,.41c-.2,.27-.31,.65-.31,1.13v.31c0,.49,.1,.88,.31,1.16,.21,.28,.49,.42,.85,.42s.64-.13,.84-.4c.2-.26,.3-.64,.31-1.14v-.32Z"/><path d="M1003.41,165.88l1.39,3.48,1.39-3.48h.73v4.27h-.56v-1.66l.05-1.79-1.4,3.45h-.43l-1.4-3.45,.06,1.78v1.66h-.56v-4.27h.73Z"/><path d="M1008.67,168.47v1.67h-.56v-4.27h1.57c.47,0,.83,.12,1.1,.36s.4,.55,.4,.95c0,.41-.13,.73-.39,.96-.26,.22-.63,.34-1.11,.34h-1Zm0-.46h1.01c.3,0,.53-.07,.69-.21s.24-.35,.24-.61-.08-.46-.24-.61c-.16-.15-.38-.23-.66-.24h-1.04v1.68Z"/><path d="M1015.1,165.88v2.9c0,.4-.13,.73-.38,.99s-.59,.4-1.02,.43h-.15c-.47,0-.84-.12-1.12-.37s-.42-.6-.42-1.04v-2.91h.56v2.89c0,.31,.08,.55,.25,.72,.17,.17,.41,.26,.73,.26s.56-.08,.73-.25,.25-.41,.25-.72v-2.89h.57Z"/><path d="M1019.19,166.34h-1.37v3.81h-.56v-3.81h-1.37v-.46h3.3v.46Z"/><path d="M1022.44,168.17h-1.85v1.51h2.15v.46h-2.71v-4.27h2.68v.46h-2.12v1.37h1.85v.46Z"/><path d="M1025.18,168.42h-1v1.73h-.57v-4.27h1.41c.48,0,.85,.11,1.11,.33s.39,.54,.39,.96c0,.27-.07,.5-.22,.69s-.34,.34-.6,.44l1,1.81v.04h-.6l-.93-1.73Zm-1-.46h.86c.28,0,.5-.07,.67-.22,.17-.15,.25-.34,.25-.58,0-.26-.08-.47-.24-.61-.16-.14-.38-.21-.68-.21h-.86v1.62Z"/><path d="M1029.36,169.68h2.02v.46h-2.59v-4.27h.57v3.81Z"/><path d="M1034.77,169.03h-1.79l-.4,1.12h-.58l1.63-4.27h.49l1.63,4.27h-.58l-.41-1.12Zm-1.62-.46h1.45l-.73-2-.72,2Z"/><path d="M1036.56,170.14v-4.27h1.39c.46,0,.81,.1,1.04,.29s.35,.47,.35,.85c0,.2-.06,.38-.17,.53s-.27,.27-.46,.36c.23,.06,.41,.19,.55,.37,.13,.18,.2,.4,.2,.65,0,.38-.12,.68-.37,.9s-.6,.33-1.05,.33h-1.48Zm.56-2.45h.85c.25,0,.44-.06,.59-.18,.15-.12,.22-.29,.22-.5,0-.24-.07-.41-.21-.51s-.34-.16-.62-.16h-.83v1.36Zm0,.45v1.54h.93c.26,0,.47-.07,.62-.2,.15-.13,.23-.32,.23-.56,0-.51-.28-.77-.84-.77h-.94Z"/><path d="M1017.75,175.91h.59v.44h-.59v.99h-.54v-.99h-1.94v-.32l1.91-2.96h.58v2.83Zm-1.87,0h1.33v-2.09l-.06,.12-1.26,1.97Z"/></g><g><path d="M883.39,168.9h-.56v-4.27h.56v4.27Z"/><path d="M887.55,165.09h-1.37v3.81h-.56v-3.81h-1.37v-.46h3.3v.46Z"/><path d="M891.41,167.54c-.05,.45-.22,.8-.5,1.04s-.65,.37-1.12,.37c-.5,0-.91-.18-1.21-.54s-.46-.84-.46-1.45v-.41c0-.4,.07-.75,.21-1.05s.34-.53,.6-.69c.26-.16,.56-.24,.9-.24,.45,0,.82,.13,1.09,.38,.27,.25,.43,.6,.48,1.05h-.57c-.05-.34-.15-.59-.32-.74-.16-.15-.39-.23-.68-.23-.36,0-.64,.13-.85,.4-.2,.27-.31,.64-.31,1.13v.41c0,.46,.1,.83,.29,1.11,.19,.27,.46,.41,.81,.41,.31,0,.55-.07,.72-.21s.28-.39,.33-.74h.57Z"/><path d="M896.95,166.9c0,.42-.07,.78-.21,1.09s-.34,.55-.6,.71-.56,.25-.9,.25-.63-.08-.89-.25c-.26-.16-.46-.4-.6-.71s-.22-.66-.22-1.06v-.31c0-.41,.07-.77,.21-1.09s.34-.55,.6-.72c.26-.17,.56-.25,.9-.25s.64,.08,.9,.25,.46,.4,.6,.72c.14,.31,.21,.68,.21,1.09v.27Zm-.56-.28c0-.51-.1-.89-.3-1.17-.2-.27-.49-.41-.85-.41s-.64,.14-.84,.41c-.2,.27-.31,.65-.31,1.13v.31c0,.49,.1,.88,.31,1.16,.21,.28,.49,.42,.85,.42s.64-.13,.84-.4c.2-.26,.3-.64,.31-1.14v-.32Z"/><path d="M900.33,167.01h-1.79v1.88h-.56v-4.27h2.64v.46h-2.08v1.46h1.79v.46Z"/><path d="M903.83,167.01h-1.79v1.88h-.56v-4.27h2.64v.46h-2.08v1.46h1.79v.46Z"/><path d="M905.57,168.9h-.56v-4.27h.56v4.27Z"/><path d="M909.91,167.54c-.05,.45-.22,.8-.5,1.04s-.65,.37-1.12,.37c-.5,0-.91-.18-1.21-.54s-.46-.84-.46-1.45v-.41c0-.4,.07-.75,.21-1.05s.34-.53,.6-.69c.26-.16,.56-.24,.9-.24,.45,0,.82,.13,1.09,.38,.27,.25,.43,.6,.48,1.05h-.57c-.05-.34-.15-.59-.32-.74-.16-.15-.39-.23-.68-.23-.36,0-.64,.13-.85,.4-.2,.27-.31,.64-.31,1.13v.41c0,.46,.1,.83,.29,1.11,.19,.27,.46,.41,.81,.41,.31,0,.55-.07,.72-.21s.28-.39,.33-.74h.57Z"/><path d="M913.29,166.92h-1.85v1.51h2.15v.46h-2.71v-4.27h2.68v.46h-2.12v1.37h1.85v.46Z"/></g><g><path d="M989.13,93.9h-.56v-4.27h.56v4.27Z"/><path d="M993.3,90.09h-1.37v3.81h-.56v-3.81h-1.37v-.46h3.3v.46Z"/><path d="M997.16,92.54c-.05,.45-.22,.8-.5,1.04s-.65,.37-1.12,.37c-.5,0-.91-.18-1.21-.54s-.46-.84-.46-1.45v-.41c0-.4,.07-.75,.21-1.05s.34-.53,.6-.69c.26-.16,.56-.24,.9-.24,.45,0,.82,.13,1.09,.38,.27,.25,.43,.6,.48,1.05h-.57c-.05-.34-.15-.59-.32-.74-.16-.15-.39-.23-.68-.23-.36,0-.64,.13-.85,.4-.2,.27-.31,.64-.31,1.13v.41c0,.46,.1,.83,.29,1.11,.19,.27,.46,.41,.81,.41,.31,0,.55-.07,.72-.21s.28-.39,.33-.74h.57Z"/><path d="M1002.69,93.9h-.57v-1.97h-2.15v1.97h-.56v-4.27h.56v1.83h2.15v-1.83h.57v4.27Z"/><path d="M1006.28,91.92h-1.85v1.51h2.15v.46h-2.71v-4.27h2.68v.46h-2.12v1.37h1.85v.46Z"/><path d="M1010,92.78h-1.79l-.4,1.12h-.58l1.63-4.27h.49l1.63,4.27h-.58l-.41-1.12Zm-1.62-.46h1.45l-.73-2-.72,2Z"/><path d="M1011.79,93.9v-4.27h1.2c.37,0,.7,.08,.98,.25s.51,.4,.66,.7,.23,.65,.24,1.04v.27c0,.4-.08,.75-.23,1.06s-.38,.54-.67,.7-.62,.25-1.01,.25h-1.18Zm.56-3.81v3.35h.59c.43,0,.77-.13,1.01-.4,.24-.27,.36-.65,.36-1.15v-.25c0-.48-.11-.86-.34-1.13s-.55-.41-.97-.41h-.66Z"/><path d="M1017.01,92.75c0-.21,.06-.39,.17-.57s.33-.37,.65-.6c-.19-.23-.32-.42-.38-.56s-.1-.28-.1-.42c0-.32,.1-.58,.29-.76s.45-.28,.78-.28c.29,0,.54,.09,.73,.26,.19,.17,.29,.39,.29,.65,0,.17-.04,.33-.13,.48s-.24,.3-.46,.46l-.31,.23,.95,1.13c.13-.25,.2-.54,.2-.85h.49c0,.5-.12,.91-.36,1.24l.61,.73h-.65l-.28-.34c-.14,.13-.31,.23-.51,.29-.19,.07-.39,.1-.59,.1-.42,0-.75-.11-1-.33s-.38-.51-.38-.87Zm1.38,.76c.29,0,.55-.11,.79-.33l-1.04-1.25-.1,.07c-.33,.24-.49,.49-.49,.74,0,.23,.07,.42,.22,.55s.35,.21,.61,.21Zm-.49-2.92c0,.19,.12,.42,.35,.7l.35-.24c.13-.09,.22-.18,.27-.27,.05-.08,.07-.19,.07-.31,0-.13-.05-.24-.15-.33s-.22-.13-.37-.13c-.16,0-.29,.05-.38,.16-.09,.11-.14,.25-.14,.41Z"/><path d="M1023.68,91.99c-.48-.14-.83-.31-1.05-.51-.22-.2-.33-.45-.33-.75,0-.34,.13-.61,.4-.83,.27-.22,.62-.33,1.05-.33,.29,0,.55,.06,.78,.17s.41,.27,.53,.47,.19,.42,.19,.65h-.57c0-.26-.08-.46-.25-.61-.16-.15-.4-.22-.69-.22-.28,0-.49,.06-.65,.18s-.23,.29-.23,.51c0,.17,.07,.32,.22,.44,.15,.12,.4,.23,.75,.33s.63,.21,.83,.33c.2,.12,.35,.26,.45,.42s.15,.35,.15,.57c0,.35-.13,.62-.4,.83-.27,.21-.63,.31-1.08,.31-.29,0-.57-.06-.82-.17-.25-.11-.45-.27-.59-.46s-.21-.42-.21-.67h.57c0,.26,.1,.46,.29,.61,.19,.15,.44,.22,.76,.22,.3,0,.52-.06,.68-.18s.24-.29,.24-.5-.07-.37-.22-.48c-.15-.12-.41-.23-.8-.34Z"/><path d="M1029.16,90.09h-1.37v3.81h-.56v-3.81h-1.37v-.46h3.3v.46Z"/><path d="M1031.93,92.78h-1.79l-.4,1.12h-.58l1.63-4.27h.49l1.63,4.27h-.58l-.41-1.12Zm-1.62-.46h1.45l-.73-2-.72,2Z"/><path d="M1036.07,92.01h-1.79v1.88h-.56v-4.27h2.64v.46h-2.08v1.46h1.79v.46Z"/><path d="M1039.58,92.01h-1.79v1.88h-.56v-4.27h2.64v.46h-2.08v1.46h1.79v.46Z"/><path d="M1007.51,99.1c0,.42-.07,.78-.21,1.09s-.34,.55-.6,.71-.56,.25-.9,.25-.63-.08-.89-.25c-.26-.16-.46-.4-.6-.71s-.22-.66-.22-1.06v-.31c0-.41,.07-.77,.21-1.09s.34-.55,.6-.72c.26-.17,.56-.25,.9-.25s.64,.08,.9,.25,.46,.4,.6,.72c.14,.31,.21,.68,.21,1.09v.27Zm-.56-.28c0-.51-.1-.89-.3-1.17-.2-.27-.49-.41-.85-.41s-.64,.14-.84,.41c-.2,.27-.31,.65-.31,1.13v.31c0,.49,.1,.88,.31,1.16,.21,.28,.49,.42,.85,.42s.64-.13,.84-.4c.2-.26,.3-.64,.31-1.14v-.32Z"/><path d="M1010.89,99.21h-1.79v1.88h-.56v-4.27h2.64v.46h-2.08v1.46h1.79v.46Z"/><path d="M1014.39,99.21h-1.79v1.88h-.56v-4.27h2.64v.46h-2.08v1.46h1.79v.46Z"/><path d="M1016.13,101.1h-.56v-4.27h.56v4.27Z"/><path d="M1020.47,99.74c-.05,.45-.22,.8-.5,1.04s-.65,.37-1.12,.37c-.5,0-.91-.18-1.21-.54s-.46-.84-.46-1.45v-.41c0-.4,.07-.75,.21-1.05s.34-.53,.6-.69c.26-.16,.56-.24,.9-.24,.45,0,.82,.13,1.09,.38,.27,.25,.43,.6,.48,1.05h-.57c-.05-.34-.15-.59-.32-.74-.16-.15-.39-.23-.68-.23-.36,0-.64,.13-.85,.4-.2,.27-.31,.64-.31,1.13v.41c0,.46,.1,.83,.29,1.11,.19,.27,.46,.41,.81,.41,.31,0,.55-.07,.72-.21s.28-.39,.33-.74h.57Z"/><path d="M1023.85,99.12h-1.85v1.51h2.15v.46h-2.71v-4.27h2.68v.46h-2.12v1.37h1.85v.46Z"/></g><g><path d="M855.98,165.02h-.56v-4.27h.56v4.27Z"/><path d="M860.14,161.21h-1.37v3.81h-.56v-3.81h-1.37v-.46h3.3v.46Z"/><path d="M864,163.66c-.05,.45-.22,.8-.5,1.04s-.65,.37-1.12,.37c-.5,0-.91-.18-1.21-.54s-.46-.84-.46-1.45v-.41c0-.4,.07-.75,.21-1.05s.34-.53,.6-.69c.26-.16,.56-.24,.9-.24,.45,0,.82,.13,1.09,.38,.27,.25,.43,.6,.48,1.05h-.57c-.05-.34-.15-.59-.32-.74-.16-.15-.39-.23-.68-.23-.36,0-.64,.13-.85,.4-.2,.27-.31,.64-.31,1.13v.41c0,.46,.1,.83,.29,1.11,.19,.27,.46,.41,.81,.41,.31,0,.55-.07,.72-.21s.28-.39,.33-.74h.57Z"/><path d="M845.54,172.22v-4.27h1.2c.37,0,.7,.08,.98,.25s.51,.4,.66,.7,.23,.65,.24,1.04v.27c0,.4-.08,.75-.23,1.06s-.38,.54-.67,.7-.62,.25-1.01,.25h-1.18Zm.56-3.81v3.35h.59c.43,0,.77-.13,1.01-.4,.24-.27,.36-.65,.36-1.15v-.25c0-.48-.11-.86-.34-1.13s-.55-.41-.97-.41h-.66Z"/><path d="M850.23,172.22h-.56v-4.27h.56v4.27Z"/><path d="M852.99,170.49h-1v1.73h-.57v-4.27h1.41c.48,0,.85,.11,1.11,.33s.39,.54,.39,.96c0,.27-.07,.5-.22,.69s-.34,.34-.6,.44l1,1.81v.04h-.6l-.93-1.73Zm-1-.46h.86c.28,0,.5-.07,.67-.22,.17-.15,.25-.34,.25-.58,0-.26-.08-.47-.24-.61-.16-.14-.38-.21-.68-.21h-.86v1.62Z"/><path d="M857.75,170.25h-1.85v1.51h2.15v.46h-2.71v-4.27h2.68v.46h-2.12v1.37h1.85v.46Z"/><path d="M862,170.86c-.05,.45-.22,.8-.5,1.04s-.65,.37-1.12,.37c-.5,0-.91-.18-1.21-.54s-.46-.84-.46-1.45v-.41c0-.4,.07-.75,.21-1.05s.34-.53,.6-.69c.26-.16,.56-.24,.9-.24,.45,0,.82,.13,1.09,.38,.27,.25,.43,.6,.48,1.05h-.57c-.05-.34-.15-.59-.32-.74-.16-.15-.39-.23-.68-.23-.36,0-.64,.13-.85,.4-.2,.27-.31,.64-.31,1.13v.41c0,.46,.1,.83,.29,1.11,.19,.27,.46,.41,.81,.41,.31,0,.55-.07,.72-.21s.28-.39,.33-.74h.57Z"/><path d="M865.89,168.41h-1.37v3.81h-.56v-3.81h-1.37v-.46h3.3v.46Z"/><path d="M869.88,170.22c0,.42-.07,.78-.21,1.09s-.34,.55-.6,.71-.56,.25-.9,.25-.63-.08-.89-.25c-.26-.16-.46-.4-.6-.71s-.22-.66-.22-1.06v-.31c0-.41,.07-.77,.21-1.09s.34-.55,.6-.72c.26-.17,.56-.25,.9-.25s.64,.08,.9,.25,.46,.4,.6,.72c.14,.31,.21,.68,.21,1.09v.27Zm-.56-.28c0-.51-.1-.89-.3-1.17-.2-.27-.49-.41-.85-.41s-.64,.14-.84,.41c-.2,.27-.31,.65-.31,1.13v.31c0,.49,.1,.88,.31,1.16,.21,.28,.49,.42,.85,.42s.64-.13,.84-.4c.2-.26,.3-.64,.31-1.14v-.32Z"/><path d="M872.48,170.49h-1v1.73h-.57v-4.27h1.41c.48,0,.85,.11,1.11,.33s.39,.54,.39,.96c0,.27-.07,.5-.22,.69s-.34,.34-.6,.44l1,1.81v.04h-.6l-.93-1.73Zm-1-.46h.86c.28,0,.5-.07,.67-.22,.17-.15,.25-.34,.25-.58,0-.26-.08-.47-.24-.61-.16-.14-.38-.21-.68-.21h-.86v1.62Z"/></g><g><path d="M707.38,130.21h-.38v-2.84h.38v2.84Z"/><path d="M710.15,127.67h-.91v2.54h-.37v-2.54h-.91v-.31h2.2v.31Z"/><path d="M712.72,129.3c-.04,.3-.15,.53-.33,.7-.19,.16-.43,.25-.75,.25-.34,0-.6-.12-.81-.36-.2-.24-.3-.56-.3-.97v-.27c0-.26,.05-.5,.14-.7,.09-.2,.23-.35,.4-.46,.17-.11,.37-.16,.6-.16,.3,0,.54,.08,.73,.25,.18,.17,.29,.4,.32,.7h-.38c-.03-.23-.1-.39-.21-.49-.11-.1-.26-.15-.46-.15-.24,0-.43,.09-.56,.27-.14,.18-.2,.43-.2,.76v.28c0,.31,.06,.55,.19,.74s.31,.27,.54,.27c.21,0,.37-.05,.48-.14s.19-.26,.22-.49h.38Z"/><path d="M702.99,133.74c-.32-.09-.56-.21-.7-.34s-.22-.3-.22-.5c0-.22,.09-.41,.27-.56,.18-.15,.41-.22,.7-.22,.2,0,.37,.04,.52,.11,.15,.08,.27,.18,.36,.31s.13,.28,.13,.44h-.38c0-.17-.05-.31-.16-.41s-.26-.15-.46-.15c-.18,0-.33,.04-.43,.12-.1,.08-.16,.2-.16,.34,0,.12,.05,.21,.15,.29,.1,.08,.27,.15,.5,.22s.42,.14,.55,.22c.13,.08,.23,.17,.3,.28s.1,.23,.1,.38c0,.23-.09,.42-.27,.55s-.42,.21-.72,.21c-.2,0-.38-.04-.55-.11-.17-.08-.3-.18-.39-.31s-.14-.28-.14-.44h.38c0,.17,.06,.31,.19,.41s.3,.15,.51,.15c.2,0,.35-.04,.46-.12s.16-.19,.16-.33-.05-.25-.15-.32-.27-.15-.53-.23Z"/><path d="M705.5,133.59l.74-1.43h.43l-.98,1.78v1.06h-.38v-1.06l-.98-1.78h.43l.74,1.43Z"/><path d="M707.96,133.74c-.32-.09-.56-.21-.7-.34s-.22-.3-.22-.5c0-.22,.09-.41,.27-.56,.18-.15,.41-.22,.7-.22,.2,0,.37,.04,.52,.11,.15,.08,.27,.18,.36,.31s.13,.28,.13,.44h-.38c0-.17-.05-.31-.16-.41s-.26-.15-.46-.15c-.18,0-.33,.04-.43,.12-.1,.08-.16,.2-.16,.34,0,.12,.05,.21,.15,.29,.1,.08,.27,.15,.5,.22s.42,.14,.55,.22c.13,.08,.23,.17,.3,.28s.1,.23,.1,.38c0,.23-.09,.42-.27,.55s-.42,.21-.72,.21c-.2,0-.38-.04-.55-.11-.17-.08-.3-.18-.39-.31s-.14-.28-.14-.44h.38c0,.17,.06,.31,.19,.41s.3,.15,.51,.15c.2,0,.35-.04,.46-.12s.16-.19,.16-.33-.05-.25-.15-.32-.27-.15-.53-.23Z"/><path d="M711.61,132.47h-.91v2.54h-.37v-2.54h-.91v-.31h2.2v.31Z"/><path d="M713.78,133.69h-1.23v1.01h1.43v.31h-1.81v-2.84h1.79v.31h-1.41v.92h1.23v.31Z"/><path d="M715.05,132.16l.93,2.32,.93-2.32h.49v2.84h-.38v-1.11l.04-1.2-.93,2.3h-.29l-.93-2.3,.04,1.19v1.11h-.38v-2.84h.48Z"/><path d="M695.33,136.96l.93,2.32,.93-2.32h.49v2.84h-.38v-1.11l.04-1.2-.93,2.3h-.29l-.93-2.3,.04,1.19v1.11h-.38v-2.84h.48Z"/><path d="M700.06,139.06h-1.19l-.27,.74h-.39l1.09-2.84h.33l1.09,2.84h-.38l-.27-.74Zm-1.08-.31h.97l-.48-1.33-.48,1.33Z"/><path d="M701.64,139.81h-.38v-2.84h.38v2.84Z"/><path d="M704.63,139.81h-.38l-1.43-2.19v2.19h-.38v-2.84h.38l1.44,2.2v-2.2h.37v2.84Z"/><path d="M707.39,137.27h-.91v2.54h-.37v-2.54h-.91v-.31h2.2v.31Z"/><path d="M709.24,139.06h-1.19l-.27,.74h-.39l1.09-2.84h.33l1.09,2.84h-.38l-.27-.74Zm-1.08-.31h.97l-.48-1.33-.48,1.33Z"/><path d="M710.82,139.81h-.38v-2.84h.38v2.84Z"/><path d="M713.81,139.81h-.38l-1.43-2.19v2.19h-.38v-2.84h.38l1.44,2.2v-2.2h.37v2.84Z"/><path d="M716.2,139.06h-1.19l-.27,.74h-.39l1.09-2.84h.33l1.09,2.84h-.38l-.27-.74Zm-1.08-.31h.97l-.48-1.33-.48,1.33Z"/><path d="M719.57,139.81h-.38l-1.43-2.19v2.19h-.38v-2.84h.38l1.44,2.2v-2.2h.37v2.84Z"/><path d="M722.46,138.9c-.04,.3-.15,.53-.33,.7-.19,.16-.44,.25-.75,.25-.34,0-.61-.12-.81-.36-.2-.24-.3-.56-.3-.97v-.27c0-.26,.05-.5,.14-.7,.09-.2,.23-.35,.4-.46,.17-.11,.37-.16,.6-.16,.3,0,.54,.08,.73,.25,.18,.17,.29,.4,.32,.7h-.38c-.03-.23-.1-.39-.21-.49-.11-.1-.26-.15-.46-.15-.24,0-.43,.09-.56,.27-.14,.18-.2,.43-.2,.76v.28c0,.31,.06,.55,.19,.74s.31,.27,.54,.27c.21,0,.37-.05,.48-.14s.18-.26,.22-.49h.38Z"/><path d="M724.7,138.49h-1.23v1.01h1.43v.31h-1.81v-2.84h1.79v.31h-1.41v.92h1.23v.31Z"/></g><g><path d="M114.69,292.47v1.67h-.56v-4.27h1.57c.47,0,.83,.12,1.1,.36s.4,.55,.4,.95c0,.41-.13,.73-.39,.96-.26,.22-.63,.34-1.11,.34h-1Zm0-.46h1.01c.3,0,.53-.07,.69-.21s.24-.35,.24-.61-.08-.46-.24-.61c-.16-.15-.38-.23-.66-.24h-1.04v1.68Z"/><path d="M118.64,293.68h2.02v.46h-2.59v-4.27h.57v3.81Z"/><path d="M124.05,293.03h-1.79l-.4,1.12h-.58l1.63-4.27h.49l1.63,4.27h-.58l-.41-1.12Zm-1.62-.46h1.45l-.73-2-.72,2Z"/><path d="M128.83,292.79c-.05,.45-.22,.8-.5,1.04s-.65,.37-1.12,.37c-.5,0-.91-.18-1.21-.54s-.46-.84-.46-1.45v-.41c0-.4,.07-.75,.21-1.05s.34-.53,.6-.69c.26-.16,.56-.24,.9-.24,.45,0,.82,.13,1.09,.38,.27,.25,.43,.6,.48,1.05h-.57c-.05-.34-.16-.59-.32-.74-.16-.15-.39-.23-.68-.23-.36,0-.64,.13-.85,.4-.2,.27-.31,.64-.31,1.13v.41c0,.46,.1,.83,.29,1.11,.19,.27,.46,.41,.81,.41,.31,0,.55-.07,.72-.21s.28-.39,.33-.74h.57Z"/><path d="M132.2,292.17h-1.85v1.51h2.15v.46h-2.71v-4.27h2.68v.46h-2.12v1.37h1.85v.46Z"/><path d="M134.1,289.88l1.39,3.48,1.39-3.48h.73v4.27h-.56v-1.66l.05-1.79-1.4,3.45h-.43l-1.4-3.45,.06,1.78v1.66h-.56v-4.27h.73Z"/><path d="M141.21,292.17h-1.85v1.51h2.15v.46h-2.71v-4.27h2.68v.46h-2.12v1.37h1.85v.46Z"/><path d="M145.67,294.14h-.57l-2.15-3.29v3.29h-.57v-4.27h.57l2.15,3.3v-3.3h.56v4.27Z"/><path d="M149.81,290.34h-1.37v3.81h-.56v-3.81h-1.37v-.46h3.3v.46Z"/><path d="M125.26,299.35c0,.42-.07,.78-.21,1.09s-.34,.55-.6,.71-.56,.25-.9,.25-.63-.08-.89-.25c-.26-.16-.46-.4-.6-.71s-.22-.66-.22-1.06v-.31c0-.41,.07-.77,.21-1.09s.34-.55,.61-.72c.26-.17,.56-.25,.89-.25s.64,.08,.9,.25,.46,.4,.6,.72c.14,.31,.21,.68,.21,1.09v.27Zm-.56-.28c0-.51-.1-.89-.3-1.17-.2-.27-.49-.41-.85-.41s-.63,.14-.84,.41c-.2,.27-.31,.65-.32,1.13v.31c0,.49,.1,.88,.31,1.16,.21,.28,.49,.42,.85,.42s.64-.13,.84-.4c.2-.26,.3-.64,.31-1.14v-.32Z"/><path d="M128.64,299.46h-1.79v1.88h-.56v-4.27h2.64v.46h-2.08v1.46h1.79v.46Z"/><path d="M132.14,299.46h-1.79v1.88h-.56v-4.27h2.64v.46h-2.08v1.46h1.79v.46Z"/><path d="M133.88,301.34h-.56v-4.27h.56v4.27Z"/><path d="M138.22,299.99c-.05,.45-.22,.8-.5,1.04s-.65,.37-1.12,.37c-.5,0-.91-.18-1.21-.54s-.46-.84-.46-1.45v-.41c0-.4,.07-.75,.21-1.05s.34-.53,.6-.69c.26-.16,.56-.24,.9-.24,.45,0,.82,.13,1.09,.38,.27,.25,.43,.6,.48,1.05h-.57c-.05-.34-.15-.59-.32-.74-.16-.15-.39-.23-.68-.23-.36,0-.64,.13-.84,.4-.2,.27-.31,.64-.31,1.13v.41c0,.46,.1,.83,.29,1.11,.19,.27,.46,.41,.81,.41,.31,0,.55-.07,.72-.21s.28-.39,.33-.74h.57Z"/><path d="M141.6,299.37h-1.85v1.51h2.15v.46h-2.71v-4.27h2.68v.46h-2.12v1.37h1.85v.46Z"/></g><g><path d="M124.53,248.26h-1.79v1.88h-.56v-4.27h2.64v.46h-2.08v1.46h1.79v.46Z"/><path d="M128.09,248.17h-1.85v1.51h2.15v.46h-2.71v-4.27h2.68v.46h-2.12v1.37h1.85v.46Z"/><path d="M130.54,248.24c-.48-.14-.83-.31-1.05-.51-.22-.2-.33-.45-.33-.75,0-.34,.13-.61,.4-.83,.27-.22,.62-.33,1.05-.33,.29,0,.55,.06,.78,.17s.41,.27,.53,.47,.19,.42,.19,.65h-.57c0-.26-.08-.46-.25-.61-.16-.15-.4-.22-.69-.22-.28,0-.49,.06-.65,.18s-.23,.29-.23,.51c0,.17,.07,.32,.22,.44,.15,.12,.4,.23,.75,.33s.63,.21,.83,.33c.2,.12,.35,.26,.45,.42s.14,.35,.14,.57c0,.35-.13,.62-.4,.83-.27,.21-.63,.31-1.08,.31-.29,0-.57-.06-.82-.17-.25-.11-.45-.27-.59-.46s-.21-.42-.21-.67h.57c0,.26,.1,.46,.29,.61,.19,.15,.44,.22,.76,.22,.3,0,.52-.06,.68-.18s.24-.29,.24-.5-.07-.37-.22-.48c-.15-.12-.41-.23-.8-.34Z"/><path d="M133.66,250.14h-.56v-4.27h.56v4.27Z"/><path d="M135.43,249.68h2.02v.46h-2.59v-4.27h.57v3.81Z"/><path d="M140.83,249.03h-1.79l-.4,1.12h-.58l1.63-4.27h.49l1.63,4.27h-.58l-.41-1.12Zm-1.62-.46h1.45l-.73-2-.72,2Z"/><path d="M125.26,255.35c0,.42-.07,.78-.21,1.09s-.34,.55-.6,.71-.56,.25-.9,.25-.63-.08-.89-.25c-.26-.16-.46-.4-.6-.71s-.22-.66-.22-1.06v-.31c0-.41,.07-.77,.21-1.09s.34-.55,.61-.72c.26-.17,.56-.25,.89-.25s.64,.08,.9,.25,.46,.4,.6,.72c.14,.31,.21,.68,.21,1.09v.27Zm-.56-.28c0-.51-.1-.89-.3-1.17-.2-.27-.49-.41-.85-.41s-.63,.14-.84,.41c-.2,.27-.31,.65-.32,1.13v.31c0,.49,.1,.88,.31,1.16,.21,.28,.49,.42,.85,.42s.64-.13,.84-.4c.2-.26,.3-.64,.31-1.14v-.32Z"/><path d="M128.64,255.46h-1.79v1.88h-.56v-4.27h2.64v.46h-2.08v1.46h1.79v.46Z"/><path d="M132.14,255.46h-1.79v1.88h-.56v-4.27h2.64v.46h-2.08v1.46h1.79v.46Z"/><path d="M133.88,257.34h-.56v-4.27h.56v4.27Z"/><path d="M138.22,255.99c-.05,.45-.22,.8-.5,1.04s-.65,.37-1.12,.37c-.5,0-.91-.18-1.21-.54s-.46-.84-.46-1.45v-.41c0-.4,.07-.75,.21-1.05s.34-.53,.6-.69c.26-.16,.56-.24,.9-.24,.45,0,.82,.13,1.09,.38,.27,.25,.43,.6,.48,1.05h-.57c-.05-.34-.15-.59-.32-.74-.16-.15-.39-.23-.68-.23-.36,0-.64,.13-.84,.4-.2,.27-.31,.64-.31,1.13v.41c0,.46,.1,.83,.29,1.11,.19,.27,.46,.41,.81,.41,.31,0,.55-.07,.72-.21s.28-.39,.33-.74h.57Z"/><path d="M141.6,255.37h-1.85v1.51h2.15v.46h-2.71v-4.27h2.68v.46h-2.12v1.37h1.85v.46Z"/></g><g><path d="M125,335.47v1.67h-.56v-4.27h1.57c.47,0,.83,.12,1.1,.36s.4,.55,.4,.95c0,.41-.13,.73-.39,.96-.26,.22-.63,.34-1.11,.34h-1Zm0-.46h1.01c.3,0,.53-.07,.69-.21s.24-.35,.24-.61-.08-.46-.24-.61c-.16-.15-.38-.23-.66-.24h-1.04v1.68Z"/><path d="M131.73,335.15c0,.42-.07,.78-.21,1.09s-.34,.55-.6,.71-.56,.25-.9,.25-.63-.08-.89-.25c-.26-.16-.46-.4-.61-.71s-.22-.66-.22-1.06v-.31c0-.41,.07-.77,.21-1.09s.34-.55,.6-.72c.26-.17,.56-.25,.9-.25s.64,.08,.9,.25,.46,.4,.6,.72c.14,.31,.21,.68,.21,1.09v.27Zm-.56-.28c0-.51-.1-.89-.3-1.17-.2-.27-.49-.41-.85-.41s-.64,.14-.84,.41c-.2,.27-.31,.65-.31,1.13v.31c0,.49,.1,.88,.31,1.16,.21,.28,.49,.42,.85,.42s.64-.13,.84-.4c.2-.26,.3-.64,.31-1.14v-.32Z"/><path d="M134.02,335.24c-.48-.14-.83-.31-1.05-.51-.22-.2-.33-.45-.33-.75,0-.34,.13-.61,.4-.83,.27-.22,.62-.33,1.05-.33,.29,0,.55,.06,.78,.17s.41,.27,.53,.47,.19,.42,.19,.65h-.57c0-.26-.08-.46-.25-.61-.16-.15-.4-.22-.69-.22-.28,0-.49,.06-.65,.18s-.23,.29-.23,.51c0,.17,.07,.32,.22,.44,.15,.12,.4,.23,.75,.33s.63,.21,.83,.33c.2,.12,.35,.26,.45,.42s.15,.35,.15,.57c0,.35-.13,.62-.4,.83-.27,.21-.63,.31-1.08,.31-.29,0-.57-.06-.82-.17-.25-.11-.45-.27-.59-.46s-.21-.42-.21-.67h.57c0,.26,.09,.46,.29,.61,.19,.15,.45,.22,.76,.22,.3,0,.52-.06,.68-.18s.24-.29,.24-.5-.07-.37-.22-.48c-.15-.12-.41-.23-.8-.34Z"/><path d="M139.5,333.34h-1.37v3.81h-.56v-3.81h-1.37v-.46h3.3v.46Z"/><path d="M125.26,342.35c0,.42-.07,.78-.21,1.09s-.34,.55-.6,.71-.56,.25-.9,.25-.63-.08-.89-.25c-.26-.16-.46-.4-.6-.71s-.22-.66-.22-1.06v-.31c0-.41,.07-.77,.21-1.09s.34-.55,.61-.72c.26-.17,.56-.25,.89-.25s.64,.08,.9,.25,.46,.4,.6,.72c.14,.31,.21,.68,.21,1.09v.27Zm-.56-.28c0-.51-.1-.89-.3-1.17-.2-.27-.49-.41-.85-.41s-.63,.14-.84,.41c-.2,.27-.31,.65-.32,1.13v.31c0,.49,.1,.88,.31,1.16,.21,.28,.49,.42,.85,.42s.64-.13,.84-.4c.2-.26,.3-.64,.31-1.14v-.32Z"/><path d="M128.64,342.46h-1.79v1.88h-.56v-4.27h2.64v.46h-2.08v1.46h1.79v.46Z"/><path d="M132.14,342.46h-1.79v1.88h-.56v-4.27h2.64v.46h-2.08v1.46h1.79v.46Z"/><path d="M133.88,344.34h-.56v-4.27h.56v4.27Z"/><path d="M138.22,342.99c-.05,.45-.22,.8-.5,1.04s-.65,.37-1.12,.37c-.5,0-.91-.18-1.21-.54s-.46-.84-.46-1.45v-.41c0-.4,.07-.75,.21-1.05s.34-.53,.6-.69c.26-.16,.56-.24,.9-.24,.45,0,.82,.13,1.09,.38,.27,.25,.43,.6,.48,1.05h-.57c-.05-.34-.15-.59-.32-.74-.16-.15-.39-.23-.68-.23-.36,0-.64,.13-.84,.4-.2,.27-.31,.64-.31,1.13v.41c0,.46,.1,.83,.29,1.11,.19,.27,.46,.41,.81,.41,.31,0,.55-.07,.72-.21s.28-.39,.33-.74h.57Z"/><path d="M141.6,342.37h-1.85v1.51h2.15v.46h-2.71v-4.27h2.68v.46h-2.12v1.37h1.85v.46Z"/></g><g><path d="M116.12,481.24c-.48-.14-.83-.31-1.05-.51-.22-.2-.33-.45-.33-.75,0-.34,.13-.61,.4-.83,.27-.22,.62-.33,1.05-.33,.29,0,.55,.06,.78,.17s.41,.27,.53,.47,.19,.42,.19,.65h-.57c0-.26-.08-.46-.25-.61-.16-.15-.4-.22-.69-.22-.28,0-.49,.06-.65,.18s-.23,.29-.23,.51c0,.17,.07,.32,.22,.44,.15,.12,.4,.23,.75,.33s.63,.21,.83,.33c.2,.12,.35,.26,.45,.42s.15,.35,.15,.57c0,.35-.13,.62-.4,.83-.27,.21-.63,.31-1.08,.31-.29,0-.57-.06-.82-.17-.25-.11-.45-.27-.59-.46s-.21-.42-.21-.67h.57c0,.26,.09,.46,.29,.61,.19,.15,.45,.22,.76,.22,.3,0,.52-.06,.68-.18s.24-.29,.24-.5-.07-.37-.22-.48c-.15-.12-.41-.23-.8-.34Z"/><path d="M121.07,481.17h-1.85v1.51h2.15v.46h-2.71v-4.27h2.68v.46h-2.12v1.37h1.85v.46Z"/><path d="M125.31,481.79c-.05,.45-.22,.8-.5,1.04s-.65,.37-1.12,.37c-.5,0-.91-.18-1.21-.54s-.46-.84-.46-1.45v-.41c0-.4,.07-.75,.21-1.05s.34-.53,.6-.69c.26-.16,.56-.24,.9-.24,.45,0,.82,.13,1.09,.38,.27,.25,.43,.6,.48,1.05h-.57c-.05-.34-.16-.59-.32-.74-.16-.15-.39-.23-.68-.23-.36,0-.64,.13-.85,.4-.2,.27-.31,.64-.31,1.13v.41c0,.46,.1,.83,.29,1.11,.19,.27,.46,.41,.81,.41,.31,0,.55-.07,.72-.21s.28-.39,.33-.74h.57Z"/><path d="M129.28,478.88v2.9c0,.4-.13,.73-.38,.99s-.59,.4-1.02,.43h-.15c-.47,0-.84-.12-1.12-.37s-.42-.6-.42-1.04v-2.91h.56v2.89c0,.31,.08,.55,.25,.72,.17,.17,.41,.26,.73,.26s.56-.08,.73-.25,.25-.41,.25-.72v-2.89h.57Z"/><path d="M131.96,481.42h-1v1.73h-.57v-4.27h1.41c.48,0,.85,.11,1.11,.33s.39,.54,.39,.96c0,.27-.07,.5-.21,.69s-.34,.34-.6,.44l1,1.81v.04h-.6l-.93-1.73Zm-1-.46h.86c.28,0,.5-.07,.67-.22,.17-.15,.25-.34,.25-.58,0-.26-.08-.47-.24-.61-.16-.14-.38-.21-.68-.21h-.86v1.62Z"/><path d="M134.9,483.14h-.56v-4.27h.56v4.27Z"/><path d="M139.06,479.34h-1.37v3.81h-.56v-3.81h-1.37v-.46h3.3v.46Z"/><path d="M141.4,481.02l1.11-2.14h.64l-1.47,2.67v1.59h-.56v-1.59l-1.47-2.67h.64l1.11,2.14Z"/><path d="M122.26,488.35c0,.42-.07,.78-.21,1.09s-.34,.55-.6,.71-.56,.25-.9,.25-.63-.08-.89-.25c-.26-.16-.46-.4-.6-.71s-.22-.66-.22-1.06v-.31c0-.41,.07-.77,.21-1.09s.34-.55,.61-.72c.26-.17,.56-.25,.89-.25s.64,.08,.9,.25,.46,.4,.6,.72c.14,.31,.21,.68,.21,1.09v.27Zm-.56-.28c0-.51-.1-.89-.3-1.17-.2-.27-.49-.41-.85-.41s-.63,.14-.84,.41c-.2,.27-.31,.65-.32,1.13v.31c0,.49,.1,.88,.31,1.16,.21,.28,.49,.42,.85,.42s.64-.13,.84-.4c.2-.26,.3-.64,.31-1.14v-.32Z"/><path d="M125.64,488.46h-1.79v1.88h-.56v-4.27h2.64v.46h-2.08v1.46h1.79v.46Z"/><path d="M129.14,488.46h-1.79v1.88h-.56v-4.27h2.64v.46h-2.08v1.46h1.79v.46Z"/><path d="M130.88,490.34h-.56v-4.27h.56v4.27Z"/><path d="M135.22,488.99c-.05,.45-.22,.8-.5,1.04s-.65,.37-1.12,.37c-.5,0-.91-.18-1.21-.54s-.46-.84-.46-1.45v-.41c0-.4,.07-.75,.21-1.05s.34-.53,.6-.69c.26-.16,.56-.24,.9-.24,.45,0,.82,.13,1.09,.38,.27,.25,.43,.6,.48,1.05h-.57c-.05-.34-.15-.59-.32-.74-.16-.15-.39-.23-.68-.23-.36,0-.64,.13-.84,.4-.2,.27-.31,.64-.31,1.13v.41c0,.46,.1,.83,.29,1.11,.19,.27,.46,.41,.81,.41,.31,0,.55-.07,.72-.21s.28-.39,.33-.74h.57Z"/><path d="M138.6,488.37h-1.85v1.51h2.15v.46h-2.71v-4.27h2.68v.46h-2.12v1.37h1.85v.46Z"/></g><g><path d="M108.49,546.58c-.14,.21-.35,.36-.6,.46-.26,.1-.56,.15-.9,.15s-.66-.08-.93-.24-.48-.4-.62-.7-.22-.65-.23-1.05v-.37c0-.64,.15-1.14,.45-1.49s.72-.53,1.26-.53c.45,0,.8,.11,1.08,.34s.44,.55,.5,.97h-.56c-.11-.57-.44-.85-1.01-.85-.38,0-.66,.13-.86,.4s-.29,.65-.29,1.15v.35c0,.48,.11,.86,.33,1.14s.51,.42,.89,.42c.21,0,.4-.02,.55-.07s.29-.13,.39-.24v-.96h-.99v-.46h1.55v1.56Z"/><path d="M112.63,542.88v2.9c0,.4-.13,.73-.38,.99s-.59,.4-1.02,.43h-.15c-.47,0-.84-.12-1.12-.37s-.42-.6-.42-1.04v-2.91h.56v2.89c0,.31,.08,.55,.25,.72,.17,.17,.41,.26,.73,.26s.56-.08,.73-.25,.25-.41,.25-.72v-2.89h.57Z"/><path d="M114.33,547.14h-.56v-4.27h.56v4.27Z"/><path d="M115.53,547.14v-4.27h1.2c.37,0,.7,.08,.98,.25s.5,.4,.66,.7,.23,.65,.24,1.04v.27c0,.4-.08,.75-.23,1.06s-.38,.54-.67,.7-.62,.25-1.01,.25h-1.18Zm.56-3.81v3.35h.59c.43,0,.77-.13,1.01-.4,.24-.27,.36-.65,.36-1.15v-.25c0-.48-.11-.86-.34-1.13s-.55-.41-.97-.41h-.66Z"/><path d="M121.88,546.03h-1.79l-.4,1.12h-.58l1.63-4.27h.49l1.63,4.27h-.58l-.41-1.12Zm-1.62-.46h1.45l-.73-2-.72,2Z"/><path d="M126.95,547.14h-.57l-2.15-3.29v3.29h-.57v-4.27h.57l2.15,3.3v-3.3h.56v4.27Z"/><path d="M131.27,545.79c-.05,.45-.22,.8-.5,1.04s-.65,.37-1.12,.37c-.5,0-.91-.18-1.21-.54s-.46-.84-.46-1.45v-.41c0-.4,.07-.75,.21-1.05s.34-.53,.6-.69c.26-.16,.56-.24,.9-.24,.45,0,.82,.13,1.09,.38,.27,.25,.43,.6,.48,1.05h-.57c-.05-.34-.15-.59-.32-.74-.16-.15-.39-.23-.68-.23-.36,0-.64,.13-.84,.4-.2,.27-.31,.64-.31,1.13v.41c0,.46,.1,.83,.29,1.11,.19,.27,.46,.41,.81,.41,.31,0,.55-.07,.72-.21s.28-.39,.33-.74h.57Z"/><path d="M134.64,545.17h-1.85v1.51h2.15v.46h-2.71v-4.27h2.68v.46h-2.12v1.37h1.85v.46Z"/><path d="M140.41,545.15c0,.42-.07,.78-.21,1.09s-.34,.55-.6,.71-.56,.25-.9,.25-.63-.08-.89-.25c-.26-.16-.46-.4-.6-.71s-.22-.66-.22-1.06v-.31c0-.41,.07-.77,.21-1.09s.34-.55,.61-.72c.26-.17,.56-.25,.89-.25s.64,.08,.9,.25,.46,.4,.6,.72c.14,.31,.21,.68,.21,1.09v.27Zm-.56-.28c0-.51-.1-.89-.3-1.17-.2-.27-.49-.41-.85-.41s-.63,.14-.84,.41c-.2,.27-.31,.65-.32,1.13v.31c0,.49,.1,.88,.31,1.16,.21,.28,.49,.42,.85,.42s.64-.13,.84-.4c.2-.26,.3-.64,.31-1.14v-.32Z"/><path d="M143.79,545.26h-1.79v1.88h-.56v-4.27h2.64v.46h-2.08v1.46h1.79v.46Z"/><path d="M147.29,545.26h-1.79v1.88h-.56v-4.27h2.64v.46h-2.08v1.46h1.79v.46Z"/><path d="M149.03,547.14h-.56v-4.27h.56v4.27Z"/><path d="M153.37,545.79c-.05,.45-.22,.8-.5,1.04s-.65,.37-1.12,.37c-.5,0-.91-.18-1.21-.54s-.46-.84-.46-1.45v-.41c0-.4,.07-.75,.21-1.05s.34-.53,.6-.69c.26-.16,.56-.24,.9-.24,.45,0,.82,.13,1.09,.38,.27,.25,.43,.6,.48,1.05h-.57c-.05-.34-.15-.59-.32-.74-.16-.15-.39-.23-.68-.23-.36,0-.64,.13-.84,.4-.2,.27-.31,.64-.31,1.13v.41c0,.46,.1,.83,.29,1.11,.19,.27,.46,.41,.81,.41,.31,0,.55-.07,.72-.21s.28-.39,.33-.74h.57Z"/><path d="M156.74,545.17h-1.85v1.51h2.15v.46h-2.71v-4.27h2.68v.46h-2.12v1.37h1.85v.46Z"/><path d="M116.09,553.2c0-.21,.06-.39,.17-.57s.33-.37,.66-.6c-.19-.23-.32-.42-.38-.56s-.1-.28-.1-.42c0-.32,.1-.58,.29-.76s.45-.28,.78-.28c.29,0,.54,.09,.73,.26,.19,.17,.29,.39,.29,.65,0,.17-.04,.33-.13,.48s-.24,.3-.46,.46l-.31,.23,.95,1.13c.13-.25,.2-.54,.2-.85h.49c0,.5-.12,.91-.36,1.24l.61,.73h-.65l-.28-.34c-.14,.13-.31,.23-.51,.29-.19,.07-.39,.1-.59,.1-.42,0-.75-.11-1-.33s-.38-.51-.38-.87Zm1.38,.76c.29,0,.55-.11,.79-.33l-1.04-1.25-.1,.07c-.33,.24-.49,.49-.49,.74,0,.23,.07,.42,.22,.55s.35,.21,.61,.21Zm-.49-2.92c0,.19,.12,.42,.35,.7l.35-.24c.13-.09,.22-.18,.27-.27,.05-.08,.07-.19,.07-.31,0-.13-.05-.24-.15-.33s-.22-.13-.37-.13c-.16,0-.29,.05-.38,.16-.09,.11-.14,.25-.14,.41Z"/><path d="M124.46,550.54h-1.37v3.81h-.56v-3.81h-1.37v-.46h3.3v.46Z"/><path d="M127.71,552.37h-1.85v1.51h2.15v.46h-2.71v-4.27h2.68v.46h-2.12v1.37h1.85v.46Z"/><path d="M130.15,552.44c-.48-.14-.83-.31-1.05-.51-.22-.2-.33-.45-.33-.75,0-.34,.13-.61,.4-.83,.27-.22,.62-.33,1.05-.33,.29,0,.55,.06,.78,.17s.41,.27,.53,.47,.19,.42,.19,.65h-.57c0-.26-.08-.46-.25-.61-.16-.15-.4-.22-.69-.22-.28,0-.49,.06-.65,.18s-.23,.29-.23,.51c0,.17,.07,.32,.22,.44,.15,.12,.4,.23,.75,.33s.63,.21,.83,.33c.2,.12,.35,.26,.45,.42s.14,.35,.14,.57c0,.35-.13,.62-.4,.83-.27,.21-.63,.31-1.08,.31-.29,0-.57-.06-.82-.17-.25-.11-.45-.27-.59-.46s-.21-.42-.21-.67h.57c0,.26,.1,.46,.29,.61,.19,.15,.44,.22,.76,.22,.3,0,.52-.06,.68-.18s.24-.29,.24-.5-.07-.37-.22-.48c-.15-.12-.41-.23-.8-.34Z"/><path d="M135.63,550.54h-1.37v3.81h-.56v-3.81h-1.37v-.46h3.3v.46Z"/><path d="M137.05,554.34h-.56v-4.27h.56v4.27Z"/><path d="M141.53,554.34h-.57l-2.15-3.29v3.29h-.57v-4.27h.57l2.15,3.3v-3.3h.56v4.27Z"/><path d="M145.86,553.78c-.14,.21-.35,.36-.61,.46-.26,.1-.56,.15-.9,.15s-.66-.08-.93-.24-.48-.4-.63-.7-.22-.65-.23-1.05v-.37c0-.64,.15-1.14,.45-1.49s.72-.53,1.26-.53c.45,0,.8,.11,1.08,.34s.44,.55,.5,.97h-.56c-.11-.57-.44-.85-1.01-.85-.38,0-.66,.13-.86,.4s-.29,.65-.29,1.15v.35c0,.48,.11,.86,.33,1.14s.51,.42,.89,.42c.21,0,.4-.02,.55-.07s.29-.13,.39-.24v-.96h-.99v-.46h1.55v1.56Z"/><path d="M115.97,561.54h-.56v-4.27h.56v4.27Z"/><path d="M120.45,561.54h-.57l-2.15-3.29v3.29h-.57v-4.27h.57l2.15,3.3v-3.3h.56v4.27Z"/><path d="M123.08,560.8l1.22-3.52h.62l-1.58,4.27h-.5l-1.58-4.27h.61l1.21,3.52Z"/><path d="M128.13,559.57h-1.85v1.51h2.15v.46h-2.71v-4.27h2.68v.46h-2.12v1.37h1.85v.46Z"/><path d="M132.59,561.54h-.57l-2.15-3.29v3.29h-.57v-4.27h.57l2.15,3.3v-3.3h.56v4.27Z"/><path d="M136.74,557.74h-1.37v3.81h-.56v-3.81h-1.37v-.46h3.3v.46Z"/><path d="M140.73,559.55c0,.42-.07,.78-.21,1.09s-.34,.55-.6,.71-.56,.25-.9,.25-.63-.08-.89-.25c-.26-.16-.46-.4-.6-.71s-.22-.66-.22-1.06v-.31c0-.41,.07-.77,.21-1.09s.34-.55,.61-.72c.26-.17,.56-.25,.89-.25s.64,.08,.9,.25,.46,.4,.6,.72c.14,.31,.21,.68,.21,1.09v.27Zm-.56-.28c0-.51-.1-.89-.3-1.17-.2-.27-.49-.41-.85-.41s-.63,.14-.84,.41c-.2,.27-.31,.65-.32,1.13v.31c0,.49,.1,.88,.31,1.16,.21,.28,.49,.42,.85,.42s.64-.13,.84-.4c.2-.26,.3-.64,.31-1.14v-.32Z"/><path d="M143.32,559.82h-1v1.73h-.57v-4.27h1.41c.48,0,.85,.11,1.11,.33s.39,.54,.39,.96c0,.27-.07,.5-.22,.69s-.34,.34-.6,.44l1,1.81v.04h-.6l-.93-1.73Zm-1-.46h.86c.28,0,.5-.07,.67-.22,.17-.15,.25-.34,.25-.58,0-.26-.08-.47-.24-.61-.16-.14-.38-.21-.68-.21h-.86v1.62Z"/><path d="M146.9,559.42l1.11-2.14h.64l-1.47,2.67v1.59h-.56v-1.59l-1.47-2.67h.64l1.11,2.14Z"/></g><g><path d="M113.92,612.17h-1.85v1.51h2.15v.46h-2.71v-4.27h2.68v.46h-2.12v1.37h1.85v.46Z"/><path d="M115.66,613.68h2.02v.46h-2.59v-4.27h.57v3.81Z"/><path d="M120.94,612.17h-1.85v1.51h2.15v.46h-2.71v-4.27h2.68v.46h-2.12v1.37h1.85v.46Z"/><path d="M125.18,612.79c-.05,.45-.22,.8-.5,1.04s-.65,.37-1.12,.37c-.5,0-.91-.18-1.21-.54s-.46-.84-.46-1.45v-.41c0-.4,.07-.75,.21-1.05s.34-.53,.6-.69c.26-.16,.56-.24,.9-.24,.45,0,.82,.13,1.09,.38,.27,.25,.43,.6,.48,1.05h-.57c-.05-.34-.15-.59-.32-.74-.16-.15-.39-.23-.68-.23-.36,0-.64,.13-.84,.4-.2,.27-.31,.64-.31,1.13v.41c0,.46,.1,.83,.29,1.11,.19,.27,.46,.41,.81,.41,.31,0,.55-.07,.72-.21s.28-.39,.33-.74h.57Z"/><path d="M129.08,610.34h-1.37v3.81h-.56v-3.81h-1.37v-.46h3.3v.46Z"/><path d="M131.48,612.42h-1v1.73h-.57v-4.27h1.41c.48,0,.85,.11,1.11,.33s.39,.54,.39,.96c0,.27-.07,.5-.22,.69s-.34,.34-.6,.44l1,1.81v.04h-.6l-.93-1.73Zm-1-.46h.86c.28,0,.5-.07,.67-.22,.17-.15,.25-.34,.25-.58,0-.26-.08-.47-.24-.61-.16-.14-.38-.21-.68-.21h-.86v1.62Z"/><path d="M134.42,614.14h-.56v-4.27h.56v4.27Z"/><path d="M138.77,612.79c-.05,.45-.22,.8-.5,1.04s-.65,.37-1.12,.37c-.5,0-.91-.18-1.21-.54s-.46-.84-.46-1.45v-.41c0-.4,.07-.75,.21-1.05s.34-.53,.6-.69c.26-.16,.56-.24,.9-.24,.45,0,.82,.13,1.09,.38,.27,.25,.43,.6,.48,1.05h-.57c-.05-.34-.15-.59-.32-.74-.16-.15-.39-.23-.68-.23-.36,0-.64,.13-.84,.4-.2,.27-.31,.64-.31,1.13v.41c0,.46,.1,.83,.29,1.11,.19,.27,.46,.41,.81,.41,.31,0,.55-.07,.72-.21s.28-.39,.33-.74h.57Z"/><path d="M142.04,613.03h-1.79l-.4,1.12h-.58l1.63-4.27h.49l1.63,4.27h-.58l-.41-1.12Zm-1.62-.46h1.45l-.73-2-.72,2Z"/><path d="M144.4,613.68h2.02v.46h-2.59v-4.27h.57v3.81Z"/><path d="M122.26,619.35c0,.42-.07,.78-.21,1.09s-.34,.55-.6,.71-.56,.25-.9,.25-.63-.08-.89-.25c-.26-.16-.46-.4-.6-.71s-.22-.66-.22-1.06v-.31c0-.41,.07-.77,.21-1.09s.34-.55,.61-.72c.26-.17,.56-.25,.89-.25s.64,.08,.9,.25,.46,.4,.6,.72c.14,.31,.21,.68,.21,1.09v.27Zm-.56-.28c0-.51-.1-.89-.3-1.17-.2-.27-.49-.41-.85-.41s-.63,.14-.84,.41c-.2,.27-.31,.65-.32,1.13v.31c0,.49,.1,.88,.31,1.16,.21,.28,.49,.42,.85,.42s.64-.13,.84-.4c.2-.26,.3-.64,.31-1.14v-.32Z"/><path d="M125.64,619.46h-1.79v1.88h-.56v-4.27h2.64v.46h-2.08v1.46h1.79v.46Z"/><path d="M129.14,619.46h-1.79v1.88h-.56v-4.27h2.64v.46h-2.08v1.46h1.79v.46Z"/><path d="M130.88,621.34h-.56v-4.27h.56v4.27Z"/><path d="M135.22,619.99c-.05,.45-.22,.8-.5,1.04s-.65,.37-1.12,.37c-.5,0-.91-.18-1.21-.54s-.46-.84-.46-1.45v-.41c0-.4,.07-.75,.21-1.05s.34-.53,.6-.69c.26-.16,.56-.24,.9-.24,.45,0,.82,.13,1.09,.38,.27,.25,.43,.6,.48,1.05h-.57c-.05-.34-.15-.59-.32-.74-.16-.15-.39-.23-.68-.23-.36,0-.64,.13-.84,.4-.2,.27-.31,.64-.31,1.13v.41c0,.46,.1,.83,.29,1.11,.19,.27,.46,.41,.81,.41,.31,0,.55-.07,.72-.21s.28-.39,.33-.74h.57Z"/><path d="M138.6,619.37h-1.85v1.51h2.15v.46h-2.71v-4.27h2.68v.46h-2.12v1.37h1.85v.46Z"/></g><g><path d="M150.59,660.34h-1.37v3.81h-.56v-3.81h-1.37v-.46h3.3v.46Z"/><path d="M153.84,662.17h-1.85v1.51h2.15v.46h-2.71v-4.27h2.68v.46h-2.12v1.37h1.85v.46Z"/><path d="M156.29,662.24c-.48-.14-.83-.31-1.05-.51-.22-.2-.33-.45-.33-.75,0-.34,.13-.61,.4-.83,.27-.22,.62-.33,1.05-.33,.29,0,.55,.06,.78,.17s.41,.27,.53,.47,.19,.42,.19,.65h-.57c0-.26-.08-.46-.25-.61-.16-.15-.4-.22-.69-.22-.28,0-.49,.06-.65,.18s-.23,.29-.23,.51c0,.17,.07,.32,.22,.44,.15,.12,.4,.23,.75,.33s.63,.21,.83,.33c.2,.12,.35,.26,.45,.42s.15,.35,.15,.57c0,.35-.13,.62-.4,.83-.27,.21-.63,.31-1.08,.31-.29,0-.57-.06-.82-.17-.25-.11-.45-.27-.59-.46s-.21-.42-.21-.67h.57c0,.26,.09,.46,.29,.61,.19,.15,.45,.22,.76,.22,.3,0,.52-.06,.68-.18s.24-.29,.24-.5-.07-.37-.22-.48c-.15-.12-.41-.23-.8-.34Z"/><path d="M161.76,660.34h-1.37v3.81h-.56v-3.81h-1.37v-.46h3.3v.46Z"/><path d="M163.19,664.14h-.56v-4.27h.56v4.27Z"/><path d="M167.67,664.14h-.57l-2.15-3.29v3.29h-.57v-4.27h.57l2.15,3.3v-3.3h.56v4.27Z"/><path d="M171.99,663.58c-.14,.21-.35,.36-.6,.46-.26,.1-.56,.15-.9,.15s-.66-.08-.93-.24-.48-.4-.62-.7-.22-.65-.23-1.05v-.37c0-.64,.15-1.14,.45-1.49s.72-.53,1.26-.53c.45,0,.8,.11,1.08,.34s.44,.55,.5,.97h-.56c-.11-.57-.44-.85-1.01-.85-.38,0-.66,.13-.86,.4s-.29,.65-.29,1.15v.35c0,.48,.11,.86,.33,1.14s.51,.42,.89,.42c.21,0,.4-.02,.55-.07s.29-.13,.39-.24v-.96h-.99v-.46h1.55v1.56Z"/><path d="M151.81,669.99c-.05,.45-.22,.8-.5,1.04s-.65,.37-1.12,.37c-.5,0-.91-.18-1.21-.54s-.46-.84-.46-1.45v-.41c0-.4,.07-.75,.21-1.05s.34-.53,.6-.69c.26-.16,.56-.24,.9-.24,.45,0,.82,.13,1.09,.38,.27,.25,.43,.6,.48,1.05h-.57c-.05-.34-.16-.59-.32-.74-.16-.15-.39-.23-.68-.23-.36,0-.64,.13-.85,.4-.2,.27-.31,.64-.31,1.13v.41c0,.46,.1,.83,.29,1.11,.19,.27,.46,.41,.81,.41,.31,0,.55-.07,.72-.21s.28-.39,.33-.74h.57Z"/><path d="M155.18,669.37h-1.85v1.51h2.15v.46h-2.71v-4.27h2.68v.46h-2.12v1.37h1.85v.46Z"/><path d="M159.63,671.34h-.57l-2.15-3.29v3.29h-.57v-4.27h.57l2.15,3.3v-3.3h.56v4.27Z"/><path d="M163.78,667.54h-1.37v3.81h-.56v-3.81h-1.37v-.46h3.3v.46Z"/><path d="M167.03,669.37h-1.85v1.51h2.15v.46h-2.71v-4.27h2.68v.46h-2.12v1.37h1.85v.46Z"/><path d="M169.77,669.62h-1v1.73h-.57v-4.27h1.41c.48,0,.85,.11,1.11,.33s.39,.54,.39,.96c0,.27-.07,.5-.22,.69s-.34,.34-.6,.44l1,1.81v.04h-.6l-.93-1.73Zm-1-.46h.86c.28,0,.5-.07,.67-.22,.17-.15,.25-.34,.25-.58,0-.26-.08-.47-.24-.61-.16-.14-.38-.21-.68-.21h-.86v1.62Z"/></g><g><path d="M255.41,662.79c-.05,.45-.22,.8-.5,1.04s-.65,.37-1.12,.37c-.5,0-.91-.18-1.21-.54s-.46-.84-.46-1.45v-.41c0-.4,.07-.75,.21-1.05s.34-.53,.6-.69c.26-.16,.56-.24,.9-.24,.45,0,.82,.13,1.09,.38,.27,.25,.43,.6,.48,1.05h-.57c-.05-.34-.15-.59-.32-.74-.16-.15-.39-.23-.68-.23-.36,0-.64,.13-.84,.4-.2,.27-.31,.64-.31,1.13v.41c0,.46,.1,.83,.29,1.11,.19,.27,.46,.41,.81,.41,.31,0,.55-.07,.72-.21s.28-.39,.33-.74h.57Z"/><path d="M259.65,662.15c0,.42-.07,.78-.21,1.09s-.34,.55-.6,.71-.56,.25-.9,.25-.63-.08-.89-.25c-.26-.16-.46-.4-.61-.71s-.22-.66-.22-1.06v-.31c0-.41,.07-.77,.21-1.09s.34-.55,.6-.72c.26-.17,.56-.25,.9-.25s.64,.08,.9,.25,.46,.4,.6,.72c.14,.31,.21,.68,.21,1.09v.27Zm-.56-.28c0-.51-.1-.89-.3-1.17-.2-.27-.49-.41-.85-.41s-.64,.14-.84,.41c-.2,.27-.31,.65-.31,1.13v.31c0,.49,.1,.88,.31,1.16,.21,.28,.49,.42,.85,.42s.64-.13,.84-.4c.2-.26,.3-.64,.31-1.14v-.32Z"/><path d="M261.41,659.88l1.39,3.48,1.39-3.48h.73v4.27h-.56v-1.66l.05-1.79-1.4,3.45h-.43l-1.4-3.45,.06,1.78v1.66h-.56v-4.27h.73Z"/><path d="M266.67,662.47v1.67h-.56v-4.27h1.57c.47,0,.83,.12,1.1,.36s.4,.55,.4,.95c0,.41-.13,.73-.39,.96-.26,.22-.63,.34-1.11,.34h-1Zm0-.46h1.01c.3,0,.53-.07,.69-.21s.24-.35,.24-.61-.08-.46-.24-.61c-.16-.15-.38-.23-.66-.24h-1.04v1.68Z"/><path d="M273.1,659.88v2.9c0,.4-.13,.73-.38,.99s-.59,.4-1.02,.43h-.15c-.47,0-.84-.12-1.12-.37s-.42-.6-.42-1.04v-2.91h.56v2.89c0,.31,.08,.55,.25,.72,.17,.17,.41,.26,.73,.26s.56-.08,.73-.25,.25-.41,.25-.72v-2.89h.57Z"/><path d="M277.19,660.34h-1.37v3.81h-.56v-3.81h-1.37v-.46h3.3v.46Z"/><path d="M280.44,662.17h-1.85v1.51h2.15v.46h-2.71v-4.27h2.68v.46h-2.12v1.37h1.85v.46Z"/><path d="M283.18,662.42h-1v1.73h-.57v-4.27h1.41c.48,0,.85,.11,1.11,.33s.39,.54,.39,.96c0,.27-.07,.5-.21,.69s-.34,.34-.6,.44l1,1.81v.04h-.6l-.93-1.73Zm-1-.46h.86c.28,0,.5-.07,.67-.22,.17-.15,.25-.34,.25-.58,0-.26-.08-.47-.24-.61-.16-.14-.38-.21-.68-.21h-.86v1.62Z"/><path d="M287.36,663.68h2.02v.46h-2.59v-4.27h.57v3.81Z"/><path d="M292.77,663.03h-1.79l-.4,1.12h-.58l1.63-4.27h.49l1.63,4.27h-.58l-.41-1.12Zm-1.62-.46h1.45l-.73-2-.72,2Z"/><path d="M294.56,664.14v-4.27h1.39c.46,0,.81,.1,1.04,.29s.35,.47,.35,.85c0,.2-.06,.38-.17,.53s-.27,.27-.46,.36c.23,.06,.41,.19,.55,.37,.13,.18,.2,.4,.2,.65,0,.38-.12,.68-.37,.9s-.6,.33-1.05,.33h-1.48Zm.56-2.45h.85c.25,0,.44-.06,.59-.18,.15-.12,.22-.29,.22-.5,0-.24-.07-.41-.21-.51s-.34-.16-.62-.16h-.83v1.36Zm0,.45v1.54h.93c.26,0,.47-.07,.62-.2,.15-.13,.23-.32,.23-.56,0-.51-.28-.77-.84-.77h-.94Z"/><path d="M275.59,667.08v.46h-.1c-.42,0-.76,.13-1.01,.38s-.39,.58-.43,1.02c.22-.26,.53-.39,.92-.39s.67,.13,.89,.39,.33,.6,.33,1.01c0,.44-.12,.79-.36,1.05s-.56,.4-.96,.4-.74-.16-.99-.47c-.25-.31-.38-.72-.38-1.21v-.21c0-.79,.17-1.38,.5-1.8s.83-.63,1.5-.64h.1Zm-.71,1.92c-.19,0-.36,.06-.51,.17s-.26,.25-.33,.42v.2c0,.35,.08,.63,.24,.85s.36,.32,.59,.32,.44-.09,.58-.27,.21-.42,.21-.71-.07-.53-.21-.71c-.14-.18-.33-.27-.56-.27Z"/></g><g><path d="M606.41,663.79c-.05,.45-.22,.8-.5,1.04s-.65,.37-1.12,.37c-.5,0-.91-.18-1.21-.54s-.46-.84-.46-1.45v-.41c0-.4,.07-.75,.21-1.05s.34-.53,.6-.69c.26-.16,.56-.24,.9-.24,.45,0,.82,.13,1.09,.38,.27,.25,.43,.6,.48,1.05h-.57c-.05-.34-.15-.59-.32-.74-.16-.15-.39-.23-.68-.23-.36,0-.64,.13-.84,.4-.2,.27-.31,.64-.31,1.13v.41c0,.46,.1,.83,.29,1.11,.19,.27,.46,.41,.81,.41,.31,0,.55-.07,.72-.21s.28-.39,.33-.74h.57Z"/><path d="M610.65,663.15c0,.42-.07,.78-.21,1.09s-.34,.55-.6,.71-.56,.25-.9,.25-.63-.08-.89-.25c-.26-.16-.46-.4-.61-.71s-.22-.66-.22-1.06v-.31c0-.41,.07-.77,.21-1.09s.34-.55,.6-.72c.26-.17,.56-.25,.9-.25s.64,.08,.9,.25,.46,.4,.6,.72c.14,.31,.21,.68,.21,1.09v.27Zm-.56-.28c0-.51-.1-.89-.3-1.17-.2-.27-.49-.41-.85-.41s-.64,.14-.84,.41c-.2,.27-.31,.65-.31,1.13v.31c0,.49,.1,.88,.31,1.16,.21,.28,.49,.42,.85,.42s.64-.13,.84-.4c.2-.26,.3-.64,.31-1.14v-.32Z"/><path d="M612.41,660.88l1.39,3.48,1.39-3.48h.73v4.27h-.56v-1.66l.05-1.79-1.4,3.45h-.43l-1.4-3.45,.06,1.78v1.66h-.56v-4.27h.73Z"/><path d="M617.67,663.47v1.67h-.56v-4.27h1.57c.47,0,.83,.12,1.1,.36s.4,.55,.4,.95c0,.41-.13,.73-.39,.96-.26,.22-.63,.34-1.11,.34h-1Zm0-.46h1.01c.3,0,.53-.07,.69-.21s.24-.35,.24-.61-.08-.46-.24-.61c-.16-.15-.38-.23-.66-.24h-1.04v1.68Z"/><path d="M624.1,660.88v2.9c0,.4-.13,.73-.38,.99s-.59,.4-1.02,.43h-.15c-.47,0-.84-.12-1.12-.37s-.42-.6-.42-1.04v-2.91h.56v2.89c0,.31,.08,.55,.25,.72,.17,.17,.41,.26,.73,.26s.56-.08,.73-.25,.25-.41,.25-.72v-2.89h.57Z"/><path d="M628.19,661.34h-1.37v3.81h-.56v-3.81h-1.37v-.46h3.3v.46Z"/><path d="M631.44,663.17h-1.85v1.51h2.15v.46h-2.71v-4.27h2.68v.46h-2.12v1.37h1.85v.46Z"/><path d="M634.18,663.42h-1v1.73h-.57v-4.27h1.41c.48,0,.85,.11,1.11,.33s.39,.54,.39,.96c0,.27-.07,.5-.21,.69s-.34,.34-.6,.44l1,1.81v.04h-.6l-.93-1.73Zm-1-.46h.86c.28,0,.5-.07,.67-.22,.17-.15,.25-.34,.25-.58,0-.26-.08-.47-.24-.61-.16-.14-.38-.21-.68-.21h-.86v1.62Z"/><path d="M638.36,664.68h2.02v.46h-2.59v-4.27h.57v3.81Z"/><path d="M643.77,664.03h-1.79l-.4,1.12h-.58l1.63-4.27h.49l1.63,4.27h-.58l-.41-1.12Zm-1.62-.46h1.45l-.73-2-.72,2Z"/><path d="M645.56,665.14v-4.27h1.39c.46,0,.81,.1,1.04,.29s.35,.47,.35,.85c0,.2-.06,.38-.17,.53s-.27,.27-.46,.36c.23,.06,.41,.19,.55,.37,.13,.18,.2,.4,.2,.65,0,.38-.12,.68-.37,.9s-.6,.33-1.05,.33h-1.48Zm.56-2.45h.85c.25,0,.44-.06,.59-.18,.15-.12,.22-.29,.22-.5,0-.24-.07-.41-.21-.51s-.34-.16-.62-.16h-.83v1.36Zm0,.45v1.54h.93c.26,0,.47-.07,.62-.2,.15-.13,.23-.32,.23-.56,0-.51-.28-.77-.84-.77h-.94Z"/><path d="M624.71,670.21l.22-2.13h2.19v.5h-1.73l-.13,1.16c.21-.12,.45-.18,.71-.18,.39,0,.7,.13,.93,.39s.34,.6,.34,1.04-.12,.79-.36,1.04-.57,.38-1,.38c-.38,0-.68-.1-.92-.31s-.37-.5-.41-.87h.51c.03,.24,.12,.43,.26,.55,.14,.12,.33,.19,.56,.19,.25,0,.45-.09,.59-.26s.21-.41,.21-.71c0-.29-.08-.51-.23-.69-.16-.17-.36-.26-.62-.26-.24,0-.42,.05-.56,.16l-.14,.12-.43-.11Z"/></g><g><path d="M746.06,665.24c-.48-.14-.83-.31-1.05-.51-.22-.2-.33-.45-.33-.75,0-.34,.13-.61,.4-.83,.27-.22,.62-.33,1.05-.33,.29,0,.55,.06,.78,.17s.41,.27,.53,.47,.19,.42,.19,.65h-.57c0-.26-.08-.46-.25-.61-.16-.15-.4-.22-.69-.22-.28,0-.49,.06-.65,.18s-.23,.29-.23,.51c0,.17,.07,.32,.22,.44,.15,.12,.4,.23,.75,.33s.63,.21,.83,.33c.2,.12,.35,.26,.45,.42s.14,.35,.14,.57c0,.35-.13,.62-.4,.83-.27,.21-.63,.31-1.08,.31-.29,0-.57-.06-.82-.17-.25-.11-.45-.27-.59-.46s-.21-.42-.21-.67h.57c0,.26,.1,.46,.29,.61,.19,.15,.44,.22,.76,.22,.3,0,.52-.06,.68-.18s.24-.29,.24-.5-.07-.37-.22-.48c-.15-.12-.41-.23-.8-.34Z"/><path d="M751.53,663.34h-1.37v3.81h-.56v-3.81h-1.37v-.46h3.3v.46Z"/><path d="M755.29,667.14h-.54v-3.61l-1.09,.4v-.49l1.55-.58h.08v4.29Z"/><path d="M759.45,665.32c0,.63-.11,1.11-.33,1.42s-.56,.46-1.02,.46-.79-.15-1.01-.45c-.22-.3-.33-.75-.34-1.35v-.72c0-.63,.11-1.09,.33-1.4s.56-.46,1.02-.46,.8,.15,1.01,.44,.33,.75,.33,1.36v.7Zm-.54-.74c0-.46-.06-.79-.19-1-.13-.21-.33-.31-.61-.31s-.48,.1-.61,.31-.19,.53-.2,.96v.87c0,.46,.07,.8,.2,1.02,.13,.22,.34,.33,.61,.33s.47-.1,.6-.31,.2-.53,.2-.98v-.89Z"/><path d="M760.51,665l.22-2.13h2.19v.5h-1.73l-.13,1.16c.21-.12,.45-.18,.71-.18,.39,0,.7,.13,.93,.39s.34,.6,.34,1.04-.12,.79-.36,1.04-.57,.38-.99,.38c-.38,0-.68-.1-.92-.31s-.37-.5-.41-.87h.51c.03,.24,.12,.43,.26,.55,.14,.12,.33,.19,.56,.19,.25,0,.45-.09,.59-.26s.22-.41,.22-.71c0-.29-.08-.51-.23-.69-.16-.17-.36-.26-.62-.26-.24,0-.42,.05-.56,.16l-.14,.12-.43-.11Z"/></g><g><path d="M722.8,423.34c-.96-.28-1.67-.62-2.11-1.02s-.66-.9-.66-1.5c0-.67,.27-1.23,.81-1.67s1.24-.66,2.09-.66c.59,0,1.11,.11,1.57,.34s.81,.54,1.07,.94,.38,.83,.38,1.31h-1.13c0-.52-.16-.92-.49-1.22s-.79-.44-1.39-.44c-.55,0-.99,.12-1.3,.37-.31,.24-.47,.58-.47,1.02,0,.35,.15,.64,.44,.88,.29,.24,.8,.46,1.51,.66,.71,.2,1.26,.42,1.66,.66s.7,.52,.89,.84,.29,.7,.29,1.13c0,.69-.27,1.25-.81,1.66s-1.26,.62-2.16,.62c-.59,0-1.13-.11-1.64-.34s-.9-.53-1.17-.92-.41-.83-.41-1.33h1.13c0,.52,.19,.92,.57,1.22s.89,.45,1.53,.45c.59,0,1.05-.12,1.37-.36s.47-.57,.47-.99-.15-.74-.44-.97-.82-.45-1.59-.68Z"/><path d="M733.41,419.53h-2.74v7.61h-1.12v-7.61h-2.74v-.92h6.6v.92Z"/><path d="M744.16,423.15c0,.82-.13,1.53-.39,2.13s-.63,1.06-1.1,1.4l1.52,1.2-.77,.71-1.8-1.43c-.28,.07-.58,.11-.89,.11-.67,0-1.27-.17-1.79-.5s-.92-.8-1.21-1.41-.43-1.32-.44-2.12v-.62c0-.82,.14-1.54,.43-2.17s.69-1.11,1.21-1.44,1.12-.5,1.79-.5,1.29,.17,1.81,.5,.92,.81,1.2,1.43,.42,1.35,.42,2.18v.54Zm-1.12-.55c0-1-.2-1.78-.6-2.32s-.97-.82-1.71-.82-1.26,.27-1.67,.81-.62,1.29-.63,2.25v.63c0,.98,.2,1.75,.61,2.31s.98,.84,1.7,.84,1.29-.26,1.69-.79,.6-1.29,.62-2.28v-.63Z"/><path d="M751.92,418.61v5.8c0,.8-.26,1.46-.76,1.97s-1.18,.8-2.04,.86h-.3c-.93,.01-1.68-.24-2.23-.74s-.84-1.2-.84-2.08v-5.81h1.11v5.78c0,.62,.17,1.1,.51,1.44s.82,.51,1.45,.51,1.12-.17,1.46-.51,.51-.82,.51-1.44v-5.78h1.13Z"/><path d="M758.27,424.91h-3.57l-.8,2.23h-1.16l3.26-8.53h.98l3.26,8.53h-1.15l-.81-2.23Zm-3.23-.92h2.9l-1.45-3.99-1.45,3.99Z"/><path d="M761.51,427.14v-8.53h2.41c.74,0,1.4,.16,1.97,.49s1.01,.79,1.32,1.4,.47,1.3,.47,2.09v.54c0,.8-.16,1.51-.47,2.12s-.75,1.07-1.33,1.39-1.25,.49-2.01,.5h-2.36Zm1.12-7.61v6.69h1.18c.87,0,1.54-.27,2.02-.81,.48-.54,.72-1.31,.72-2.3v-.5c0-.97-.23-1.72-.68-2.26-.46-.54-1.1-.81-1.94-.82h-1.31Z"/><path d="M772.49,423.69h-2v3.45h-1.13v-8.53h2.82c.96,0,1.7,.22,2.22,.66s.78,1.07,.78,1.91c0,.53-.14,.99-.43,1.39s-.69,.69-1.2,.88l2,3.62v.07h-1.21l-1.85-3.45Zm-2-.92h1.73c.56,0,1-.14,1.33-.43,.33-.29,.5-.68,.5-1.16,0-.53-.16-.93-.47-1.21-.31-.28-.77-.42-1.36-.43h-1.72v3.24Z"/><path d="M781.97,424.91h-3.57l-.8,2.23h-1.16l3.26-8.53h.98l3.26,8.53h-1.15l-.81-2.23Zm-3.23-.92h2.9l-1.45-3.99-1.45,3.99Z"/><path d="M791.77,427.14h-1.13l-4.29-6.57v6.57h-1.13v-8.53h1.13l4.31,6.6v-6.6h1.12v8.53Z"/><path d="M800.07,426.02c-.29,.41-.69,.72-1.21,.93s-1.12,.31-1.81,.31-1.31-.16-1.85-.49-.96-.79-1.25-1.39-.45-1.3-.45-2.09v-.74c0-1.29,.3-2.28,.9-2.99s1.44-1.06,2.53-1.06c.89,0,1.61,.23,2.15,.68s.88,1.1,1,1.94h-1.12c-.21-1.13-.88-1.7-2.02-1.7-.75,0-1.33,.26-1.71,.79-.39,.53-.58,1.3-.59,2.3v.7c0,.96,.22,1.72,.66,2.28,.44,.57,1.03,.85,1.78,.85,.42,0,.79-.05,1.11-.14,.32-.09,.58-.25,.79-.47v-1.91h-1.97v-.92h3.09v3.13Z"/><path d="M803.07,426.22h4.04v.92h-5.17v-8.53h1.13v7.61Z"/><path d="M813.27,423.2h-3.7v3.02h4.29v.92h-5.42v-8.53h5.36v.92h-4.24v2.75h3.7v.92Z"/></g><g><path d="M831.02,665.24c-.48-.14-.83-.31-1.05-.51-.22-.2-.33-.45-.33-.75,0-.34,.13-.61,.4-.83,.27-.22,.62-.33,1.05-.33,.29,0,.55,.06,.78,.17s.41,.27,.53,.47,.19,.42,.19,.65h-.57c0-.26-.08-.46-.25-.61-.16-.15-.4-.22-.69-.22-.28,0-.49,.06-.65,.18s-.23,.29-.23,.51c0,.17,.07,.32,.22,.44,.15,.12,.4,.23,.75,.33s.63,.21,.83,.33c.2,.12,.35,.26,.45,.42s.14,.35,.14,.57c0,.35-.13,.62-.4,.83-.27,.21-.63,.31-1.08,.31-.29,0-.57-.06-.82-.17-.25-.11-.45-.27-.59-.46s-.21-.42-.21-.67h.57c0,.26,.1,.46,.29,.61,.19,.15,.44,.22,.76,.22,.3,0,.52-.06,.68-.18s.24-.29,.24-.5-.07-.37-.22-.48c-.15-.12-.41-.23-.8-.34Z"/><path d="M836.49,663.34h-1.37v3.81h-.56v-3.81h-1.37v-.46h3.3v.46Z"/><path d="M840.25,667.14h-.54v-3.61l-1.09,.4v-.49l1.55-.58h.08v4.29Z"/><path d="M844.41,665.32c0,.63-.11,1.11-.33,1.42s-.56,.46-1.02,.46-.79-.15-1.01-.45c-.22-.3-.33-.75-.34-1.35v-.72c0-.63,.11-1.09,.33-1.4s.56-.46,1.02-.46,.8,.15,1.01,.44,.33,.75,.33,1.36v.7Zm-.54-.74c0-.46-.06-.79-.19-1-.13-.21-.33-.31-.61-.31s-.48,.1-.61,.31-.19,.53-.2,.96v.87c0,.46,.07,.8,.2,1.02,.13,.22,.34,.33,.61,.33s.47-.1,.6-.31,.2-.53,.2-.98v-.89Z"/><path d="M847.43,662.88v.46h-.1c-.42,0-.76,.13-1.01,.38s-.39,.58-.43,1.02c.22-.26,.53-.39,.92-.39s.67,.13,.89,.39,.33,.6,.33,1.01c0,.44-.12,.79-.36,1.05s-.56,.4-.96,.4-.74-.16-.99-.47c-.25-.31-.38-.72-.38-1.21v-.21c0-.79,.17-1.38,.5-1.8s.83-.63,1.5-.64h.1Zm-.71,1.92c-.19,0-.36,.06-.51,.17s-.26,.25-.33,.42v.2c0,.35,.08,.63,.24,.85s.36,.32,.59,.32,.44-.09,.58-.27,.21-.42,.21-.71-.07-.53-.21-.71c-.14-.18-.33-.27-.56-.27Z"/></g><g><path d="M944.05,640.24c-.48-.14-.83-.31-1.05-.51-.22-.2-.33-.45-.33-.75,0-.34,.13-.61,.4-.83,.27-.22,.62-.33,1.05-.33,.29,0,.55,.06,.78,.17s.41,.27,.53,.47,.19,.42,.19,.65h-.57c0-.26-.08-.46-.25-.61-.16-.15-.4-.22-.69-.22-.28,0-.49,.06-.65,.18s-.23,.29-.23,.51c0,.17,.07,.32,.22,.44,.15,.12,.4,.23,.75,.33s.63,.21,.83,.33c.2,.12,.35,.26,.45,.42s.14,.35,.14,.57c0,.35-.13,.62-.4,.83-.27,.21-.63,.31-1.08,.31-.29,0-.57-.06-.82-.17-.25-.11-.45-.27-.59-.46s-.21-.42-.21-.67h.57c0,.26,.1,.46,.29,.61,.19,.15,.44,.22,.76,.22,.3,0,.52-.06,.68-.18s.24-.29,.24-.5-.07-.37-.22-.48c-.15-.12-.41-.23-.8-.34Z"/><path d="M949.53,638.34h-1.37v3.81h-.56v-3.81h-1.37v-.46h3.3v.46Z"/><path d="M953.28,642.14h-.54v-3.61l-1.09,.4v-.49l1.55-.58h.08v4.29Z"/><path d="M957.44,640.32c0,.63-.11,1.11-.33,1.42s-.56,.46-1.02,.46-.79-.15-1.01-.45c-.22-.3-.33-.75-.34-1.35v-.72c0-.63,.11-1.09,.33-1.4s.56-.46,1.02-.46,.8,.15,1.01,.44,.33,.75,.33,1.36v.7Zm-.54-.74c0-.46-.06-.79-.19-1-.13-.21-.33-.31-.61-.31s-.48,.1-.61,.31-.19,.53-.2,.96v.87c0,.46,.07,.8,.2,1.02,.13,.22,.34,.33,.61,.33s.47-.1,.6-.31,.2-.53,.2-.98v-.89Z"/><path d="M961.02,638.18l-1.77,3.96h-.57l1.76-3.82h-2.31v-.45h2.88v.3Z"/></g><g><path d="M1033.11,641.14v-4.27h1.2c.37,0,.7,.08,.98,.25s.5,.4,.66,.7,.23,.65,.24,1.04v.27c0,.4-.08,.75-.23,1.06s-.38,.54-.67,.7-.62,.25-1.01,.25h-1.18Zm.56-3.81v3.35h.59c.43,0,.77-.13,1.01-.4,.24-.27,.36-.65,.36-1.15v-.25c0-.48-.11-.86-.34-1.13s-.55-.41-.97-.41h-.66Z"/><path d="M1037.8,641.14h-.56v-4.27h.56v4.27Z"/><path d="M1040.57,639.42h-1v1.73h-.57v-4.27h1.41c.48,0,.85,.11,1.11,.33s.39,.54,.39,.96c0,.27-.07,.5-.21,.69s-.34,.34-.6,.44l1,1.81v.04h-.6l-.93-1.73Zm-1-.46h.86c.28,0,.5-.07,.67-.22,.17-.15,.25-.34,.25-.58,0-.26-.08-.47-.24-.61-.16-.14-.38-.21-.68-.21h-.86v1.62Z"/><path d="M1045.33,639.17h-1.85v1.51h2.15v.46h-2.71v-4.27h2.68v.46h-2.12v1.37h1.85v.46Z"/><path d="M1049.57,639.79c-.05,.45-.22,.8-.5,1.04s-.65,.37-1.12,.37c-.5,0-.91-.18-1.21-.54s-.46-.84-.46-1.45v-.41c0-.4,.07-.75,.21-1.05s.34-.53,.6-.69c.26-.16,.56-.24,.9-.24,.45,0,.82,.13,1.09,.38,.27,.25,.43,.6,.48,1.05h-.57c-.05-.34-.16-.59-.32-.74-.16-.15-.39-.23-.68-.23-.36,0-.64,.13-.85,.4-.2,.27-.31,.64-.31,1.13v.41c0,.46,.1,.83,.29,1.11,.19,.27,.46,.41,.81,.41,.31,0,.55-.07,.72-.21s.28-.39,.33-.74h.57Z"/><path d="M1053.47,637.34h-1.37v3.81h-.56v-3.81h-1.37v-.46h3.3v.46Z"/><path d="M1057.46,639.15c0,.42-.07,.78-.21,1.09s-.34,.55-.6,.71-.56,.25-.9,.25-.63-.08-.89-.25c-.26-.16-.46-.4-.61-.71s-.22-.66-.22-1.06v-.31c0-.41,.07-.77,.21-1.09s.34-.55,.6-.72c.26-.17,.56-.25,.9-.25s.64,.08,.9,.25,.46,.4,.6,.72c.14,.31,.21,.68,.21,1.09v.27Zm-.56-.28c0-.51-.1-.89-.3-1.17-.2-.27-.49-.41-.85-.41s-.64,.14-.84,.41c-.2,.27-.31,.65-.31,1.13v.31c0,.49,.1,.88,.31,1.16,.21,.28,.49,.42,.85,.42s.64-.13,.84-.4c.2-.26,.3-.64,.31-1.14v-.32Z"/><path d="M1060.05,639.42h-1v1.73h-.57v-4.27h1.41c.48,0,.85,.11,1.11,.33s.39,.54,.39,.96c0,.27-.07,.5-.21,.69s-.34,.34-.6,.44l1,1.81v.04h-.6l-.93-1.73Zm-1-.46h.86c.28,0,.5-.07,.67-.22,.17-.15,.25-.34,.25-.58,0-.26-.08-.47-.24-.61-.16-.14-.38-.21-.68-.21h-.86v1.62Z"/><path d="M1062.43,638.08l-.31-.21c.18-.25,.28-.52,.28-.8v-.42h.54v.38c0,.2-.05,.39-.14,.58-.09,.2-.22,.35-.37,.47Z"/><path d="M1065.15,639.24c-.48-.14-.83-.31-1.05-.51-.22-.2-.33-.45-.33-.75,0-.34,.13-.61,.4-.83,.27-.22,.62-.33,1.05-.33,.29,0,.55,.06,.78,.17s.41,.27,.53,.47,.19,.42,.19,.65h-.57c0-.26-.08-.46-.25-.61-.16-.15-.4-.22-.69-.22-.28,0-.49,.06-.65,.18s-.23,.29-.23,.51c0,.17,.07,.32,.22,.44,.15,.12,.4,.23,.75,.33s.63,.21,.83,.33c.2,.12,.35,.26,.45,.42s.14,.35,.14,.57c0,.35-.13,.62-.4,.83-.27,.21-.63,.31-1.08,.31-.29,0-.57-.06-.82-.17-.25-.11-.45-.27-.59-.46s-.21-.42-.21-.67h.57c0,.26,.1,.46,.29,.61,.19,.15,.44,.22,.76,.22,.3,0,.52-.06,.68-.18s.24-.29,.24-.5-.07-.37-.22-.48c-.15-.12-.41-.23-.8-.34Z"/><path d="M1043.69,646.99c-.05,.45-.22,.8-.5,1.04s-.65,.37-1.12,.37c-.5,0-.91-.18-1.21-.54s-.46-.84-.46-1.45v-.41c0-.4,.07-.75,.21-1.05s.34-.53,.6-.69c.26-.16,.56-.24,.9-.24,.45,0,.82,.13,1.09,.38,.27,.25,.43,.6,.48,1.05h-.57c-.05-.34-.16-.59-.32-.74-.16-.15-.39-.23-.68-.23-.36,0-.64,.13-.85,.4-.2,.27-.31,.64-.31,1.13v.41c0,.46,.1,.83,.29,1.11,.19,.27,.46,.41,.81,.41,.31,0,.55-.07,.72-.21s.28-.39,.33-.74h.57Z"/><path d="M1045.21,647.88h2.02v.46h-2.59v-4.27h.57v3.81Z"/><path d="M1048.66,648.34h-.56v-4.27h.56v4.27Z"/><path d="M1053.14,648.34h-.57l-2.15-3.29v3.29h-.57v-4.27h.57l2.15,3.3v-3.3h.56v4.27Z"/><path d="M1054.91,648.34h-.56v-4.27h.56v4.27Z"/><path d="M1059.25,646.99c-.05,.45-.22,.8-.5,1.04s-.65,.37-1.12,.37c-.5,0-.91-.18-1.21-.54s-.46-.84-.46-1.45v-.41c0-.4,.07-.75,.21-1.05s.34-.53,.6-.69c.26-.16,.56-.24,.9-.24,.45,0,.82,.13,1.09,.38,.27,.25,.43,.6,.48,1.05h-.57c-.05-.34-.16-.59-.32-.74-.16-.15-.39-.23-.68-.23-.36,0-.64,.13-.85,.4-.2,.27-.31,.64-.31,1.13v.41c0,.46,.1,.83,.29,1.11,.19,.27,.46,.41,.81,.41,.31,0,.55-.07,.72-.21s.28-.39,.33-.74h.57Z"/></g><g><path d="M984.38,698.24c-.48-.14-.83-.31-1.05-.51-.22-.2-.33-.45-.33-.75,0-.34,.13-.61,.4-.83,.27-.22,.62-.33,1.05-.33,.29,0,.55,.06,.78,.17s.41,.27,.53,.47,.19,.42,.19,.65h-.57c0-.26-.08-.46-.25-.61-.16-.15-.4-.22-.69-.22-.28,0-.49,.06-.65,.18s-.23,.29-.23,.51c0,.17,.07,.32,.22,.44,.15,.12,.4,.23,.75,.33s.63,.21,.83,.33c.2,.12,.35,.26,.45,.42s.15,.35,.15,.57c0,.35-.13,.62-.4,.83-.27,.21-.63,.31-1.08,.31-.29,0-.57-.06-.82-.17-.25-.11-.45-.27-.59-.46s-.21-.42-.21-.67h.57c0,.26,.09,.46,.29,.61,.19,.15,.45,.22,.76,.22,.3,0,.52-.06,.68-.18s.24-.29,.24-.5-.07-.37-.22-.48c-.15-.12-.41-.23-.8-.34Z"/><path d="M989.86,696.34h-1.37v3.81h-.56v-3.81h-1.37v-.46h3.3v.46Z"/><path d="M995.11,698.79c-.05,.45-.22,.8-.5,1.04s-.65,.37-1.12,.37c-.5,0-.91-.18-1.21-.54s-.46-.84-.46-1.45v-.41c0-.4,.07-.75,.21-1.05s.34-.53,.6-.69c.26-.16,.56-.24,.9-.24,.45,0,.82,.13,1.09,.38,.27,.25,.43,.6,.48,1.05h-.57c-.05-.34-.16-.59-.32-.74-.16-.15-.39-.23-.68-.23-.36,0-.64,.13-.85,.4-.2,.27-.31,.64-.31,1.13v.41c0,.46,.1,.83,.29,1.11,.19,.27,.46,.41,.81,.41,.31,0,.55-.07,.72-.21s.28-.39,.33-.74h.57Z"/><path d="M996.64,699.68h2.02v.46h-2.59v-4.27h.57v3.81Z"/><path d="M1000.09,700.14h-.56v-4.27h.56v4.27Z"/><path d="M1004.57,700.14h-.57l-2.15-3.29v3.29h-.57v-4.27h.57l2.15,3.3v-3.3h.56v4.27Z"/><path d="M1006.33,700.14h-.56v-4.27h.56v4.27Z"/><path d="M1010.68,698.79c-.05,.45-.22,.8-.5,1.04s-.65,.37-1.12,.37c-.5,0-.91-.18-1.21-.54s-.46-.84-.46-1.45v-.41c0-.4,.07-.75,.21-1.05s.34-.53,.6-.69c.26-.16,.56-.24,.9-.24,.45,0,.82,.13,1.09,.38,.27,.25,.43,.6,.48,1.05h-.57c-.05-.34-.16-.59-.32-.74-.16-.15-.39-.23-.68-.23-.36,0-.64,.13-.85,.4-.2,.27-.31,.64-.31,1.13v.41c0,.46,.1,.83,.29,1.11,.19,.27,.46,.41,.81,.41,.31,0,.55-.07,.72-.21s.28-.39,.33-.74h.57Z"/></g><g><path d="M400.86,673.26h-1.79v1.88h-.56v-4.27h2.64v.46h-2.08v1.46h1.79v.46Z"/><path d="M404.42,673.17h-1.85v1.51h2.15v.46h-2.71v-4.27h2.68v.46h-2.12v1.37h1.85v.46Z"/><path d="M406.33,670.88l1.39,3.48,1.39-3.48h.73v4.27h-.56v-1.66l.05-1.79-1.4,3.45h-.43l-1.4-3.45,.06,1.78v1.66h-.56v-4.27h.73Z"/><path d="M413.43,674.03h-1.79l-.4,1.12h-.58l1.63-4.27h.49l1.63,4.27h-.58l-.41-1.12Zm-1.62-.46h1.45l-.73-2-.72,2Z"/><path d="M415.78,674.68h2.02v.46h-2.59v-4.27h.57v3.81Z"/><path d="M421.06,673.17h-1.85v1.51h2.15v.46h-2.71v-4.27h2.68v.46h-2.12v1.37h1.85v.46Z"/><path d="M394.98,680.46h-1.79v1.88h-.56v-4.27h2.64v.46h-2.08v1.46h1.79v.46Z"/><path d="M398.24,681.23h-1.79l-.4,1.12h-.58l1.63-4.27h.49l1.63,4.27h-.58l-.41-1.12Zm-1.62-.46h1.45l-.73-2-.72,2Z"/><path d="M403.01,680.99c-.05,.45-.22,.8-.5,1.04s-.65,.37-1.12,.37c-.5,0-.91-.18-1.21-.54s-.46-.84-.46-1.45v-.41c0-.4,.07-.75,.21-1.05s.34-.53,.6-.69c.26-.16,.56-.24,.9-.24,.45,0,.82,.13,1.09,.38,.27,.25,.43,.6,.48,1.05h-.57c-.05-.34-.15-.59-.32-.74-.16-.15-.39-.23-.68-.23-.36,0-.64,.13-.84,.4-.2,.27-.31,.64-.31,1.13v.41c0,.46,.1,.83,.29,1.11,.19,.27,.46,.41,.81,.41,.31,0,.55-.07,.72-.21s.28-.39,.33-.74h.57Z"/><path d="M406.98,678.08v2.9c0,.4-.13,.73-.38,.99s-.59,.4-1.02,.43h-.15c-.47,0-.84-.12-1.12-.37s-.42-.6-.42-1.04v-2.91h.56v2.89c0,.31,.08,.55,.25,.72,.17,.17,.41,.26,.73,.26s.56-.08,.73-.25,.25-.41,.25-.72v-2.89h.57Z"/><path d="M408.66,681.88h2.02v.46h-2.59v-4.27h.57v3.81Z"/><path d="M414.02,678.54h-1.37v3.81h-.56v-3.81h-1.37v-.46h3.3v.46Z"/><path d="M416.36,680.22l1.11-2.14h.64l-1.47,2.67v1.59h-.56v-1.59l-1.47-2.67h.64l1.11,2.14Z"/><path d="M423.29,680.99c-.05,.45-.22,.8-.5,1.04s-.65,.37-1.12,.37c-.5,0-.91-.18-1.21-.54s-.46-.84-.46-1.45v-.41c0-.4,.07-.75,.21-1.05s.34-.53,.6-.69c.26-.16,.56-.24,.9-.24,.45,0,.82,.13,1.09,.38,.27,.25,.43,.6,.48,1.05h-.57c-.05-.34-.15-.59-.32-.74-.16-.15-.39-.23-.68-.23-.36,0-.64,.13-.84,.4-.2,.27-.31,.64-.31,1.13v.41c0,.46,.1,.83,.29,1.11,.19,.27,.46,.41,.81,.41,.31,0,.55-.07,.72-.21s.28-.39,.33-.74h.57Z"/><path d="M425.81,680.62h-1v1.73h-.57v-4.27h1.41c.48,0,.85,.11,1.11,.33s.39,.54,.39,.96c0,.27-.07,.5-.22,.69s-.34,.34-.6,.44l1,1.81v.04h-.6l-.93-1.73Zm-1-.46h.86c.28,0,.5-.07,.67-.22,.17-.15,.25-.34,.25-.58,0-.26-.08-.47-.24-.61-.16-.14-.38-.21-.68-.21h-.86v1.62Z"/></g><g><path d="M476.78,660.88l1.39,3.48,1.39-3.48h.73v4.27h-.56v-1.66l.05-1.79-1.4,3.45h-.43l-1.4-3.45,.06,1.78v1.66h-.56v-4.27h.73Z"/><path d="M483.88,664.03h-1.79l-.4,1.12h-.58l1.63-4.27h.49l1.63,4.27h-.58l-.41-1.12Zm-1.62-.46h1.45l-.73-2-.72,2Z"/><path d="M486.24,664.68h2.02v.46h-2.59v-4.27h.57v3.81Z"/><path d="M491.52,663.17h-1.85v1.51h2.15v.46h-2.71v-4.27h2.68v.46h-2.12v1.37h1.85v.46Z"/><path d="M468.98,670.46h-1.79v1.88h-.56v-4.27h2.64v.46h-2.08v1.46h1.79v.46Z"/><path d="M472.24,671.23h-1.79l-.4,1.12h-.58l1.63-4.27h.49l1.63,4.27h-.58l-.41-1.12Zm-1.62-.46h1.45l-.73-2-.72,2Z"/><path d="M477.01,670.99c-.05,.45-.22,.8-.5,1.04s-.65,.37-1.12,.37c-.5,0-.91-.18-1.21-.54s-.46-.84-.46-1.45v-.41c0-.4,.07-.75,.21-1.05s.34-.53,.6-.69c.26-.16,.56-.24,.9-.24,.45,0,.82,.13,1.09,.38,.27,.25,.43,.6,.48,1.05h-.57c-.05-.34-.15-.59-.32-.74-.16-.15-.39-.23-.68-.23-.36,0-.64,.13-.84,.4-.2,.27-.31,.64-.31,1.13v.41c0,.46,.1,.83,.29,1.11,.19,.27,.46,.41,.81,.41,.31,0,.55-.07,.72-.21s.28-.39,.33-.74h.57Z"/><path d="M480.98,668.08v2.9c0,.4-.13,.73-.38,.99s-.59,.4-1.02,.43h-.15c-.47,0-.84-.12-1.12-.37s-.42-.6-.42-1.04v-2.91h.56v2.89c0,.31,.08,.55,.25,.72,.17,.17,.41,.26,.73,.26s.56-.08,.73-.25,.25-.41,.25-.72v-2.89h.57Z"/><path d="M482.66,671.88h2.02v.46h-2.59v-4.27h.57v3.81Z"/><path d="M488.02,668.54h-1.37v3.81h-.56v-3.81h-1.37v-.46h3.3v.46Z"/><path d="M490.36,670.22l1.11-2.14h.64l-1.47,2.67v1.59h-.56v-1.59l-1.47-2.67h.64l1.11,2.14Z"/><path d="M497.29,670.99c-.05,.45-.22,.8-.5,1.04s-.65,.37-1.12,.37c-.5,0-.91-.18-1.21-.54s-.46-.84-.46-1.45v-.41c0-.4,.07-.75,.21-1.05s.34-.53,.6-.69c.26-.16,.56-.24,.9-.24,.45,0,.82,.13,1.09,.38,.27,.25,.43,.6,.48,1.05h-.57c-.05-.34-.15-.59-.32-.74-.16-.15-.39-.23-.68-.23-.36,0-.64,.13-.84,.4-.2,.27-.31,.64-.31,1.13v.41c0,.46,.1,.83,.29,1.11,.19,.27,.46,.41,.81,.41,.31,0,.55-.07,.72-.21s.28-.39,.33-.74h.57Z"/><path d="M499.81,670.62h-1v1.73h-.57v-4.27h1.41c.48,0,.85,.11,1.11,.33s.39,.54,.39,.96c0,.27-.07,.5-.22,.69s-.34,.34-.6,.44l1,1.81v.04h-.6l-.93-1.73Zm-1-.46h.86c.28,0,.5-.07,.67-.22,.17-.15,.25-.34,.25-.58,0-.26-.08-.47-.24-.61-.16-.14-.38-.21-.68-.21h-.86v1.62Z"/></g><g><path d="M436.86,663.26h-1.79v1.88h-.56v-4.27h2.64v.46h-2.08v1.46h1.79v.46Z"/><path d="M440.42,663.17h-1.85v1.51h2.15v.46h-2.71v-4.27h2.68v.46h-2.12v1.37h1.85v.46Z"/><path d="M442.33,660.88l1.39,3.48,1.39-3.48h.73v4.27h-.56v-1.66l.05-1.79-1.4,3.45h-.43l-1.4-3.45,.06,1.78v1.66h-.56v-4.27h.73Z"/><path d="M449.43,664.03h-1.79l-.4,1.12h-.58l1.63-4.27h.49l1.63,4.27h-.58l-.41-1.12Zm-1.62-.46h1.45l-.73-2-.72,2Z"/><path d="M451.78,664.68h2.02v.46h-2.59v-4.27h.57v3.81Z"/><path d="M457.06,663.17h-1.85v1.51h2.15v.46h-2.71v-4.27h2.68v.46h-2.12v1.37h1.85v.46Z"/><path d="M445.53,670.99c-.05,.45-.22,.8-.5,1.04s-.65,.37-1.12,.37c-.5,0-.91-.18-1.21-.54s-.46-.84-.46-1.45v-.41c0-.4,.07-.75,.21-1.05s.34-.53,.6-.69c.26-.16,.56-.24,.9-.24,.45,0,.82,.13,1.09,.38,.27,.25,.43,.6,.48,1.05h-.57c-.05-.34-.16-.59-.32-.74-.16-.15-.39-.23-.68-.23-.36,0-.64,.13-.85,.4-.2,.27-.31,.64-.31,1.13v.41c0,.46,.1,.83,.29,1.11,.19,.27,.46,.41,.81,.41,.31,0,.55-.07,.72-.21s.28-.39,.33-.74h.57Z"/><path d="M448.05,670.62h-1v1.73h-.57v-4.27h1.41c.48,0,.85,.11,1.11,.33s.39,.54,.39,.96c0,.27-.07,.5-.21,.69s-.34,.34-.6,.44l1,1.81v.04h-.6l-.93-1.73Zm-1-.46h.86c.28,0,.5-.07,.67-.22,.17-.15,.25-.34,.25-.58,0-.26-.08-.47-.24-.61-.16-.14-.38-.21-.68-.21h-.86v1.62Z"/></g><g><path d="M419.99,557.24c-.48-.14-.83-.31-1.05-.51-.22-.2-.33-.45-.33-.75,0-.34,.13-.61,.4-.83,.27-.22,.62-.33,1.05-.33,.29,0,.55,.06,.78,.17s.41,.27,.53,.47,.19,.42,.19,.65h-.57c0-.26-.08-.46-.25-.61-.16-.15-.4-.22-.69-.22-.28,0-.49,.06-.65,.18s-.23,.29-.23,.51c0,.17,.07,.32,.22,.44,.15,.12,.4,.23,.75,.33s.63,.21,.83,.33c.2,.12,.35,.26,.45,.42s.14,.35,.14,.57c0,.35-.13,.62-.4,.83-.27,.21-.63,.31-1.08,.31-.29,0-.57-.06-.82-.17-.25-.11-.45-.27-.59-.46s-.21-.42-.21-.67h.57c0,.26,.1,.46,.29,.61,.19,.15,.44,.22,.76,.22,.3,0,.52-.06,.68-.18s.24-.29,.24-.5-.07-.37-.22-.48c-.15-.12-.41-.23-.8-.34Z"/><path d="M425.46,555.34h-1.37v3.81h-.56v-3.81h-1.37v-.46h3.3v.46Z"/><path d="M429.22,559.14h-.54v-3.61l-1.09,.4v-.49l1.55-.58h.08v4.29Z"/><path d="M433.38,557.32c0,.63-.11,1.11-.33,1.42s-.56,.46-1.02,.46-.79-.15-1.01-.45c-.22-.3-.33-.75-.34-1.35v-.72c0-.63,.11-1.09,.33-1.4s.56-.46,1.02-.46,.8,.15,1.01,.44,.33,.75,.33,1.36v.7Zm-.54-.74c0-.46-.06-.79-.19-1-.13-.21-.33-.31-.61-.31s-.48,.1-.61,.31-.19,.53-.2,.96v.87c0,.46,.07,.8,.2,1.02,.13,.22,.34,.33,.61,.33s.47-.1,.6-.31,.2-.53,.2-.98v-.89Z"/><path d="M436.62,557.71h.59v.44h-.59v.99h-.54v-.99h-1.94v-.32l1.91-2.96h.58v2.83Zm-1.87,0h1.33v-2.09l-.06,.12-1.26,1.97Z"/></g><g><path d="M420.02,490.24c-.48-.14-.83-.31-1.05-.51-.22-.2-.33-.45-.33-.75,0-.34,.13-.61,.4-.83,.27-.22,.62-.33,1.05-.33,.29,0,.55,.06,.78,.17s.41,.27,.53,.47,.19,.42,.19,.65h-.57c0-.26-.08-.46-.25-.61-.16-.15-.4-.22-.69-.22-.28,0-.49,.06-.65,.18s-.23,.29-.23,.51c0,.17,.07,.32,.22,.44,.15,.12,.4,.23,.75,.33s.63,.21,.83,.33c.2,.12,.35,.26,.45,.42s.14,.35,.14,.57c0,.35-.13,.62-.4,.83-.27,.21-.63,.31-1.08,.31-.29,0-.57-.06-.82-.17-.25-.11-.45-.27-.59-.46s-.21-.42-.21-.67h.57c0,.26,.1,.46,.29,.61,.19,.15,.44,.22,.76,.22,.3,0,.52-.06,.68-.18s.24-.29,.24-.5-.07-.37-.22-.48c-.15-.12-.41-.23-.8-.34Z"/><path d="M425.49,488.34h-1.37v3.81h-.56v-3.81h-1.37v-.46h3.3v.46Z"/><path d="M429.25,492.14h-.54v-3.61l-1.09,.4v-.49l1.55-.58h.08v4.29Z"/><path d="M433.41,490.32c0,.63-.11,1.11-.33,1.42s-.56,.46-1.02,.46-.79-.15-1.01-.45c-.22-.3-.33-.75-.34-1.35v-.72c0-.63,.11-1.09,.33-1.4s.56-.46,1.02-.46,.8,.15,1.01,.44,.33,.75,.33,1.36v.7Zm-.54-.74c0-.46-.06-.79-.19-1-.13-.21-.33-.31-.61-.31s-.48,.1-.61,.31-.19,.53-.2,.96v.87c0,.46,.07,.8,.2,1.02,.13,.22,.34,.33,.61,.33s.47-.1,.6-.31,.2-.53,.2-.98v-.89Z"/><path d="M435.09,489.75h.41c.26,0,.46-.07,.6-.2s.22-.31,.22-.53c0-.5-.25-.75-.75-.75-.23,0-.42,.07-.56,.2s-.21,.31-.21,.53h-.54c0-.34,.12-.62,.37-.84s.56-.34,.94-.34c.4,0,.72,.11,.95,.32s.34,.51,.34,.89c0,.19-.06,.37-.18,.54s-.28,.3-.49,.39c.23,.07,.42,.2,.54,.37s.19,.38,.19,.63c0,.38-.12,.69-.38,.91s-.58,.34-.98,.34-.73-.11-.98-.33-.38-.5-.38-.86h.54c0,.22,.07,.4,.22,.54s.34,.2,.59,.2c.26,0,.46-.07,.6-.21s.21-.33,.21-.59-.08-.44-.23-.57-.37-.2-.66-.21h-.41v-.44Z"/></g><g><path d="M420.01,325.24c-.48-.14-.83-.31-1.05-.51-.22-.2-.33-.45-.33-.75,0-.34,.13-.61,.4-.83,.27-.22,.62-.33,1.05-.33,.29,0,.55,.06,.78,.17s.41,.27,.53,.47,.19,.42,.19,.65h-.57c0-.26-.08-.46-.25-.61-.16-.15-.4-.22-.69-.22-.28,0-.49,.06-.65,.18s-.23,.29-.23,.51c0,.17,.07,.32,.22,.44,.15,.12,.4,.23,.75,.33s.63,.21,.83,.33c.2,.12,.35,.26,.45,.42s.15,.35,.15,.57c0,.35-.13,.62-.4,.83-.27,.21-.63,.31-1.08,.31-.29,0-.57-.06-.82-.17-.25-.11-.45-.27-.59-.46s-.21-.42-.21-.67h.57c0,.26,.09,.46,.29,.61,.19,.15,.45,.22,.76,.22,.3,0,.52-.06,.68-.18s.24-.29,.24-.5-.07-.37-.22-.48c-.15-.12-.41-.23-.8-.34Z"/><path d="M425.49,323.34h-1.37v3.81h-.56v-3.81h-1.37v-.46h3.3v.46Z"/><path d="M429.25,327.14h-.54v-3.61l-1.09,.4v-.49l1.55-.58h.08v4.29Z"/><path d="M433.4,325.32c0,.63-.11,1.11-.33,1.42s-.56,.46-1.02,.46-.79-.15-1.01-.45c-.22-.3-.33-.75-.34-1.35v-.72c0-.63,.11-1.09,.33-1.4s.56-.46,1.02-.46,.8,.15,1.01,.44,.33,.75,.33,1.36v.7Zm-.54-.74c0-.46-.06-.79-.19-1-.13-.21-.33-.31-.61-.31s-.48,.1-.61,.31-.19,.53-.2,.96v.87c0,.46,.07,.8,.2,1.02,.13,.22,.34,.33,.61,.33s.47-.1,.6-.31,.2-.53,.2-.98v-.89Z"/><path d="M437.1,327.14h-2.79v-.39l1.48-1.64c.22-.25,.37-.45,.45-.6,.08-.16,.12-.32,.12-.48,0-.22-.07-.41-.2-.55s-.31-.21-.54-.21c-.27,0-.48,.08-.63,.23s-.22,.37-.22,.64h-.54c0-.39,.13-.71,.38-.95s.59-.36,1.02-.36c.4,0,.71,.1,.94,.31,.23,.21,.35,.48,.35,.83,0,.42-.27,.92-.8,1.5l-1.14,1.24h2.14v.44Z"/></g><g><path d="M420.07,257.24c-.48-.14-.83-.31-1.05-.51-.22-.2-.33-.45-.33-.75,0-.34,.13-.61,.4-.83,.27-.22,.62-.33,1.05-.33,.29,0,.55,.06,.78,.17s.41,.27,.53,.47,.19,.42,.19,.65h-.57c0-.26-.08-.46-.25-.61-.16-.15-.4-.22-.69-.22-.28,0-.49,.06-.65,.18s-.23,.29-.23,.51c0,.17,.07,.32,.22,.44,.15,.12,.4,.23,.75,.33s.63,.21,.83,.33c.2,.12,.35,.26,.45,.42s.15,.35,.15,.57c0,.35-.13,.62-.4,.83-.27,.21-.63,.31-1.08,.31-.29,0-.57-.06-.82-.17-.25-.11-.45-.27-.59-.46s-.21-.42-.21-.67h.57c0,.26,.09,.46,.29,.61,.19,.15,.45,.22,.76,.22,.3,0,.52-.06,.68-.18s.24-.29,.24-.5-.07-.37-.22-.48c-.15-.12-.41-.23-.8-.34Z"/><path d="M425.55,255.34h-1.37v3.81h-.56v-3.81h-1.37v-.46h3.3v.46Z"/><path d="M429.3,259.14h-.54v-3.61l-1.09,.4v-.49l1.55-.58h.08v4.29Z"/><path d="M433.46,257.32c0,.63-.11,1.11-.33,1.42s-.56,.46-1.02,.46-.79-.15-1.01-.45c-.22-.3-.33-.75-.34-1.35v-.72c0-.63,.11-1.09,.33-1.4s.56-.46,1.02-.46,.8,.15,1.01,.44,.33,.75,.33,1.36v.7Zm-.54-.74c0-.46-.06-.79-.19-1-.13-.21-.33-.31-.61-.31s-.48,.1-.61,.31-.19,.53-.2,.96v.87c0,.46,.07,.8,.2,1.02,.13,.22,.34,.33,.61,.33s.47-.1,.6-.31,.2-.53,.2-.98v-.89Z"/><path d="M436.03,259.14h-.54v-3.61l-1.09,.4v-.49l1.55-.58h.08v4.29Z"/></g><g><path d="M515.78,660.88l1.39,3.48,1.39-3.48h.73v4.27h-.56v-1.66l.05-1.79-1.4,3.45h-.43l-1.4-3.45,.06,1.78v1.66h-.56v-4.27h.73Z"/><path d="M522.88,664.03h-1.79l-.4,1.12h-.58l1.63-4.27h.49l1.63,4.27h-.58l-.41-1.12Zm-1.62-.46h1.45l-.73-2-.72,2Z"/><path d="M525.24,664.68h2.02v.46h-2.59v-4.27h.57v3.81Z"/><path d="M530.52,663.17h-1.85v1.51h2.15v.46h-2.71v-4.27h2.68v.46h-2.12v1.37h1.85v.46Z"/><path d="M522.53,670.99c-.05,.45-.22,.8-.5,1.04s-.65,.37-1.12,.37c-.5,0-.91-.18-1.21-.54s-.46-.84-.46-1.45v-.41c0-.4,.07-.75,.21-1.05s.34-.53,.6-.69c.26-.16,.56-.24,.9-.24,.45,0,.82,.13,1.09,.38,.27,.25,.43,.6,.48,1.05h-.57c-.05-.34-.16-.59-.32-.74-.16-.15-.39-.23-.68-.23-.36,0-.64,.13-.85,.4-.2,.27-.31,.64-.31,1.13v.41c0,.46,.1,.83,.29,1.11,.19,.27,.46,.41,.81,.41,.31,0,.55-.07,.72-.21s.28-.39,.33-.74h.57Z"/><path d="M525.05,670.62h-1v1.73h-.57v-4.27h1.41c.48,0,.85,.11,1.11,.33s.39,.54,.39,.96c0,.27-.07,.5-.21,.69s-.34,.34-.6,.44l1,1.81v.04h-.6l-.93-1.73Zm-1-.46h.86c.28,0,.5-.07,.67-.22,.17-.15,.25-.34,.25-.58,0-.26-.08-.47-.24-.61-.16-.14-.38-.21-.68-.21h-.86v1.62Z"/></g></g><g><rect class="cls-5" x="393.37" y="616.98" width="16" height="12.8" transform="translate(802.75 1246.76) rotate(180)"/><g><line class="cls-3" x1="398.18" y1="627.54" x2="398.18" y2="624.34"/><line class="cls-3" x1="398.18" y1="624.66" x2="401.38" y2="624.66"/><line class="cls-3" x1="404.57" y1="622.42" x2="404.57" y2="619.22"/><line class="cls-3" x1="404.57" y1="619.54" x2="407.77" y2="619.54"/><line class="cls-3" x1="401.38" y1="624.98" x2="401.38" y2="621.78"/><line class="cls-3" x1="401.38" y1="622.1" x2="404.57" y2="622.1"/><line class="cls-3" x1="394.98" y1="627.22" x2="398.18" y2="627.22"/></g></g><g><rect class="cls-5" x="374.38" y="404.98" width="16" height="12.8" transform="translate(764.75 822.76) rotate(180)"/><g><line class="cls-3" x1="379.18" y1="415.54" x2="379.18" y2="412.34"/><line class="cls-3" x1="379.18" y1="412.66" x2="382.38" y2="412.66"/><line class="cls-3" x1="385.57" y1="410.42" x2="385.57" y2="407.22"/><line class="cls-3" x1="385.57" y1="407.54" x2="388.78" y2="407.54"/><line class="cls-3" x1="382.38" y1="412.98" x2="382.38" y2="409.78"/><line class="cls-3" x1="382.38" y1="410.1" x2="385.57" y2="410.1"/><line class="cls-3" x1="375.98" y1="415.22" x2="379.18" y2="415.22"/></g></g><g><rect class="cls-5" x="928.38" y="212.98" width="16" height="12.8"/><g><line class="cls-3" x1="939.58" y1="215.22" x2="939.58" y2="218.42"/><line class="cls-3" x1="939.58" y1="218.1" x2="936.38" y2="218.1"/><line class="cls-3" x1="933.17" y1="220.34" x2="933.17" y2="223.54"/><line class="cls-3" x1="933.17" y1="223.22" x2="929.97" y2="223.22"/><line class="cls-3" x1="936.38" y1="217.78" x2="936.37" y2="220.98"/><line class="cls-3" x1="936.37" y1="220.66" x2="933.17" y2="220.66"/><line class="cls-3" x1="942.78" y1="215.54" x2="939.58" y2="215.54"/></g></g><g><rect class="cls-5" x="1062.38" y="265.98" width="16" height="12.8"/><g><line class="cls-3" x1="1073.58" y1="268.22" x2="1073.58" y2="271.42"/><line class="cls-3" x1="1073.58" y1="271.1" x2="1070.38" y2="271.1"/><line class="cls-3" x1="1067.17" y1="273.34" x2="1067.17" y2="276.54"/><line class="cls-3" x1="1067.17" y1="276.22" x2="1063.97" y2="276.22"/><line class="cls-3" x1="1070.38" y1="270.78" x2="1070.37" y2="273.98"/><line class="cls-3" x1="1070.37" y1="273.66" x2="1067.17" y2="273.66"/><line class="cls-3" x1="1076.78" y1="268.54" x2="1073.58" y2="268.54"/></g></g><g><rect class="cls-5" x="878.37" y="615.98" width="16" height="12.8" transform="translate(1772.75 1244.76) rotate(-180)"/><g><line class="cls-3" x1="883.18" y1="626.54" x2="883.18" y2="623.34"/><line class="cls-3" x1="883.18" y1="623.66" x2="886.38" y2="623.66"/><line class="cls-3" x1="889.57" y1="621.42" x2="889.57" y2="618.22"/><line class="cls-3" x1="889.57" y1="618.54" x2="892.78" y2="618.54"/><line class="cls-3" x1="886.38" y1="623.98" x2="886.38" y2="620.78"/><line class="cls-3" x1="886.38" y1="621.1" x2="889.57" y2="621.1"/><line class="cls-3" x1="879.98" y1="626.22" x2="883.18" y2="626.22"/></g></g><g><rect class="cls-5" x="510.37" y="212.98" width="16" height="12.8" transform="translate(1036.75 438.76) rotate(180)"/><g><line class="cls-3" x1="515.18" y1="223.54" x2="515.18" y2="220.34"/><line class="cls-3" x1="515.18" y1="220.66" x2="518.37" y2="220.66"/><line class="cls-3" x1="521.58" y1="218.42" x2="521.58" y2="215.22"/><line class="cls-3" x1="521.58" y1="215.54" x2="524.77" y2="215.54"/><line class="cls-3" x1="518.37" y1="220.98" x2="518.37" y2="217.78"/><line class="cls-3" x1="518.37" y1="218.1" x2="521.57" y2="218.1"/><line class="cls-3" x1="511.98" y1="223.22" x2="515.18" y2="223.22"/></g></g></svg>