<?xml version="1.0" encoding="UTF-8"?><svg id="GF" xmlns="http://www.w3.org/2000/svg" viewBox="0 0 1026.36 1281"><defs><style>.cls-1{fill:#fff;}.cls-2{fill:#fff1c2;}.cls-3{fill:#f5f5f5;}.cls-4{fill:#807e78;}.cls-5{fill:#e8b931;}.cls-6{fill:none;stroke:#5a5a5a;stroke-linecap:square;stroke-miterlimit:10;stroke-width:2px;}.cls-7{fill:#b3b3b3;}</style></defs><g><g><rect class="cls-7" x="-.32" y="9" width="464.4" height="19.44"/><polygon class="cls-7" points="19.12 1071.72 19.12 296.28 1.84 296.28 1.84 1071.72 .76 1071.72 .76 1089 1.84 1089 19.12 1089 144.4 1089 144.4 1071.72 19.12 1071.72"/><rect class="cls-7" x="736.68" y="9" width="290" height="25"/><rect class="cls-7" x="700" y="264" width="327" height="826"/></g><g><polygon class="cls-5" points="211.36 296.28 211.36 317.88 211.36 324.36 211.36 348.12 155.2 348.12 155.2 324.36 191.92 324.36 191.92 317.88 155.2 317.88 155.2 296.28 211.36 296.28"/><polygon class="cls-5" points="561.28 168.84 535.36 168.84 535.36 192.6 561.28 192.6 561.28 222.84 582.88 222.84 582.88 168.84 561.28 168.84"/><rect class="cls-5" x="477.04" y="412.92" width="58.32" height="32.4"/><rect class="cls-5" x="477.04" y="829.8" width="58.32" height="32.4"/><rect class="cls-5" x="282.64" y="806.04" width="56.16" height="56.16"/><rect class="cls-5" x="62.32" y="756.36" width="58.32" height="32.4"/></g><g><path class="cls-2" d="M1026.68,264v-24h-214v-74h138v-56h-11v-38h-5v70h-147v98h-51V71h212V34h-212V9h-160.28v127.44h-41.04v32.4h47.52v54h-23.76v-30.24h-23.76v21.6h-17.28v23.76h-54v28.08H155.2v-41.04H-.32v71.28H133.6v460.08h-12.96v32.4h23.76v241.92h114.48v58.82H.5v21.5H1026.5v-21.5h-325.82V264h326Zm-560.44,32.28h131.76v-56.16h39.68v206.88h-83v415.2h-77.64V354.6h-10.8v-58.32Zm-127.44,492.48h114.48v73.44h-90.72v-71.28h-23.76v-2.16ZM155.2,324.36h36.72v-6.48h-36.72v-21.6h56.16v49.68h-56.16v-21.6Zm15.12,537.84v-73.44h112.32v2.16h-23.76v71.28h-88.56Zm168.48-56.16v56.16h-56.16v-56.16h56.16Zm23.76,283.46v-58.82h114.48v-138.24h77.64v197.06h-192.12Z"/><rect class="cls-2" x=".5" y="1260.5" width="1026" height="20.5"/></g><g><polygon class="cls-3" points="464.08 28.44 464.08 266.04 157.36 266.04 157.36 225 1.84 225 1.84 28.44 157.36 28.44 464.08 28.44"/><polygon class="cls-3" points="535.36 9 464.08 9 464.08 214.2 535.36 214.2 535.36 136.44 576.4 136.44 576.4 9 535.36 9"/><rect class="cls-3" x="464.08" y="214.2" width="54" height="23.76"/><rect class="cls-3" x="535.36" y="827.64" width="19.44" height="34.56"/><polygon class="cls-3" points="598 240.12 598 296.28 554.8 296.28 554.8 447.48 639.04 447.48 639.04 298.44 639.04 296.28 639.04 240.12 598 240.12"/><polygon class="cls-3" points="466.24 296.28 466.24 354.6 477.04 354.6 477.04 412.92 554.8 412.92 554.8 354.6 554.8 296.28 466.24 296.28"/><rect class="cls-3" x="477.04" y="445.32" width="77.76" height="384.48"/><rect class="cls-3" x="21.28" y="756.36" width="41.04" height="34.56"/><rect class="cls-3" x="21.28" y="296.28" width="112.32" height="460.08"/><rect class="cls-3" x="362.56" y="788.76" width="90.72" height="73.44"/><rect class="cls-3" x="170.32" y="788.76" width="88.56" height="73.44"/><rect class="cls-3" x="477.04" y="892.44" width="77.76" height="196.56"/><rect class="cls-3" x="362.56" y="1030.68" width="114.48" height="58.32"/><rect class="cls-3" x="144.4" y="1030.68" width="114.48" height="58.32"/><rect class="cls-3" x="19.12" y="788.76" width="125.28" height="282.96"/><rect class="cls-3" x="535.36" y="412.92" width="19.44" height="34.56"/><rect class="cls-3" x="940.68" y="72" width="24" height="38"/><polygon class="cls-3" points="787.68 72 737.68 72 737.68 239 787.68 239 787.68 141 812.68 141 812.68 72 787.68 72"/><rect class="cls-3" x="813.68" y="166" width="136" height="73"/><rect class="cls-3" x="812.68" y="72" width="121" height="69"/><polygon class="cls-3" points="964.68 34 950.68 34 950.68 71 964.68 71 964.68 111 950.68 111 950.68 239 1025.68 239 1025.68 111 1025.68 34 964.68 34"/></g><g><rect class="cls-6" x="169.82" y="789.92" width="88.62" height="72"/><rect class="cls-6" x="363.67" y="789.92" width="88.62" height="72"/><line class="cls-6" x1="258.44" y1="789.92" x2="297.21" y2="789.92"/><line class="cls-6" x1="363.67" y1="789.92" x2="324.9" y2="789.92"/><polyline class="cls-6" points="283.36 861.92 283.36 806.53 338.75 806.53 338.75 861.92"/><polyline class="cls-6" points="363.67 1005.92 452.29 1005.92 452.29 892.38 363.67 892.38"/><polyline class="cls-6" points="258.44 892.38 144.89 892.38 144.89 1005.92 258.44 1005.92"/><rect class="cls-6" x="363.67" y="1030.84" width="113.54" height="58.16"/><rect class="cls-6" x="20.28" y="296.98" width="113.54" height="459.7"/><polygon class="cls-6" points="554.75 296.98 466.13 296.98 466.13 355.13 477.21 355.13 477.21 413.29 554.75 413.29 554.75 296.98"/><polyline class="cls-6" points="477.21 1089 477.21 1003.15 554.75 1003.15 554.75 1089 477.21 1089"/><rect class="cls-6" x="144.89" y="1030.84" width="113.54" height="58.16"/><rect class="cls-6" x="477.21" y="446.52" width="77.54" height="382.16"/><rect class="cls-6" x="477.21" y="892.38" width="77.54" height="110.77"/><polyline class="cls-6" points="568.6 136.36 576.91 136.36 576.91 9 463.36 9 463.36 213.9 535.37 213.9 535.37 136.36 543.67 136.36"/><rect class="cls-6" x="463.36" y="213.9" width="55.39" height="24.92"/><polygon class="cls-6" points=".76 224.98 156.28 224.98 156.28 266.52 463.36 266.52 463.36 28.36 .76 28.36 .76 224.98"/><polygon class="cls-6" points="554.75 296.98 637.83 296.98 599.06 296.98 599.06 241.59 637.83 241.52 637.83 446.52 554.75 446.52 554.75 296.98"/><line class="cls-6" x1="565.83" y1="213.9" x2="576.91" y2="213.9"/><polyline class="cls-6" points="582.44 222.21 582.44 169.59 535.37 169.59 535.37 191.75 560.29 191.75 560.29 222.21"/><line class="cls-6" x1="565.83" y1="208.36" x2="576.91" y2="208.36"/><line class="cls-6" x1="565.83" y1="202.82" x2="576.91" y2="202.82"/><line class="cls-6" x1="565.83" y1="197.28" x2="576.91" y2="197.28"/><line class="cls-6" x1="565.83" y1="191.75" x2="576.91" y2="191.75"/><line class="cls-6" x1="560.29" y1="186.21" x2="560.29" y2="175.13"/><line class="cls-6" x1="554.75" y1="186.21" x2="554.75" y2="175.13"/><line class="cls-6" x1="549.21" y1="186.21" x2="549.21" y2="175.13"/><line class="cls-6" x1="543.67" y1="186.21" x2="543.67" y2="175.13"/><polyline class="cls-6" points="144.89 1089 .89 1089 .89 296.98 20.2 296.98"/><polyline class="cls-6" points="518.75 429.91 477.21 429.91 477.21 413.29 554.75 413.29 554.75 446.52 477.21 446.52"/><line class="cls-6" x1="535.37" y1="413.29" x2="535.37" y2="446.52"/><line class="cls-6" x1="496.6" y1="435.44" x2="496.6" y2="440.98"/><line class="cls-6" x1="491.06" y1="435.44" x2="491.06" y2="440.98"/><line class="cls-6" x1="485.52" y1="435.44" x2="485.52" y2="440.98"/><line class="cls-6" x1="485.52" y1="418.83" x2="485.52" y2="424.37"/><line class="cls-6" x1="502.13" y1="435.44" x2="502.13" y2="440.98"/><line class="cls-6" x1="507.67" y1="435.44" x2="507.67" y2="440.98"/><line class="cls-6" x1="513.21" y1="435.44" x2="513.21" y2="440.98"/><line class="cls-6" x1="518.75" y1="435.44" x2="518.75" y2="440.98"/><line class="cls-6" x1="518.75" y1="418.83" x2="518.75" y2="424.37"/><line class="cls-6" x1="513.21" y1="418.83" x2="513.21" y2="424.37"/><line class="cls-6" x1="507.67" y1="418.83" x2="507.67" y2="424.37"/><line class="cls-6" x1="502.13" y1="418.83" x2="502.13" y2="424.37"/><line class="cls-6" x1="496.6" y1="418.83" x2="496.6" y2="424.37"/><line class="cls-6" x1="491.06" y1="418.83" x2="491.06" y2="424.37"/><polyline class="cls-6" points="477.21 861.92 554.75 861.92 554.75 828.69 477.21 828.69 477.21 845.3 518.75 845.3"/><line class="cls-6" x1="535.37" y1="828.69" x2="535.37" y2="861.92"/><line class="cls-6" x1="491.06" y1="850.84" x2="491.06" y2="856.38"/><line class="cls-6" x1="485.52" y1="850.84" x2="485.52" y2="856.38"/><line class="cls-6" x1="485.52" y1="834.22" x2="485.52" y2="839.76"/><line class="cls-6" x1="496.6" y1="850.84" x2="496.6" y2="856.38"/><line class="cls-6" x1="502.13" y1="850.84" x2="502.13" y2="856.38"/><line class="cls-6" x1="507.67" y1="850.84" x2="507.67" y2="856.38"/><line class="cls-6" x1="513.21" y1="850.84" x2="513.21" y2="856.38"/><line class="cls-6" x1="518.75" y1="850.84" x2="518.75" y2="856.38"/><line class="cls-6" x1="518.75" y1="834.22" x2="518.75" y2="839.76"/><line class="cls-6" x1="513.21" y1="834.22" x2="513.21" y2="839.76"/><line class="cls-6" x1="507.67" y1="834.22" x2="507.67" y2="839.76"/><line class="cls-6" x1="502.13" y1="834.22" x2="502.13" y2="839.76"/><line class="cls-6" x1="496.6" y1="834.22" x2="496.6" y2="839.76"/><line class="cls-6" x1="491.06" y1="834.22" x2="491.06" y2="839.76"/><polyline class="cls-6" points="78.43 773.3 119.97 773.3 119.97 756.68 20.28 756.68 20.28 789.92 125.51 789.92"/><line class="cls-6" x1="61.81" y1="756.68" x2="61.81" y2="787.97"/><line class="cls-6" x1="78.43" y1="778.84" x2="78.43" y2="784.38"/><line class="cls-6" x1="83.97" y1="778.84" x2="83.97" y2="784.38"/><line class="cls-6" x1="89.51" y1="778.84" x2="89.51" y2="784.38"/><line class="cls-6" x1="95.05" y1="778.84" x2="95.05" y2="784.38"/><line class="cls-6" x1="100.59" y1="778.84" x2="100.59" y2="784.38"/><line class="cls-6" x1="106.12" y1="778.84" x2="106.12" y2="784.38"/><line class="cls-6" x1="111.66" y1="778.84" x2="111.66" y2="784.38"/><line class="cls-6" x1="111.66" y1="762.22" x2="111.66" y2="767.76"/><line class="cls-6" x1="78.43" y1="762.22" x2="78.43" y2="767.76"/><line class="cls-6" x1="83.97" y1="762.22" x2="83.97" y2="767.76"/><line class="cls-6" x1="89.51" y1="762.22" x2="89.51" y2="767.76"/><line class="cls-6" x1="95.05" y1="762.22" x2="95.05" y2="767.76"/><line class="cls-6" x1="100.59" y1="762.22" x2="100.59" y2="767.76"/><line class="cls-6" x1="106.12" y1="762.22" x2="106.12" y2="767.76"/><line class="cls-6" x1="288.9" y1="853.61" x2="333.21" y2="853.61"/><line class="cls-6" x1="288.9" y1="848.07" x2="333.21" y2="848.07"/><line class="cls-6" x1="288.9" y1="842.53" x2="333.21" y2="842.53"/><line class="cls-6" x1="288.9" y1="836.99" x2="333.21" y2="836.99"/><line class="cls-6" x1="288.9" y1="831.45" x2="333.21" y2="831.45"/><line class="cls-6" x1="288.9" y1="825.92" x2="333.21" y2="825.92"/><line class="cls-6" x1="288.9" y1="820.38" x2="333.21" y2="820.38"/><line class="cls-6" x1="288.9" y1="814.84" x2="333.21" y2="814.84"/><line class="cls-6" x1="20.28" y1="670.84" x2="133.82" y2="670.84"/><line class="cls-6" x1="20.28" y1="587.76" x2="133.82" y2="587.76"/><line class="cls-6" x1="20.28" y1="543.45" x2="133.82" y2="543.45"/><line class="cls-6" x1="20.28" y1="402.21" x2="133.82" y2="402.21"/><line class="cls-6" x1="477.21" y1="776.07" x2="554.75" y2="776.07"/><line class="cls-6" x1="477.21" y1="751.15" x2="554.75" y2="751.15"/><line class="cls-6" x1="477.21" y1="726.22" x2="554.75" y2="726.22"/><line class="cls-6" x1="477.21" y1="701.3" x2="554.75" y2="701.3"/><line class="cls-6" x1="477.21" y1="676.37" x2="554.75" y2="676.37"/><line class="cls-6" x1="477.21" y1="535.14" x2="554.75" y2="535.14"/><line class="cls-6" x1="477.21" y1="490.83" x2="554.75" y2="490.83"/><line class="cls-6" x1="477.21" y1="355.13" x2="554.75" y2="355.13"/><polyline class="cls-6" points="144.89 1025.31 144.89 1072.38 20.28 1072.38 20.28 789.92 144.89 789.92 144.89 861.92 117.2 861.92"/><line class="cls-6" x1="144.89" y1="886.84" x2="144.89" y2="1011.46"/><line class="cls-6" x1="20.28" y1="861.92" x2="92.28" y2="861.92"/><line class="cls-6" x1="144.89" y1="789.92" x2="144.89" y2="867.46"/><line class="cls-6" x1="407.98" y1="789.92" x2="407.98" y2="861.92"/><line class="cls-6" x1="214.13" y1="789.92" x2="214.13" y2="861.92"/><polyline class="cls-6" points="155.97 346.83 155.97 764.99 452.29 764.99 452.29 288.67 155.97 288.67 155.97 324.67"/><polyline class="cls-6" points="155.97 318.64 191.97 318.64 191.97 324.67 155.97 324.67"/><polyline class="cls-6" points="155.97 296.98 211.36 296.98 211.36 346.83 155.97 346.83"/><line class="cls-6" x1="169.82" y1="330.21" x2="169.82" y2="341.29"/><line class="cls-6" x1="164.28" y1="330.21" x2="164.28" y2="341.29"/><line class="cls-6" x1="175.36" y1="330.21" x2="175.36" y2="341.29"/><line class="cls-6" x1="180.89" y1="330.21" x2="180.89" y2="341.29"/><line class="cls-6" x1="186.43" y1="330.21" x2="186.43" y2="341.29"/><line class="cls-6" x1="191.97" y1="330.21" x2="191.97" y2="341.29"/><line class="cls-6" x1="164.28" y1="302.52" x2="164.28" y2="313.6"/><line class="cls-6" x1="169.82" y1="302.52" x2="169.82" y2="313.6"/><line class="cls-6" x1="175.36" y1="302.52" x2="175.36" y2="313.6"/><line class="cls-6" x1="180.89" y1="302.52" x2="180.89" y2="313.6"/><line class="cls-6" x1="186.43" y1="302.52" x2="186.43" y2="313.6"/><line class="cls-6" x1="191.97" y1="302.52" x2="191.97" y2="313.6"/><polyline class="cls-6" points="950.43 167 812.68 167 812.68 238.64 1026.1 238.64 1026.1 34 950.43 34 950.43 71.65 737.73 71.65 737.73 238.64 787.68 238.64 787.68 142 934.68 142 934.68 71.65"/><line class="cls-6" x1="701.68" y1="264.28" x2="1026.1" y2="264.28"/><polyline class="cls-6" points="950.43 71.65 964.68 71.65 964.68 109 950.43 109.03"/><line class="cls-6" x1="812.68" y1="142" x2="812.68" y2="72"/><line class="cls-6" x1="940.68" y1="71.65" x2="940.68" y2="109"/><line class="cls-6" x1="964.68" y1="90.32" x2="947.68" y2="90.32"/><polyline class="cls-6" points="947.68 98 947.68 109.03 950.68 109 950.43 239.64"/><line class="cls-6" x1="576" y1="1089" x2="555" y2="1089"/><line class="cls-6" x1="1026" y1="1090" x2="682" y2="1089"/></g><g><path d="M250.8,526.17c-1.45-.42-2.5-.93-3.16-1.53s-.99-1.36-.99-2.25c0-1.01,.4-1.84,1.21-2.5s1.85-.99,3.14-.99c.88,0,1.66,.17,2.35,.51s1.22,.81,1.6,1.41,.57,1.25,.57,1.96h-1.7c0-.78-.25-1.39-.74-1.83-.49-.44-1.19-.67-2.08-.67-.83,0-1.48,.18-1.95,.55s-.7,.88-.7,1.53c0,.52,.22,.96,.66,1.33,.44,.36,1.2,.69,2.26,.99,1.06,.3,1.9,.63,2.5,.99s1.05,.78,1.34,1.26,.44,1.05,.44,1.7c0,1.04-.4,1.87-1.21,2.49s-1.89,.94-3.24,.94c-.88,0-1.7-.17-2.46-.5s-1.35-.8-1.76-1.38-.62-1.25-.62-2h1.7c0,.77,.29,1.38,.86,1.83,.57,.45,1.33,.67,2.29,.67,.89,0,1.57-.18,2.05-.54s.71-.86,.71-1.49-.22-1.11-.66-1.45-1.24-.68-2.39-1.02Z"/><path d="M266.55,520.46h-4.11v11.42h-1.68v-11.42h-4.1v-1.38h9.9v1.38Z"/><path d="M282.32,525.89c0,1.24-.2,2.3-.59,3.2s-.94,1.59-1.65,2.1l2.29,1.79-1.15,1.06-2.7-2.14c-.42,.11-.87,.16-1.34,.16-1.01,0-1.9-.25-2.68-.74s-1.38-1.2-1.81-2.12-.65-1.98-.66-3.19v-.92c0-1.23,.21-2.32,.64-3.26s1.03-1.67,1.81-2.17,1.68-.75,2.69-.75,1.94,.25,2.72,.75,1.38,1.21,1.81,2.15,.63,2.03,.63,3.27v.82Zm-1.69-.83c0-1.51-.3-2.67-.9-3.48s-1.46-1.23-2.57-1.23-1.9,.41-2.51,1.22-.93,1.94-.94,3.38v.94c0,1.46,.31,2.62,.92,3.46s1.46,1.27,2.55,1.27,1.93-.4,2.53-1.19,.91-1.93,.92-3.42v-.95Z"/><path d="M290.54,530.94c-.63,.74-1.56,1.12-2.79,1.12-1.01,0-1.79-.29-2.32-.88s-.8-1.46-.8-2.62v-6.19h1.63v6.14c0,1.44,.59,2.16,1.76,2.16,1.24,0,2.07-.46,2.48-1.39v-6.92h1.63v9.51h-1.55l-.04-.94Z"/><path d="M300.46,531.88c-.09-.19-.17-.52-.23-1-.76,.79-1.66,1.18-2.71,1.18-.94,0-1.71-.26-2.31-.79s-.9-1.2-.9-2.02c0-.99,.38-1.76,1.13-2.31s1.81-.82,3.18-.82h1.58v-.75c0-.57-.17-1.02-.51-1.36s-.84-.51-1.5-.51c-.58,0-1.07,.15-1.46,.44s-.59,.65-.59,1.06h-1.63c0-.47,.17-.93,.51-1.38s.79-.79,1.37-1.05,1.21-.39,1.9-.39c1.1,0,1.95,.27,2.58,.82s.94,1.3,.97,2.26v4.38c0,.87,.11,1.57,.33,2.08v.14h-1.71Zm-2.7-1.24c.51,0,.99-.13,1.45-.4s.79-.61,.99-1.03v-1.95h-1.27c-1.99,0-2.99,.58-2.99,1.75,0,.51,.17,.91,.51,1.2s.78,.43,1.31,.43Z"/><path d="M303.99,527.04c0-1.46,.35-2.63,1.04-3.52s1.6-1.33,2.72-1.33,2,.38,2.65,1.14v-4.96h1.63v13.5h-1.49l-.08-1.02c-.65,.8-1.56,1.2-2.72,1.2s-2-.45-2.69-1.35-1.04-2.08-1.04-3.53v-.12Zm1.63,.18c0,1.08,.22,1.92,.67,2.53s1.06,.91,1.85,.91c1.03,0,1.78-.46,2.26-1.39v-4.37c-.49-.9-1.23-1.34-2.24-1.34-.8,0-1.42,.31-1.86,.92s-.67,1.53-.67,2.73Z"/><path d="M319.13,523.83c-.25-.04-.51-.06-.8-.06-1.07,0-1.79,.45-2.17,1.36v6.75h-1.63v-9.51h1.58l.03,1.1c.53-.85,1.29-1.27,2.27-1.27,.32,0,.56,.04,.72,.12v1.51Z"/><path d="M326.14,531.88c-.09-.19-.17-.52-.23-1-.76,.79-1.66,1.18-2.71,1.18-.94,0-1.71-.26-2.31-.79-.6-.53-.9-1.2-.9-2.02,0-.99,.38-1.76,1.13-2.31,.75-.55,1.81-.82,3.18-.82h1.58v-.75c0-.57-.17-1.02-.51-1.36s-.84-.51-1.5-.51c-.58,0-1.07,.15-1.46,.44s-.59,.65-.59,1.06h-1.63c0-.47,.17-.93,.5-1.38s.79-.79,1.37-1.05,1.21-.39,1.9-.39c1.1,0,1.95,.27,2.58,.82s.94,1.3,.97,2.26v4.38c0,.87,.11,1.57,.33,2.08v.14h-1.71Zm-2.7-1.24c.51,0,.99-.13,1.45-.4s.79-.61,.99-1.03v-1.95h-1.27c-1.99,0-2.99,.58-2.99,1.75,0,.51,.17,.91,.51,1.2s.78,.43,1.31,.43Z"/><path d="M331.6,522.37l.05,1.2c.73-.91,1.68-1.37,2.85-1.37,2.01,0,3.02,1.13,3.04,3.4v6.28h-1.63v-6.29c0-.69-.16-1.19-.47-1.52-.31-.33-.79-.49-1.44-.49-.53,0-.99,.14-1.39,.42s-.71,.65-.93,1.11v6.78h-1.63v-9.51h1.54Z"/><path d="M339.61,527.04c0-1.48,.34-2.66,1.03-3.54s1.59-1.31,2.72-1.31,2.07,.41,2.72,1.23l.08-1.05h1.49v9.28c0,1.23-.37,2.2-1.09,2.91-.73,.71-1.71,1.06-2.94,1.06-.69,0-1.36-.15-2.01-.44s-1.16-.69-1.5-1.2l.84-.98c.7,.86,1.55,1.29,2.56,1.29,.79,0,1.41-.22,1.85-.67s.66-1.07,.66-1.88v-.82c-.65,.75-1.54,1.12-2.66,1.12s-2.01-.45-2.7-1.34c-.69-.9-1.03-2.12-1.03-3.67Zm1.63,.18c0,1.07,.22,1.92,.66,2.53s1.05,.92,1.85,.92c1.03,0,1.78-.47,2.26-1.4v-4.34c-.5-.91-1.25-1.36-2.24-1.36-.79,0-1.41,.31-1.85,.92s-.67,1.53-.67,2.73Z"/><path d="M351.86,531.88h-1.63v-13.5h1.63v13.5Z"/><path d="M358.41,532.05c-1.29,0-2.34-.42-3.15-1.27s-1.21-1.98-1.21-3.4v-.3c0-.94,.18-1.79,.54-2.53,.36-.74,.86-1.32,1.51-1.74s1.35-.63,2.11-.63c1.24,0,2.2,.41,2.88,1.22s1.03,1.98,1.03,3.5v.68h-6.44c.02,.94,.3,1.7,.82,2.27,.52,.58,1.19,.87,2,.87,.57,0,1.06-.12,1.46-.35s.75-.54,1.05-.93l.99,.77c-.8,1.22-1.99,1.84-3.59,1.84Zm-.2-8.53c-.66,0-1.21,.24-1.65,.72s-.72,1.15-.83,2.01h4.76v-.12c-.05-.83-.27-1.47-.67-1.92s-.94-.68-1.62-.68Z"/></g><g><path d="M284.91,1060.2c-1.45-.42-2.5-.93-3.16-1.54-.66-.61-.99-1.35-.99-2.24,0-1.01,.4-1.84,1.21-2.5,.81-.66,1.85-.99,3.14-.99,.88,0,1.66,.17,2.35,.51s1.22,.81,1.6,1.41,.57,1.25,.57,1.96h-1.7c0-.78-.25-1.39-.74-1.83-.49-.45-1.19-.67-2.08-.67-.83,0-1.48,.18-1.95,.55-.47,.37-.7,.88-.7,1.53,0,.52,.22,.96,.66,1.32s1.2,.69,2.26,.99c1.06,.3,1.9,.63,2.5,.99,.6,.36,1.05,.78,1.34,1.26s.44,1.04,.44,1.7c0,1.04-.4,1.87-1.21,2.49-.81,.62-1.89,.94-3.24,.94-.88,0-1.7-.17-2.46-.51-.76-.34-1.35-.8-1.76-1.38s-.62-1.25-.62-2h1.7c0,.77,.29,1.38,.86,1.83,.57,.45,1.33,.67,2.29,.67,.89,0,1.57-.18,2.05-.54s.71-.86,.71-1.49-.22-1.11-.66-1.46c-.44-.34-1.24-.68-2.39-1.01Z"/><path d="M300.66,1054.48h-4.11v11.42h-1.68v-11.42h-4.1v-1.38h9.9v1.38Z"/><path d="M316.12,1064.22c-.43,.62-1.04,1.08-1.81,1.39-.78,.31-1.68,.46-2.71,.46s-1.97-.24-2.78-.73c-.81-.49-1.43-1.18-1.88-2.09s-.67-1.95-.68-3.14v-1.12c0-1.93,.45-3.42,1.35-4.48s2.16-1.59,3.79-1.59c1.34,0,2.41,.34,3.23,1.02,.81,.68,1.31,1.65,1.49,2.91h-1.69c-.32-1.7-1.32-2.55-3.02-2.55-1.13,0-1.99,.4-2.57,1.19s-.88,1.95-.88,3.45v1.05c0,1.44,.33,2.58,.98,3.43s1.54,1.27,2.66,1.27c.63,0,1.19-.07,1.66-.21s.87-.38,1.18-.71v-2.87h-2.96v-1.38h4.64v4.69Z"/><path d="M324.54,1065.9c-.09-.19-.17-.52-.23-1-.76,.79-1.66,1.18-2.71,1.18-.94,0-1.71-.26-2.31-.79-.6-.53-.9-1.2-.9-2.02,0-.99,.38-1.76,1.13-2.31,.75-.55,1.81-.82,3.18-.82h1.58v-.75c0-.57-.17-1.02-.51-1.36-.34-.34-.84-.5-1.5-.5-.58,0-1.07,.15-1.46,.44s-.59,.65-.59,1.06h-1.63c0-.47,.17-.93,.51-1.38,.34-.44,.79-.79,1.37-1.05,.58-.26,1.21-.39,1.9-.39,1.1,0,1.95,.28,2.58,.82,.62,.55,.94,1.3,.97,2.26v4.38c0,.87,.11,1.57,.33,2.08v.14h-1.71Zm-2.7-1.24c.51,0,.99-.13,1.45-.4s.79-.61,.99-1.03v-1.95h-1.27c-1.99,0-2.99,.58-2.99,1.75,0,.51,.17,.91,.51,1.2s.78,.43,1.31,.43Z"/><path d="M330.67,1054.09v2.3h1.78v1.26h-1.78v5.9c0,.38,.08,.67,.24,.86,.16,.19,.43,.29,.81,.29,.19,0,.45-.04,.77-.11v1.31c-.43,.12-.84,.17-1.25,.17-.73,0-1.27-.22-1.64-.66s-.55-1.06-.55-1.87v-5.9h-1.73v-1.26h1.73v-2.3h1.63Z"/><path d="M338.29,1066.07c-1.29,0-2.34-.42-3.15-1.27-.81-.85-1.21-1.98-1.21-3.4v-.3c0-.94,.18-1.79,.54-2.53,.36-.74,.86-1.32,1.51-1.74,.65-.42,1.35-.63,2.11-.63,1.24,0,2.2,.41,2.88,1.22s1.03,1.98,1.03,3.5v.68h-6.44c.02,.94,.3,1.7,.82,2.27,.52,.58,1.19,.87,2,.87,.57,0,1.06-.12,1.46-.35s.75-.54,1.05-.93l.99,.77c-.8,1.22-1.99,1.84-3.59,1.84Zm-.2-8.53c-.66,0-1.21,.24-1.65,.72-.45,.48-.72,1.15-.83,2.01h4.76v-.12c-.05-.83-.27-1.46-.67-1.92-.4-.45-.94-.68-1.62-.68Z"/></g></g><g><rect class="cls-4" x="258" y="1111" width="106" height="142"/><rect class="cls-4" x="364" y="1111" width="662" height="150"/><rect class="cls-4" y="1111" width="258" height="150"/><rect class="cls-1" x="258" y="1111" width="106" height="10"/><rect class="cls-1" x="258" y="1131" width="106" height="10"/><rect class="cls-1" x="258" y="1151" width="106" height="10"/><rect class="cls-1" x="258" y="1171" width="106" height="10"/><rect class="cls-1" x="258" y="1191" width="106" height="10"/><rect class="cls-1" x="258" y="1211" width="106" height="10"/><rect class="cls-1" x="258" y="1231" width="106" height="10"/><rect class="cls-1" x="258" y="1251" width="106" height="10"/></g></svg>