<?xml version="1.0" encoding="UTF-8"?><svg id="GF" xmlns="http://www.w3.org/2000/svg" viewBox="0 0 945.44 1180"><defs><style>.cls-1{fill:#fff;}.cls-2{fill:#fff1c2;}.cls-3{fill:#f5f5f5;}.cls-4{fill:#807e78;}.cls-5{fill:#e8b931;}.cls-6{fill:#b3b3b3;}.cls-7{fill:none;stroke:#5a5a5a;stroke-linecap:square;stroke-miterlimit:10;stroke-width:1.7px;}</style></defs><g><rect class="cls-6" x="36.59" y="50" width="394.3" height="16.51"/><polygon class="cls-6" points="53.1 952.31 53.1 293.92 38.43 293.92 38.43 952.31 37.51 952.31 37.51 966.98 38.43 966.98 53.1 966.98 159.47 966.98 159.47 952.31 53.1 952.31"/><rect class="cls-6" x="662.35" y="50" width="246.23" height="21.23"/><rect class="cls-6" x="631.2" y="266.51" width="277.64" height="701.32"/></g><g><polygon class="cls-5" points="216.32 293.92 216.32 312.26 216.32 317.76 216.32 337.93 168.64 337.93 168.64 317.76 199.81 317.76 199.81 312.26 168.64 312.26 168.64 293.92 216.32 293.92"/><polygon class="cls-5" points="513.42 185.71 491.41 185.71 491.41 205.89 513.42 205.89 513.42 231.56 531.76 231.56 531.76 185.71 513.42 185.71"/><rect class="cls-5" x="441.9" y="392.95" width="49.52" height="27.51"/><rect class="cls-5" x="441.9" y="746.91" width="49.52" height="27.51"/><rect class="cls-5" x="276.84" y="726.73" width="47.68" height="47.68"/><rect class="cls-5" x="89.78" y="684.55" width="49.52" height="27.51"/></g><g><path class="cls-2" d="M908.57,266.51v-20.38h-181.7v-62.83h117.17v-47.55h-9.34v-32.26h-4.25v59.43h-124.81v83.21h-43.3V102.64h180v-31.42h-180v-21.23h-136.09v108.2h-34.85v27.51h40.35v45.85h-20.17v-25.68h-20.17v18.34h-14.67v20.17h-45.85v23.84H168.64v-34.85H36.59v60.52h113.71v390.63h-11v27.51h20.17v205.4h97.2v49.94H37.29v18.25H908.42v-18.25h-276.64V266.51h276.79Zm-475.85,27.41h111.87v-47.68h33.69v175.65h-70.47v352.53h-65.92V343.43h-9.17v-49.52Zm-108.2,418.14h97.2v62.35h-77.03v-60.52h-20.17v-1.83ZM168.64,317.76h31.18v-5.5h-31.18v-18.34h47.68v42.18h-47.68v-18.34Zm12.84,456.66v-62.35h95.37v1.83h-20.17v60.52h-75.19Zm143.05-47.68v47.68h-47.68v-47.68h47.68Zm20.17,240.67v-49.94h97.2v-117.37h65.92v167.32h-163.12Z"/><rect class="cls-2" x="37.29" y="1112.59" width="871.13" height="17.41"/></g><g><polygon class="cls-3" points="430.89 66.51 430.89 268.24 170.47 268.24 170.47 233.4 38.43 233.4 38.43 66.51 170.47 66.51 430.89 66.51"/><polygon class="cls-3" points="491.41 50 430.89 50 430.89 224.23 491.41 224.23 491.41 158.2 526.26 158.2 526.26 50 491.41 50"/><rect class="cls-3" x="430.89" y="224.23" width="45.85" height="20.17"/><rect class="cls-3" x="491.41" y="745.07" width="16.51" height="29.34"/><polygon class="cls-3" points="544.6 246.23 544.6 293.92 507.92 293.92 507.92 422.29 579.44 422.29 579.44 295.75 579.44 293.92 579.44 246.23 544.6 246.23"/><polygon class="cls-3" points="432.73 293.92 432.73 343.43 441.9 343.43 441.9 392.95 507.92 392.95 507.92 343.43 507.92 293.92 432.73 293.92"/><rect class="cls-3" x="441.9" y="420.46" width="66.02" height="326.45"/><rect class="cls-3" x="54.93" y="684.55" width="34.85" height="29.34"/><rect class="cls-3" x="54.93" y="293.92" width="95.37" height="390.63"/><rect class="cls-3" x="344.7" y="712.06" width="77.03" height="62.35"/><rect class="cls-3" x="181.48" y="712.06" width="75.19" height="62.35"/><rect class="cls-3" x="441.9" y="800.09" width="66.02" height="166.89"/><rect class="cls-3" x="344.7" y="917.46" width="97.2" height="49.52"/><rect class="cls-3" x="159.47" y="917.46" width="97.2" height="49.52"/><rect class="cls-3" x="53.1" y="712.06" width="106.37" height="240.25"/><rect class="cls-3" x="491.41" y="392.95" width="16.51" height="29.34"/><rect class="cls-3" x="835.55" y="103.49" width="20.38" height="32.26"/><polygon class="cls-3" points="705.65 103.49 663.2 103.49 663.2 245.28 705.65 245.28 705.65 162.08 726.88 162.08 726.88 103.49 705.65 103.49"/><rect class="cls-3" x="727.72" y="183.3" width="115.47" height="61.98"/><rect class="cls-3" x="726.88" y="103.49" width="102.74" height="58.58"/><polygon class="cls-3" points="855.93 71.23 844.04 71.23 844.04 102.64 855.93 102.64 855.93 136.6 844.04 136.6 844.04 245.28 907.72 245.28 907.72 136.6 907.72 71.23 855.93 71.23"/></g><g><rect class="cls-7" x="181.05" y="713.04" width="75.24" height="61.13"/><rect class="cls-7" x="345.64" y="713.04" width="75.24" height="61.13"/><line class="cls-7" x1="256.29" y1="713.04" x2="289.21" y2="713.04"/><line class="cls-7" x1="345.64" y1="713.04" x2="312.72" y2="713.04"/><polyline class="cls-7" points="277.45 774.17 277.45 727.15 324.48 727.15 324.48 774.17"/><polyline class="cls-7" points="345.64 896.44 420.88 896.44 420.88 800.04 345.64 800.04"/><polyline class="cls-7" points="256.29 800.04 159.89 800.04 159.89 896.44 256.29 896.44"/><rect class="cls-7" x="345.64" y="917.6" width="96.4" height="49.38"/><rect class="cls-7" x="54.08" y="294.51" width="96.4" height="390.32"/><polygon class="cls-7" points="507.88 294.51 432.64 294.51 432.64 343.89 442.04 343.89 442.04 393.27 507.88 393.27 507.88 294.51"/><polyline class="cls-7" points="442.04 966.98 442.04 894.09 507.88 894.09 507.88 966.98 442.04 966.98"/><rect class="cls-7" x="159.89" y="917.6" width="96.4" height="49.38"/><rect class="cls-7" x="442.04" y="421.48" width="65.84" height="324.48"/><rect class="cls-7" x="442.04" y="800.04" width="65.84" height="94.05"/><polyline class="cls-7" points="519.64 158.14 526.69 158.14 526.69 50 430.29 50 430.29 223.97 491.42 223.97 491.42 158.14 498.47 158.14"/><rect class="cls-7" x="430.29" y="223.97" width="47.03" height="21.16"/><polygon class="cls-7" points="37.51 233.38 169.55 233.38 169.55 268.65 430.29 268.65 430.29 66.44 37.51 66.44 37.51 233.38"/><polygon class="cls-7" points="507.88 294.51 578.42 294.51 545.5 294.51 545.5 247.48 578.42 247.43 578.42 421.48 507.88 421.48 507.88 294.51"/><line class="cls-7" x1="517.28" y1="223.97" x2="526.69" y2="223.97"/><polyline class="cls-7" points="531.39 231.03 531.39 186.35 491.42 186.35 491.42 205.16 512.58 205.16 512.58 231.03"/><line class="cls-7" x1="517.28" y1="219.27" x2="526.69" y2="219.27"/><line class="cls-7" x1="517.28" y1="214.57" x2="526.69" y2="214.57"/><line class="cls-7" x1="517.28" y1="209.86" x2="526.69" y2="209.86"/><line class="cls-7" x1="517.28" y1="205.16" x2="526.69" y2="205.16"/><line class="cls-7" x1="512.58" y1="200.46" x2="512.58" y2="191.05"/><line class="cls-7" x1="507.88" y1="200.46" x2="507.88" y2="191.05"/><line class="cls-7" x1="503.18" y1="200.46" x2="503.18" y2="191.05"/><line class="cls-7" x1="498.47" y1="200.46" x2="498.47" y2="191.05"/><polyline class="cls-7" points="159.89 966.98 37.62 966.98 37.62 294.51 54.01 294.51"/><polyline class="cls-7" points="477.31 407.37 442.04 407.37 442.04 393.27 507.88 393.27 507.88 421.48 442.04 421.48"/><line class="cls-7" x1="491.42" y1="393.27" x2="491.42" y2="421.48"/><line class="cls-7" x1="458.5" y1="412.08" x2="458.5" y2="416.78"/><line class="cls-7" x1="453.8" y1="412.08" x2="453.8" y2="416.78"/><line class="cls-7" x1="449.1" y1="412.08" x2="449.1" y2="416.78"/><line class="cls-7" x1="449.1" y1="397.97" x2="449.1" y2="402.67"/><line class="cls-7" x1="463.2" y1="412.08" x2="463.2" y2="416.78"/><line class="cls-7" x1="467.91" y1="412.08" x2="467.91" y2="416.78"/><line class="cls-7" x1="472.61" y1="412.08" x2="472.61" y2="416.78"/><line class="cls-7" x1="477.31" y1="412.08" x2="477.31" y2="416.78"/><line class="cls-7" x1="477.31" y1="397.97" x2="477.31" y2="402.67"/><line class="cls-7" x1="472.61" y1="397.97" x2="472.61" y2="402.67"/><line class="cls-7" x1="467.91" y1="397.97" x2="467.91" y2="402.67"/><line class="cls-7" x1="463.2" y1="397.97" x2="463.2" y2="402.67"/><line class="cls-7" x1="458.5" y1="397.97" x2="458.5" y2="402.67"/><line class="cls-7" x1="453.8" y1="397.97" x2="453.8" y2="402.67"/><polyline class="cls-7" points="442.04 774.17 507.88 774.17 507.88 745.96 442.04 745.96 442.04 760.07 477.31 760.07"/><line class="cls-7" x1="491.42" y1="745.96" x2="491.42" y2="774.17"/><line class="cls-7" x1="453.8" y1="764.77" x2="453.8" y2="769.47"/><line class="cls-7" x1="449.1" y1="764.77" x2="449.1" y2="769.47"/><line class="cls-7" x1="449.1" y1="750.66" x2="449.1" y2="755.36"/><line class="cls-7" x1="458.5" y1="764.77" x2="458.5" y2="769.47"/><line class="cls-7" x1="463.2" y1="764.77" x2="463.2" y2="769.47"/><line class="cls-7" x1="467.91" y1="764.77" x2="467.91" y2="769.47"/><line class="cls-7" x1="472.61" y1="764.77" x2="472.61" y2="769.47"/><line class="cls-7" x1="477.31" y1="764.77" x2="477.31" y2="769.47"/><line class="cls-7" x1="477.31" y1="750.66" x2="477.31" y2="755.36"/><line class="cls-7" x1="472.61" y1="750.66" x2="472.61" y2="755.36"/><line class="cls-7" x1="467.91" y1="750.66" x2="467.91" y2="755.36"/><line class="cls-7" x1="463.2" y1="750.66" x2="463.2" y2="755.36"/><line class="cls-7" x1="458.5" y1="750.66" x2="458.5" y2="755.36"/><line class="cls-7" x1="453.8" y1="750.66" x2="453.8" y2="755.36"/><polyline class="cls-7" points="103.46 698.93 138.73 698.93 138.73 684.83 54.08 684.83 54.08 713.04 143.43 713.04"/><line class="cls-7" x1="89.35" y1="684.83" x2="89.35" y2="711.39"/><line class="cls-7" x1="103.46" y1="703.64" x2="103.46" y2="708.34"/><line class="cls-7" x1="108.16" y1="703.64" x2="108.16" y2="708.34"/><line class="cls-7" x1="112.86" y1="703.64" x2="112.86" y2="708.34"/><line class="cls-7" x1="117.56" y1="703.64" x2="117.56" y2="708.34"/><line class="cls-7" x1="122.27" y1="703.64" x2="122.27" y2="708.34"/><line class="cls-7" x1="126.97" y1="703.64" x2="126.97" y2="708.34"/><line class="cls-7" x1="131.67" y1="703.64" x2="131.67" y2="708.34"/><line class="cls-7" x1="131.67" y1="689.53" x2="131.67" y2="694.23"/><line class="cls-7" x1="103.46" y1="689.53" x2="103.46" y2="694.23"/><line class="cls-7" x1="108.16" y1="689.53" x2="108.16" y2="694.23"/><line class="cls-7" x1="112.86" y1="689.53" x2="112.86" y2="694.23"/><line class="cls-7" x1="117.56" y1="689.53" x2="117.56" y2="694.23"/><line class="cls-7" x1="122.27" y1="689.53" x2="122.27" y2="694.23"/><line class="cls-7" x1="126.97" y1="689.53" x2="126.97" y2="694.23"/><line class="cls-7" x1="282.15" y1="767.12" x2="319.77" y2="767.12"/><line class="cls-7" x1="282.15" y1="762.42" x2="319.77" y2="762.42"/><line class="cls-7" x1="282.15" y1="757.72" x2="319.77" y2="757.72"/><line class="cls-7" x1="282.15" y1="753.01" x2="319.77" y2="753.01"/><line class="cls-7" x1="282.15" y1="748.31" x2="319.77" y2="748.31"/><line class="cls-7" x1="282.15" y1="743.61" x2="319.77" y2="743.61"/><line class="cls-7" x1="282.15" y1="738.91" x2="319.77" y2="738.91"/><line class="cls-7" x1="282.15" y1="734.2" x2="319.77" y2="734.2"/><line class="cls-7" x1="54.08" y1="611.94" x2="150.48" y2="611.94"/><line class="cls-7" x1="54.08" y1="541.4" x2="150.48" y2="541.4"/><line class="cls-7" x1="54.08" y1="503.78" x2="150.48" y2="503.78"/><line class="cls-7" x1="54.08" y1="383.86" x2="150.48" y2="383.86"/><line class="cls-7" x1="442.04" y1="701.28" x2="507.88" y2="701.28"/><line class="cls-7" x1="442.04" y1="680.12" x2="507.88" y2="680.12"/><line class="cls-7" x1="442.04" y1="658.96" x2="507.88" y2="658.96"/><line class="cls-7" x1="442.04" y1="637.8" x2="507.88" y2="637.8"/><line class="cls-7" x1="442.04" y1="616.64" x2="507.88" y2="616.64"/><line class="cls-7" x1="442.04" y1="496.72" x2="507.88" y2="496.72"/><line class="cls-7" x1="442.04" y1="459.1" x2="507.88" y2="459.1"/><line class="cls-7" x1="442.04" y1="343.89" x2="507.88" y2="343.89"/><polyline class="cls-7" points="159.89 912.9 159.89 952.87 54.08 952.87 54.08 713.04 159.89 713.04 159.89 774.17 136.37 774.17"/><line class="cls-7" x1="159.89" y1="795.34" x2="159.89" y2="901.14"/><line class="cls-7" x1="54.08" y1="774.17" x2="115.21" y2="774.17"/><line class="cls-7" x1="159.89" y1="713.04" x2="159.89" y2="778.88"/><line class="cls-7" x1="383.26" y1="713.04" x2="383.26" y2="774.17"/><line class="cls-7" x1="218.67" y1="713.04" x2="218.67" y2="774.17"/><polyline class="cls-7" points="169.29 336.83 169.29 691.88 420.88 691.88 420.88 287.46 169.29 287.46 169.29 318.02"/><polyline class="cls-7" points="169.29 312.9 199.86 312.9 199.86 318.02 169.29 318.02"/><polyline class="cls-7" points="169.29 294.51 216.32 294.51 216.32 336.83 169.29 336.83"/><line class="cls-7" x1="181.05" y1="322.73" x2="181.05" y2="332.13"/><line class="cls-7" x1="176.35" y1="322.73" x2="176.35" y2="332.13"/><line class="cls-7" x1="185.75" y1="322.73" x2="185.75" y2="332.13"/><line class="cls-7" x1="190.45" y1="322.73" x2="190.45" y2="332.13"/><line class="cls-7" x1="195.16" y1="322.73" x2="195.16" y2="332.13"/><line class="cls-7" x1="199.86" y1="322.73" x2="199.86" y2="332.13"/><line class="cls-7" x1="176.35" y1="299.21" x2="176.35" y2="308.62"/><line class="cls-7" x1="181.05" y1="299.21" x2="181.05" y2="308.62"/><line class="cls-7" x1="185.75" y1="299.21" x2="185.75" y2="308.62"/><line class="cls-7" x1="190.45" y1="299.21" x2="190.45" y2="308.62"/><line class="cls-7" x1="195.16" y1="299.21" x2="195.16" y2="308.62"/><line class="cls-7" x1="199.86" y1="299.21" x2="199.86" y2="308.62"/><polyline class="cls-7" points="843.83 184.15 726.88 184.15 726.88 244.98 908.08 244.98 908.08 71.23 843.83 71.23 843.83 103.19 663.24 103.19 663.24 244.98 705.65 244.98 705.65 162.92 830.46 162.92 830.46 103.19"/><line class="cls-7" x1="632.63" y1="266.75" x2="908.08" y2="266.75"/><polyline class="cls-7" points="843.83 103.19 855.93 103.19 855.93 134.91 843.83 134.93"/><line class="cls-7" x1="726.88" y1="162.92" x2="726.88" y2="103.49"/><line class="cls-7" x1="835.55" y1="103.19" x2="835.55" y2="134.91"/><line class="cls-7" x1="855.93" y1="119.05" x2="841.5" y2="119.05"/><polyline class="cls-7" points="841.5 125.57 841.5 134.93 844.04 134.91 843.83 245.83"/><line class="cls-7" x1="525.92" y1="966.98" x2="508.09" y2="966.98"/><line class="cls-7" x1="908" y1="967.83" x2="615.92" y2="966.98"/></g><g><path d="M249.8,489.11c-1.23-.35-2.12-.79-2.68-1.3s-.84-1.15-.84-1.91c0-.86,.34-1.56,1.03-2.12s1.57-.84,2.67-.84c.75,0,1.41,.14,2,.43s1.04,.69,1.36,1.19,.48,1.06,.48,1.66h-1.44c0-.66-.21-1.18-.63-1.55-.42-.38-1.01-.57-1.77-.57-.71,0-1.26,.16-1.65,.47s-.59,.74-.59,1.3c0,.44,.19,.82,.56,1.13,.38,.31,1.01,.59,1.92,.84,.9,.25,1.61,.53,2.12,.84s.89,.66,1.13,1.07,.37,.89,.37,1.44c0,.88-.34,1.59-1.03,2.12s-1.6,.79-2.75,.79c-.75,0-1.44-.14-2.09-.43s-1.15-.68-1.5-1.18-.53-1.06-.53-1.69h1.44c0,.66,.24,1.18,.73,1.56,.49,.38,1.13,.57,1.94,.57,.76,0,1.34-.15,1.74-.46s.6-.73,.6-1.26-.19-.94-.56-1.23-1.05-.58-2.03-.86Z"/><path d="M263.18,484.26h-3.49v9.69h-1.43v-9.69h-3.48v-1.17h8.4v1.17Z"/><path d="M276.57,488.87c0,1.05-.17,1.95-.5,2.71s-.8,1.35-1.4,1.78l1.94,1.52-.98,.9-2.29-1.82c-.36,.09-.74,.13-1.13,.13-.86,0-1.61-.21-2.28-.63s-1.18-1.02-1.54-1.8-.55-1.68-.56-2.71v-.78c0-1.04,.18-1.97,.54-2.77s.88-1.41,1.54-1.84,1.42-.64,2.28-.64,1.65,.21,2.31,.63,1.18,1.03,1.53,1.82,.54,1.72,.54,2.78v.69Zm-1.43-.7c0-1.28-.25-2.26-.76-2.96s-1.24-1.04-2.18-1.04-1.61,.34-2.13,1.03-.79,1.65-.8,2.87v.8c0,1.24,.26,2.22,.78,2.94s1.24,1.07,2.17,1.07,1.64-.34,2.15-1.01,.77-1.64,.78-2.9v-.81Z"/><path d="M283.55,493.15c-.54,.63-1.33,.95-2.37,.95-.86,0-1.52-.25-1.97-.75s-.68-1.24-.68-2.22v-5.25h1.38v5.22c0,1.22,.5,1.84,1.49,1.84,1.05,0,1.76-.39,2.1-1.18v-5.87h1.38v8.07h-1.31l-.03-.8Z"/><path d="M291.97,493.95c-.08-.16-.14-.44-.19-.85-.64,.67-1.41,1-2.3,1-.8,0-1.45-.22-1.96-.67s-.76-1.02-.76-1.71c0-.84,.32-1.49,.96-1.96s1.54-.7,2.7-.7h1.34v-.63c0-.48-.14-.87-.43-1.15s-.71-.43-1.28-.43c-.49,0-.91,.12-1.24,.37s-.5,.55-.5,.9h-1.39c0-.4,.14-.79,.43-1.17s.67-.67,1.16-.89,1.03-.33,1.62-.33c.93,0,1.66,.23,2.19,.7s.8,1.11,.82,1.92v3.72c0,.74,.09,1.33,.28,1.77v.12h-1.45Zm-2.29-1.05c.43,0,.84-.11,1.23-.34s.67-.51,.84-.87v-1.66h-1.08c-1.69,0-2.54,.5-2.54,1.49,0,.43,.14,.77,.43,1.01s.66,.37,1.11,.37Z"/><path d="M294.97,489.85c0-1.24,.29-2.23,.88-2.99s1.36-1.13,2.31-1.13,1.69,.32,2.25,.97v-4.21h1.38v11.46h-1.27l-.07-.87c-.55,.68-1.32,1.01-2.31,1.01s-1.7-.38-2.29-1.15-.88-1.77-.88-3v-.1Zm1.38,.16c0,.92,.19,1.63,.57,2.15s.9,.78,1.57,.78c.88,0,1.51-.39,1.92-1.18v-3.71c-.41-.76-1.05-1.14-1.9-1.14-.68,0-1.2,.26-1.58,.78s-.57,1.3-.57,2.32Z"/><path d="M307.82,487.12c-.21-.03-.44-.05-.68-.05-.91,0-1.52,.39-1.84,1.16v5.73h-1.38v-8.07h1.34l.02,.93c.45-.72,1.09-1.08,1.93-1.08,.27,0,.47,.03,.61,.1v1.28Z"/><path d="M313.78,493.95c-.08-.16-.14-.44-.19-.85-.64,.67-1.41,1-2.3,1-.8,0-1.45-.22-1.96-.67-.51-.45-.77-1.02-.77-1.71,0-.84,.32-1.49,.96-1.96,.64-.47,1.54-.7,2.7-.7h1.34v-.63c0-.48-.14-.87-.43-1.15s-.71-.43-1.28-.43c-.49,0-.91,.12-1.24,.37s-.5,.55-.5,.9h-1.39c0-.4,.14-.79,.43-1.17s.67-.67,1.16-.89,1.03-.33,1.62-.33c.93,0,1.66,.23,2.19,.7s.8,1.11,.82,1.92v3.72c0,.74,.09,1.33,.28,1.77v.12h-1.45Zm-2.29-1.05c.43,0,.84-.11,1.23-.34s.67-.51,.84-.87v-1.66h-1.08c-1.69,0-2.54,.5-2.54,1.49,0,.43,.14,.77,.43,1.01s.66,.37,1.11,.37Z"/><path d="M318.41,485.88l.04,1.01c.62-.78,1.42-1.16,2.42-1.16,1.71,0,2.57,.96,2.58,2.89v5.34h-1.38v-5.34c0-.58-.14-1.01-.4-1.29-.26-.28-.67-.42-1.22-.42-.45,0-.84,.12-1.18,.36s-.6,.55-.79,.94v5.75h-1.38v-8.07h1.31Z"/><path d="M325.21,489.85c0-1.26,.29-2.26,.87-3s1.35-1.12,2.31-1.12,1.75,.35,2.31,1.04l.07-.9h1.26v7.88c0,1.04-.31,1.87-.93,2.47-.62,.6-1.45,.9-2.5,.9-.58,0-1.15-.12-1.71-.37s-.98-.59-1.28-1.02l.72-.83c.59,.73,1.32,1.1,2.17,1.1,.67,0,1.19-.19,1.57-.57s.56-.91,.56-1.6v-.69c-.55,.64-1.31,.96-2.26,.96s-1.71-.38-2.29-1.14c-.59-.76-.88-1.8-.88-3.11Zm1.39,.16c0,.91,.19,1.63,.56,2.15s.9,.78,1.57,.78c.87,0,1.51-.4,1.92-1.19v-3.69c-.42-.77-1.06-1.16-1.9-1.16-.67,0-1.2,.26-1.57,.78s-.57,1.3-.57,2.32Z"/><path d="M335.61,493.95h-1.38v-11.46h1.38v11.46Z"/><path d="M341.17,494.1c-1.09,0-1.99-.36-2.67-1.08s-1.03-1.68-1.03-2.88v-.25c0-.8,.15-1.52,.46-2.15,.31-.63,.73-1.12,1.28-1.48s1.15-.53,1.79-.53c1.05,0,1.87,.35,2.45,1.04s.87,1.68,.87,2.97v.57h-5.47c.02,.8,.25,1.44,.7,1.93,.44,.49,1.01,.73,1.7,.73,.49,0,.9-.1,1.24-.3s.63-.46,.89-.79l.84,.66c-.68,1.04-1.69,1.56-3.04,1.56Zm-.17-7.24c-.56,0-1.02,.2-1.4,.61s-.61,.97-.7,1.7h4.04v-.1c-.04-.7-.23-1.24-.57-1.63s-.8-.58-1.37-.58Z"/></g><g><path d="M278.77,942.52c-1.23-.35-2.12-.79-2.68-1.3-.56-.51-.84-1.15-.84-1.91,0-.86,.34-1.56,1.03-2.12,.68-.56,1.57-.84,2.67-.84,.75,0,1.41,.14,2,.43s1.04,.69,1.36,1.19,.48,1.06,.48,1.66h-1.44c0-.66-.21-1.18-.63-1.55-.42-.38-1.01-.57-1.77-.57-.71,0-1.26,.16-1.65,.47-.4,.31-.59,.74-.59,1.3,0,.44,.19,.82,.56,1.12s1.01,.59,1.92,.84c.9,.26,1.61,.53,2.12,.84,.51,.31,.89,.66,1.13,1.07s.37,.89,.37,1.44c0,.88-.34,1.59-1.03,2.12-.69,.53-1.6,.79-2.75,.79-.75,0-1.44-.14-2.09-.43-.65-.29-1.15-.68-1.5-1.17s-.53-1.06-.53-1.69h1.44c0,.66,.24,1.18,.73,1.56,.49,.38,1.13,.57,1.94,.57,.76,0,1.34-.15,1.74-.46s.6-.73,.6-1.26-.19-.94-.56-1.24c-.37-.29-1.05-.58-2.03-.86Z"/><path d="M292.14,937.67h-3.49v9.69h-1.43v-9.69h-3.48v-1.17h8.4v1.17Z"/><path d="M305.26,945.94c-.37,.53-.88,.92-1.54,1.18-.66,.26-1.43,.39-2.3,.39s-1.67-.21-2.36-.62c-.69-.41-1.22-1-1.59-1.77s-.57-1.65-.58-2.66v-.95c0-1.64,.38-2.91,1.15-3.81s1.84-1.35,3.22-1.35c1.13,0,2.05,.29,2.74,.87,.69,.58,1.11,1.4,1.27,2.47h-1.43c-.27-1.44-1.12-2.16-2.57-2.16-.96,0-1.69,.34-2.18,1.01s-.74,1.65-.75,2.93v.89c0,1.22,.28,2.19,.84,2.91s1.31,1.08,2.26,1.08c.54,0,1.01-.06,1.41-.18s.74-.32,1-.6v-2.43h-2.51v-1.17h3.94v3.98Z"/><path d="M312.42,947.37c-.08-.16-.14-.44-.19-.85-.64,.67-1.41,1-2.3,1-.8,0-1.45-.22-1.96-.67-.51-.45-.76-1.02-.76-1.71,0-.84,.32-1.49,.96-1.96,.64-.46,1.54-.7,2.7-.7h1.34v-.63c0-.48-.14-.87-.43-1.15-.29-.29-.71-.43-1.28-.43-.49,0-.91,.12-1.24,.37s-.5,.55-.5,.9h-1.39c0-.4,.14-.79,.43-1.17,.29-.37,.67-.67,1.16-.89,.49-.22,1.03-.33,1.62-.33,.93,0,1.66,.23,2.19,.7,.53,.47,.8,1.11,.82,1.92v3.72c0,.74,.09,1.33,.28,1.77v.12h-1.45Zm-2.29-1.05c.43,0,.84-.11,1.23-.34s.67-.51,.84-.87v-1.66h-1.08c-1.69,0-2.54,.49-2.54,1.48,0,.43,.14,.77,.43,1.01s.66,.37,1.11,.37Z"/><path d="M317.62,937.34v1.96h1.51v1.07h-1.51v5.01c0,.32,.07,.57,.2,.73,.13,.16,.36,.24,.69,.24,.16,0,.38-.03,.66-.09v1.11c-.36,.1-.72,.15-1.06,.15-.62,0-1.08-.19-1.4-.56s-.47-.9-.47-1.59v-5.01h-1.47v-1.07h1.47v-1.96h1.38Z"/><path d="M324.09,947.52c-1.09,0-1.99-.36-2.67-1.08-.69-.72-1.03-1.68-1.03-2.88v-.25c0-.8,.15-1.52,.46-2.15,.31-.63,.73-1.12,1.28-1.48,.55-.35,1.15-.53,1.79-.53,1.05,0,1.87,.35,2.45,1.04s.87,1.68,.87,2.97v.57h-5.47c.02,.8,.25,1.44,.7,1.93,.44,.49,1.01,.74,1.7,.74,.49,0,.9-.1,1.24-.3s.63-.46,.89-.79l.84,.66c-.68,1.04-1.69,1.56-3.04,1.56Zm-.17-7.24c-.56,0-1.02,.2-1.4,.61-.38,.41-.61,.97-.7,1.7h4.04v-.1c-.04-.7-.23-1.24-.57-1.63-.34-.38-.8-.58-1.37-.58Z"/></g><g><rect class="cls-4" x="255.92" y="985.66" width="90" height="120.57"/><rect class="cls-4" x="345.92" y="985.66" width="562.08" height="127.36"/><rect class="cls-4" x="36.86" y="985.66" width="219.06" height="127.36"/><rect class="cls-1" x="255.92" y="985.66" width="90" height="8.49"/><rect class="cls-1" x="255.92" y="1002.64" width="90" height="8.49"/><rect class="cls-1" x="255.92" y="1019.62" width="90" height="8.49"/><rect class="cls-1" x="255.92" y="1036.6" width="90" height="8.49"/><rect class="cls-1" x="255.92" y="1053.58" width="90" height="8.49"/><rect class="cls-1" x="255.92" y="1070.57" width="90" height="8.49"/><rect class="cls-1" x="255.92" y="1087.55" width="90" height="8.49"/><rect class="cls-1" x="255.92" y="1104.53" width="90" height="8.49"/></g></svg>